<?xml version="1.0" encoding="utf-8"?>
<!-- Generator: Adobe Illustrator 25.3.1, SVG Export Plug-In . SVG Version: 6.00 Build 0)  -->
<svg version="1.1" id="Layer_1" xmlns="http://www.w3.org/2000/svg" xmlns:xlink="http://www.w3.org/1999/xlink" x="0px" y="0px"
	 viewBox="0 0 841.89 595.28" style="enable-background:new 0 0 841.89 595.28;" xml:space="preserve">
<style type="text/css">
	.st0{fill:#636466;}
	.st1{fill:#E22028;}
</style>
<g>
	<path class="st0" d="M418.95,391.1c-2.83-0.07-3.92-1.44-3.86-4.12l0.02-0.86c0.05-1.92,0.62-3.11,2.22-3.56
		c-1.76-0.54-2.4-1.95-2.35-3.96l0.04-1.53c0.06-2.73,1.43-4.23,4.26-4.16l4.18,0.1l-0.42,18.19L418.95,391.1z M419.22,374.75
		c-1.48-0.04-2.17,0.73-2.21,2.42l-0.04,1.61c-0.05,2.03,0.74,2.72,2.48,2.76l1.77,0.04l0.16-6.78L419.22,374.75z M419.62,383.39
		c-1.61-0.04-2.46,0.46-2.5,2.36l-0.02,1.07c-0.04,1.61,0.49,2.4,1.94,2.44l2,0.05l0.14-5.87L419.62,383.39z"/>
	<path class="st0" d="M408.43,385.92c-0.53,2.73-2.23,4.23-4.96,3.7c-2.76-0.54-3.77-2.56-3.24-5.29l1.8-9.24
		c0.53-2.71,2.23-4.23,4.98-3.69c2.73,0.53,3.74,2.58,3.21,5.29L408.43,385.92z M408.28,376.19c0.32-1.63-0.19-2.71-1.62-2.99
		c-1.46-0.28-2.3,0.53-2.62,2.17l-1.83,9.45c-0.31,1.61,0.16,2.71,1.62,2.99c1.43,0.28,2.31-0.56,2.62-2.17L408.28,376.19z"/>
	<path class="st0" d="M388.51,385.18c-2.67-1.01-3.28-2.79-2.33-5.32l0.52-1.39c0.71-1.87,1.8-2.79,3.44-2.71
		c-1.38-1.05-1.49-2.53-0.8-4.36l1-2.65c0.28-0.75,0.53-1.47,0.43-2.17l1.92,0.72c0.04,0.57-0.03,1.04-0.46,2.19l-1.01,2.68
		c-0.72,1.92-0.05,2.87,1.53,3.46l1.34,0.5l2.74-7.27l1.9,0.71l-6.42,17.03L388.51,385.18z M392.02,377.34
		c-1.51-0.57-2.59-0.42-3.29,1.43l-0.62,1.63c-0.58,1.53-0.32,2.55,1.09,3.08l1.85,0.7l2.37-6.3L392.02,377.34z"/>
	<path class="st0" d="M385.48,363.88l1.57,0.92l-9.22,15.7l-2.22-1.3l3.03-13.48l-6.66,11.35l-1.55-0.91l9.22-15.7l1.82,1.07
		l-3.44,15.05L385.48,363.88z"/>
	<path class="st0" d="M369.19,362.82l5.29-6.25l1.55,1.31l-11.77,13.88l-1.55-1.31l5.29-6.25l-3.41-2.89l-5.29,6.25l-1.55-1.31
		l11.76-13.88l1.55,1.31l-5.29,6.25L369.19,362.82z"/>
	<path class="st0" d="M362.26,349.98l3.27-1.8l1.19,1.44l-16.23,8.93l-1.88-2.26L360.4,342l1.29,1.56l-2.38,2.88L362.26,349.98z
		 M360.75,350.9l-2.59-3.12l-6.78,8.29L360.75,350.9z"/>
	<path class="st0" d="M342.24,338.59l1.42-0.81l0.96,1.67l-1.51,0.87c-1.42,0.81-1.96,1.87-1.22,3.16c0.72,1.26,1.92,1.36,3.34,0.54
		l8.35-4.78c1.42-0.81,1.94-1.89,1.22-3.16c-0.74-1.29-1.92-1.36-3.34-0.54l-2.05,1.18l-0.96-1.67l1.96-1.12
		c2.39-1.37,4.62-1.15,6.01,1.29c1.38,2.41,0.45,4.45-1.94,5.82l-8.17,4.68c-2.39,1.37-4.62,1.15-6-1.27
		C338.92,341.99,339.85,339.96,342.24,338.59z"/>
	<path class="st0" d="M343.95,327.72l2.05,0.38l5.74-2.1l0.7,1.9l-17.09,6.26l-0.7-1.9l8.25-3.02l-9.91-1.52l-0.71-1.93l9.37,1.47
		l7.66-7.87l0.72,1.95L343.95,327.72z"/>
	<path class="st0" d="M332.57,302.03c5.46-0.51,8,5.44,12.17,5.08l0.29-0.03l-0.56-5.95l1.84-0.17l0.74,7.95l-1.55,0.15
		c-5.85,0.55-7.56-5.48-12.66-5.01c-1.86,0.17-2.79,0.89-2.65,2.39c0.14,1.48,1.26,2.02,2.86,1.87l1.61-0.15l0.18,1.89l-1.47,0.14
		c-2.77,0.26-4.73-0.84-4.99-3.63C328.11,303.73,329.8,302.29,332.57,302.03z"/>
	<path class="st0" d="M332.49,295.6c-2.77-0.21-4.46-1.71-4.25-4.49c0.21-2.8,2.1-4.04,4.87-3.83l9.36,0.7
		c2.77,0.21,4.49,1.71,4.28,4.51c-0.21,2.77-2.12,4.01-4.9,3.81L332.49,295.6z M342.12,294.31c1.63,0.12,2.67-0.5,2.78-1.96
		c0.11-1.48-0.82-2.22-2.46-2.35l-9.59-0.71c-1.66-0.12-2.7,0.48-2.8,1.96c-0.11,1.45,0.82,2.22,2.48,2.35L342.12,294.31z"/>
	<path class="st0" d="M336.16,272.77c5.33,1.32,5.77,7.77,9.82,8.8l0.28,0.07l1.43-5.8l1.79,0.44l-1.91,7.75l-1.51-0.37
		c-5.7-1.41-5.34-7.66-10.31-8.89c-1.82-0.45-2.93-0.08-3.29,1.38c-0.35,1.44,0.52,2.32,2.09,2.71l1.57,0.39l-0.46,1.84l-1.44-0.35
		c-2.7-0.67-4.19-2.35-3.51-5.07C331.39,272.91,333.46,272.11,336.16,272.77z"/>
	<path class="st0" d="M338.69,262.78c0.12,0.78,0.06,1.72-0.27,2.63l-1.53-0.65c0.7-1.85-0.02-2.89-1.01-3.82l0.55-1.29l16.76,7.1
		l-0.78,1.84L338.69,262.78z"/>
	<path class="st1" d="M351.49,245.1c1.21-1.59,3.47-1.9,5.06-0.69c1.59,1.21,1.9,3.47,0.69,5.06c-1.21,1.59-3.47,1.9-5.06,0.69
		C350.59,248.95,350.28,246.69,351.49,245.1z"/>
	<g>
		<path d="M369.81,225.68l1.01,1.29l-1.52,1.19l-1.07-1.37c-1.01-1.29-2.13-1.67-3.3-0.75c-1.15,0.9-1.07,2.09-0.06,3.38l5.94,7.57
			c1.01,1.29,2.15,1.65,3.3,0.75c1.17-0.91,1.07-2.09,0.06-3.38l-1.46-1.86l1.51-1.19l1.4,1.78c1.7,2.17,1.8,4.4-0.41,6.14
			c-2.19,1.72-4.34,1.09-6.04-1.08l-5.81-7.41c-1.7-2.17-1.8-4.4,0.39-6.12C365.96,222.88,368.11,223.51,369.81,225.68z"/>
		<path d="M375.14,222.18c-1.33-2.44-0.98-4.68,1.46-6.01c2.47-1.34,4.53-0.43,5.87,2.02l4.5,8.26c1.32,2.42,0.98,4.68-1.49,6.02
			c-2.44,1.33-4.52,0.39-5.84-2.03L375.14,222.18z M381.45,229.58c0.8,1.46,1.87,1.97,3.15,1.27c1.3-0.71,1.43-1.88,0.64-3.34
			l-4.6-8.45c-0.78-1.44-1.85-1.98-3.15-1.27c-1.28,0.7-1.42,1.9-0.64,3.34L381.45,229.58z"/>
		<path d="M394.71,228l-1.72,0.58l-5.85-17.23l2.44-0.83l8.22,11.1l-4.23-12.46l1.7-0.58l5.85,17.23l-1.99,0.68l-9.14-12.44
			L394.71,228z"/>
		<path d="M408.06,224.36l-2.67-16.13l-3.31,0.55l-0.3-1.82l8.59-1.42l0.3,1.82l-3.31,0.55l2.67,16.13L408.06,224.36z"/>
		<path d="M418.58,205.02l0.74,18.18l-2.03,0.08l-0.74-18.18L418.58,205.02z"/>
		<path d="M425.73,223.28l-1.81-0.17l1.69-18.13l2.56,0.24l2.97,13.49l1.22-13.1l1.79,0.17l-1.69,18.13l-2.1-0.2l-3.27-15.09
			L425.73,223.28z"/>
		<path d="M439.82,221.08c-0.43,1.58-0.06,2.71,1.37,3.09c1.41,0.38,2.29-0.4,2.72-1.98l3.62-13.43l1.83,0.49l-3.6,13.33
			c-0.72,2.66-2.43,4.11-5.14,3.38c-2.69-0.72-3.43-2.84-2.72-5.5l3.6-13.33l1.93,0.52L439.82,221.08z"/>
		<path d="M454.39,215.71c1.16-2.53,3.16-3.58,5.69-2.42c2.55,1.17,3.06,3.38,1.9,5.91l-3.93,8.55c-1.15,2.5-3.16,3.58-5.71,2.41
			c-2.53-1.16-3.02-3.39-1.87-5.89L454.39,215.71z M452.24,225.19c-0.69,1.51-0.46,2.68,0.87,3.29c1.35,0.62,2.36,0.03,3.06-1.49
			l4.01-8.74c0.68-1.49,0.48-2.67-0.87-3.29c-1.32-0.61-2.37,0-3.06,1.49L452.24,225.19z"/>
		<path d="M463.99,231.42c-0.92,1.35-0.94,2.54,0.29,3.37c1.2,0.82,2.3,0.36,3.22-0.99l7.82-11.51l1.57,1.07l-7.76,11.42
			c-1.55,2.28-3.64,3.09-5.96,1.51c-2.3-1.56-2.32-3.81-0.77-6.09l7.76-11.42l1.66,1.12L463.99,231.42z"/>
		<path d="M485.3,236.59l-0.34,0.36l-1.4-1.33l0.41-0.43c1.13-1.19,1.34-2.32,0.28-3.32c-1.06-1-2.17-0.73-3.28,0.44
			c-2.81,2.96,1.35,7.45-2.18,11.16c-1.9,2-4.1,2.39-6.11,0.47c-2.02-1.92-1.72-4.11,0.17-6.11l0.72-0.75l1.38,1.31l-0.79,0.83
			c-1.13,1.19-1.3,2.35-0.24,3.35c1.06,1,2.21,0.77,3.34-0.42c2.79-2.94-1.35-7.41,2.18-11.13c1.93-2.04,4.08-2.4,6.06-0.52
			C487.49,232.4,487.2,234.59,485.3,236.59z"/>
		<path d="M500.43,249.16c1.49,2.41,0.72,4.42-1.67,5.9l-7.8,4.83c-2.36,1.47-4.51,1.26-6-1.14l-2.25-3.62l15.47-9.59L500.43,249.16
			z M486.52,257.75c0.77,1.24,1.91,1.35,3.32,0.48l7.96-4.93c1.41-0.88,1.82-1.95,1.04-3.21l-1.15-1.86l-12.33,7.64L486.52,257.75z"
			/>
		<path d="M500.89,268.23l-1.68,0.69l-1.69-4.11l-5.99,2.46l2.08,5.05l-1.71,0.7l-2.85-6.93l16.83-6.93l2.85,6.93l-1.71,0.7
			l-2.08-5.05l-5.75,2.37L500.89,268.23z"/>
		<path d="M493.19,277.15l17.69-4.28l0.48,1.97l-15.89,3.84l1.22,5.05l-1.79,0.43L493.19,277.15z"/>
		<path d="M513.77,288.15l-18.07,2.15l-0.24-2.01l18.07-2.15L513.77,288.15z"/>
		<path d="M514.33,296.7l-15.88,2.72l15.79,3.18l-0.03,1.87l-18.14-3.69l0.05-2.99l18.25-3.15L514.33,296.7z"/>
		<path d="M504.31,316.34l-1.79-0.33l0.81-4.37l-6.37-1.18l-1,5.37l-1.82-0.34l1.37-7.36l17.9,3.33l-1.37,7.36l-1.81-0.34l1-5.37
			l-6.11-1.14L504.31,316.34z"/>
		<path d="M508.78,329.63c-0.97,2.69-2.75,3.32-5.29,2.4l-1.39-0.5c-1.88-0.68-2.82-1.77-2.75-3.4c-1.03,1.4-2.51,1.52-4.35,0.86
			l-2.67-0.96c-0.76-0.28-1.48-0.51-2.18-0.4l0.7-1.93c0.57-0.04,1.04,0.02,2.19,0.43l2.69,0.97c1.93,0.7,2.87,0.01,3.44-1.57
			l0.49-1.35l-7.31-2.64l0.69-1.91l17.11,6.19L508.78,329.63z M500.89,326.22c-0.55,1.52-0.39,2.6,1.47,3.27l1.64,0.59
			c1.54,0.56,2.55,0.29,3.06-1.13l0.67-1.86l-6.33-2.29L500.89,326.22z"/>
		<path d="M492.62,337.15l12.06,2.39l-1.04,1.83l-9.18-1.93l6.38,6.89l-0.95,1.67l-8.26-9.11l-5.68-3.21l0.98-1.74L492.62,337.15z"
			/>
	</g>
	<g>
		<g>
			<path d="M432.48,255.69l-14.53,43.4l2.68-1l2.92,8.1l-4.05,1.06l-2.21-6.17l-0.79,2.35l1.5,4.2l-3.19,0.83l-1.09,3.25l5.83,16.34
				h39.28L432.48,255.69z M450.59,312.8l-6.85,0.95l-3.52-9.67l6.64-1.58L450.59,312.8z M432.59,305.89l5.47-1.3l3.41,9.47
				l-5.65,0.78L432.59,305.89z M433.75,315.13l-4.87,0.67l-3-8.31l4.71-1.12L433.75,315.13z M442.32,290.04l3.73,10.27l-6.59,1.72
				l-3.51-9.63L442.32,290.04z M433.93,293.15l3.4,9.43L431.9,304l-3.22-8.9L433.93,293.15z M422.28,297.48l4.51-1.67l3.14,8.72
				l-4.67,1.22L422.28,297.48z M424.16,307.9l2.94,8.15l-4.24,0.59l-2.78-7.76L424.16,307.9z M414.95,310.08l3.61-0.86l2.73,7.62
				l-3.71,0.51L414.95,310.08z M420.78,326.25l-2.64-7.33l3.74-0.43l2.75,7.67L420.78,326.25z M426.25,326.11l-2.8-7.82l18.76-2.18
				l3.43,9.51L426.25,326.11z M444.5,315.85l6.9-0.8l3.75,10.34l-7.12,0.18L444.5,315.85z"/>
		</g>
		<g>
			<path d="M402.19,277.21l-18.56,50.85c6.74,0,15.11,0,22.84,0l25.22-74.54C419.09,266.68,413.06,271.43,402.19,277.21z"/>
		</g>
	</g>
	<path class="st1" d="M471.53,262.53l-3.35-1.93c-1.19-0.69-2.72-0.28-3.42,0.92c-0.69,1.2-0.28,2.72,0.92,3.42l3.35,1.93
		c1.92,1.11,3.12,3.18,3.12,5.4v51.59c0,2.22-1.2,4.29-3.12,5.4l-44.68,25.8c-1.92,1.11-4.31,1.11-6.24,0l-44.68-25.8
		c-1.92-1.11-3.12-3.18-3.12-5.4v-51.59c0-2.22,1.2-4.29,3.12-5.4l44.68-25.8c1.92-1.11,4.31-1.11,6.24,0l25.58,14.77l-4.9,1.31
		l1.29,4.83l10.73-2.87c0,0,0.01,0,0.01,0l2.41-0.65l-3.52-13.15l-4.83,1.29l1.31,4.9l-25.58-14.77c-3.47-2-7.77-2-11.24,0
		l-44.68,25.8c-3.47,2-5.62,5.73-5.62,9.73v51.59c0,4,2.15,7.73,5.62,9.73l44.68,25.8c1.73,1,3.68,1.5,5.62,1.5
		c1.94,0,3.89-0.5,5.62-1.5l44.68-25.8c3.47-2,5.62-5.73,5.62-9.73v-51.59C477.15,268.26,474.99,264.53,471.53,262.53z"/>
</g>
</svg>
