<?xml version="1.0" encoding="UTF-8" standalone="no"?>
<svg
   xmlns:osb="http://www.openswatchbook.org/uri/2009/osb"
   xmlns:dc="http://purl.org/dc/elements/1.1/"
   xmlns:cc="http://creativecommons.org/ns#"
   xmlns:rdf="http://www.w3.org/1999/02/22-rdf-syntax-ns#"
   xmlns:svg="http://www.w3.org/2000/svg"
   xmlns="http://www.w3.org/2000/svg"
   xmlns:sodipodi="http://sodipodi.sourceforge.net/DTD/sodipodi-0.dtd"
   xmlns:inkscape="http://www.inkscape.org/namespaces/inkscape"
   viewBox="0 0 350 400"
   height="426.66666"
   width="373.33334"
   version="1.1"
   id="svg3336"
   sodipodi:docname="bornhack-2018-logo-large.svg"
   inkscape:version="0.92.3 (2405546, 2018-03-11)">
  <sodipodi:namedview
     pagecolor="#ffffff"
     bordercolor="#666666"
     borderopacity="1"
     objecttolerance="10"
     gridtolerance="10"
     guidetolerance="10"
     inkscape:pageopacity="0"
     inkscape:pageshadow="2"
     inkscape:window-width="1920"
     inkscape:window-height="1025"
     id="namedview195"
     showgrid="false"
     inkscape:zoom="1.5644738"
     inkscape:cx="226.17778"
     inkscape:cy="124.40573"
     inkscape:window-x="0"
     inkscape:window-y="27"
     inkscape:window-maximized="1"
     inkscape:current-layer="g5205" />
  <metadata
     id="metadata3342">
    <rdf:RDF>
      <cc:Work
         rdf:about="">
        <dc:format>image/svg+xml</dc:format>
        <dc:type
           rdf:resource="http://purl.org/dc/dcmitype/StillImage" />
        <dc:title></dc:title>
      </cc:Work>
    </rdf:RDF>
  </metadata>
  <defs
     id="defs3340">
    <linearGradient
       osb:paint="solid"
       id="linearGradient5690">
      <stop
         id="stop5692"
         offset="0"
         style="stop-color:#ffffff;stop-opacity:1;" />
    </linearGradient>
  </defs>
  <text
     id="text5110"
     y="18.180925"
     x="-595.58606"
     style="font-style:normal;font-weight:normal;font-size:40px;line-height:0%;font-family:sans-serif;letter-spacing:0px;word-spacing:0px;fill:#000000;fill-opacity:1;stroke:none;stroke-width:1px;stroke-linecap:butt;stroke-linejoin:miter;stroke-opacity:1"
     xml:space="preserve"><tspan
       y="18.180925"
       x="-595.58606"
       id="tspan5112" /></text>
  <g
     id="g5205"
     transform="translate(10.849695,-11.572856)">
    <path
       style="fill:#ffffff;fill-opacity:1;fill-rule:evenodd;stroke:#000000;stroke-width:16.71570587;stroke-linecap:square;stroke-linejoin:miter;stroke-miterlimit:3.79999995;stroke-dasharray:none;stroke-opacity:1"
       d="m 62.414644,37.281136 v 10.86095 l 20.8864,13.36732 10.0254,30.91194 9.190096,3.34182 5.0128,-2.50639 10.0254,9.190024 9.19,-0.83543 7.5191,15.87371 h 7.5192 l 25.8991,11.69637 4.1774,5.8482 4.1773,-0.8354 15.0382,-7.51916 5.0128,5.01274 10.0254,24.22822 20.051,16.70919 8.3546,0.8355 34.2538,23.3927 22.5573,9.1901 8.3545,-2.5064 18.3801,17.5446 -3.3418,6.6837 1.6709,2.5064 -8.3545,7.5191 4.1772,14.2028 -2.5063,2.5063 5.8482,14.2028 0.8354,11.6964 -9.19,10.861 v 11.6964 l -9.1901,8.3546 v 6.6836 l -7.5191,9.18996 2.5064,8.3547 3.3418,10.8609 1.6709,5.0127 -26.7346,32.5829 -7.5191,5.8482 -10.861,-6.6837 -17.5445,-1.671 -7.5191,-4.1772 -35.9248,-8.3545 -18.3801,-12.5319 -5.8482,1.6709 -11.6963,-11.6964 -36.7602,-13.3674 -1.6709,-5.0127 -11.6964,1.671 -23.392696,-13.36726 -10.861,4.1772 -26.7346,-17.5446 -7.5191,-13.3673 h -8.3545 l -10.861,-12.5319 -0.8354,-7.5191 -6.6838,-3.3418 5.0128,-12.5319 0.8355,-13.3673 5.0127,-33.4183 -10.0256,-35.9247 8.3547,-44.27925 22.5574,-50.962884 3.3418,-29.24104 z"
       id="path3346-1-8-4-4" />
    <g
       id="g5708"
       transform="matrix(1.2049576,0,0,1.2049576,-2.0715326,-51.504782)">
      <path
         style="font-style:normal;font-variant:normal;font-weight:normal;font-stretch:condensed;font-size:medium;line-height:125%;font-family:Impact;-inkscape-font-specification:'Impact Condensed';letter-spacing:0px;word-spacing:0px;fill:none;fill-opacity:1;stroke:#000000;stroke-width:2.22068286;stroke-linecap:butt;stroke-linejoin:miter;stroke-miterlimit:4;stroke-dasharray:none;stroke-opacity:1"
         d="m 29.991144,222.00374 c 7.2008,0.2071 14.5738,-0.9774 21.6144,0.9997 6.4251,2.8119 6.8498,11.9041 5.3453,18.1241 -0.5309,3.4867 -8.8255,3.3795 -2.804,4.6953 5.3704,2.2947 4.4519,9.2564 4.5895,14.3209 0.1058,8.6121 -3.5639,11.2015 -10.7945,11.8537 -5.8199,0.175 -11.6437,0.158 -17.4652,0.2452 l -0.4858,-50.2388 z m 12.2722,8.4636 0.1083,11.171 c 5.9511,1.4928 5.5624,-12.5542 -0.1083,-11.171 z m 0.1836,18.9909 0.1361,14.0569 c 5.0659,0.7409 3.8269,-5.351 3.9109,-8.783 0.2714,-3.3539 -0.3508,-5.7582 -4.0467,-5.2739 z"
         id="path5989-3-1-0-2-5-3" />
      <path
         style="font-style:normal;font-variant:normal;font-weight:normal;font-stretch:condensed;font-size:medium;line-height:125%;font-family:Impact;-inkscape-font-specification:'Impact Condensed';letter-spacing:0px;word-spacing:0px;fill:none;fill-opacity:1;stroke:#000000;stroke-width:2.22068286;stroke-linecap:butt;stroke-linejoin:miter;stroke-miterlimit:4;stroke-dasharray:none;stroke-opacity:1"
         d="m 81.869544,251.60724 c -0.3977,4.1954 -0.4754,8.4878 -1.6012,12.5625 -1.4992,4.6572 -5.8274,7.7592 -10.3107,8.1705 -5.2021,0.5597 -11.2174,-0.6123 -14.4805,-5.332 -2.038,-2.7755 -2.3996,-6.419 -2.1635,-9.8488 0.3578,-7.5339 0.9434,-15.0595 1.5951,-22.5737 0.3041,-3.58 0.8477,-7.4085 3.2907,-10.1282 3.8351,-4.5025 10.1558,-4.9977 15.346,-3.6613 4.147,0.9956 7.8973,4.2127 8.9907,8.719 0.8418,3.8101 0.2133,7.7841 0.085,11.6564 -0.2415,3.479 -0.5011,6.9571 -0.7524,10.4356 z m -10.9642,-17.3339 c 0.018,-1.8895 0.8875,-5.7669 -1.906,-5.5611 -2.1519,0.7381 -1.5669,3.7915 -1.9336,5.6661 -0.601,8.7355 -1.3377,17.4638 -1.8402,26.2048 -0.5613,1.8971 0.9046,4.4181 2.8182,2.9842 1.162,-1.7927 0.8889,-4.1908 1.1907,-6.2666 0.5571,-7.6758 1.1139,-15.3515 1.6709,-23.0274 z"
         id="path5991-3-3-0-8-1-5" />
      <path
         style="font-style:normal;font-variant:normal;font-weight:normal;font-stretch:condensed;font-size:medium;line-height:125%;font-family:Impact;-inkscape-font-specification:'Impact Condensed';letter-spacing:0px;word-spacing:0px;fill:none;fill-opacity:1;stroke:#000000;stroke-width:2.22068286;stroke-linecap:butt;stroke-linejoin:miter;stroke-miterlimit:4;stroke-dasharray:none;stroke-opacity:1"
         d="m 78.365444,221.56834 c 6.4844,0.013 12.9941,-0.4245 19.454,0.3358 3.943796,0.346 6.940696,4.0821 7.475296,8.1399 0.5542,3.8163 0.7212,7.8396 -0.2821,11.5864 -0.7621,2.6801 -3.6004,3.4986 -5.916296,3.7337 2.466696,0.5405 5.054796,1.7828 6.090596,4.4302 0.9488,2.5535 0.5896,5.4013 0.748,8.0925 0.045,4.5418 0.088,9.0838 0.1313,13.6258 -3.7735,0.041 -7.546796,0.081 -11.320496,0.1221 -0.093,-6.3046 -0.053,-12.6135 -0.2422,-18.9151 0.245,-2.2094 -1.2182,-4.1026 -3.3754,-3.6968 -0.6447,0.1463 -0.1387,1.5156 -0.2861,2.1905 0.066,6.8204 0.1316,13.6411 0.1977,20.4616 -4.0628,0.044 -8.1259,0.087 -12.189,0.1313 -0.1621,-16.7463 -0.3238,-33.4924 -0.4858,-50.2387 z m 12.2724,8.4636 c 0.035,3.7237 0.071,7.4473 0.1083,11.171 2.0546,0.3626 3.9954,-1.0285 3.6437,-3.4201 -0.054,-2.0818 0.2085,-4.2318 -0.3476,-6.253 -0.5087,-1.4497 -2.1892,-1.4816 -3.4041,-1.498 z"
         id="path5993-3-5-1-9-5-3" />
      <path
         style="font-style:normal;font-variant:normal;font-weight:normal;font-stretch:condensed;font-size:medium;line-height:125%;font-family:Impact;-inkscape-font-specification:'Impact Condensed';letter-spacing:0px;word-spacing:0px;fill:none;fill-opacity:1;stroke:#000000;stroke-width:2.22068286;stroke-linecap:butt;stroke-linejoin:miter;stroke-miterlimit:4;stroke-dasharray:none;stroke-opacity:1"
         d="m 129.01414,221.01094 c 0.1619,16.7464 0.324,33.4925 0.4859,50.2389 -3.5613,0.038 -7.1224,0.077 -10.6837,0.1161 -2.187,-7.5902 -4.3742,-15.1803 -6.5616,-22.7701 0.074,7.6128 0.1471,15.2257 0.2209,22.8388 -3.397,0.036 -6.7942,0.074 -10.1915,0.1101 -0.1618,-16.7465 -0.3237,-33.4927 -0.4857,-50.239 3.3972,-0.037 6.7944,-0.074 10.1915,-0.1102 2.3503,7.516 4.7011,15.0316 7.0516,22.5475 -0.073,-7.5405 -0.1454,-15.081 -0.2187,-22.6213 3.397,-0.037 6.7943,-0.074 10.1914,-0.1102 z"
         id="path5995-2-6-3-1-4-9" />
      <path
         style="font-style:normal;font-variant:normal;font-weight:normal;font-stretch:condensed;font-size:medium;line-height:125%;font-family:Impact;-inkscape-font-specification:'Impact Condensed';letter-spacing:0px;word-spacing:0px;fill:none;fill-opacity:1;stroke:#000000;stroke-width:2.22068286;stroke-linecap:butt;stroke-linejoin:miter;stroke-miterlimit:4;stroke-dasharray:none;stroke-opacity:1"
         d="m 161.02654,221.09394 c 0.162,16.7464 0.3237,33.4926 0.4858,50.2391 -4.0632,0.044 -8.1261,0.088 -12.1892,0.1326 -0.068,-7.0337 -0.136,-14.0673 -0.204,-21.1008 -1.2159,0.015 -2.4322,0.025 -3.6479,0.039 0.068,7.0337 0.1361,14.0672 0.2038,21.101 -4.063,0.044 -8.126,0.088 -12.1892,0.1313 -0.1617,-16.7463 -0.3238,-33.4926 -0.4856,-50.239 4.0629,-0.044 8.126,-0.087 12.1891,-0.1313 0.058,5.989 0.116,11.9779 0.1738,17.9669 1.216,-0.015 2.4319,-0.026 3.648,-0.039 -0.057,-5.9891 -0.1159,-11.9779 -0.1737,-17.9668 4.0631,-0.044 8.126,-0.088 12.1891,-0.1329 z"
         id="path5997-3-2-2-1-2-00" />
      <path
         style="font-style:normal;font-variant:normal;font-weight:normal;font-stretch:condensed;font-size:medium;line-height:125%;font-family:Impact;-inkscape-font-specification:'Impact Condensed';letter-spacing:0px;word-spacing:0px;fill:none;fill-opacity:1;stroke:#000000;stroke-width:2.22068286;stroke-linecap:butt;stroke-linejoin:miter;stroke-miterlimit:4;stroke-dasharray:none;stroke-opacity:1"
         d="m 180.58164,220.55884 c 2.488,16.7211 4.9756,33.4422 7.4635,50.1634 -4.1595,0.046 -8.3192,0.09 -12.4785,0.1356 -0.232,-3.0078 -0.4637,-6.0155 -0.6956,-9.0233 -1.4573,0.015 -2.9146,0.031 -4.3718,0.047 -0.2123,3.0126 -0.4245,6.0254 -0.6365,9.0378 -4.2078,0.045 -8.4157,0.092 -12.6233,0.1371 1.9035,-16.7687 3.8067,-33.5374 5.71,-50.306 5.8774,-0.064 11.7548,-0.1268 17.6323,-0.1909 z m -6.1441,32.373 c -0.8234,-7.0002 -1.4651,-14.0233 -2.0569,-21.0497 -0.8145,7.0174 -1.65,14.0383 -2.1122,21.0949 1.3897,-0.015 2.7794,-0.03 4.1691,-0.045 z"
         id="path5999-5-7-7-2-4-3" />
      <path
         style="font-style:normal;font-variant:normal;font-weight:normal;font-stretch:condensed;font-size:medium;line-height:125%;font-family:Impact;-inkscape-font-specification:'Impact Condensed';letter-spacing:0px;word-spacing:0px;fill:none;fill-opacity:1;stroke:#000000;stroke-width:2.22099996;stroke-linecap:butt;stroke-linejoin:miter;stroke-miterlimit:4;stroke-dasharray:none;stroke-opacity:1"
         d="m 211.75134,242.43814 c -4.063,0.044 -8.1261,0.087 -12.1891,0.1326 -0.093,-4.1305 0.052,-8.2743 -0.2787,-12.3926 0.2001,-2.6909 -4.0511,-2.7314 -4.0449,-0.1331 -0.3673,4.139 -0.08,8.3082 -0.1076,12.4614 0.095,5.9382 0.035,11.8824 0.2499,17.8162 -0.3924,2.1708 1.7061,4.1694 3.5059,2.705 1.1775,-1.7493 0.6684,-4.1549 0.813,-6.1877 -0.02,-2.0155 -0.038,-4.0307 -0.059,-6.0458 4.0632,-0.044 8.1263,-0.088 12.1892,-0.1326 -0.021,4.6157 0.2929,9.4103 -1.2014,13.818 -2.2426,4.9642 -7.5524,7.4953 -12.5181,7.4932 -4.7041,0.1508 -10.099,-1.0655 -12.875,-5.5446 -2.0727,-3.8272 -2.005,-8.442 -2.186,-12.7317 -0.026,-6.9526 -0.2535,-13.9077 -0.067,-20.8581 -0.095,-4.3344 1.9253,-8.7158 5.5016,-10.8731 4.484,-2.7767 10.0996,-2.9271 14.9779,-1.3463 3.7118,1.3019 7.0528,4.5346 7.595,8.8447 0.7834,4.2704 0.6186,8.6457 0.6938,12.9746 z"
         id="path6001-3-8-8-0-0-6" />
      <path
         style="font-style:normal;font-variant:normal;font-weight:normal;font-stretch:condensed;font-size:medium;line-height:125%;font-family:Impact;-inkscape-font-specification:'Impact Condensed';letter-spacing:0px;word-spacing:0px;fill:none;fill-opacity:1;stroke:#000000;stroke-width:2.22068286;stroke-linecap:butt;stroke-linejoin:miter;stroke-miterlimit:4;stroke-dasharray:none;stroke-opacity:1"
         d="m 237.53004,220.36544 c -2.2527,7.5862 -4.5055,15.1726 -6.7583,22.7591 2.6367,9.1575 5.2732,18.3149 7.91,27.4726 -4.1983,0.046 -8.3963,0.091 -12.5946,0.1358 -1.7099,-7.1608 -3.4201,-14.3215 -5.1303,-21.4821 0.07,7.1785 0.1393,14.3568 0.2082,21.5353 -4.063,0.044 -8.1259,0.087 -12.189,0.1326 -0.162,-16.7462 -0.3239,-33.4925 -0.4858,-50.2388 4.063,-0.044 8.1261,-0.088 12.1893,-0.1327 0.063,6.5062 0.1254,13.0124 0.1885,19.5185 1.7419,-6.5256 3.4837,-13.0513 5.2255,-19.577 3.8121,-0.04 7.6243,-0.083 11.4364,-0.1237 z"
         id="path6003-5-9-9-4-4-6" />
    </g>
    <g
       aria-label="16/8-23/8 2018 "
       transform="matrix(0.47700401,0,0,0.47700401,175.3533,212.72693)"
       style="font-style:normal;font-weight:normal;line-height:0.01%;font-family:sans-serif;letter-spacing:0px;word-spacing:0px;fill:#000000;fill-opacity:1;stroke:none;stroke-width:1px;stroke-linecap:butt;stroke-linejoin:miter;stroke-opacity:1"
       id="flowRoot4354">
      <path
         d="m -156.80872,168.24032 h 7.23203 v -24.66721 l -5.4816,6.24166 -2.53352,-3.08628 7.96906,-8.95943 h 4.65245 v 30.47126 h 7.1399 v 3.91543 h -18.97832 z"
         style="font-style:normal;font-variant:normal;font-weight:normal;font-stretch:normal;font-size:47.16941452px;line-height:1.25;font-family:Hack;-inkscape-font-specification:Hack"
         id="path3915" />
      <path
         d="m -120.07277,172.82368 q -3.15538,0 -5.25129,-1.10554 -2.0959,-1.12856 -3.45479,-3.22447 -1.45101,-2.25713 -2.14197,-5.52766 -0.66792,-3.27054 -0.66792,-7.48538 0,-9.30491 3.33963,-13.81917 3.36266,-4.51426 9.67341,-4.51426 0.94431,0 1.81953,0.0921 0.89824,0.0921 1.63526,0.25335 0.92128,0.18426 1.7274,0.46064 0.82915,0.27638 1.56617,0.5758 v 4.28394 q -1.47404,-0.87521 -3.08628,-1.31282 -0.80612,-0.23032 -1.68133,-0.32245 -0.87522,-0.11516 -1.68133,-0.11516 -4.49123,0 -6.74836,3.3166 -2.28016,3.36266 -2.28016,9.81161 1.10553,-2.3032 3.06324,-3.54692 1.98075,-1.22069 4.67549,-1.22069 4.74458,0 7.48538,3.06324 2.76383,3.06325 2.76383,8.59092 0,5.61979 -2.78686,8.68304 -2.78687,3.06325 -7.96905,3.06325 z m 0,-3.63905 q 3.06324,0 4.60638,-2.04984 1.56618,-2.04984 1.56618,-6.01134 0,-3.98452 -1.56618,-6.03437 -0.80611,-1.05947 -1.98074,-1.54314 -1.17463,-0.48367 -2.60261,-0.48367 -1.61224,0 -2.78687,0.5758 -1.17463,0.55277 -1.95771,1.54314 -0.80612,1.01341 -1.26676,2.51048 -0.43761,1.47405 -0.43761,3.43176 0,1.95772 0.43761,3.45479 0.46064,1.47405 1.26676,2.48745 0.78308,0.99038 1.95771,1.56617 1.17463,0.55277 2.76384,0.55277 z"
         style="font-style:normal;font-variant:normal;font-weight:normal;font-stretch:normal;font-size:47.16941452px;line-height:1.25;font-family:Hack;-inkscape-font-specification:Hack"
         id="path3917" />
      <path
         d="m -85.801247,137.76906 h 4.376069 l -18.103105,38.76276 h -4.399097 z"
         style="font-style:normal;font-variant:normal;font-weight:normal;font-stretch:normal;font-size:47.16941452px;line-height:1.25;font-family:Hack;-inkscape-font-specification:Hack"
         id="path3919" />
      <path
         d="m -63.736647,172.82368 q -5.228251,0 -8.199371,-2.57958 -2.948089,-2.57958 -2.948089,-7.30112 0,-3.66208 1.842556,-5.98831 1.819523,-2.30319 5.274314,-3.06325 -1.404948,-0.34548 -2.602609,-1.05947 -1.197661,-0.71399 -2.026811,-1.75042 -0.875214,-1.08251 -1.289789,-2.37229 -0.391543,-1.28979 -0.391543,-2.74081 0,-3.98452 2.786865,-6.42591 1.358885,-1.17463 3.224472,-1.77346 1.888619,-0.62186 4.353037,-0.62186 4.813675,0 7.60054,2.39532 2.786865,2.37229 2.786865,6.44895 0,3.04021 -1.6583,5.09006 -1.635268,2.02681 -4.652452,2.80989 3.477823,0.76006 5.297346,3.06325 1.819524,2.30319 1.819524,5.94224 0,2.41836 -0.783086,4.26091 -0.760054,1.81952 -2.188035,3.06325 -2.994152,2.60261 -8.245434,2.60261 z m 0.02303,-20.65965 q 2.809896,0 4.283941,-1.45102 1.474044,-1.45101 1.474044,-4.21484 0,-2.8099 -1.451013,-4.28394 -1.474044,-1.47405 -4.306972,-1.47405 -2.786865,0 -4.260909,1.47405 -1.474045,1.47404 -1.474045,4.28394 0,2.76383 1.474045,4.21484 1.474044,1.45102 4.260909,1.45102 z m 0.06909,17.0206 q 3.063249,0 4.74458,-1.75043 1.704364,-1.77346 1.704364,-4.9058 0,-1.70436 -0.460639,-2.92506 -0.437607,-1.22069 -1.243725,-2.02681 -1.727395,-1.75042 -4.813675,-1.75042 -3.08628,0 -4.790644,1.72739 -1.704364,1.75043 -1.704364,4.9058 0,3.17841 1.704364,4.95187 1.750427,1.77346 4.859739,1.77346 z"
         style="font-style:normal;font-variant:normal;font-weight:normal;font-stretch:normal;font-size:47.16941452px;line-height:1.25;font-family:Hack;-inkscape-font-specification:Hack"
         id="path3921" />
      <path
         d="m -44.78136,156.42494 h 18.909223 v 3.77723 H -44.78136 Z"
         style="font-style:normal;font-variant:normal;font-weight:normal;font-stretch:normal;font-size:47.16941452px;line-height:1.25;font-family:Hack;-inkscape-font-specification:Hack"
         id="path3923" />
      <path
         d="m -17.649734,169.06947 q 0,-0.85218 0.575799,-1.42798 1.31282,-1.38192 3.109312,-3.27053 1.796491,-1.91166 3.846334,-4.14575 1.5661716,-1.70437 2.3492575,-2.55655 0.806118,-0.87521 1.2206929,-1.33585 0.4145749,-0.48367 0.8521818,-1.01341 1.2206929,-1.47404 1.934683,-2.51048 0.7370221,-1.03644 1.1976609,-2.04984 0.806118,-1.79649 0.806118,-3.59298 0,-2.85596 -1.6813317,-4.4682 -1.7043636,-1.63527 -4.675484,-1.63527 -4.1227174,0 -9.2588404,3.06325 v -4.69852 q 2.349258,-1.12856 4.675484,-1.70436 2.280162,-0.5758 4.5142606,-0.5758 2.3953218,0 4.4912284,0.6449 2.0959067,0.64489 3.66207862,2.02681 1.38191648,1.22069 2.21106628,2.99415 0.8291499,1.75043 0.8291499,3.96149 0,2.25713 -1.0134054,4.5373 -0.5067027,1.15159 -1.31282062,2.25713 -0.78308598,1.0825 -2.02681078,2.57957 -0.6679263,0.78309 -1.5892039,1.81953 -0.9212776,1.03643 -2.1419705,2.34925 -0.8752137,0.94431 -1.6352678,1.70437 -0.7370221,0.76005 -1.5661719,1.5892 -0.8291499,0.80612 -1.9116509,1.91165 -1.059469,1.0825 -2.60261,2.71777 H 3.2402362 v 3.91543 H -17.649734 Z"
         style="font-style:normal;font-variant:normal;font-weight:normal;font-stretch:normal;font-size:47.16941452px;line-height:1.25;font-family:Hack;-inkscape-font-specification:Hack"
         id="path3925" />
      <path
         d="m 20.26084,172.82368 q -1.105533,0 -2.326226,-0.11516 -1.197661,-0.0921 -2.441385,-0.32245 -1.05947,-0.18425 -2.326226,-0.5067 -1.266757,-0.32245 -2.510482,-0.76006 v -4.69851 q 1.174629,0.59883 2.303194,1.0825 1.128565,0.48367 2.326226,0.80612 1.151597,0.29941 2.25713,0.46064 1.128565,0.13819 2.280163,0.13819 3.846334,0 5.873144,-1.7274 2.049843,-1.75043 2.049843,-4.9058 0,-3.08628 -2.026811,-4.83671 -2.02681,-1.75043 -5.573729,-1.75043 h -3.546919 v -3.8233 h 3.546919 q 3.247503,0 5.020963,-1.40495 1.773459,-1.38191 1.773459,-3.98452 0,-2.60261 -1.6583,-4.00756 -1.612235,-1.40495 -4.836707,-1.40495 -1.911651,0 -4.168781,0.46064 -2.211067,0.43761 -4.583357,1.38192 v -4.28394 q 2.809897,-0.73703 4.9749,-1.10554 2.049842,-0.36851 3.892398,-0.36851 2.418353,0 4.445164,0.62186 2.049843,0.62187 3.569951,1.88862 2.97112,2.46442 2.97112,6.65623 0,1.49708 -0.414575,2.67171 -0.391543,1.17463 -1.151597,2.09591 -1.566172,1.86558 -4.606388,2.6717 3.385696,0.89825 5.182187,3.17841 0.944309,1.19766 1.358884,2.64867 0.437607,1.45101 0.437607,3.10931 0,4.69852 -3.155376,7.41629 -1.566172,1.33585 -3.80027,2.02681 -2.211066,0.69096 -5.136123,0.69096 z"
         style="font-style:normal;font-variant:normal;font-weight:normal;font-stretch:normal;font-size:47.16941452px;line-height:1.25;font-family:Hack;-inkscape-font-specification:Hack"
         id="path3927" />
      <path
         d="m 56.075508,137.76906 h 4.376069 l -18.103105,38.76276 h -4.399101 z"
         style="font-style:normal;font-variant:normal;font-weight:normal;font-stretch:normal;font-size:47.16941452px;line-height:1.25;font-family:Hack;-inkscape-font-specification:Hack"
         id="path3929" />
      <path
         d="m 78.140107,172.82368 q -5.22825,0 -8.19937,-2.57958 -2.948089,-2.57958 -2.948089,-7.30112 0,-3.66208 1.842555,-5.98831 1.819524,-2.30319 5.274315,-3.06325 -1.404949,-0.34548 -2.60261,-1.05947 -1.19766,-0.71399 -2.02681,-1.75042 -0.875214,-1.08251 -1.289789,-2.37229 -0.391543,-1.28979 -0.391543,-2.74081 0,-3.98452 2.786865,-6.42591 1.358884,-1.17463 3.224472,-1.77346 1.888619,-0.62186 4.353036,-0.62186 4.813676,0 7.600541,2.39532 2.786865,2.37229 2.786865,6.44895 0,3.04021 -1.6583,5.09006 -1.635268,2.02681 -4.652452,2.80989 3.477823,0.76006 5.297346,3.06325 1.819524,2.30319 1.819524,5.94224 0,2.41836 -0.783086,4.26091 -0.760055,1.81952 -2.188035,3.06325 -2.994152,2.60261 -8.245435,2.60261 z m 0.02303,-20.65965 q 2.809897,0 4.283941,-1.45102 1.474044,-1.45101 1.474044,-4.21484 0,-2.8099 -1.451012,-4.28394 -1.474044,-1.47405 -4.306973,-1.47405 -2.786864,0 -4.260909,1.47405 -1.474044,1.47404 -1.474044,4.28394 0,2.76383 1.474044,4.21484 1.474045,1.45102 4.260909,1.45102 z m 0.0691,17.0206 q 3.063248,0 4.74458,-1.75043 1.704364,-1.77346 1.704364,-4.9058 0,-1.70436 -0.460639,-2.92506 -0.437607,-1.22069 -1.243725,-2.02681 -1.727396,-1.75042 -4.813676,-1.75042 -3.08628,0 -4.790643,1.72739 -1.704364,1.75043 -1.704364,4.9058 0,3.17841 1.704364,4.95187 1.750427,1.77346 4.859739,1.77346 z"
         style="font-style:normal;font-variant:normal;font-weight:normal;font-stretch:normal;font-size:47.16941452px;line-height:1.25;font-family:Hack;-inkscape-font-specification:Hack"
         id="path3931" />
      <path
         d="m 124.22702,169.06947 q 0,-0.85218 0.5758,-1.42798 1.31282,-1.38192 3.10931,-3.27053 1.79649,-1.91166 3.84634,-4.14575 1.56617,-1.70437 2.34925,-2.55655 0.80612,-0.87521 1.2207,-1.33585 0.41457,-0.48367 0.85218,-1.01341 1.22069,-1.47404 1.93468,-2.51048 0.73702,-1.03644 1.19766,-2.04984 0.80612,-1.79649 0.80612,-3.59298 0,-2.85596 -1.68133,-4.4682 -1.70437,-1.63527 -4.67549,-1.63527 -4.12271,0 -9.25884,3.06325 v -4.69852 q 2.34926,-1.12856 4.67549,-1.70436 2.28016,-0.5758 4.51426,-0.5758 2.39532,0 4.49123,0.6449 2.0959,0.64489 3.66208,2.02681 1.38191,1.22069 2.21106,2.99415 0.82915,1.75043 0.82915,3.96149 0,2.25713 -1.0134,4.5373 -0.50671,1.15159 -1.31282,2.25713 -0.78309,1.0825 -2.02682,2.57957 -0.66792,0.78309 -1.5892,1.81953 -0.92128,1.03643 -2.14197,2.34925 -0.87521,0.94431 -1.63527,1.70437 -0.73702,0.76005 -1.56617,1.5892 -0.82915,0.80612 -1.91165,1.91165 -1.05947,1.0825 -2.60261,2.71777 h 16.03023 v 3.91543 h -20.88997 z"
         style="font-style:normal;font-variant:normal;font-weight:normal;font-stretch:normal;font-size:47.16941452px;line-height:1.25;font-family:Hack;-inkscape-font-specification:Hack"
         id="path3933" />
      <path
         d="m 163.28918,172.82368 q -5.52767,0 -8.31453,-4.51426 -2.8099,-4.53729 -2.8099,-13.31246 0,-8.79821 2.8099,-13.3355 2.78686,-4.51426 8.31453,-4.51426 5.52766,0 8.33756,4.51426 1.38192,2.21107 2.09591,5.52767 0.71399,3.29357 0.71399,7.80783 0,4.51426 -0.71399,7.80782 -0.71399,3.29357 -2.09591,5.50464 -2.83293,4.51426 -8.33756,4.51426 z m 0,-3.68511 q 3.29356,0 4.88277,-3.50086 1.5892,-3.47782 1.5892,-10.64075 0,-7.18597 -1.5892,-10.64076 -1.58921,-3.52389 -4.88277,-3.52389 -3.24751,0 -4.83671,3.50086 -0.80612,1.72739 -1.22069,4.35303 -0.39155,2.60261 -0.39155,6.31076 0,7.20899 1.61224,10.64075 1.61224,3.50086 4.83671,3.50086 z m 0.0461,-6.10347 q -0.73702,0 -1.1516,-0.99037 -0.39154,-0.99037 -0.66792,-2.32623 -0.23032,-1.05947 -0.39155,-2.55654 -0.13819,-1.49708 -0.13819,-2.28016 0,-0.55277 0.0921,-1.98075 0.0921,-1.42798 0.36851,-2.69474 0.66793,-3.29357 1.79649,-3.29357 0.6449,0 1.0825,0.87522 0.46064,0.87521 0.78309,2.48745 0.23032,1.15159 0.36851,2.57958 0.13819,1.42798 0.13819,2.21106 0,0.46064 -0.0921,1.81952 -0.0691,1.35889 -0.29942,2.78687 -0.5758,3.36266 -1.88862,3.36266 z"
         style="font-style:normal;font-variant:normal;font-weight:normal;font-stretch:normal;font-size:47.16941452px;line-height:1.25;font-family:Hack;-inkscape-font-specification:Hack"
         id="path3935" />
      <path
         d="m 183.69549,168.24032 h 7.23203 v -24.66721 l -5.4816,6.24166 -2.53351,-3.08628 7.96905,-8.95943 h 4.65245 v 30.47126 h 7.1399 v 3.91543 h -18.97832 z"
         style="font-style:normal;font-variant:normal;font-weight:normal;font-stretch:normal;font-size:47.16941452px;line-height:1.25;font-family:Hack;-inkscape-font-specification:Hack"
         id="path3937" />
      <path
         d="m 220.01688,172.82368 q -5.22825,0 -8.19937,-2.57958 -2.94809,-2.57958 -2.94809,-7.30112 0,-3.66208 1.84255,-5.98831 1.81953,-2.30319 5.27432,-3.06325 -1.40495,-0.34548 -2.60261,-1.05947 -1.19766,-0.71399 -2.02681,-1.75042 -0.87522,-1.08251 -1.28979,-2.37229 -0.39154,-1.28979 -0.39154,-2.74081 0,-3.98452 2.78686,-6.42591 1.35889,-1.17463 3.22447,-1.77346 1.88862,-0.62186 4.35304,-0.62186 4.81367,0 7.60054,2.39532 2.78686,2.37229 2.78686,6.44895 0,3.04021 -1.6583,5.09006 -1.63526,2.02681 -4.65245,2.80989 3.47783,0.76006 5.29735,3.06325 1.81952,2.30319 1.81952,5.94224 0,2.41836 -0.78308,4.26091 -0.76006,1.81952 -2.18804,3.06325 -2.99415,2.60261 -8.24543,2.60261 z m 0.023,-20.65965 q 2.8099,0 4.28394,-1.45102 1.47404,-1.45101 1.47404,-4.21484 0,-2.8099 -1.45101,-4.28394 -1.47404,-1.47405 -4.30697,-1.47405 -2.78687,0 -4.26091,1.47405 -1.47404,1.47404 -1.47404,4.28394 0,2.76383 1.47404,4.21484 1.47404,1.45102 4.26091,1.45102 z m 0.0691,17.0206 q 3.06324,0 4.74457,-1.75043 1.70437,-1.77346 1.70437,-4.9058 0,-1.70436 -0.46064,-2.92506 -0.43761,-1.22069 -1.24373,-2.02681 -1.72739,-1.75042 -4.81367,-1.75042 -3.08628,0 -4.79064,1.72739 -1.70437,1.75043 -1.70437,4.9058 0,3.17841 1.70437,4.95187 1.75042,1.77346 4.85974,1.77346 z"
         style="font-style:normal;font-variant:normal;font-weight:normal;font-stretch:normal;font-size:47.16941452px;line-height:1.25;font-family:Hack;-inkscape-font-specification:Hack"
         id="path3939" />
    </g>
    <g
       aria-label="scale it"
       transform="translate(34.477192,196.23696)"
       style="font-style:normal;font-weight:normal;line-height:0.01%;font-family:sans-serif;letter-spacing:0px;word-spacing:0px;fill:#000000;fill-opacity:1;stroke:none;stroke-width:1px;stroke-linecap:butt;stroke-linejoin:miter;stroke-opacity:1"
       id="flowRoot4354-3">
      <path
         d="m 3.7678223,14.499268 q -1.7578125,0 -4.13085941,-0.769043 v -2.087403 q 2.30712891,1.164551 4.10888671,1.164551 1.2854004,0 2.0544434,-0.53833 0.7690429,-0.53833 0.7690429,-1.439209 0,-0.780029 -0.6481933,-1.2524414 Q 5.2839355,9.0939941 3.8776855,8.7973633 L 3.0317383,8.621582 Q 1.2958984,8.2700195 0.48291016,7.4680176 -0.3190918,6.6550293 -0.3190918,5.2597656 q 0,-1.7687988 1.2084961,-2.7246093 1.2084961,-0.9558106 3.4387207,-0.9558106 1.8896484,0 3.6584473,0.7250977 v 1.977539 Q 6.2617187,3.2712402 4.3830566,3.2712402 q -2.6586914,0 -2.6586914,1.8127442 0,0.5932617 0.2307129,0.9448242 Q 2.185791,6.3693848 2.8339844,6.611084 3.4821777,6.8417969 4.7456055,7.0944824 L 5.5585937,7.248291 q 3.0541993,0.6042481 3.0541993,3.328857 0,1.823731 -1.2963868,2.878418 -1.2963867,1.043702 -3.5485839,1.043702 z"
         style="font-style:normal;font-variant:normal;font-weight:normal;font-stretch:normal;font-size:22.5px;line-height:1.25;font-family:Hack;-inkscape-font-specification:Hack"
         id="path3900" />
      <path
         d="m 18.577393,14.499268 q -1.944581,0 -3.273926,-0.812989 -1.31836,-0.823974 -1.999512,-2.285156 -0.670166,-1.4611816 -0.670166,-3.3618164 0,-1.9116211 0.681152,-3.3618164 0.681153,-1.4611816 2.010498,-2.2741699 1.329346,-0.8239746 3.295899,-0.8239746 1.021728,0 1.845703,0.2416992 0.823975,0.2307129 1.680908,0.703125 V 4.6445312 Q 21.36792,3.9523926 20.576904,3.6228027 19.796875,3.2932129 18.797119,3.2932129 q -1.483154,0 -2.373047,0.637207 -0.878906,0.6372071 -1.274414,1.7138672 -0.384521,1.0766602 -0.384521,2.3950195 0,1.3073731 0.395508,2.3950194 0.395507,1.07666 1.274414,1.713867 0.878906,0.637207 2.351074,0.637207 0.966797,0 1.801758,-0.318603 0.834961,-0.318604 1.560058,-1.010742 v 2.098388 q -1.571045,0.944825 -3.570556,0.944825 z"
         style="font-style:normal;font-variant:normal;font-weight:normal;font-stretch:normal;font-size:22.5px;line-height:1.25;font-family:Hack;-inkscape-font-specification:Hack"
         id="path3902" />
      <path
         d="m 29.959229,14.499268 q -1.779786,0 -2.944336,-1.021729 -1.153565,-1.032715 -1.153565,-2.955322 0,-1.5930178 0.769043,-2.4829104 0.769043,-0.9008789 2.010498,-1.2634277 1.241455,-0.3625488 2.647705,-0.3625488 h 2.713623 V 6.0947266 q 0,-1.571045 -0.802002,-2.1862793 -0.791015,-0.6152344 -2.230224,-0.6152344 -1.120606,0 -2.197266,0.3076172 -1.07666,0.3076172 -2.010498,0.8569336 V 2.4362793 q 1.010742,-0.3735352 2.043457,-0.6152344 1.032715,-0.2416992 2.109375,-0.2416992 1.098633,0 2.131348,0.3076172 1.043701,0.2966309 1.801758,0.9887695 0.758056,0.6811524 1.010742,1.8347168 0.175781,0.8129883 0.175781,2.4499512 v 2.5158691 q 0,1.0327145 0.109863,2.2851565 0.12085,1.252441 0.53833,2.219238 h -2.03247 q -0.186768,-0.428467 -0.296631,-0.911865 -0.109864,-0.494385 -0.175781,-0.955811 -0.648194,1.109619 -1.801758,1.64795 -1.142578,0.53833 -2.416992,0.53833 z m 0.494384,-1.691895 q 1.252442,0 2.032471,-0.615234 0.791016,-0.615235 1.153564,-1.604004 0.362549,-0.9997561 0.362549,-2.1423342 V 7.9953613 h -2.559814 q -0.856934,0 -1.680908,0.1977539 -0.812989,0.1867676 -1.351319,0.7250977 -0.527344,0.5383301 -0.527344,1.5710451 0,1.164551 0.714112,1.746826 0.714111,0.571289 1.856689,0.571289 z"
         style="font-style:normal;font-variant:normal;font-weight:normal;font-stretch:normal;font-size:22.5px;line-height:1.25;font-family:Hack;-inkscape-font-specification:Hack"
         id="path3904" />
      <path
         d="m 46.922119,14.268555 q -1.812744,0 -2.8125,-1.164551 Q 43.12085,11.928467 43.12085,9.8081055 V -1.3320312 h -3.240967 v -1.5820313 h 5.262451 v 12.722168 q 0,1.3403325 0.505371,2.0434575 0.505371,0.703125 1.472168,0.703125 h 2.362061 v 1.713867 z"
         style="font-style:normal;font-variant:normal;font-weight:normal;font-stretch:normal;font-size:22.5px;line-height:1.25;font-family:Hack;-inkscape-font-specification:Hack"
         id="path3906" />
      <path
         d="m 58.88623,14.499268 q -2.845459,0 -4.471435,-1.702881 -1.61499,-1.713867 -1.61499,-4.6691897 0,-1.8347168 0.637207,-3.3178711 0.648193,-1.4831543 1.911621,-2.3510742 1.274414,-0.8789063 3.14209,-0.8789063 2.460937,0 3.812256,1.5820313 1.362304,1.5710449 1.362304,4.3615722 V 8.5117188 H 54.90918 v 0.065918 q 0,1.9226073 1.010742,3.0651853 1.010742,1.142578 2.988281,1.142578 1.142578,0 2.208252,-0.362548 1.07666,-0.362549 2.076416,-0.878907 v 2.010498 q -1.043701,0.428467 -2.120361,0.681153 -1.065674,0.263672 -2.18628,0.263672 z m 2.757569,-7.5695805 q 0,-1.0217285 -0.307617,-1.8457031 -0.307618,-0.8239746 -0.98877,-1.3073731 -0.670166,-0.4833984 -1.779785,-0.4833984 -1.120606,0 -1.878662,0.4943848 -0.74707,0.4833984 -1.175537,1.307373 -0.417481,0.8239746 -0.527344,1.8347168 z"
         style="font-style:normal;font-variant:normal;font-weight:normal;font-stretch:normal;font-size:22.5px;line-height:1.25;font-family:Hack;-inkscape-font-specification:Hack"
         id="path3908" />
      <path
         d="m 84.253662,-0.35424805 q -0.32959,0 -0.32959,-0.32958984 V -2.5844727 q 0,-0.3295898 0.32959,-0.3295898 h 1.582031 q 0.32959,0 0.32959,0.3295898 v 1.90063481 q 0,0.32958984 -0.32959,0.32958984 z M 87.945068,14.268555 q -1.812744,0 -2.8125,-1.164551 -0.988769,-1.175537 -0.988769,-3.2958985 V 3.4580078 H 81.452148 V 1.8759766 h 4.713135 v 7.9321289 q 0,1.3403325 0.505371,2.0434575 0.505371,0.703125 1.472168,0.703125 h 2.362061 v 1.713867 z"
         style="font-style:normal;font-variant:normal;font-weight:normal;font-stretch:normal;font-size:22.5px;line-height:1.25;font-family:Hack;-inkscape-font-specification:Hack"
         id="path3910" />
      <path
         d="m 100.90894,14.224609 q -2.263188,0 -3.208012,-0.911865 -0.933838,-0.922851 -0.933838,-3.14209 V 3.4470215 H 93.482178 V 1.8759766 h 3.284912 v -3.2189942 l 2.021484,-0.8789062 v 4.0979004 h 4.592286 v 1.5710449 h -4.592286 v 6.7236325 q 0,1.351319 0.516358,1.900635 0.516357,0.53833 1.801758,0.53833 h 2.27417 v 1.61499 z"
         style="font-style:normal;font-variant:normal;font-weight:normal;font-stretch:normal;font-size:22.5px;line-height:1.25;font-family:Hack;-inkscape-font-specification:Hack"
         id="path3912" />
    </g>
    <text
       id="text3355"
       y="306.1871"
       x="171.39192"
       style="font-style:normal;font-weight:normal;line-height:0%;font-family:sans-serif;letter-spacing:0px;word-spacing:0px;fill:#000000;fill-opacity:1;stroke:none;stroke-width:1px;stroke-linecap:butt;stroke-linejoin:miter;stroke-opacity:1"
       xml:space="preserve"><tspan
         style="font-size:40px;line-height:1.25"
         y="306.1871"
         x="171.39192"
         id="tspan3357"> </tspan></text>
  </g>
</svg>
