<?xml version="1.0" encoding="UTF-8" standalone="no"?>
<!-- Created with Inkscape (http://www.inkscape.org/) -->

<svg
   xmlns:dc="http://purl.org/dc/elements/1.1/"
   xmlns:cc="http://creativecommons.org/ns#"
   xmlns:rdf="http://www.w3.org/1999/02/22-rdf-syntax-ns#"
   xmlns:svg="http://www.w3.org/2000/svg"
   xmlns="http://www.w3.org/2000/svg"
   xmlns:sodipodi="http://sodipodi.sourceforge.net/DTD/sodipodi-0.dtd"
   xmlns:inkscape="http://www.inkscape.org/namespaces/inkscape"
   id="svg2"
   version="1.1"
   inkscape:version="0.92.3 (2405546, 2018-03-11)"
   xml:space="preserve"
   width="236.45876"
   height="62.5"
   viewBox="0 0 236.45876 62.5"
   sodipodi:docname="bornhack-2018-logo-small.svg"
   inkscape:export-filename="/home/valberg/code/bornhack/assets/2018/logo/bornhack-2018-logo-small.png"
   inkscape:export-xdpi="96"
   inkscape:export-ydpi="96"><metadata
     id="metadata8"><rdf:RDF><cc:Work
         rdf:about=""><dc:format>image/svg+xml</dc:format><dc:type
           rdf:resource="http://purl.org/dc/dcmitype/StillImage" /><dc:title></dc:title></cc:Work></rdf:RDF></metadata><defs
     id="defs6"><clipPath
       clipPathUnits="userSpaceOnUse"
       id="clipPath20"><path
         d="m 0,50 189.167,0 0,-50 L 0,0 0,50 Z"
         id="path22"
         inkscape:connector-curvature="0" /></clipPath></defs><sodipodi:namedview
     pagecolor="#ffffff"
     bordercolor="#666666"
     borderopacity="1"
     objecttolerance="10"
     gridtolerance="10"
     guidetolerance="10"
     inkscape:pageopacity="0"
     inkscape:pageshadow="2"
     inkscape:window-width="1920"
     inkscape:window-height="1025"
     id="namedview4"
     showgrid="false"
     inkscape:zoom="1.3913632"
     inkscape:cx="-76.184276"
     inkscape:cy="31.25"
     inkscape:window-x="0"
     inkscape:window-y="27"
     inkscape:window-maximized="1"
     inkscape:current-layer="g10" /><g
     id="g10"
     inkscape:groupmode="layer"
     inkscape:label="logo-small-2017"
     transform="matrix(1.25,0,0,-1.25,0,62.5)"><g
   id="g12"
   transform="translate(34.0908,47.4067)"><path
     d="m 0,0 0,-1.13 2.174,-1.392 1.044,-3.218 0.956,-0.347 0.522,0.26 1.044,-0.956 0.956,0.087 0.783,-1.653 0.783,0 2.696,-1.217 0.435,-0.609 0.435,0.087 1.565,0.783 0.522,-0.522 1.043,-2.522 2.087,-1.739 0.87,-0.087 3.566,-2.435 2.348,-0.957 0.87,0.261 1.913,-1.826 -0.348,-0.696 0.174,-0.261 -0.87,-0.783 0.435,-1.478 -0.261,-0.261 0.609,-1.479 0.087,-1.217 -0.957,-1.131 0,-1.217 -0.956,-0.87 0,-0.696 -0.783,-0.956 0.261,-0.87 0.348,-1.131 0.174,-0.521 -2.783,-3.392 -0.783,-0.609 -1.13,0.696 -1.827,0.174 -0.782,0.435 -3.74,0.869 -1.913,1.305 -0.609,-0.174 -1.218,1.217 -3.826,1.392 -0.174,0.522 -1.218,-0.174 -2.435,1.391 -1.13,-0.434 -2.783,1.826 -0.783,1.391 -0.87,0 -1.13,1.305 -0.087,0.783 -0.696,0.347 0.522,1.305 0.087,1.391 0.522,3.479 -1.044,3.739 0.87,4.61 L -2.087,-4 -1.739,-0.957 0,0 Z"
     style="fill:#ffffff;fill-opacity:1;fill-rule:evenodd;stroke:none"
     id="path14"
     inkscape:connector-curvature="0" /></g><g
   id="g16"><g
     id="g18"
     clip-path="url(#clipPath20)"><g
       id="g24"
       transform="translate(34.0908,47.4063)"><path
         d="m 0,0 0,-1.13 2.174,-1.392 1.044,-3.218 0.956,-0.347 0.522,0.26 1.044,-0.956 0.956,0.087 0.783,-1.653 0.783,0 2.696,-1.217 0.435,-0.609 0.435,0.087 1.565,0.783 0.522,-0.522 1.043,-2.522 2.087,-1.739 0.87,-0.087 3.566,-2.435 2.348,-0.957 0.87,0.261 1.913,-1.826 -0.348,-0.696 0.174,-0.261 -0.87,-0.783 0.435,-1.478 -0.261,-0.261 0.609,-1.478 0.087,-1.218 -0.957,-1.13 0,-1.218 -0.956,-0.87 0,-0.696 -0.783,-0.956 0.261,-0.87 0.348,-1.13 0.174,-0.522 -2.783,-3.392 -0.783,-0.609 -1.13,0.696 -1.827,0.174 -0.782,0.435 -3.74,0.87 -1.913,1.304 -0.609,-0.174 -1.218,1.218 -3.826,1.391 -0.174,0.522 -1.218,-0.174 -2.435,1.392 -1.13,-0.435 -2.783,1.826 -0.783,1.391 -0.87,0 -1.13,1.305 -0.087,0.783 -0.696,0.347 0.522,1.305 0.087,1.391 0.522,3.479 -1.044,3.739 0.87,4.61 L -2.087,-4 -1.739,-0.957 0,0 Z"
         style="fill:none;stroke:#000000;stroke-width:1.74000001;stroke-linecap:square;stroke-linejoin:miter;stroke-miterlimit:3.79999995;stroke-dasharray:none;stroke-opacity:1"
         id="path26"
         inkscape:connector-curvature="0" /></g><g
       id="g28"
       transform="translate(65.8247,18.8291)"><path
         d="m 0,0 6.602,0 c 2.602,0 4.597,0.587 5.982,1.762 0.699,0.592 1.217,1.312 1.556,2.158 0.349,0.846 0.523,1.804 0.523,2.872 0,0.836 -0.105,1.571 -0.317,2.206 -0.212,0.624 -0.529,1.185 -0.952,1.682 -0.847,0.995 -2.047,1.603 -3.602,1.825 0.423,0.106 0.814,0.265 1.174,0.476 0.36,0.201 0.672,0.439 0.936,0.714 0.296,0.307 0.614,0.741 0.952,1.302 0.349,0.55 0.757,1.29 1.222,2.221 l 3.221,6.475 -3.443,0 -2.825,-5.983 C 10.617,16.832 10.225,16.123 9.855,15.583 9.495,15.044 9.157,14.653 8.839,14.409 8.511,14.155 8.125,13.97 7.681,13.854 7.247,13.738 6.782,13.679 6.284,13.679 l -3.062,0 0,10.014 L 0,23.693 0,0 Z m 6.729,11.045 c 1.534,0 2.676,-0.344 3.427,-1.031 0.371,-0.339 0.651,-0.773 0.842,-1.302 0.19,-0.528 0.285,-1.137 0.285,-1.824 0,-0.688 -0.1,-1.297 -0.302,-1.826 C 10.791,4.534 10.495,4.084 10.093,3.714 9.712,3.375 9.231,3.11 8.649,2.92 8.078,2.729 7.395,2.635 6.602,2.635 l -3.38,0 0,8.41 3.507,0 z"
         style="fill:#000000;fill-opacity:1;fill-rule:nonzero;stroke:none"
         id="path30"
         inkscape:connector-curvature="0" /></g><g
       id="g32"
       transform="translate(85.312,18.8291)"><path
         d="m 0,0 4.062,0 7.999,19.503 0,-19.503 3.094,0 0,23.693 -4.062,0 -7.998,-19.504 0,19.504 L 0,23.693 0,0 Z"
         style="fill:#000000;fill-opacity:1;fill-rule:nonzero;stroke:none"
         id="path34"
         inkscape:connector-curvature="0" /></g><g
       id="g36"
       transform="translate(104.8311,18.8291)"><path
         d="m 0,0 3.222,0 0,9.712 8.775,0 0,-9.712 3.222,0 0,23.693 -3.222,0 0,-11.283 -8.775,0 0,11.283 L 0,23.693 0,0 Z"
         style="fill:#000000;fill-opacity:1;fill-rule:nonzero;stroke:none"
         id="path38"
         inkscape:connector-curvature="0" /></g><g
       id="g40"
       transform="translate(153.5337,42.9824)"><path
         d="m 0,0 c -1.481,0 -2.819,-0.265 -4.015,-0.794 -1.185,-0.529 -2.2,-1.338 -3.047,-2.428 -0.835,-1.079 -1.465,-2.375 -1.888,-3.887 -0.413,-1.524 -0.619,-3.243 -0.619,-5.158 0,-1.915 0.206,-3.634 0.619,-5.157 0.423,-1.524 1.058,-2.83 1.904,-3.92 0.846,-1.09 1.862,-1.899 3.047,-2.428 1.185,-0.54 2.518,-0.81 3.999,-0.81 0.508,0 0.995,0.032 1.46,0.096 0.476,0.052 0.905,0.127 1.285,0.222 0.381,0.095 0.799,0.233 1.254,0.412 0.455,0.17 0.873,0.36 1.254,0.572 l 0,3.284 c -0.773,-0.645 -1.614,-1.137 -2.524,-1.475 -0.455,-0.17 -0.909,-0.297 -1.364,-0.381 -0.445,-0.085 -0.905,-0.127 -1.381,-0.127 -1.026,0 -1.931,0.201 -2.713,0.603 -0.773,0.402 -1.418,1.005 -1.937,1.809 -1.037,1.608 -1.555,4.036 -1.555,7.284 0,3.238 0.518,5.66 1.555,7.268 1.037,1.608 2.598,2.412 4.682,2.412 0.476,0 0.936,-0.042 1.38,-0.126 0.456,-0.085 0.91,-0.212 1.365,-0.381 0.878,-0.328 1.709,-0.821 2.492,-1.476 l 0,3.284 C 4.428,-0.868 3.592,-0.54 2.745,-0.317 2.333,-0.212 1.888,-0.132 1.412,-0.08 0.947,-0.026 0.476,0 0,0"
         style="fill:#000000;fill-opacity:1;fill-rule:nonzero;stroke:none"
         id="path42"
         inkscape:connector-curvature="0" /></g><g
       id="g44"
       transform="translate(163.4834,18.8291)"><path
         d="m 0,0 3.222,0 0,10.537 L 13.235,0 l 3.761,0 -9.22,9.681 9.49,14.012 -3.872,0 -7.728,-11.87 -2.444,2.602 0,9.268 L 0,23.693 0,0 Z"
         style="fill:#000000;fill-opacity:1;fill-rule:nonzero;stroke:none"
         id="path46"
         inkscape:connector-curvature="0" /></g><g
       id="g48"
       transform="translate(9.251,42.5376)"><path
         d="m 0,0 7.014,0 c 2.412,0 4.279,-0.523 5.602,-1.571 1.312,-1.047 1.967,-2.533 1.967,-4.459 0,-0.741 -0.089,-1.396 -0.269,-1.968 -0.18,-0.561 -0.434,-1.042 -0.762,-1.444 -0.339,-0.402 -0.767,-0.741 -1.285,-1.016 -0.519,-0.264 -1.132,-0.449 -1.841,-0.555 1.566,-0.243 2.787,-0.904 3.666,-1.984 0.433,-0.539 0.762,-1.158 0.984,-1.856 0.222,-0.698 0.333,-1.481 0.333,-2.349 0,-2.137 -0.704,-3.75 -2.111,-4.84 -1.418,-1.1 -3.512,-1.65 -6.284,-1.65 L 0,-23.692 0,0 Z m 6.951,-9.775 c 0.803,0 1.475,0.074 2.015,0.222 0.55,0.148 1,0.376 1.349,0.682 0.687,0.593 1.031,1.529 1.031,2.809 0,0.635 -0.084,1.164 -0.254,1.587 -0.169,0.434 -0.423,0.783 -0.761,1.048 -0.688,0.529 -1.815,0.793 -3.38,0.793 l -3.73,0 0,-7.141 3.73,0 z m 0.063,-11.283 c 1.851,0 3.179,0.328 3.983,0.984 0.794,0.645 1.191,1.714 1.191,3.205 0,1.545 -0.418,2.682 -1.254,3.412 -0.847,0.72 -2.153,1.08 -3.92,1.08 l -3.793,0 0,-8.681 3.793,0 z"
         style="fill:#000000;fill-opacity:1;fill-rule:nonzero;stroke:none"
         id="path50"
         inkscape:connector-curvature="0" /></g><g
       id="g52"
       transform="translate(130.2544,42.5376)"><path
         d="m 0,0 3.888,0 7.252,-23.692 -3.317,0 -1.745,6.173 -8.3,0 -1.714,-6.173 -3.316,0 L 0,0 Z m 5.316,-14.949 -3.38,12.124 -3.38,-12.124 6.76,0 z"
         style="fill:#000000;fill-opacity:1;fill-rule:nonzero;stroke:none"
         id="path54"
         inkscape:connector-curvature="0" /></g></g></g><text
   transform="scale(1,-1)"
   style="font-variant:normal;font-weight:500;font-stretch:normal;line-height:0%;font-family:Inconsolata;-inkscape-font-specification:Inconsolata;writing-mode:lr-tb;fill:#000000;fill-opacity:1;fill-rule:nonzero;stroke:none"
   id="text56"
   x="116.0678"
   y="-5.3319998"><tspan
     sodipodi:role="line"
     id="tspan58"
     style="font-size:16.39999962px;line-height:1.25"
     x="116.0678"
     y="-5.3319998">scale it</tspan></text>

</g></svg>