<?xml version="1.0" encoding="utf-8"?>
<!-- Generator: Adobe Illustrator 24.2.1, SVG Export Plug-In . SVG Version: 6.00 Build 0)  -->
<svg version="1.1" baseProfile="tiny" id="Layer_1" xmlns="http://www.w3.org/2000/svg" xmlns:xlink="http://www.w3.org/1999/xlink"
	 x="0px" y="0px" width="841.9px" height="595.3px" viewBox="0 0 841.9 595.3" overflow="visible" xml:space="preserve">
<g>
	<g>
		<path d="M416.6,313L416.6,313c0-0.1,0-0.1,0.1-0.2c0,0,0,0,0,0C416.7,312.9,416.7,312.9,416.6,313z"/>
		<path d="M413.7,273.5l-1-0.8c0.1,0.4,0.1,0.7,0.2,1l0.4-0.1C413.4,273.5,413.6,273.5,413.7,273.5z"/>
		<polygon points="437.2,291.7 437.1,292.7 437.9,292.2 		"/>
		<path d="M395.7,296.8l1.2,0.9c0.1-0.4,0.3-0.9,0.5-1.6C396.5,295.9,396.1,296.3,395.7,296.8z"/>
		<path d="M397.1,260.6l-0.4-0.3C396.7,260.6,396.7,260.8,397.1,260.6z"/>
		<path d="M451.1,310.2c-0.1,0.1-0.3,0.1-0.4,0.1c0.1-0.2,0.2-0.3,0.4-0.5v-2.4c0,0-0.1,0-0.1-0.1c0.1,0,0.1,0,0.1,0v-5.1l-3.8-2.9
			c-0.2,0.1-0.4,0.2-0.5,0.6l0-1l-8.3-6.5c0.3,1.3,1.2,2.4,0.6,3.9c0.2,0,0.5,0.1,0.7-0.1l-0.4,1.1l-0.4-0.7
			c-1.1,1.6-0.2,4.5-1.5,5.4l-1-0.7l-0.4,0.9l0.4,0c0.2,0.4-0.2,0.7-0.4,1.1c0,0.1-0.1,0.2-0.1,0.4c0-0.1,0.1-0.2,0.1-0.4
			c0.3-0.9-0.9-0.3-0.4-1.5c-0.2,0-0.3,0-0.4,0.1c-0.1,0.1-0.2,0.3-0.2,0.4c0,0.1-0.1,0.3-0.1,0.2c0-0.1,0.1-0.2,0.1-0.2
			c0-0.2,0.1-0.3,0.2-0.4c0.4-0.8,0.9-1.5,1.7-1.7c0-1.5-0.5,0.1-1.1-0.6c0.6-1.5-0.8-1-0.2-2.6c0,0-0.1,0-0.1,0
			c-0.2,0.2-0.4,0.4-0.5,0.7c0-0.4,0.3-0.7,0.5-0.7c0.2-0.3,0.3-0.5,0-0.8l1.2-0.2c0.6-0.6,0.3-1.4,0.3-2.4l-1.4,0
			c0,0.2,0,0.4,0.1,0.4c0.1,0,0.2,0.1,0.2,0.1c0.4,0.1,0.9-0.1,0.8,0.6c-0.2,0-0.5-0.3-0.8-0.6c-0.1,0-0.2-0.1-0.2-0.1
			c-0.2-0.1-0.5-0.1-0.7,0.3c-0.1,0.6,0.9,0.6,0.2,1.1l-0.3-0.3c-1.6-1.5,0,1.5-1.1,1.6c0.2,0,0.3,0.1,0.3-0.1
			c-0.1,0.6-1.3,1-0.8,0.6c1.6-2.2-1.6-2.8-0.2-5.1c1.1,0.8,0.5-1.2,1.1-1.4c-0.1,0.3,0.3,0.8,0.6,1.5c0.4-0.7,0.6-1.2,0.7-1.8
			l-0.5-0.4c0.1,0.2,0,0.4-0.5,0.4c-0.4-0.4-0.4-0.7-0.2-1l-1.7-1.3c0,0-0.1,0-0.1,0.1c-0.1,1.4,0.8,0.5,0.9,1.1
			c-0.7,0.1-1.3-0.4-1.8,0.4c1.2,0.7,0.3,2.2,0.9,3.1l-0.8,1.1l-0.8-0.9l0,0.4c-1.6-0.8,0.8-0.9-0.3-2l-1.3-0.1l0.1-0.8
			c-0.5-0.1-1.2,0.2-1.3,0.5c0.1,0.3,0.9,0.9,1.4,1.3c0.1-0.1,0.3-0.1,0.2-0.4c0.9,1.1-0.7,0.1-0.5,1c0.5-0.3,0.8,0.5,1,0.8
			c-0.8,0.2-1,1.8-0.6,2.3l-0.8,0.9l0.7,0.6c-1.1,0.5,1.3,3.2-0.5,3.8c0.6-0.4,0.6,0.7,0.8,1c-0.3,0.8-1,0-1.1,1
			c1.1-0.3-0.2,1.1,0.4,1.7c-0.7,0.1-1.1-1-1.2-1.4l-0.1,0.2c0-0.3,0-0.3,0.1-0.2l0.5-0.9c-0.6,0.2-0.2-0.7-0.9-0.4
			c0.4-1.3,0.5-2,1.2-3.9c-0.3,0.1-0.6,0-0.8,0.2l0.4-1.7c0.1,0.8-2.1,0.7-1.7,2.2l-0.3-1.3l-0.1,0.1l-1.4-3.1
			c0-0.4,0.5-0.5,0.9-0.3c-0.3-1,0.6-1.3,0.3-2.4l0.6,0.7c0.7-1.2-0.8-0.9,0-2.6l-0.7,0.1l0.5-0.5c-0.4-0.5-1.4-0.8-0.7-1.6
			l-1.1,0.1c0.1-0.6,1.1-0.3,1.1-1c-0.2-0.5-0.8-0.7-1.1-0.4c0-1.1,2-2.7,0.6-3.7c0.3,0.1,0.4-0.1,0.5-0.3l-12.6-9.7l-0.4,0.1
			c-0.7,0.5-1.3,2.1-2.3,1.5c0,0.9-0.3,1.2-0.8,1.5l0.1-0.6c-0.1-0.1-0.2,0-0.3,0.1l0.3-1.2c-0.5,0.1-0.4,0.9-1.1,0.1
			c0,0.1-0.1,0.2-0.1,0.3c0,0.1,0,0.1,0,0.2c-0.1,0-0.2,0.1-0.2,0.1c-0.3,0.3-0.5,0.5-0.4,1c-0.5-0.6-0.1-0.8,0.4-1
			c0.1-0.1,0.2-0.2,0.2-0.3c-0.1-1.2-1.7,0.3-1-1.3c-1.3-0.6-0.6,0.9-1.5,1c-0.4-1.7,1.6-0.8,1.1-2.6l-0.2,0.2
			c-0.2-0.4,0.3-1,0.5-1.5l0.6,0.7c0.4-0.1,0.9-0.7,1.4-1.3l-0.2-0.2c-0.1,0.2-0.3,0.4-0.3,0c-0.1-0.1-0.1-0.1,0-0.2l-1.3-1l-0.1,0
			c0,0,0,0,0.1,0l-1.2-0.9c0.4,1,0.9,2.5,0,3.1c-0.3-0.1-0.7-1.1-1.4-0.5c-0.1,0.3,0.3,0.6,0.4,0.7c-0.9,1-1,0.9-2.3,1.2
			c0.1-0.8,0.4-0.2,1.2-0.9c0-0.2,0-0.7-0.3-0.6c0.4-0.5,0.9-1.1,1.2-1.7l-0.1,0c-0.1-0.3,0.2-0.4,0.4-0.7c-0.1,0.2-0.2,0.4-0.3,0.7
			l1.2,0l-0.2-1.4l-9.7-7.5c-0.3,0.8,0.2,2.1-0.8,2.3L396,262l-0.1,0.1l0.7-1.9l-0.3-0.2c-0.3,0.1-0.4,0.4-0.6,0.5
			c0.4-0.4-0.2-0.7-0.5-1.3l-4.4-3.4v37.3l4.3,3.3c0.2-0.3,0.6-0.7,0.7-1.1c0,0-0.1,0-0.1,0l0-0.4c0.1,0.2,0.1,0.3,0.1,0.4
			c0.9,0.1,1.1-1.3,1.4-2.2l0.3,0.6l0.7-0.8c0.5,0.4-0.8,2.9,0.4,3.5c0,0,0,0,0,0c0.1,0,0.2,0.1,0.3,0.1c0.1-0.3,0.6-0.4,0.5-1
			c1.1,0.9-1.1,1.2-0.1,2.2c-0.9-0.3,0.1-0.9-0.4-1.3c0,0,0,0,0,0c-0.1,0-0.2-0.1-0.3-0.1c0.1,1.3-0.3,1.9-0.4,2.4l11.4,8.9
			c0.2-0.5,0.6-1,0.1-1.2l0.7-0.8l-0.3,1.4l0.7,0.4c0,0.6-0.3,0.6-0.6,0.6l2.9,2.3h0c-0.2-1.5-0.1-3.3-0.2-5.1l0.8,0.2
			c-0.5-0.4,0.2-1.9-0.4-2.4l1.3-0.1c0-0.4-0.4-0.7-0.9-0.8l0.6-0.2c-1.2,0.2-1.8-1.3-2.8-0.4l0.2,1.3c-0.3,0.5-0.3-0.8-0.7-0.8
			c0.3,0.8-0.3,1.2-0.1,2.2c0.1,1-0.9,1.2-1.5,0.7c0-0.9,0.6-2.1,0.5-2.9l-0.2,0c-0.1-2.2,1.2-0.6,1.5-1.9c0,0,0,0-0.1,0
			c-0.2-0.2,0-0.5,0.1-0.6c0,0.2,0,0.4-0.1,0.6c1.1,0.5,0.4-1.3,1.5-1.1c0-0.4-1.2-1.5-0.1-1.6l-0.2,0.7c0.6-0.2,1.8-0.6,1.6-0.8
			l1.2,0c-0.3,0.8-1.1,1-1.5,1.8c0.3,2,2,2.8,1.8,5l0.2-0.4l-0.5,1.4c1,0.7,0.5-0.8,1.2-1.3c-0.9-0.8,0.1-2,0.2-3
			c-1.3-2.5,2.1-0.5,2-2.7l0,2.1c-0.4-0.9-1,0.2-0.9,0.8l0.8-0.2c-0.7,0.3-0.2,1.3,0.1,1.3c0.2,0,0.3-0.1,0.4-0.1
			c0-0.2,0.1-0.3,0.2-0.4c0-0.7-0.6-1.8,0.4-2.2c-0.2,0.7-0.1,0.8,0.5,0.6l-0.2,2.1l-0.6-0.7c0,0.1-0.1,0.1-0.1,0.2
			c0,0.2,0,0.3-0.2,0.4c0,0.1-0.1,0.3,0,0.4c0.8-0.2,0.3,1,1.1,0.4c0.1,0.8,0.1,2.5-1,2.5c0.3,0.3,0.5,0.8,0.8,0.7
			c-1.5,1,0.3,2.5-0.3,2.9c-0.4,0.2-0.9,0.3-1,0.9l0.6,0c-0.2,0.4-0.4,0-0.7,0.1l0.4-1.1c-0.9,1.4-2.3,0-3.5,1.3l0.1-1.2
			c-0.9,0.4-0.8,1.5-1,2.4l0.7,0.6c0.1-0.2,0.2-0.4,0.6-0.5c0.8,0.7,0.6,0,0.4,1.1c0.2,0.2,0.4,0.3,0.6,0.3c0,0,0,0,0,0c0,0,0,0,0,0
			c0.3,0,0.5-0.2,0.9,0.6c0,0.2,0.1,0.3,0.1,0.4l1.2,0.9c0,0,0,0,0,0l0,0l0.9,0.7c0.4-0.4,1-0.5,1.5-0.9c0.8-0.4-0.3-1.6,0.4-1.7
			l0.5,0.8l0.3-1.7c0.6,1.1-0.5,2.7-0.4,3.9l-0.6-0.9l-0.9,1l30.6,23.7V310.2z M395.4,262.4c-0.2,0.4-1,0.4-0.4,1.1
			c-0.6,0-0.5-0.8-0.5-1.1C394.9,262.3,395.2,262,395.4,262.4z M392.4,289.9l0.7-0.8l0.2,0.2L392.4,289.9z M395.4,285.9
			c0,0.1,0,0.3-0.3,0.6C395.2,286.2,395.3,286.1,395.4,285.9c-0.1-0.4-1.4-0.1-1.3-0.9l0.9-1.4c-0.1,1.3,0.8,0,1.2,0.7
			C396.4,285.7,395.8,285.3,395.4,285.9z M404.9,283c-0.2,0.7-0.5,0.2-0.7,0l-0.2,0c0.1-0.1,0.2-0.1,0.2,0L404.9,283z M404,281.2
			l-0.5,0.8l-0.3-1C403.4,280.5,403.8,281,404,281.2z M402.9,284.3c0.4-1.1,1.4,0.8,1.4-0.6c0.2,0.2,0.8,0.9,0.2,1.1l-0.6-0.5
			l-0.8,1.9c-0.4,0.9-0.3-0.3-0.7-0.1C403,285.6,403.7,285.1,402.9,284.3z M403.4,286.8l0.4,0.9l-1.3,0.3
			C402.5,287.1,403.5,288.1,403.4,286.8z M402,286.3c-0.1,0.3,0.2,0.9-0.2,0.9C401.7,286.8,401.7,286.4,402,286.3z M400.1,269.9
			l0,1.1c-0.4,0-0.3-0.6-0.7-0.6L400.1,269.9z M397.4,275.8c0.1,0.3-0.1,0.6-0.1,0.8c0-1.5-0.4-4,0.5-5l0.4,0.5
			c0.2,0.2,0.4-0.2,0.5-0.3l-0.2,1.3c0.5-0.8,1.6,0.6,0.7,1.1c-0.3,0.3,0.3-1.2-0.5-1l-0.9,0.8c0.1,0.3,0,0.9,0.6,0.7
			c0-0.2,0-0.2,0.1-0.3c0,0.9-0.6,1.8,0,2.8L397.4,275.8z M398.9,284c0.1-0.3,0.4-0.2,0.6-0.2C399.5,284.6,399,284.1,398.9,284z
			 M399.6,283.1c-0.3-0.3-0.3-1.3-0.8-0.5l-0.1-1.6l-0.9,0.1l1.1-1.7c0,0.9,0.7,0.1,0.9,0.6l-0.7,1.2c0.6,0.2,1.1-1.4,1.5-0.1l0-0.9
			C402,281.4,400,282.2,399.6,283.1z M401.3,297.5l0.3,0.1l0,0.4l0.6-0.4c-0.5,0.5,0,1.1,0.1,1.2
			C401.7,298.6,401.2,298.3,401.3,297.5z M403.8,292.9l-0.4-0.7c-1,0.6-0.6,1.7-1.7,1.6l-0.2-1.3c0.2-0.2,0.5,1,0.9-0.1
			c0.2-0.9,0-2.6,0.6-3.4c1.4,1.3-1.3,2,0.2,3l0.4-0.4c0-0.1,0.1-0.2,0.2-0.2l-0.2,0.2C403.3,292.1,404.5,292,403.8,292.9z
			 M404.3,289l-0.4,0.4L404.3,289l-0.2,0l0.8-0.9L404.3,289L404.3,289z M404.5,286.2c0.2,0,0.3-0.6,0.3-0.1c0.7,0.1,0.4-0.7,0.8-0.9
			l-0.4,1.3C404.9,286.6,404.3,286.8,404.5,286.2z M406.4,292.5c-0.3-1,0.3-2.7-1.2-3l1.4-0.2l0-0.4
			C407.1,289.6,406.7,291.7,406.4,292.5z M407,280.5l-1.1-0.8c1,0.3,0.8-0.9,1.1-1.4L407,280.5z M409.5,276.6l-0.4,0.2l-0.3-0.6
			L409.5,276.6z M408.7,279c-0.2,0-0.3-0.1-0.2-0.3C408.5,278.8,408.6,278.9,408.7,279c0.4,0.1,1.1-0.1,0.6,1
			c-0.5,0.3-0.5-0.6-1.1-0.1C408.8,279.7,408.8,279.3,408.7,279z M408.9,293.3c-0.2-1.2-0.8-1.9,0.1-2.9
			C410.2,291.1,408.7,292.5,408.9,293.3z M409.6,288.5c-0.5-0.6-0.4-1.9-0.7-2.9l-0.9,0.3l0.2-0.2c0.3-0.1,1.3-0.7,1.5,0.2
			C408.7,286.9,410,287.4,409.6,288.5z M410.4,299.2l0-0.4c0.1-0.2,0.1-0.8,0.2-1.3c0,0,0-0.1-0.1-0.1c0-0.1,0.1-0.1,0.1-0.2
			c0.1-0.4,0.3-0.7,0.9-0.5c-0.1,1.1-0.5,0-0.9,0.5c0,0.1,0,0.2-0.1,0.3c0.1,0.3-0.3,0.9,0.2,0.9c0.3-0.1,0.7,0,0.6-0.5l-0.2-0.1
			l0.2,0c0,0.1,0,0.1,0,0.1l0.3,0.2C411.1,298.7,411.1,298.9,410.4,299.2z M411.6,296.2l0-0.9l-0.6,0.4c0.1-0.1,0.7-1,1.2-0.4
			L411.6,296.2z M411.3,277.5l-0.2-0.9l1.1-0.3L411.3,277.5z M414.6,300.5l-0.2-0.9l0.2,0.2L414.6,300.5z M417.9,310.7l-0.5-0.4
			l0.7-0.5L417.9,310.7z M424.1,293.4c0.2-0.2,0.5-0.3,0.7-0.5c0.4,1.2-0.5,0.8-1.2,1l-0.4,0.2c0.1-0.1,0.2-0.2,0.4-0.2l0.6-0.4
			L424.1,293.4z M424.8,295.4l-0.6,0l0.4-0.4L424.8,295.4z M423.8,294.8l0.1,0.1l-0.8,0.9l-0.1-0.1L423.8,294.8z M422.4,294.9
			c0.1,0.1,0.1,0.2,0.1,0.5C422.4,295.2,422.4,295.1,422.4,294.9c-0.2-0.2-0.6-0.2-0.7-0.5C422.3,294,422.3,294.4,422.4,294.9z
			 M419.7,288.3c0-0.1,0-0.2,0.1-0.2c0.1-0.2,0.1-0.4,0.2-0.6c0.4,0.5,0,0.5-0.2,0.6C419.8,288.1,419.7,288.2,419.7,288.3
			c0,0.1,0,0.2,0.1,0.3l0.2,0c0.4,0.2-0.3,0.1-0.7,0.1C419.5,288.6,419.6,288.4,419.7,288.3z M416.7,283.5l0.1,1
			c-0.7,0.3-0.6-0.9-1.4-0.3l0.6-0.4l0,0.2C416.3,284.1,416.6,284,416.7,283.5z M414.7,287.5l0.4-1.1l0.6,0.5
			C415.8,287.9,414.7,287.3,414.7,287.5z M416.1,286.5c-0.6,0-0.6-0.9-0.2-1.5c0.4,0.2,1.2-0.4,1.3,0.1L416.1,286.5z M416.6,283.1
			c-0.2-0.1-0.3-0.3-0.4-0.4l-0.2-0.1c0.1,0,0.2,0,0.2,0.1l0.6,0.2l0-2.1c-0.6,0.4-0.7-0.6-1.1-0.8l0.7-0.5
			c-0.9-0.1,0.1-1.8,0.3-2.4c0.3,1,0.1,1.8,0.8,2.6c0.1-0.1,0.2-0.2,0.3-0.3l-0.3,0.3c0,0,0,0,0,0c-0.3,0.3-0.5,0.9-0.5,1
			c0.2,0.2,0.4-0.4,0.5,0.1C416.8,281.5,417.9,282.3,416.6,283.1z M417.7,296.8l-0.4-0.2l0.8-0.4L417.7,296.8z M420.2,296.1
			c-1,0.3-0.2,0.8-0.5,1.9c-0.5-0.8-0.4-0.9-1.1-1.8l0.5-0.1C419.3,295.6,419.9,296.1,420.2,296.1c0.1,0,0.1,0,0.2-0.1
			C420.4,296.1,420.3,296.2,420.2,296.1z M418.6,295.2l0.2,0l-0.8,0c0.8-0.2,1-1.8,0.2-1.9l-0.3,0.5l-0.5-0.8l0.3,0.3
			c1.7-0.5,1-3.2,1.3-4c0.6-0.4,1,0.7,0.6,1l0.8-0.4l-0.6,0.6c2,1.7-0.7,1.7,1.5,3.2C420.7,296,419.6,293.5,418.6,295.2z
			 M421.2,311.9l0.5-0.5l-0.1-0.1l0.4,0L421.2,311.9z M423,309.5c-0.4,0.3-1,0.3-0.8,1.1c-0.3-0.3-0.6-0.9-0.9-0.9
			c0.8-0.4,0.1-2.2,0.8-2.1c-0.2,1.3,1.1,0.4,1.1,0.9l-1.1,0.1c0,0.4,0.2,0.7,0.4,0.9C422.6,309.5,422.8,309.6,423,309.5
			c0.1-0.1,0.2-0.1,0.2-0.2C423.2,309.4,423.1,309.5,423,309.5z M421.5,306.5l0.5-0.1l0.4,0.2L421.5,306.5z M422.9,307.7
			c0,0,0-0.1,0.1-0.2c0-0.4-0.6-1,0.2-1.4c0.1,0.5-0.1,1.1-0.2,1.4C423,307.6,423,307.7,422.9,307.7z M424.1,305.9l-1-0.3l0.4-0.4
			C424.2,304.4,424,306.3,424.1,305.9z M425.4,298.7l-0.2-1.5l-0.7,0.8c0.2,0.9-0.6,3.9,1,5.2l-0.9,1.6c0-0.4-1.1-0.6-1.2,0
			c-2.3,0.3-0.4-2.8-2.7-2.5c0.4-0.4,2.3-0.3,1.7-1.6l1,0.5c0.5-0.1,0.1-0.6,0.2-0.9c-0.9-0.1-1.3-0.1-1.4-0.6
			c1.1,0.4,0.1-0.8,0.9-1c0.7,0.4-0.3,0.5,0.1,1c0.4-0.2,0.8-0.4,1-0.6l-0.1-0.1c0.2-1.1,0.7-1.6,1.7-1.8
			C424.7,297.6,426.6,298.3,425.4,298.7z M428.6,305.6l-0.1,0.3l-0.6-0.7L428.6,305.6z M428.2,300.9c-0.2,0-1,0.9-1,0L428.2,300.9z
			 M428.6,316c-0.4,0.1-0.5,1-1,1c0-0.7-0.6-0.5-0.4-1.2c0.2-0.4,1.5-0.7,0.8-1.3C428.9,314.4,428.3,315.7,428.6,316
			c0.1,0,0.2,0,0.4,0.1C428.8,316.2,428.7,316.1,428.6,316z M429,310.9l0.2-0.3c0-0.3-0.5-0.7-0.3-1.1c0,0-0.1,0-0.1-0.1l-1,0.7
			l0.5-1c0.2,0.1,0.4,0.2,0.5,0.3l0.2-0.1c0,0.1-0.1,0.1-0.1,0.2c0.1,0.1,0.2,0.2,0.3,0.7c0.3,0.1,0.5-0.3,0.6-0.4l-0.5,0.9
			C429.2,310.7,429.1,310.8,429,310.9z M429.7,307.6c-0.5-0.6-0.3-1.8,0.5-2.2C429.1,306.3,430.4,306.6,429.7,307.6z M431.3,310
			c-0.2-0.7,0.6-1.9-0.6-1.7c-0.1,0.6,0.3,0.3,0.3,0.8l-0.9-0.4c0-0.4-0.1-1,0.1-1.2c0,0.2-0.1,0.6,0.2,0.7c0.5,0.3,1.3-0.7,1.1-0.7
			C431.8,307.7,432.1,309.6,431.3,310z M439.4,303.3c-0.2,0.4,0,2.1-0.7,1.2C439.1,304.4,439,303.7,439.4,303.3z M437.6,303.3
			c-0.7,0.8,0.3,0.6,0.6,0.7l-0.9,0.7C437.2,304.2,437,303.7,437.6,303.3z M435.8,300.7c-0.7-0.1-0.9,1-1.2,0.4
			C434.9,300.7,435.2,300.4,435.8,300.7z M434.2,297.7l0.6,0l-0.2,1.3C433.7,299,434.1,298.2,434.2,297.7z M433.2,299.3
			c-0.4,0.2-0.9-0.1-1.1,0.6C432,298.6,432.7,299.4,433.2,299.3c0.1,0,0.2-0.1,0.3-0.3C433.4,299.2,433.3,299.3,433.2,299.3z
			 M433.9,299.9c0.1-0.3,0.4-0.2,0.8-0.2l-0.6,0.7C433.8,300.3,433.9,300.2,433.9,299.9z M435.1,326.7c-0.2-0.2-1.2-0.3-0.6-0.9
			C434.5,326.2,435.4,325.9,435.1,326.7z M437.3,325.2l0.4-0.9l0.3,1C437.8,325.1,437.4,325.9,437.3,325.2z M438.9,324.4l-0.1-0.8
			l0.5,0.3L438.9,324.4z M438.9,308.8c-1,0-0.7-0.6-0.9-1.4c-0.5,0.5-0.8,0.6-1.6,0.4l-0.4,2.3c-0.2-0.7-0.3-1-0.9-0.9
			c0.5-1.2,0.7-2.2,0.5-3.3c0.7-0.3,1.5-0.3,2.2-1.1c0.8,0.7,1.3,1.6,1.8,2.6L438.9,308.8z M443.5,298.1c-0.1,0.6-0.1,1-0.2,1.4
			C443.4,299,442.8,298.2,443.5,298.1z M441.6,320c0.9,0.6,0.1-1,1-0.9l-0.8,1.5C441.8,320.4,441.9,320.1,441.6,320z M441.8,311.9
			c0.1,0.1,0,0.2,0.1,0.3l0.6-0.7c0,0.4,0.2,1.2-0.1,1.2l0-0.2l-1.1,0.3C441.8,312.5,441,311.8,441.8,311.9z M440.4,323.4
			c-0.4-0.2-0.2-0.9,0-1.3C440.8,322.5,440.5,323.1,440.4,323.4z M442.1,314.1l-0.2,1.1c-0.5-0.3-0.9-0.8-0.8-1.5L442.1,314.1z
			 M443.2,326.8c-0.1-0.3-0.1-1,0.4-1.3C443.3,325.6,444.1,327.2,443.2,326.8z M444.4,323.6c0,0.4-1.5,2.2-2.1,2.6
			c0-1.1-1.1-0.6-1-1.9l0.7,0.1c-0.3-0.8-0.3-2,0.2-2.6l-0.5-0.1l0.8-1.3c0.3-0.1,0.8,2.4,1.6,0.5c-0.6,0.6-0.8-0.9-0.3-0.8
			C444.5,321.6,445.3,322.7,444.4,323.6z M450.3,305.4c-0.2,0.7,0.9-0.1,0.4,0.7C450.6,305.7,449.8,306.1,450.3,305.4z"/>
	</g>
	<g>
		<path d="M439.3,264.5l0.1-0.2l-0.4,0l0.4,0l0,0l0.4,0l-0.4,0.3l3.2,2.4c-0.2-0.5-0.3-1,0.2-1.2c0.2,1.2,1.4-0.4,1.8-0.4
			c-1.5,0.3,0.1-1.3-1.1-1.6c-0.6,0.2,0.1,1.2-0.7,0.5c0.4-1.9,1.3,0.4,1.6-1.5c-0.1-0.6-0.9-0.4-1.1-0.4l-0.1,0.3
			c-0.4-1.1-0.9-0.8-1.5-1.2c-0.1,0.1-0.1,0.3,0.1,0.3l-0.6,0c0.3-1.2,0.5-2.9-0.1-3.8c-0.9,0.3,0.2,1.1-0.6,1.5l-0.3-0.3
			c-0.7,0.5,0.3,1-0.1,1.6c-0.8,0-0.3-1.3-1.2-1c0,1.3-0.3,0.3-0.5,1.4l0.7-0.3l-1.2,1.3c0.8-0.2,1.9-0.5,2.3,0.2
			c-0.5,1.4-1.9,0.1-2.1,0.5c-2.4-0.9-0.1-3.6-1.8-4.3c0.9-1,1.7-1.8,1.8-3.2c1.4,0.3,1.1,2.3,2.4,2.6c-0.1-0.1,0.6-2.1-0.6-1.5
			c0-1.1,1.5-2.4,0.8-2.8l-0.1,0.1c0.4-0.4,0.6-0.9,0.9-1.2c-0.2,0-0.4,0-0.4-0.2c0.7-0.3,1.6,0.6,2.1-0.9l-0.4,0l0.8-0.4
			c-0.1,0.6,0.3,0.1,0.5,0.8c0.2-0.2,0.6-0.4,0.6-0.9c0-0.7-0.6-0.7-0.9-0.8c0.9-0.3,0.7-1.4,1-1.9l0.3,0.6c0.1-0.3,0.6-0.4,0.5-1
			c-0.2,0-0.5,0.1-0.7-0.1c0.1-1.2,1.3-1.9,1.6-2.7c-0.1,0.6-0.1,1,0.6,0.7l-0.7,1c1.1-0.5,0,1.5,1.1,0.9c0,1.1-1.4,2.3-1.1,3.8
			c-0.3,1.4,1.2,0.3,1.7,0.7l-1,1.1l0-0.7c-0.3,0.8-0.9-0.1-1,0.9c0.4,0.7,0.5,1,0.9,1.4l-0.2,0.2l0.5,0.1c-0.9-0.1-0.5,1.2-1.1,0.7
			c-0.4,3,0.1,4.8,0,7.7c0.1,1.8-1.2,1.7-0.7,3.8c0.3,0.3,0.8-0.2,0.6,0c0.7,0.8-0.9,1.2-0.2,1.9l-0.1,0l5.5,4.3v-25.1l-0.4-0.1
			l0.2-1.1c0.1,0.1,0.1,0.2,0.2,0.3v-5c-0.2,0.3,0.3,1.2-0.3,1.6c-0.7-0.6-1.2,0.4-1.3,0.5c-0.7-0.6-1.5,0.3-1.8-0.8
			c0.4-0.7,1.2-0.6,1.4-1.3c-1.1-0.6,0.5-2-0.6-3.2l1.4-0.9c-0.7-1.5,0.3-1.7,1-2.2l-4.3-3.4c-0.4,0.2-0.9,0.4-0.9,1.4
			c0.7,0.4,0.7-0.8,1.5-0.5c0,1.1-0.7-0.4-0.7,0.5l0.4,0.9l0.2-0.2l-0.9,1.2c0.4-1.3-0.7-1.6-0.9-2.5l0.8-0.9
			c-0.5-0.1-0.5-0.4-0.5-0.8l-1.7-1.4c-0.1,0.2-0.1,0.4-0.1,0.6l0.6-0.2l-0.5,1.2l0.2,0l-0.5,0.5c-0.1-0.3,0.1-0.6,0.1-1
			c-0.1,0.1-0.5-0.1-0.6,0.2l0.2-1.9l-1.6-1.3c-0.1,0.1-0.1,0.1-0.2,0.2c0.4-0.2,0.5,0.1,0.6,0.5c-0.4,0.2-0.9-0.4-0.9-1.1l-0.4-0.3
			c-0.4,0.3-0.7,0.8-0.5,1.5c-0.1-0.6-1.2-0.5-1.5,0.3c-0.4,1.1,1.6,0.5,0.6,1.7c0.5-0.3,1.6-0.2,1.3-1c0.7,0.6-0.5,2,0.6,2.1
			c0.5,1.6-1.4,0.4-1,1.9c0.2,0,0.6,0,0.7-0.3c0.4,0.2-0.1,0.3-0.2,0.4c-0.2,0.2-1,0-1-0.7c1.9-0.3-0.8-1.7,0.4-2.6
			c-0.6,0.2-2.3,0.7-1.4,2l0.3-0.1c0.1-0.1,0.2-0.2,0.4-0.2l-0.4,0.2c-0.2,0.3-0.1,0.8-0.3,1l0.6,0.2c0.1,0.2-0.1,0.9-0.3,1.4
			c0,0,0,0.1,0,0.1c-0.1,0.2-0.1,0.3-0.2,0.3c0-0.1,0.1-0.2,0.2-0.3c0,0,0-0.1,0-0.1c0.1-0.3,0.2-0.7-0.2-0.8
			c-0.3,0.1-0.9,0.3-1,0.6c-0.1-0.6,0.2-1.1-0.2-1.7l0.7,0.6l0-1.2c-0.4,0-1,0.2-1,0.4c0.8-1.3,0-3.5,1.1-5l-0.2,0.2
			c-0.6-0.9,0.7-1,0.6-1.9c-0.5-0.2-0.5-0.7-0.5-1.2l-4.7-3.6c-0.6,0,0.5,0.7,0.1,1.3l0.5-0.3c-0.1,0.1-0.3,0.3-0.2,0.4
			c0.3,0.8,1,0.5,1.1,0.1l0,1.1c0.2,0,0.6,0,0.7-0.3l-0.6,1.3c0.1,0.3,0.6,0.2,0.9,0.4l0-0.9l0.6,0.7c0.1,1.2,0,3.2-0.7,5
			c2.1,0.5-1.2,2.1,0.9,2.7c-0.4,0.7-0.7,2.2-1.3,2.6l1.4-0.6l-0.9,1.3c0,0,0,0.1,0,0.1l-0.4,0.4l0.4-0.6c0-0.7-0.6,0.1-1-0.4
			c-0.3,0.8,0.3,1.6,1.2,2.4l-1.5,0.7l0.3,0.4l-1-0.3l-0.3,0.8l1.2,0c0.5,0.4,0.3,1.3-0.2,1.8c0,0.1-0.1,0.2-0.3,0.3
			c0.1-0.1,0.2-0.2,0.3-0.3c0.1-0.3-0.8-0.7,0-1.4c-0.3-0.3-0.5,0.3-0.8,0.2l-0.5-1.1c-0.1,1.8-1.8,1.9-2.1,3.3
			c0.9-0.3,0.7,0.4,1.3,0.1c0.3,0.1-0.7,0.3-1.1,0.5c1.2,0.8-0.7,2-0.9,2.6l-0.6-0.5l-0.5,1c0.9-0.5,0.4,0.5,1.1,0.6
			c-0.2,0.2-0.5,0.3-0.5,0.8c0.6,0.2,0.5-0.3,0.8-0.2c-0.3,0.5-1,1.1-1.4,0.2c-0.4,0.4-1,0.9-1.1,1.4c0.7-0.3-0.1,1,0.1,1.6
			c0.1,0.1,0.3,0.1,0.3-0.1c-0.2,0.7-0.9,0.3-1,1.5l-0.9-0.4c0.2,0.7,0.1,1.6,0.5,1.6l-0.3,0L439.3,264.5z M442,264.2l-0.2,0.6
			c0.1,0.5,0.6,1-0.4,1l0.4-1C441.7,264.6,441.7,264.4,442,264.2z M441.7,262.9c-0.4,0.7-0.7,0.3-1.1,0.5L441.7,262.9z M447.2,261.2
			c0-0.2-0.2-0.7,0.4-0.4l-0.3-0.8C448,260.1,447.6,261.2,447.2,261.2z M447.8,251.4c0.2,0,0.3,0,0.3,0.2
			C448,251.6,447.9,251.5,447.8,251.4c-0.3,0.1-0.8,0.5-0.6-0.4l0,0.2C447.5,251.3,447.6,251.4,447.8,251.4z M443.5,247.2
			c-0.1-0.3,0.2-1.1,0.2-1.1c0,0.7,0.7,0.1,0.8,0.2L443.5,247.2z M443.5,233.6l1.2-0.1c-0.1,0.6-1.2,1-1.4,1.4c0,0,0,0,0,0
			c0,0,0,0,0,0.1c0,0.1,0,0.2,0.2,0.3c-0.2-0.1-0.2-0.2-0.2-0.3c0,0,0,0,0-0.1c0,0,0,0,0,0c0.1-0.3,0.6-0.6,0.6-1
			C443.7,233.9,443.6,233.7,443.5,233.6l-0.3,0C443.3,233.5,443.4,233.5,443.5,233.6z M444.4,242.5l0,1.5c-0.7-0.1-2.2,0.4-2-1.1
			C443.1,241.8,443.7,243.7,444.4,242.5z M442.6,234.8c0.3,0.3-0.1,0.8-0.2,1.1C442.6,235.5,442.1,235,442.6,234.8z M442,231.1
			c0.1-0.1,0.1-0.2,0.2-0.2C442.2,231.1,442.1,231.1,442,231.1c-0.2,0.3-0.3,0.8-0.6,0.3C441.5,231.1,441.8,231.2,442,231.1z
			 M442,235.1c0,0.8-0.9,0.6-1.1,0.5l0,0c-0.1,0,0,0,0,0L442,235.1z M437.1,244.5l0.3,0.3c1.6-0.2,0-1.4,0.7-2.2l0.4,0.5
			c0.8-0.6-0.2-1.5-0.9-1.1c0.1-0.6,0.8-0.2,1.1-0.1c0.4-0.2,0.8-1.1,0.1-1.2l-0.2,0.4c-0.8-1.5,0.1-3.3-0.5-3.9
			c0.9-0.3,1.3,0.6,1.8,0.8c0.5-1-0.4-1.1,0.5-1.4l-0.2,0.9l0.5-0.1c0.1,0.6-0.1,1-0.3,1.6l0.6,0c0.1-0.5,0.2-0.9,0.2-1.3l0.1,1.3
			l-0.3,0c-0.4,2-1.5,4.1-1.4,5.1l-1,0.9c1.1-0.1-0.4,1.7,0.2,2.3l0.7-0.8l-0.1,1.2c0-0.2-0.4-0.5-1,0c0.3-0.8-1.1-0.9,0-1.2
			l-0.8-0.2c0.3,0.3,1.1-0.7,0.6-1.3c-0.3,0.3-1.7,0.1-1,1.1C436.8,245.8,437.1,245,437.1,244.5z M435.3,245.2
			c-0.6,0-0.9-1.4-0.9-1.4C435.3,243.7,434.6,244.8,435.3,245.2z M432.7,243.4l0.9-0.1l-1.1,0.5L432.7,243.4z"/>
		<path d="M391,227.1l4.5,3.4c0.4-1.1,0.9-2.3,1-2.8c-0.1,0.6,0.8,0,0.7,0.9l0.3-0.3c0.8,0.9-0.7,0.8-0.2,1.9c1.2,0.3,1,1.5,0.9,2.5
			l22,17.1c0.4-0.4,0.4-1.2,0.8-1.8l-1.5,0.5c0.4-0.9-0.9-0.8,0.1-1.4c-0.1-0.6-0.8-0.2-1,0.2l-0.2-0.9c-0.6,0-0.8,0.9-1.3,0.3
			c1.4,0.5,0.9-1.6,1.9-1.8c-0.5,0.1-0.5-1.6-0.4-2.4c1.6,0.6-0.9,1.8,0.7,2.3c0-0.9,0.6-1.3,0.1-2c0.1-0.8,1.1,0.9,1.4-0.4
			c-0.1,0.3,0.3,1-0.4,1.3l1.2,0.8c-0.1,1.4,0.3,2.2-0.7,3.5c1.7,0.4-0.5,1.7,0.9,2.5c0-0.7-0.3-0.8,0.5-1.2c0.6,0,0.5,0.6,1,0.7
			c1.4-0.4,0.9-2,1.5-2.9c-0.8-0.5-1.2,0.6-1.5,0.7l1-1.3c-0.2-0.5-0.6-1.5-1-0.8c0.6-1.1,0-0.7-0.2-1.7c0.3,0.6,1,0.3,1.2,0.5
			c1.7-1,0.2-2.1,1.1-3.5c0,0-0.1,0-0.1,0.1l0.2-0.2c0,0.1-0.1,0.1-0.1,0.1c0.7-0.4,0.1-1.3,0.4-2l1,0.3c0.7-0.5,0.7-1.8,0.3-2.2
			c-0.2,0.2-0.2,1.1-0.3,0.5l0.1-1.2l0.4,0.7c2.1-1.6-0.2-4.2,1-6.2l-0.2,0c0.6-0.7,0.4,0,0.9-0.3c-0.3,1.2-1.4,2-0.6,3.2
			c0.6-0.4,1.5,0.4,1.3-0.7l-0.9,0.1c0.4-0.9,1.2,0.5,1.2-0.9c-0.6,0-0.5-0.8-1.3-0.4c0.5-0.3,0.9-1.2,1.3-1.2
			c-0.2-0.7-0.7,0.1-1-0.7l1.2,0l0.1-1.3c-0.3,1-1.5,0.1-1.6,0.8l-0.1-0.4c0,0,0,0-0.1,0l-0.1-0.6l0.1,0.6c0.3,0.1,0.5-0.2,0.8-0.5
			c1.5,0.5,0.3-2,0.4-1.9c-0.1,0.1-0.2,0.2-0.3,0.3c-0.1,0.1-0.2,0.3-0.4,0.2c-0.2-0.1,0.1-0.1,0.4-0.2c0.4-0.6,0-2.1,0.9-1.2
			c-0.2-0.7,0-1.3,0.1-1.8c0.9,0.1-0.2,1.4,0.4,1.7c0.5-1,0.8-1.9,0.5-3.1c0.3-0.3,0.8-0.3,1-0.6l-0.6-0.4c-0.2,0.2-0.4,0.3-0.8,0.1
			c0.2-0.1,0.3-0.3,0.4-0.4l-3.3-2.5c-0.1,0.1-0.3,0.2-0.5,0.3c0.5,0.1,0,0.8,0,1.4l0.3,0.6c-0.2-0.2-0.3-0.4-0.3-0.6l-0.6-1.2
			l-0.6,0.4c0.1-0.5,0.3-1.2,0.7-1.7l-11.2-8.6c-0.2,0.1-0.4,0.2-0.3,0.7c0.2,0,0.4,0,0.4-0.2c1,1.5-1,1.3-1.4,2.5
			c-0.4-0.7,1-1.5,0.7-2.4c-0.3-0.1-0.5,0.5-0.8,0.2c0.4-0.2,0.7-0.8,1-0.6l-0.6-0.7c0-0.1,0-0.1,0.1-0.1l-0.4-0.3l-0.2,0.3l0-0.4
			l-3-2.3l0,0c-0.4,0-0.7,0.1-0.7-0.4c0.1-0.1,0.1-0.1,0.1-0.1l-4.7-3.6c-0.4,0.3-1.1,0.9-1.4,1.4c-0.1,0.3-0.1,0.5,0,0.7
			c-0.2-0.2-0.1-0.5,0-0.7c0.1-0.5,0.3-1.2-0.5-1.3c-0.2,0-0.1,0.3-0.1,0.6c-0.4,0.2-0.7-0.1-1-0.5c0.8,0,1.2-0.6,1.9,0.2
			c-0.4-0.6-0.2-0.9,0.2-1.1l-1-0.8c-0.1,0.4-0.3,0.8-0.9,0.7c-0.2-0.6,0.1-0.8,0.4-1.1L391,189.9V227.1z M426.7,226.3
			c0.4,0.2,0.2,0,0.2,0.5c1.2,0,0,2.1,0,2.6C427.1,228,425.9,227.7,426.7,226.3z M426.4,230.2c0.5-0.3,0.1,0.1,0.6,0
			c-0.3,0.6-0.4,0.2-0.8,0.2L426.4,230.2z M423.3,246.4l-0.7,0.3c0.1-0.1-0.1-0.6,0.2-0.7C423,246,423.1,246.1,423.3,246.4z
			 M423.2,243.2c-0.9-1.1,0.4-1,0.9-1.7c0-0.5-0.1-1.1-0.1-1.5c0.4,0.8,0.3,1.2,0.1,1.5C424.1,242.4,424,243.2,423.2,243.2z
			 M423.9,227.8c0.5,0.3,0.6,0.7,0.2,1.2C424,228.4,423.3,228,423.9,227.8z M422.7,219.4l0.7,0.6c0,0.9-0.7,0.3-1.1,0.7L422.7,219.4
			z M420.8,216.9c-0.1,0.1,0.3,0.3,0.6,0.1c0-0.1,0.1-0.2,0.2-0.3c-0.1,0.2-0.1,0.3-0.2,0.3c-0.3,0.7,0.7,1.7-0.5,2
			c-0.1-0.6,0.2-1.4-0.7-0.9L420.8,216.9z M421.1,239.7c0.2,0.7-0.5,1-0.8,1.1L421.1,239.7z M421,241.5l0,0.4l-1,0.2L421,241.5z
			 M418.9,228.2c-0.1,0.2-0.1,0.4-0.1,0.6c0.3,0.2,1.3-0.1,0.5,0.8c-0.4-0.1-0.5-0.4-0.5-0.8C418.6,228.6,418.6,228.5,418.9,228.2z
			 M410.2,230.7c-0.7,0.1-0.4-0.7-0.6-1C409.7,230,410.5,229.9,410.2,230.7z M410.6,230.7c-0.2-0.5,0.1-1-0.1-1.2
			C411.4,229.6,410.7,230.4,410.6,230.7z M412,233.5l0.1-0.6l0.3-0.3L412,233.5z M412.4,227.1c-0.2-0.1-0.3-0.3-0.3-0.5
			c-0.1,0-0.1-0.2,0.1-0.5c0,0.1-0.1,0.3-0.1,0.5C412.3,226.6,412.8,226.4,412.4,227.1z M414.3,234.5c-0.8,0.6-0.6,3.3-1.3,1.8
			c-0.1-0.8,0.6-1.9,1-2.5C414,233.9,414.1,234.3,414.3,234.5c0.1-0.1,0.2-0.1,0.3-0.1C414.5,234.7,414.4,234.7,414.3,234.5z
			 M413.1,233.7l0.6-0.9l-0.2,1.3L413.1,233.7z M416.3,212.7l-0.2,1.1c-0.2,0-0.4-0.2-0.7-0.1l0,0.7l-0.4-0.2
			C414.7,213.3,415.8,212.8,416.3,212.7z M414.5,213.5l-1,0.9C413.6,213.2,413.7,214,414.5,213.5z M412.9,213.1l0.2,0.9l-0.7-0.4
			L412.9,213.1z M411.6,211.5c1.1,0.4-0.9,2,0.5,1.8c0.2,0.9-0.8,0.6-1.2,0.9C411,213.2,411.2,212.3,411.6,211.5z M408.7,221.4
			c1.3,0.7,0.9-1.9,2.1-1.6c-1.1-1.1,0.5-2.2-0.2-3.2c-0.8-0.8,1.2-1.1,1-1.9c0,0.9,1,0.3,0.8,0.5c-0.4,0.7-1,0.9-1.3,1.9
			c0.3,0.1,0.7,1.1,0.8,0l-0.2,0l0.9-0.8l0.1,0.6c0.4,0.2,0.9-0.3,0.9-0.5c-0.3-0.1-0.6-1.5-1.1-0.4c0.5-1.8,1.6-0.2,2.3-1.4
			l0.3,0.8c0.5-0.3,1.1-0.7,1.2-1.1c0.6,2.1-2.8,0.8-2.1,3.5c0.3-0.1,0.6,0,0.7-0.3l-0.4,1.1c0.3-0.2,0.8-0.4,1.1-0.8
			c0.1-0.1,0.2-0.3,0.3-0.4c0.1-0.2,0.1-0.5,0.1-0.8l-0.5,0.1c0.2-0.2,0.3-0.5,0.6-0.4c0.2,0.4,0,0.8-0.2,1.1
			c-0.1,0.2-0.2,0.3-0.3,0.4c-0.1,0.2-0.2,0.4-0.2,0.7c1.4,0.6,0.2,3,0.4,4.5c0.6,0.9,1.2-0.4,1.6-0.6c0.6,1.5-1.5,0.5-1.2,2.1
			c0.3-0.1,0.8-1.1,0.8-0.2c-0.9,1.2-1.3,1.6-1.1,3.3c-0.8-0.2-0.3-1-1.5-0.9l0,1.1c0-0.4-0.3-0.8-0.6-1.2c-0.1,0.1-0.1,0.1-0.2,0.2
			l0.2-0.2c0,0,0,0,0,0c0.2-0.2,0.4-0.3,0.3-0.6l-0.5,0.1l0.6-1.1c0.1-1.2-1.5-0.4-1.2-1.7c0.6,0.2,0.7-0.3,0.4-0.7
			c-0.8-1-1.1,0.5-1.7,0.7c0.5,1.6-0.6,2.5-0.5,4.2c-0.3-0.3-1,0-0.6-0.7l0.2,0.2c0.3-0.5-0.2-2.1,0.8-2.5c-1.1,0.1-0.1-1.3-0.5-2
			c-0.7,0.3-1.5-1.6-1.9-0.2C408.9,222.1,408.5,221.8,408.7,221.4z M408.1,223.1l0.3-0.7c0.3-0.1,0.5,0.3,0.6,0.7
			C408.7,223.2,408.3,223,408.1,223.1l-0.2,0.4C407.9,223.2,408,223.1,408.1,223.1z M395.6,226.3l-0.1,0.1l0.7-0.9
			c0.1-0.1,0.1-0.2,0.3-0.4l-0.3,0.4c-0.3,0.5,0.5,0.3,0.3,0.9c0.3-0.8,0.4,0.5,0.7,0.4C396.5,227.7,395.8,226.9,395.6,226.3z
			 M397.5,226.2l0-0.7l0.8,0L397.5,226.2z M400.2,229.2c0.6-0.4-1.1-2.5,0.5-1.7C399.7,228.4,401.2,228.3,400.2,229.2z M403.2,231.7
			c0,0,0-0.7-0.5-0.8c0.3-0.6,0.7-0.8,1.3-0.7L403.2,231.7z M402.6,228.9l0.5-0.3l0,1.1L402.6,228.9z M404.5,220.5l-0.8,0.6l0.4-0.7
			L404.5,220.5z M403.3,202.7c-0.1,0.6,0.4,0.2,0.6,0.2c0.2,0.9-1.3,0.1-1,1.3l0.6,0l-0.4,0c0.8,0.2,0.2,0.9,0.4,1.2
			c-0.4-1.2-0.9,0.3-1.4-0.8C403.1,204.4,402.7,203.2,403.3,202.7z M403.2,208.6c0-0.4-0.1-0.8,0.2-0.9
			C403.8,208.2,403.6,208.4,403.2,208.6z M401.6,205.6l0.3,0.3l-0.9,0.3L401.6,205.6z M400.7,221.6l0.5-0.1l0,0.2l0.4-0.1l0-0.1
			c0.1,0,0.1,0,0.2,0l0.5-0.1c0.1,0.6-0.2,0.3-0.5,0.1l-0.2,0.1l0.4,2.5c0.1-0.2,0.3-0.3,0.6-0.2l-0.6,0.2l0,0c-0.1,0.4,0,1,0.1,1.4
			c1.4,0.3-0.1-1.2,0.8-1.5l0.7,0.6l-0.2,0c0.1,0.6,0.2,0.7,0.7,0.8c0.2,0.3-0.1,0.7-0.4,1.1c-0.1,0.1-0.2,0.3-0.5,0.4
			c0.1,0,0.3-0.2,0.5-0.4c0.3-0.5-0.4-1.2-0.4-1.9c-0.1,0.3-0.9,1-0.2,1.1l0.1-0.1c-1.1,1,0.5,2-0.1,2.9c-1,0.2,0-1.1-1.1-0.8
			l0.2-1.7c-0.7-1.1-1.3,1-2,0.8c0-0.4,0.4-0.9,0.6-1.3c0.2,0,0.3,0.6,0.5,0.3c-0.4-0.2,0.9-1.4,0.1-1.8l-0.8,0.4
			C401.2,223.2,401,222.3,400.7,221.6z M399.5,224.1l0.9-0.3l-1.6,1.3c0.5-0.3,0.2-1.4,0.6-1.5C399.9,223.7,399.3,223.9,399.5,224.1
			z M398,202.8c-0.1,1.4,0.8,0,1.3,0.7c-1,1.3-0.4,2.8-1.5,4.2c0.8-1.1-0.7-0.6-0.9-1.1C398.1,206.1,396.6,203,398,202.8z
			 M396.8,208.3l0.6,0.2l-1.1,0.3L396.8,208.3z M396.1,224.5c-0.5,0.1-0.8-0.9-0.4-1.2C396.3,223.2,396.7,224,396.1,224.5z
			 M396,207.5c-0.5,0.5,0,0.9-0.8,0.6L396,207.5z M392.3,214.4c0.5,0.1,0.4-1.1,1.1-0.5c-0.5-0.3,0.3-1.6-0.7-1.1
			c1.5-0.5,0.3-1.8,1.1-2.9c0.6-0.4,0.9,1.1,1.2-0.2l0.1,1c-0.1,0.8,0.9,0.9,1.1,0.4c-1.4,1.7-2.3,3.9-2.6,4.3l0-0.2
			c-0.2,0-0.6-0.2-0.8,0.2c0,0.7,0.3,1,0.8,0.9c-0.9,1-0.2,1.9-1.3,2.2C392.7,217.4,392.8,215.8,392.3,214.4z"/>
		<path d="M432.7,222.9c0.3,0.2,0.4-0.2,0.6-0.3l-0.6-0.5C432.5,222.4,432.2,222.6,432.7,222.9z"/>
		<path d="M451.1,237.8C451.1,237.8,451.1,237.8,451.1,237.8C451.1,237.9,451.1,237.9,451.1,237.8L451.1,237.8z"/>
		<path d="M451.1,242.2v-1.7c-0.1,0-0.1,0-0.1,0.1C451.2,240.9,450.9,241.7,451.1,242.2z"/>
	</g>
	<g>
		<path d="M391.1,339.8c-0.1,0-0.1,0-0.2,0v0.7C391.1,340.3,391.2,340.1,391.1,339.8z"/>
		<path d="M391,343.8v0.9c0.1-0.1,0.1-0.2,0.1-0.3c0,0,0,0,0,0C391.1,344.1,391.1,343.9,391,343.8z"/>
		<path d="M391.3,342.3c-0.1,0.6-0.1,1.3-0.2,1.9c0,0,0,0,0,0c0,0.3-0.1,0.5-0.1,0.7v2.1c0.2-0.6,0.5-1.2,0.6-1.4
			C390.9,344.1,392.9,342.4,391.3,342.3z"/>
		<path d="M451.1,382.3c-0.1,0-0.1,0-0.2-0.1l0.2-0.2v-0.4c-0.1-0.1-0.3,0-0.4,0c0.4-0.8,0.3-1.6,0.4-2.4v-1.4
			c-0.1,0-0.3-0.1-0.3-0.2l0.3,0v-7.4c-0.1,1.2-0.3,2.3-1.2,2.3l0.2,0l-0.8,0.4c-0.2-0.7,0.1-1.6,0.2-2.3c1.6-0.1,0.5-2.1,1.3-2.4
			l-20.4-15.8c0,0.6,0.1,1.2,0,1.7c0.8,0.5,0.6-0.7,0.8-0.9c-0.3,1,0.5,1.4,0,2.3c0,0,0,0,0,0l0.3-0.1c0,0.2-0.2,0.2-0.3,0.1
			l-0.4,0.2c0,0.7-0.7,1.5,0.1,1.6l-0.6-0.2c-0.5,0.1-0.2,0.7-0.3,1l0.7,0.1c-0.9,0.8-1-1.7-1.7-0.2l0.7,0.6c0.6,1-0.7,0.8-0.6,1.8
			c-0.9-0.6,0.2-1.7-0.8-1.9c-0.3,0.1-0.1,0.5-0.4,0.7c-0.2-0.2-0.4-0.7-0.7-0.6l0.2,0.7c-0.6-0.9-0.4-2.1-0.9-2.9
			c-0.3,1.8-1.9,0.1-2.4,1.5c0.3,0.1,0.6,2.4-0.6,2.1l0.4-2.3c-1,0.4-2,1.7-2.9,2.7c-0.1,0.8,0.1,1.2,0.2,2.1l-0.7,0.1
			c-0.4,1.3,0.8,0,0.8,1c-1.2,0.2-1.2,2.5-2.8,2.6c0.5-0.1,0.3,0.4,0.2,0.8c0.1,0,0.1,0.2-0.1,0.4c0-0.1,0-0.3,0.1-0.4
			c-0.3-0.1-1.2,0.2-0.8,0.1c0-0.7,1-0.6,0.3-1.6c-0.3-0.1-0.6,0-0.8,0.4l0.1-0.8l-1.5,0.5c0-0.4,0.9-0.8,0.2-1.1l-0.2,0.2
			c-0.1-0.8-0.4-1.2-0.1-1.8l1.1,0.1c-0.1-1.8,1.5-0.1,1.5-1.6l-1.1,0.1c1.7,0.2,1.1-2.4,1.6-2.3l-0.2,0c-0.8-2.6,1.5-2.1,1.7-4.2
			c-0.3-0.3,0.9-2.4-0.6-2.6c1-0.4,1-2.3,0.9-3.5l0.5,0.6c0.5-0.1,0.2-1.1-0.1-1.3c0,0-0.1,0.1-0.1,0.1l0.1-0.1c0,0,0,0,0,0
			c0.5-0.3,0.2-1.7,0.9-1.9c-0.3,1,0.7,1.4,0.1,2c0.4,0.2,1.4,0.3,1.2-0.2c0.1,0.3,1,0.8,1.2,1.7c-0.1,0.3-0.6,0.5-0.7,0.6
			c0,0,0,0-0.1,0c-0.1,0,0,0,0.1,0c0.6-0.4-0.3-0.8,0-1.5c-0.6,0.9-1.3,0.3-1.9,1.4c0.6,0.9,0.5-0.5,1,0c-0.9,0.3-0.7,1.8-1.2,2.1
			c0.2-0.2,0.7,0.1,0.7-0.5l0.8,0.7c-0.2,0.7-0.3-0.1-0.7,0.1c-0.3,0.3-1,0.9-0.4,1.3c0.4,0,1,0.3,0.8-0.4l0.8,0.8
			c0.5-0.5,1.4-1.1,1.2-1.5l-0.5-0.1c0-0.7,0.8-0.4,0.8-0.9l-0.2,0.9c0.1,0.8,0.8,0.7,1.3,0.4c-0.7-0.8,0.4-0.9,0.9-1.2l-0.2-1.5
			c0.1-0.2,0.1-0.3,0.2-0.5l-20.8-16.1c-0.1,0.5-0.2,1-0.7,0.9c0.3-0.4,0.3-0.8,0.3-1.2l-1.8-1.4c-0.1,0-0.1-0.1-0.2-0.1l-13-10v7.5
			c1.6-0.9,1-3.5,2.8-4.1l-0.4,0c1.1-0.7-0.1,0.6,0.9,0.4c-0.2,1.1-0.5,1.5-1.4,1.1c0,0.7-0.2,1.7,0.8,1.3c-1.9,1.2-0.3,3.8-0.3,5.7
			c0,0.7-1.4-0.3-0.9,0.8c-0.4-0.5-1.1-0.3-1.5-0.3v1.4l0.4,0.4l0.9-1.2c0.7,2.2-0.5,1.5-1.3,1.1v2.1l0.6,0.6c0.1-1.2,2.2-1,1.8-1.7
			c0.5-1.2,1.6-1.5,2.7-1.8c-0.2,0.4,0.1,1.3-0.6,0.9c-0.3,1.2-0.1,3.1,0.5,3.9c-0.2,0.2-0.5,0.3-0.7,0.5c0.2,2.3,0.3,2.7,0.6,4.9
			l0.2-0.2c-0.3,1.2-0.8,0.6-1.6,0.8c-1,1.5,1.5,1.2,1,2.6c-0.4,0.7-1.4,1.7-1.1,2.6l-0.4-0.2c-0.4,0.7-1,3-1.1,4.2l0.5,0.1
			c-1.6,1.5,0.1,3.1-2.4,3.8c0,0.1,0,0.1,0,0.2l19.4,15l-0.2-0.3c0.7-0.5,0.2-1.1,0.8-1.8c-0.2,1.3,1.3,0.7,1,1.5
			c0.6-0.7,0.8-0.6,1.1-1.6c0.1,0.3,1.3,0.6,0.7,1.4c0.2,0,0.4-0.2,0.7-0.3l-0.9,1.4l-0.2-0.2c-0.7,0.5,0.1,1-0.1,1.6
			c-0.3-0.8-0.8-1.3-0.4-2.4c-0.5,0.3-1,1-1.5,1.7l6.1,4.7c0-0.6,0.2-0.8,0-1.9l1,0c0,0.9,0.4,1.9,0.4,3l1.4,1.1c0-0.1,0-0.2,0-0.2
			l0-0.9c0.8,0.3,0.2,0.6,0,0.9l0,0.2l0.2,0.2c0.1,0,0.3,0,0.3-0.1c0.1-0.1,0.1-0.1,0.1-0.2c0,0.1-0.1,0.1-0.1,0.2
			c-0.1,0.1-0.2,0.2-0.3,0.1l9.7,7.5c0.1-1.9-0.2-4.2,0.8-6.3l-0.6,0c1.1-0.1,0.1-0.8,0.4-1.1l0.6,0c0,1.5,0.1,3.8,0.8,5.1
			c-0.4,0.2-1.2,1.7-1.1,2.6c0,0,0.1-0.1,0.1-0.1l-0.1,0.1c0,0,0,0,0,0c-0.1,0.1-0.2,0.1-0.2,0.2l3.3,2.6c0.8-0.8,1.2-2.2,1.7-2.5
			c-0.3,0.8-0.6,2.1-0.6,3c0.1,0.2,0.2,0.4,0.3,0.5l15.4,11.9V382.3z M423.5,351.6l-0.8-0.5l1,0L423.5,351.6z M420.1,349.4l0.1,0.8
			l-0.5,0.1L420.1,349.4z M420,353.8l-0.3,1c-0.2-0.2-0.3-0.6-0.5-0.8L420,353.8z M395.5,346.3c-0.2,0.1-0.2,0.5-0.4,0.6l0-0.4
			C395.2,346.3,395.3,346.3,395.5,346.3c0.1-0.1,0.2-0.1,0.3,0C395.7,346.4,395.6,346.3,395.5,346.3z M396.2,334.6
			c-0.1-0.1-0.3-0.3-0.5-0.3l0.5-1C396.1,334,396.8,333.9,396.2,334.6z M400.8,337.2c-0.5-0.4-0.3-0.3-0.2-0.9l0.9,0.4l0,0.9
			c-0.5,0.1-0.9,1.4-1.6,0.6c0.1,0.3-0.5,1.5,0.4,1.1l-1,0.6C398.8,338.4,400.1,337.7,400.8,337.2z M401.2,340.6l-0.7-0.8l0.5-0.5
			C401.4,339.7,401.1,340.5,401.2,340.6z M400.7,341.6l-0.4,0c0.5-0.1,0.8-0.6,1.3-0.1l-1.2,1.3C399.9,342,400.7,342.4,400.7,341.6z
			 M401.8,351.2c0-0.1,0-0.1-0.1-0.2C401.8,351,401.8,351.1,401.8,351.2c0.2,0.5-0.1,1.1,0.5,1.2l-0.9,1.2
			C400.5,352.7,401.7,351.7,401.8,351.2z M401.9,362.8l-0.3-0.8l0.7,0.6L401.9,362.8z M402.7,341.3
			C402.7,341.3,402.8,341.3,402.7,341.3c-0.1-0.2-0.6-0.8,0.1-1C403.1,340.9,402.9,341,402.7,341.3
			C402.8,341.3,402.8,341.4,402.7,341.3z M403.3,345l0.5-0.8l-0.4,1.5L403.3,345z M403.9,351.6c0.2,0.4,0.1,0.8-0.3,1
			C404,352.6,403.2,351.7,403.9,351.6z M403.7,363.9c0.1-0.3-0.2-1,0.3-1.3l0.7,0.4C404,362.9,404,363.8,403.7,363.9z M411.8,346.5
			l-0.1,1l-0.1-0.1L411.8,346.5z M411.7,369c-0.7-0.8-1,0-1.4,0.2l0,1.5c-1.2-0.5-1,0.9-1.6,1.5c-0.5-0.6-0.5-0.8-1.2-1l0.6-0.6
			c-2-0.8,1.1-1.4-0.8-2.4c1,0.5,0.2-1.4,0.9-1.9c-0.9-0.9-0.7-2.9-0.6-4c1.1-0.1,0.9-1.6,2-0.8c-0.1,2.2,0.8,3.5,0.4,5.6
			c0.2-0.9,1.3-1.2,1.3-2.4l0.3,1c0.1,0,0.1-0.1,0.2-0.1l-0.2,0.2l0-0.1C410.5,366,412.2,368.1,411.7,369z M415.1,350.3
			c-0.4,0-0.1,0.8-0.2,1.3l-1.3-0.4c0.3-0.1,0.5-0.5,0.2-0.7c-0.2,0-0.3,0.1-0.5,0.3l1-2.3C415.7,348.1,414.1,350,415.1,350.3z
			 M412.3,356c-0.4,0.2,0.2-0.9,0.6-0.4C413.1,356.2,412.6,356.1,412.3,356z M413,345l0.1-0.6c0.2,0,0.5,0.1,0.7-0.3
			C413.6,344.6,413.6,345.2,413,345z M413.5,354.7l-0.3-0.6c0.1-0.1,0.3-0.3,0.6-0.2L413.5,354.7z M413.8,362.3
			c0.3-0.1,0.5-0.8,0.9-0.7c-0.7,0.3,0.2,0.9,0.1,1.2C414.4,363,414.2,362.3,413.8,362.3z M415,371.1l-0.2-0.2l0.8-0.9L415,371.1z
			 M418.5,377.5c-0.1-0.3-0.4-0.2-0.8-0.3c0.2,0,0.6-0.2,0.8-0.9L418.5,377.5z M418,372.7l0.5-0.5l0.7-0.5L418,372.7z M418.5,375.3
			l1.1,0.1C418.8,376,419,375.8,418.5,375.3z M419.8,370.7c-0.1,0.3-0.9,0.3-1.3,0.5c-0.2-0.7,0-1.5-0.7-1.6l0,0.2
			c-0.4-0.5,0.8-0.9,1.1-1.4c0-0.1-0.1-0.1-0.2-0.2c-0.1,0-0.2,0-0.3,0.1c0.1-0.1,0.2-0.1,0.3-0.1c0.4-0.1,0.9-0.2,0.7-0.8l-0.2,0
			l0.5-0.3l-0.3-0.8c1.3,0.9-0.2,2.6-0.7,3.8C419,370.5,419.7,371,419.8,370.7z M423.1,361.4l0.1-0.8l0.5,0.3L423.1,361.4z
			 M428.6,364l-0.4-0.5c-0.2,0,0,0.4-0.1,0.6l-0.2-0.4C428.2,363.5,428.8,363.1,428.6,364z M428.2,359.7l-0.4,0.7l-0.9-0.8
			L428.2,359.7z M426,358.4l0.3,0.3l-0.4,0.7L426,358.4z M427.9,372.4c0-0.7-1.1-1.6-0.6-2.6c-0.7,0.1-0.5,1-1.1,1.2
			c0.3-0.5,1.4-2,0.4-2.1l1.2-0.2c0.2,0.5,0.6,0,0.9,0.4C427.8,370.4,428.1,370.8,427.9,372.4z M428.7,367.3c0.2-1.1-1.1,0.1-0.7-1
			c-0.1,0.3-0.8-0.2-1-0.1l-0.1,0.2c0-0.1,0.1-0.2,0.1-0.2l0.2-0.3c0.5,0.6,1.1-2,1.8-1.5l0.1,0.8c-0.3-0.1-0.4-0.7-0.7-0.6
			c0.6,0.7-0.6,2.5,1.1,2.5L428.7,367.3z M429.3,366.6l0.1-0.8C430,365.9,429.7,366.4,429.3,366.6z M431.2,381.1
			c0,0.1-0.1,0.2-0.2,0.2C431,381.2,431.1,381.2,431.2,381.1c0-0.1,0-0.2,0-0.4l-0.4,0.1l0.3-0.8c0,0.2,0,0.5,0.1,0.7l0.1,0
			C431.4,380.9,431.3,381.1,431.2,381.1z M431.5,374.4c-0.1-1.2-0.1-3.6,1-4.1C432.5,371.8,432,373.9,431.5,374.4z M432,368.5
			l0.3-0.5c0.1,0.1,0.5-0.1,0.5,0.1L432,368.5z M435.6,388C435.6,388,435.6,388,435.6,388c-0.2,0.4,0.2,1.1,0.1,1.2
			c-0.1-1.2-1,0.6-1-0.7c0.6,0.2,0.4-0.4,0.5-0.8c-0.3-1,0.2-1.3,0.7-2C435.5,386.8,435.7,387.2,435.6,388c0.1-0.1,0.1-0.2,0.3-0.3
			L435.6,388z M447.7,377c0.2,0.3,0.1,0.4,0.1,0.6c0.2,0,0.6-0.2,0.7-0.1l-1,1.1c-0.2-0.5,0.2-0.7,0.3-1
			C447.6,377.6,447.5,377.5,447.7,377z M446.3,376.2c0,0.4,0.4,1.9-0.5,2.2C445.4,377.2,446.1,376.8,446.3,376.2z M437.3,380.8
			l0.4-0.9c0.3,0.3,0.3,1.2,0.3,1.4C437.8,380.7,437.2,381.8,437.3,380.8z M438.9,382.5c-0.8-0.5-0.1-0.6,0-1.1
			c2.1,0.7-0.4,2.5-0.4,3.7c-0.5-1,0.1-1-0.7-2L438.9,382.5z M438.1,386.6c0.2-0.2,0.5-0.3,0.4-0.7l-0.4,0c0.4,0,1.2-1.3,1.9-0.7
			C439,385.2,439,386.6,438.1,386.6z M444.5,387.1c0.1-0.8-0.4-1.5-0.1-2.2C445.4,385.1,444.6,386.4,444.5,387.1z M444.5,383.8
			l1.1,0.1C445.3,384.5,444.8,384.4,444.5,383.8z M445.5,382.6l0.1-0.8l-0.6,0.2c0.5-0.5-0.3-1-0.4-1.2c-0.3,0.3-0.6,1.5-0.5,0.8
			c0.5-0.8-0.2-1.5-0.5-1.8c1.2,0,0.4-1.7,1.5-1.2c1.1,0.4,0.8,1.2,1.5,1.8C445.5,380.3,447,382.7,445.5,382.6z M447.8,382.7
			c-0.3-0.6-1.1-0.4-0.6-1c0.4,0,0.9,0.1,1.1,0.6L447.8,382.7z M448.4,381c0.1,0.1,0.1,0.1,0.1,0.2l0.3,0.7l-0.5-0.3
			c0.1-0.1,0.2-0.2,0.2-0.4L448.4,381z M448.6,385.5c0.5-1,0.4-0.9,1.5-0.7C449.5,385.4,449.5,385.2,448.6,385.5z"/>
		<path d="M392.4,351l-0.6-1c-0.2,0.2-0.5,0.3-0.8,0.3v6.4l0.2,0.1c-0.6-1.2,1.4-3-0.2-3.5c0.1,0.1,0.9-0.4,1.1-1
			c-0.1-0.1-0.1-0.2,0-0.5c0.1,0.2,0.1,0.3,0,0.5c0.2,0.2,0.5,0.3,0.3,0.6c0.5-0.1,0.9-1.4,0.5-1.7l-0.3,0.3l0.5-1
			C392.8,350.6,392.7,350.9,392.4,351z"/>
		<path d="M451.1,370v-1.4C451.1,369.1,450.6,369.6,451.1,370z"/>
		<path d="M391,343c0.3-0.7,0.1-1.5,0.4-2l-0.4-0.1V343z"/>
		<path d="M451.1,368.4L451.1,368.4c0,0,0,0.1,0,0.1V368.4z"/>
		<path d="M451.1,380.6v-0.5c0,0,0,0-0.1,0C451,380.3,451.1,380.5,451.1,380.6z"/>
		<path d="M391,338.4L391,338.4l0,0.7l0.3-0.1C391.2,338.9,391.3,338.3,391,338.4z"/>
		<path d="M391,331.6v1.2C391,332.5,391,332.1,391,331.6z"/>
	</g>
	<g>
		<path d="M435.9,196l0.2,0.2c0-0.1-0.1-0.2-0.1-0.3C436,195.9,435.9,195.9,435.9,196z"/>
		<path d="M451.1,175.1C451.1,175.1,451.1,175.1,451.1,175.1l0-4.7l-11.8-9.1c-0.1,0.2-0.3,0.4-0.5,0.5c0.2-0.2,0.3-0.4,0.3-0.6
			l-0.7-0.5c0.1,0.4,0.4,0.8-0.2,0.9l-0.6-0.7c-0.4,0.4-0.2,1.3-0.9,1l1.1-1.2c-0.2-0.1-0.3-0.2-0.5-0.2c-0.2,0.1-0.3,0.2-0.5,0.2
			c-0.5,0.6-0.5,2.1-1.1,1.9c0.3-0.6-0.6-0.9-0.6-1.1l0.9-1c0.2,0.4,0.4,0.4,0.7,0.2c0.1-0.1,0.3-0.2,0.5-0.2
			c0.1-0.1,0.2-0.1,0.3-0.2h0.2l-0.1-0.1c0,0,0,0,0,0l-3.8-2.9h0l-2.4-1.8l0.2,0.3c-0.7,0.5-0.2,1.1-0.8,1.8c0.2-1.3-1.3-0.7-1-1.5
			c-0.5,0.5-1.6,1.2-1.6,1.2c-0.3-0.2-0.6-0.5-0.3-0.9c-0.2,0-0.4,0.2-0.7,0.3l0.9-1.4l0.2,0.2c0.7-0.5-0.1-1,0.1-1.6
			c0.3,0.8,0.8,1.3,0.4,2.4c0.5-0.3,1-1,1.5-1.7l-6.1-4.7c0,0.6-0.2,0.8,0,1.9l-1,0c0-0.9-0.4-1.9-0.4-3l-1.4-1.1c0,0.1,0,0.2,0,0.2
			l0,0.9c-0.8-0.3-0.2-0.6,0-0.9l0-0.2l-0.2-0.2c-0.1,0-0.3,0-0.3,0.1c0.1-0.1,0.2-0.2,0.3-0.1l-9.7-7.5c-0.1,1.9,0.2,4.2-0.8,6.3
			l0.6,0c-1.1,0.1-0.1,0.8-0.4,1.1l-0.6,0c0-1.5-0.1-3.8-0.8-5.1c0.4-0.2,1.2-1.7,1.1-2.6c0,0-0.1,0.1-0.1,0.1l0.1-0.1c0,0,0,0,0,0
			c0.1-0.1,0.2-0.1,0.2-0.2l-3.3-2.6c-0.8,0.8-1.2,2.2-1.7,2.5c0.3-0.8,0.6-2.1,0.6-3c-0.1-0.2-0.2-0.4-0.3-0.5l-15.4-11.9v23.3
			c0.1,0,0.1,0,0.2,0.1l-0.2,0.2v0.4c0.1,0.1,0.3,0,0.4,0c-0.4,0.8-0.3,1.6-0.4,2.4v1.4c0.1,0,0.3,0.1,0.3,0.2l-0.3,0v7.4
			c0,0,0-0.1,0-0.1v0.3c0,0,0,0,0,0v1.4c0,0,0-0.1,0-0.1v0.2c0,0,0-0.1,0-0.1v0.1l0,0c0,0,0,0,0,0l0.4,0.3c0,0,0,0,0,0l17.5,13.6v0
			l8.2,6.4c0.1-0.1,0.2-0.1,0.3-0.2c0.2-0.4-0.1-0.8-0.4-0.9l0.6-1.1c1,0.5,0.2,1.2,0.5,1.8c-0.1,0.3-0.2,0.7-0.3,1l18,13.9
			c-0.6-1.7,2.5-2.6,0.5-5l1.2-0.4c-0.1-0.6,0.3-1-0.2-1.1l-0.9,0.8c0.1-1.4,0.8-3.2,0.5-4.6l0.3,0.6c0.5-0.8,2-1.3,1.6-2.2
			l-1.1-0.1c0.2,0.2-0.3,1,0.2,0.9c-0.4,0.9-0.2-0.9-0.9-0.4l0.9-1.6c-0.1-0.6-0.9,0.1-0.7-0.1c-0.6-1,1-1.3,0.9-2.2
			c0,1.1,1.5,2.1,1.6,3.4c0.3-0.3,0.4-0.7,0.3-1c0.3,0.6,0.7,0.1,0.9,0.1c-0.8,0.4,0,0.9-0.5,1.4l0.7-0.1c-0.6,0.2-0.9,2,0.2,1.9
			c0,0.7-1.1,3.1-1.1,3.8l0-0.7c-2.5,1.6,1.4,1.3,1.1,2.5c0.1,1.8-1.4-0.3-1.5,1.2c0.6,0.7,0.9-0.3,0.7,0.8c0.3,0.1,0.5-0.1,0.4-0.4
			c1.1-0.3,1.5,2.9,2.9,1.2c0.5-0.9-0.4-1.1-0.4-1.4c-0.3,0.5-0.9,0.8-0.4,1.4l-0.8-0.9c0.5,0.1,0.7-0.1,0.5-0.5
			c0.5-0.7,0.1,0.4,0.6,0c0-0.1,0.1-0.2,0.3-0.3l0.6,0.5c-0.9-1.8,0.2-3.2,0.5-4.8c0,0-0.1,0.1-0.1,0.1l0.1-0.1c0,0,0,0,0,0
			c0.2-0.2,0.5-0.4,0.5-0.8c0.2,1.2,1,0.5,1,1.5l0.4-0.2c-0.3,0.2-0.5,0.7-0.4,1.1c0.4,0,0.7,0.1,0.9,0.1l-0.7,0.1l0.5,1l-0.4-0.5
			l-0.4,1.9c0.3-0.1,0.5,0.1,0.6-0.2c0.4,1.5-0.8,2.5-1.4,3.4c0.6,0,0.7,0.1,0.6,0.9l-0.8-0.2l0,0.9l0.9-0.1
			c0.2,1.1-0.6,0.6-1.1,0.7l-0.2,1.4l-0.7-0.1l1.2,1.3c-0.4,0.9,0.1,0.6-0.5,1.4c0.2,0,0.4,0,0.4-0.2c-0.3,0.3-0.3,0.7-0.3,1.1
			l0.4,0.3c0.3-0.1,0.5-0.5,0.4-0.9c0.5,0.1,0.4,1.5,1,0.7c-0.1,0.4-0.3,0.6-0.6,0.9l1.3,1c0.2,0.1,0.3,0.2,0.4,0.3l3.3,2.5v-21.9
			l0,0V185c-0.1,0.1-0.1,0.2-0.1,0.3c0-0.3,0.1-0.5,0.1-0.7V184c0,0,0,0,0-0.1v-1.6c-0.1-0.2-0.3-0.4-0.5-0.4
			c0.2-0.1,0.4-0.1,0.5-0.1v-1.4l-0.4,0.4l0.3-0.5l-0.6,0c0.1-0.3,0.6-0.4,0.5-1c-0.1,0.2-0.2,0.1-0.4,0c0.1-0.1,0.3-0.1,0.5-0.1
			V175.1z M432.5,165.7l0.5-1c0,0.9,0.5-0.1,0.6,1c0.3,0.1,0.6-0.2,0.7-0.1c-0.4,0.4-0.9,1-1.3,2c-0.1-0.6-0.4-1.2,0-1.7
			L432.5,165.7z M431.7,159.2l0-0.2c0,0,0,0,0,0c0,0,0,0,0,0L431.7,159.2z M430.2,160.3h0.4c0,0.4-0.2,0.7-0.6,0.4L430.2,160.3z
			 M431.5,160.3l-0.1,0.4c-0.2,0-0.2-0.1-0.3-0.4H431.5z M431.9,161.9l0.2,0.9c0.2-0.1,0.4-0.2,0.5-0.3c0,0,0,0,0.1,0.1l0.1-0.1
			l-0.1-0.8c0.6-0.2,0.6,1.7,0.2,2.3c-1-0.8,0.6-1-0.3-1.5l-0.6,0.3l0,0c-0.5,0.2-1.1,0.4-1.4,0C431.1,162.6,431.4,162,431.9,161.9z
			 M432.9,157.9c0.3-0.2,0.5,0.7,0.7,0.8c-0.7,0.3-1.4,0.6-1.7,0.3l0,0C432.6,159.1,432.7,158.5,432.9,157.9z M423.6,152.1
			c0.1,0.3,0.4,0.2,0.8,0.3c-0.2,0-0.6,0.2-0.8,0.9L423.6,152.1z M423.6,154.2l-1.1-0.1C423.2,153.5,423,153.8,423.6,154.2z
			 M410.9,148.4c0,0.1,0,0.2,0,0.4l0.4-0.1l-0.3,0.8c0-0.2,0-0.5-0.1-0.7l-0.1,0C410.7,148.6,410.8,148.5,410.9,148.4z M394.3,152.6
			c-0.2-0.3-0.1-0.4-0.1-0.6c-0.2,0-0.6,0.2-0.7,0.1l1-1.1c0.2,0.5-0.2,0.7-0.3,1C394.5,152,394.6,152.1,394.3,152.6z M396.2,151.2
			c0.4,1.2-0.3,1.6-0.5,2.2C395.8,152.9,395.3,151.5,396.2,151.2z M406.4,140.3c0.1,1.2,1-0.6,1,0.7c-0.6-0.2-0.4,0.4-0.5,0.8
			c0.3,1-0.2,1.3-0.7,2c0.3-1,0.2-1.4,0.3-2.2c-0.1,0.1-0.1,0.2-0.3,0.3l0.3-0.3c0,0,0,0,0,0C406.7,141.1,406.3,140.5,406.4,140.3z
			 M404.8,148.8l-0.4,0.9c-0.3-0.3-0.3-1.2-0.3-1.4C404.3,148.9,404.9,147.8,404.8,148.8z M403.1,147c0.8,0.5,0.1,0.6,0,1.1
			c-2.1-0.7,0.4-2.5,0.4-3.7c0.5,1-0.1,1,0.7,2L403.1,147z M404,142.9c-0.2,0.2-0.5,0.3-0.4,0.7l0.4,0c-0.4,0-1.2,1.3-1.9,0.7
			C403,144.4,403.1,143,404,142.9z M397.5,142.5c-0.1,0.8,0.4,1.5,0.1,2.2C396.7,144.5,397.5,143.2,397.5,142.5z M397.5,145.7
			l-1.1-0.1C396.7,145.1,397.2,145.2,397.5,145.7z M396.6,146.9l-0.1,0.8l0.6-0.2c-0.5,0.5,0.3,1,0.4,1.2c0.3-0.3,0.6-1.5,0.5-0.8
			c-0.5,0.8,0.2,1.5,0.5,1.8c-1.2,0-0.4,1.7-1.5,1.2c-1.1-0.4-0.8-1.2-1.5-1.8C396.6,149.3,395,146.9,396.6,146.9z M394.2,146.9
			c0.3,0.6,1.1,0.4,0.6,1c-0.4,0-0.9-0.1-1.1-0.6L394.2,146.9z M393.6,148.3l-0.3-0.7l0.5,0.3C393.7,148.1,393.6,148.2,393.6,148.3z
			 M393.4,144.1c-0.5,1-0.4,0.9-1.5,0.7C392.6,144.1,392.6,144.4,393.4,144.1z M410.8,173.4c0.6-2.1-1.2-0.5-1.5-2l1.6-0.2
			c0.2-0.2,0.5-0.3,0.9-0.1l-0.9,0.1c-0.1,0.1-0.2,0.2-0.3,0.3c-0.1,0.3,0.4,0.5,0.7,0.4l0-0.2c0.8,0.2-0.5,1.8,0.9,1.1L410.8,173.4
			z M424.8,186.6c-0.2-0.7,0.2-0.7,0.6-0.9C426,186.6,424.7,185.8,424.8,186.6z M426.1,176l-0.6,0l0.4-4.9l0.1-0.1
			C426.8,172.5,426.5,175.4,426.1,176z M426.7,177.7l0.8-0.2c0-0.7,0.8-1.8,0.5-2.4l-0.2,0c-0.2-1.1,0.8-3.2,0.5-5.2
			c-0.6-1.7,1.3-0.7,1.6-2.3c-0.4-1.1-0.2-2.6,0.3-4c-0.3,0.1-0.4-0.2-0.6-0.5l0.5,0.1c-0.1-0.6,0.1-0.8,0.3-1
			c-1,1.9,1.2,0.8,0.6,2.6c0.1,0,0.1,0,0.1-0.1c0.1-0.2,0.1-0.4,0.2-0.6c0-0.2,0-0.3,0.1-0.4c0,0.1-0.1,0.3-0.1,0.4
			c0,0.3,0.1,0.5-0.2,0.6c-0.3,1-0.7,2.2-0.6,2.7l0.1-0.1c-0.4,0.2-0.1,1.4-0.4,2.1l0.9-0.1c0,1.3-1.1,0.1-1.1,1.2l0.8,0
			c-0.4,0.2-0.8,0.2-0.7,1c0.5,0.6,0.4-0.4,0.8-0.2c-0.3,0.1-0.8,0.9-0.4,1.1c0.4-0.6,0.9-1.2,1.4-1.9c0-0.4,0.6-0.9,0.8-1.1
			c0.4-0.6,0.7-1.1,0.9-1.8c0.7,0.8,0.7,0.6,1.2,1.5l-1.1-0.1c0.5,0.6-0.2,0.7-0.4,1.1l-0.6-0.7c0,0,0,0,0,0
			c-0.3,0.4-0.5,0.8-0.8,1.1c0,0.2,0.1,0.4,0.5,0.5c-0.7,1.2-1.3,1.4-2,2.4c0.7,2-2.5,3.5-2,5.7l-0.5-0.6l-0.5,0.8L426.7,177.7z
			 M428.6,181.7l0.2,0c-0.4,0.2-0.3,0.5-0.4,0.9l-0.7-0.6l0.6,0l-0.4-0.9c0.2-0.2,0.3-1.8,1.1-1C429.1,180.7,428,181,428.6,181.7z
			 M429.9,176.9l0.8,0.2l0.3-1.2c0.1,1,0.6,0.9,0,1.9l0-0.7C430.6,176.9,430.2,177.8,429.9,176.9z M431.5,188l-0.3-0.8l0.4,0.2
			L431.5,188z M434.7,188.7c-0.9,0.2-1.5,1.6-2.3,0.1c0.4,0.2,0.7-1,1.2,0c0.5-0.5-0.4-0.9-0.6-1.2c1.1-0.7,1.4-0.2,2.1-0.3l0.4,0.5
			l-0.8,0C434.6,188.1,434.5,188.6,434.7,188.7z M438.4,178.7c-0.4,0-1,0-1.1-0.5c-1.3,1.6-1.7,0.5-3,2.6l0.5-0.1
			c-1.4,0.6,0.9,3.4-1.2,3l0.8,1l-0.4-0.5c0,0.7-1.5,1.4-1.1,2.2l-0.8-0.2l0.2-1.7c-0.2,0-0.6,0-0.7,0.3c0.1-1,1.5,0.2,1.5-1.2
			l-0.4,0c0.7-0.1,0.5-1,0.3-1.2l0.9,0.1c0.2-0.7-0.5-0.8-0.9-0.9c0.3,0.1,0.8-0.4,0.6-0.9c-0.2-0.2-0.4,0-0.6,0
			c-1.6,0.6,0.8,2.8-1.3,3.1c-0.4-0.2,0.4-0.9,0.3-1.4l-0.6,0c0.3-0.1,0.1-0.6,0.2-0.9l-0.6,0.4c0-0.9-1.2-0.5-0.8-1.5l0.6,0
			c0-0.4-0.2-0.7-0.4-0.9c0-0.9,1.2-0.6,1.4-0.8c-0.4,0.2-0.6,0.9-0.2,1.3c0.7,0.4,1.6-0.4,1.9-1.2l-1.2,0c0.6-1.7-0.5-3.6,0.8-4.7
			c-0.4-0.2-1.3-0.4-1.2-1c0.3-0.1,0.7,0.1,1.1-0.1c1.4,1,0,3.7,1.3,4.2c0.5,0.6-1.2,0.4-0.9,1.4c0.7-0.5,0.6,0.7,0.8,0.9
			c0.7-0.5,1.5-0.1,1.7-1.6c-0.2,0-0.5,0.1-0.7-0.1c0.8-0.6,0.8-0.4,1.6-0.2c-0.3-0.8,0.3-0.8,0.7-1c-0.4-0.7,0.3-2-0.1-2.2
			c0.2-0.7,0.5-0.3,0.8,0c-1.6,1.1,1.6,2.6-0.3,3.8C437.8,178.6,438.1,178.7,438.4,178.7z M435.8,174.9l0.3-0.5
			C436,174.7,437,174.3,435.8,174.9z M438.2,168.9C438.2,168.9,438.2,168.9,438.2,168.9c-0.7,0.1,0,1.3-0.4,1.7
			c0.6-0.7,0.4,0.2,0.6,0.7c-0.5-0.4-1.2,0.4-1.5,1.1c0,0,0,0.1,0,0.1l1-0.1l0-0.7l0.2,1.7c-0.7,0.2-1-0.4-1.3-0.9l-0.1,0
			c0,0,0-0.1,0-0.1c0-0.1-0.1-0.2-0.1-0.2l-0.8,1.1c-0.7-0.4,0-1.3-0.1-1.9c-0.2,0-0.4-0.2-0.4-0.5c0.3,0.1,0.4,0.3,0.4,0.5
			c0.6,0.1,1.4-0.6,0.9-1c-0.3-0.1-0.5-0.1-0.7,0.3l0.3-1l-0.7,0.1c-0.5,0.1-0.5-2.2-0.4-3.5c0.3-0.1,0.3-2.4,0.9-3.5
			c1.4,0.3-0.5,1.4,0.7,1.6c0.1-0.1,0.3-0.3,0.2-0.4l-0.2,0l0.7-0.5c-0.3,0.5-0.6,1.3-0.2,1.7l0.7-0.5c-0.1,1.2,0.1,1.6,0,2.6
			l0.7,0.1C438.6,167.7,438.8,168.4,438.2,168.9c0.1-0.1,0.2-0.1,0.3-0.1L438.2,168.9z M438.6,179.8c0.6-0.2,1.1-0.7,0.9-1.3
			l0.5,0.3C439.8,179.6,439.2,179.7,438.6,179.8z M441.3,169.5l0.2,0c-0.1-0.1-0.6,1.7-1,2.5l0.7,0.1l-0.6,1.1
			c-0.1-0.8-0.4-0.5-0.8-0.2l-0.1-0.6c1.2-1.3,0.5-3.8,2.1-4.6L441.3,169.5z M441.1,167.8l0.8-2.1l0.4,0.5L441.1,167.8z
			 M443.5,181.2c0.5-0.1,0.7,0.1,0.5,0.8C443.3,181.9,443.5,181.9,443.5,181.2z M444.2,186.9l0-1.9c-0.7,0.5-0.4,0.4-1,0
			c1.7-1.8,1,1.5,1.9,1.4L444.2,186.9z M446.2,187.5L446,187c0.3-0.1,0.3-0.5,0.6-0.4L446.2,187.5z M445.8,185.6
			c0.3-0.1,0.2-0.4,0.3-0.8l0.7,0.6L445.8,185.6z M445.9,201.1c1-0.2,0.4,0.9,0.8,1.3C446.5,202,445.9,201.6,445.9,201.1z
			 M446.4,200.8c0.8-0.4-0.3-0.3-0.3-1c0.3,0.1,0.7,0.3,0.9,0.2C446.9,200.3,447.1,200.9,446.4,200.8z M447.1,199.9
			c0-0.1,0-0.1,0-0.2l-0.2,0l0.2,0c0,0,0,0,0,0l0.3,0.1C447.3,199.7,447.2,199.8,447.1,199.9z M447.2,198.3
			c-0.3-0.3-0.2-0.7-0.8-0.5c0.2-0.2,0.6-0.4,0.5-0.8c-0.2,0-0.5-0.1-0.7,0.1l1-0.4c-0.1,0.6,0.5,0.3,0.7,0.4L447.2,198.3z
			 M447.2,189.1l0-0.2c-0.1-0.1-0.3,0-0.4,0l0.7-0.3l-0.2-0.7c0.8-0.9,0.5,0.6,0.7,0.8C447.8,188.9,447.2,188.7,447.2,189.1z
			 M449,187.6l0-0.7l0.4-0.2L449,187.6z M450.5,185.2l0-0.9C450.6,184.7,450.6,185,450.5,185.2z M451.1,185.8l-0.2,0
			c0-0.2,0-0.3,0-0.5C450.9,185.5,451,185.6,451.1,185.8z M450,177.3c0.1,0.1,0.1,0.2,0,0.5C449.9,177.6,449.9,177.4,450,177.3
			c-0.2-0.2-0.5-0.3-0.3-0.6c-0.5,0.1-0.9,1.4-0.5,1.7l0.3-0.3l-0.3,0.6l-0.1-0.1c-1.3,1.2,1.2,0.7,0.2,1.5c0.4,0.2,0.8,0.2,1-0.2
			c-0.2,0.2-0.3,0.5-0.5,0.8c-0.1-0.6-0.6,0-0.7-0.8c-0.1,0.3-0.4,1.1-0.1,1.4c0,0.9-0.7,0.7-1.1,0.7c0,0,0,0.1,0,0.1
			c-0.2-0.2-0.1-0.1,0-0.1c0.1-0.3,0.3-0.5,0.2-0.8c-0.6-0.9-0.5,0.8-0.9-0.6c-1,0.9,0.1,1-0.2,1.9c-0.5,1-1.3,1.6-1.6,2.5l-0.2-0.9
			l-0.2,0.2c0.7-0.5,0.4-2.1,1.4-2c-0.3-0.3-0.5-0.8-0.9-1.1l-0.5,0.5l-0.3-1c-0.1,0.1-0.1,0.1-0.2,0.2l0.2-0.2l0,0
			c0.2-0.2,0.4-0.3,0.3-0.6l0.9,0.6l0.7-2.4l0.5,0.1c0.8-0.6,0.5-1.2,0.4-1.8c-0.1-0.1-0.1-0.3,0-0.5c-0.1,0.2,0,0.3,0,0.5
			c0.2,0.3,0.8,0.3,1.1,0.1c0-0.2,0-0.7-0.4-0.7c0.3-1.4,1.7-0.9,2.4-0.9c-0.2,0.5-0.2,1,0.5,1.2C451,176.1,450.1,176.6,450,177.3z
			 M449.9,178.9L449.9,178.9l-0.5-0.2c0.1-0.1,0.2-0.1,0.3-0.2L449.9,178.9z"/>
		<path d="M390.9,148.9v0.5c0,0,0,0,0.1,0C391,149.2,391,149.1,390.9,148.9z"/>
	</g>
	<g>
		<path d="M419.2,416.7l0.7,0.1c-0.2,0.7,0.1,0.8-0.4,1.1l0.4,0.3c0.1-0.1,0.2-0.1,0.2,0.1l-0.2-0.1c-0.2,0.3-0.7,1.4-0.9,1.1
			c0.4,0,0.3,1,0.8,0.9c0.5-0.1,0-1.1,0.8-1.1c0.6,0.7-0.8,0.4-0.2,1.1l0.2,0l-0.6,0c0.3,0.3-0.3,1,0.4,1.2l-0.8,0.2
			c0.7,0.1,0,1.7,1.1,1.1l-0.2,1.1c1.9,0.2,0-2.1,1.3-2.6c-0.9-0.4-0.4-0.7-0.8-1.2l0.2,0.2c0.8,0,0.6-0.9,0.8-1.3l0.2,0.2
			c1,0,0.4-0.9,0.7-1.4c-0.6,0-0.9,0.1-0.6,0.6c-0.7,1-1.1-1.4-1.4,0.2l0-0.9c0.6,0.2,1.1-1,1.9-0.5c-0.4-0.9,0.7-0.3,0.3-1.2
			c-0.9,0.5,0-0.9-0.9-0.8c0.1-0.8,0.6-1.6,1.1-2.4l-2.2-1.7c-0.1,0-0.2,0-0.3-0.1c-1.5,0.6-0.7,1.7-2.3,2.8
			C419.3,414,419.9,415.7,419.2,416.7z"/>
		<path d="M417.2,411c1,0.4,1-0.9,1.5-1.7l-1.4-1.1C416.7,408.8,418,410.1,417.2,411z"/>
		<path d="M420.4,410.6c0,0.2-0.1,0.5-0.1,0.7c0.3-0.4,0.5-0.3,0.6-0.1c0,0,0.1,0,0.1,0L420.4,410.6z"/>
		<path d="M425.4,414.5L425.4,414.5c0,0.1,0,0.1-0.1,0.2c0,0,0,0,0,0C425.4,414.6,425.4,414.6,425.4,414.5z"/>
		<path d="M429.4,454.8c-0.1-0.4-0.1-0.7-0.2-1l-0.4,0.1c-0.1,0.1-0.3,0.1-0.4,0.1L429.4,454.8z"/>
		<path d="M445,466.9l0.4,0.3C445.4,466.9,445.4,466.7,445,466.9z"/>
		<path d="M446.8,431.1C446.8,431.1,446.8,431.1,446.8,431.1l-0.5-0.3c0,0,0,0,0,0l-1.2-0.9c0,0,0,0,0,0l-1.4-1.1c0,0,0,0,0,0
			l-7.9-6.1v0l-7.4-5.7l0,0.4l-0.4-0.5l0.1-0.2l-2.6-2c-0.4,1-0.7,2-1.3,3.2l0.9-0.1c-0.2,0.4-0.4,1.5-0.4,2.6c0-0.7-0.9,0.3-1,0.2
			l0.3,0.3c-1.4,1.1-1.2-0.7-1.9,0.3c-1,0.9-0.7,3.3-1.2,5.1c0.1-0.1,0.4,0.7,0.8,0.7c-0.3,1.4-1.5,1.6-1.9,2.8
			c-1-0.5,0.2-0.9,0.3-1.2c-0.1,0.1-1.1,0.3-1.1,1c-0.7-0.6-1.6-1.1-0.7-2c-0.9-2,1-3.2,0.4-5.1l-0.7-0.4c1.2,0-0.2-1.7,0.9-2.2
			l-0.5-0.1c0.2-1.1,0.3-2,0.7-3.3c-0.4,0-0.7-0.1-0.8,0.2c-0.8,0.2-0.6-2.1-0.3-2l0.3,0.1c-0.4-0.9-0.1-2.7-1.1-2.5
			c-1.5,0.5-0.3,2.2-1.4,2.7l0.2,0l-0.7,1c-0.8,0.6,0.1-0.6-0.8-0.5c0.1,0.3-0.1,0.6,0,0.9c-0.2-0.2-0.4-0.7-0.9-1.4l1.3-1.9
			c2.1-1.2,0.8-4.1,0.8-6l-20.3-15.7l0,0c-0.5,0.8-0.1,1.6-0.4,2.1l-0.8-0.7c0.5-0.5,0.6-1.1,0.6-1.8l-4-3.1v21.6
			c0.3,0,0.8,0.3,0.9-0.4c0-0.7,0.5-1.7,0.9-2.2c-0.4,0.4-1.1-0.4-1.2,0.6l0.2,0l-0.5,0.3c1.1-1-0.9-2,0-3.5
			c0.5,0.8,0.4,1.7,0.3,2.5c0.3-0.3,1-0.9,1.5-0.3l-1.1,2.9c0,0.2,0.1,0.1,0.3,0.1c0.1,0.1-0.7,0.5-1.3,0.4v15.2l24.8,19.2l12.6,9.7
			l0.4-0.1c0.7-0.5,1.3-2.1,2.3-1.5c0-0.9,0.3-1.2,0.8-1.5l-0.1,0.6c0.1,0.1,0.2,0,0.3-0.1l-0.3,1.2c0.5-0.1,0.4-0.9,1.1-0.1
			c0-0.1,0.1-0.2,0.1-0.3c0-0.1,0-0.1,0-0.2c0.1,0,0.2-0.1,0.2-0.1c0.3-0.3,0.5-0.5,0.4-1c0.5,0.6,0.1,0.8-0.4,1
			c-0.1,0.1-0.2,0.2-0.2,0.3c0.1,1.2,1.7-0.3,1,1.3c1.3,0.6,0.6-0.9,1.5-1c0.4,1.7-1.6,0.8-1.1,2.6l0.2-0.2c0.2,0.4-0.3,1-0.5,1.5
			l-0.6-0.7c-0.4,0.1-0.9,0.7-1.4,1.3l0.2,0.2c0.1-0.2,0.3-0.4,0.3,0c0.1,0.1,0.1,0.1,0,0.2l1.3,1l0.1,0c0,0,0,0-0.1,0l1.2,0.9
			c-0.4-1-0.9-2.5,0-3.1c0.3,0.1,0.7,1.1,1.4,0.5c0.1-0.3-0.3-0.6-0.4-0.7c0.9-1,1-0.9,2.3-1.2c-0.1,0.8-0.4,0.2-1.2,0.9
			c0,0.2,0,0.7,0.3,0.6c-0.4,0.5-0.9,1.1-1.2,1.7l0.1,0c0.1,0.3-0.2,0.4-0.4,0.7c0.1-0.2,0.2-0.4,0.3-0.7l-1.2,0l0.2,1.4l9.7,7.5
			c0.3-0.8-0.2-2.1,0.8-2.3l0.4,0.9l0.1-0.1l-0.7,1.9l0.3,0.2c0.3-0.1,0.4-0.4,0.6-0.5c-0.4,0.4,0.2,0.7,0.5,1.3l4.4,3.4v-37.3
			L446.8,431.1z M391.9,395.4c-0.1-0.3,0.1-1.6,0.3-2.2C392.8,394.1,391.9,394.9,391.9,395.4z M394.1,404.5c-0.6-0.9-0.9-2.7,0.4-3
			c0.1,0.1,0.3,0.6,0.5,0.3l-0.4,0.9c0.5-0.1,0.2,0.9,0.7,0.1C395.3,403.4,394.5,403.8,394.1,404.5z M411.3,405l0.6,0l-0.9,0.3
			L411.3,405z M411,406.2l-0.1,0.3c0.1,0,0.3,0,0.4,0l0.3-0.1c-0.1,0.1-0.2,0.1-0.3,0.1l-0.5,0.1L411,406.2z M410.8,420l0.4,0
			l-0.7,0.5L410.8,420z M409.2,405.9c0.2,1.1-0.4,1.1-0.8,2.1C408.6,407.2,408.3,406,409.2,405.9z M408.4,424.6
			c-0.1,0.1-0.2,0.1-0.1,0.1C408.4,424.6,408.4,424.6,408.4,424.6z M409.3,425.1c-0.1,0.5-0.6,0-0.2,0.7c0.4,0,0.7-1.2,0.5-1
			c0.4-1-0.2-0.8-0.7-0.5c0.9-0.7,0.6-1.3,0.8-2.3c0.5-0.5,0.9-0.1,1.3,0.1c0.6-0.6-0.4-0.7,0.4-0.9c-0.5,1,0.9,0.8,1.2,0.8
			c-0.4,0.2-0.7,0.8-0.4,1.1l-1,0c0.2,0.5-0.4,1.3,0.3,1c-0.7,0.8-1.4,1.7-2,2.7l-0.2-0.7c-0.1,0.6-1.2,0.9-1.4,0.2
			C408.8,426.3,408.7,425.1,409.3,425.1z M400,412.4c0.2,0,0.4-0.4,0.6-0.2l-0.5,0.8C400,412.9,399.8,412.7,400,412.4z M402.9,431.5
			l0.3,0.1l0,0.7l-0.3-0.5C402.8,431.7,402.9,431.6,402.9,431.5z M401.2,416.4l0,1.3c0,0,0,0,0,0l1.2-0.2c-0.8,0.2-0.1,1-0.8,1.5
			c0.1-1.2-0.9,0.3-1-0.7l1.3,0.1c0.1-0.4-0.2-0.7-0.6-0.8l0,0l0,0c-0.2-0.1-0.5-0.1-0.7-0.1C400.9,417.3,401,416.8,401.2,416.4z
			 M400.1,395.7c0.2,0.2,0.4,0.7,0.7,0.6c-1,0.4-1.1,2.6-2,2.7c0.2-0.2,0.5-0.3,0.4-0.7c-0.4,0.2-1.4-0.3-1,0.6l-0.4-0.7
			C399.3,398.5,399,396,400.1,395.7z M396.6,399.9c0,0.2,0,0.4,0.1,0.7c0,0,0-0.1,0-0.1l-0.5-0.1L396.6,399.9z M395.7,400.6
			c0.7,0.3,0.1,0.3,0.4,0.9c0.2-0.3,0.7-0.6,0.8-0.8c0.2,0.6,0.6,1,0.4,1.1l-0.2-0.4l-0.5,1C395.7,402.7,395.5,401.2,395.7,400.6z
			 M395.8,419.6c-0.2-1.1,1.5-0.7,1.1-1.4C397.5,419.6,395.8,418.5,395.8,419.6z M403.8,412.8c0.7-0.7,0.6,0.1,0.6,0.6
			c0.1,0,0.2,0.1,0.1,0.2c0,0,0-0.1-0.1-0.2C404.1,413.3,403.5,413.3,403.8,412.8z M443.2,443.5c-0.1,0.3-0.4,0.2-0.6,0.2
			C442.6,442.9,443,443.4,443.2,443.5z M438.7,440.7l-0.4-0.9l1.3-0.3C439.6,440.4,438.6,439.4,438.7,440.7z M438,438.5l-0.8,0.9
			l0.7-0.9l-0.1,0l0.4-0.4l-0.3,0.4L438,438.5z M436.8,438l-1.4,0.2l0,0.4c-0.2-0.4-0.2-1.1-0.2-1.7l0.5-0.2
			C435.9,437.3,436.1,437.8,436.8,438z M430.8,432c-0.1,0.1-0.2,0.1-0.4,0.2c0,0,0,0,0.1-0.1l0,0l0.2-0.1
			C430.7,432,430.7,432,430.8,432C430.8,432,430.8,432,430.8,432C430.9,432,430.8,432,430.8,432C430.8,432,430.8,432,430.8,432z
			 M428.7,427.6l0-0.7c0.5,0.1,0.2,1.1,1,0.7C429.4,428.4,429.3,427.4,428.7,427.6z M433.3,428.5c0.2,0.2,0.4,0.5,0.5,0.8h-0.4
			C433.4,429.1,433.5,428.8,433.3,428.5z M438.7,435.6l-0.3,0.3c0.1-0.1,0.1-0.2,0-0.2L438.7,435.6z M439,438.5
			c-1.4-1.3,1.2-2-0.2-3l0.7-0.3C439.4,436.2,439.6,437.7,439,438.5z M435.1,428.5l-0.6,0.4c0,0.1-0.1,0.3-0.1,0.4H434l0.5-0.4
			C434.6,428.7,434.7,428.5,435.1,428.5z M433.8,426.5c0.5,0.1,0.5,0.3,0.1,0.6l0.5,0.1l-1.1,0.5L433.8,426.5z M429.5,421.1
			c0.2,0.5,1,0.2,0.4,0.9C429.7,421.8,429.2,421.5,429.5,421.1z M429.6,424.5c-0.1,0.3,0.3,1.3-0.4,0.9
			C429.8,425.2,429.3,424.4,429.6,424.5z M429.9,427.2c-0.3,0.3-0.4-0.8-0.8-1c-0.1,0-0.3,0.1-0.4,0.1c0.2-0.2,0.3-0.2,0.4-0.1
			C429.6,426.1,429.7,426.2,429.9,427.2z M428.5,419.9c0.1,0.3-0.2,1.1,0.3,1c-0.7,0.5-0.2-0.4-0.8-0.5L428.5,419.9z M427.5,424.4
			l-0.4,0.5l0,0.2L427,425l0.1-0.1l-0.1-0.7L427.5,424.4z M416.5,419.2c0.1,0.3-0.9,1.6,0.2,1.7l-0.8,1.1
			C415.2,421.2,416,420.1,416.5,419.2z M414.1,424.7C414.1,424.7,414.1,424.7,414.1,424.7C414.1,424.7,414.1,424.7,414.1,424.7
			l-0.3-1.4c0.1-0.6,0.5-1.2,0.8-0.6l0.2-0.9C415.5,423.2,413.9,423.5,414.1,424.7L414.1,424.7c0.4-0.2,0.6-0.6,0.9-1
			c0.2,0.2,0.1,0.6,0.2,0.9c0,0.7-0.6,0.6-0.9,0.8L414.1,424.7z M426.2,442.5c-0.4-0.2-1.2,0.4-1.3-0.1l1-1.3
			C426.5,441.1,426.5,441.9,426.2,442.5z M425.3,450.5c-0.3-1-0.1-1.8-0.8-2.6c-0.1,0.1-0.2,0.2-0.3,0.3l0.3-0.3c0,0,0,0,0,0
			c0.3-0.3,0.5-0.9,0.5-1c-0.2-0.2-0.4,0.4-0.5-0.1c0.7-0.8-0.3-1.6,0.9-2.4c0.2,0.1,0.3,0.3,0.4,0.4l-0.6-0.2l0,2.1
			c0.6-0.4,0.7,0.6,1.1,0.8l-0.7,0.5C426.5,448.2,425.5,449.8,425.3,450.5z M426,443.7l0-0.2c-0.3-0.1-0.6,0-0.7,0.5l-0.1-1
			c0.7-0.3,0.6,0.9,1.4,0.3L426,443.7z M426.9,441.1l-0.6-0.5c0-0.1,0-0.3,0-0.3l0.7-0.3c0.2,0,0.3,0,0.3,0L426.9,441.1z
			 M429.9,451.2l0.9-1.2l0.2,0.9L429.9,451.2z M432.5,450.9l0.4-0.2l0.3,0.6L432.5,450.9z M433.4,448.5c0.2,0,0.3,0.1,0.2,0.3
			C433.5,448.7,433.5,448.6,433.4,448.5c-0.4-0.1-1.1,0.1-0.6-1c0.5-0.3,0.5,0.6,1.1,0.1C433.3,447.8,433.3,448.2,433.4,448.5z
			 M433.9,441.8c-0.3,0.1-1.3,0.7-1.5-0.2c1-1.1-0.3-1.6,0.1-2.7c0.5,0.6,0.4,1.9,0.7,2.9l0.9-0.3L433.9,441.8z M435,449.2l0.1-2.2
			l1.1,0.8C435.1,447.6,435.3,448.7,435,449.2z M436.5,442.2l0.4-1.3c0.2,0,0.8-0.2,0.7,0.4c-0.2,0-0.3,0.6-0.3,0.1
			C436.6,441.2,436.9,442,436.5,442.2z M437.9,444.5l-0.7,0C437.4,443.8,437.7,444.3,437.9,444.5l0.2,0
			C438.1,444.7,438,444.6,437.9,444.5z M438.1,446.3l0.5-0.8l0.3,1C438.7,447,438.3,446.5,438.1,446.3z M439.2,443.2
			c-0.4,1.1-1.4-0.8-1.4,0.6c-0.2-0.2-0.8-0.9-0.2-1.1l0.6,0.5l0.8-1.9c0.4-0.9,0.3,0.3,0.7,0.1
			C439.1,441.9,438.4,442.4,439.2,443.2z M440.1,441.2c0.1-0.3-0.2-0.9,0.2-0.9C440.4,440.7,440.4,441.1,440.1,441.2z M439.8,434.8
			L439.8,434.8c0-0.6,0.2-0.9,0.5-1.1c0,0,0,0,0.1,0l0.2,1.3C440.3,435.2,440.1,434.3,439.8,434.8z M441.6,446.4l0,0.9
			c-1.5-1.2,0.5-2,0.9-2.9c0.3,0.3,0.3,1.3,0.8,0.5l0.1,1.6l0.9-0.1l-1.1,1.7c0-0.9-0.7-0.1-0.9-0.6l0.7-1.2
			C442.5,446.1,442,447.8,441.6,446.4z M442,457.6l0-1.1c0.4,0,0.3,0.6,0.7,0.6L442,457.6z M444.3,456l-0.4-0.5
			c-0.2-0.2-0.4,0.2-0.5,0.3l0.2-1.3c-0.5,0.8-1.6-0.6-0.7-1.1c0.3-0.3-0.3,1.2,0.5,1l0.9-0.8c-0.1-0.3,0-0.9-0.6-0.7
			c0,0.2,0,0.2-0.1,0.3c0-0.9,0.6-1.8,0-2.8l1,1.3c-0.1-0.3,0.1-0.6,0.1-0.8C444.9,452.4,445.3,455,444.3,456z M446.6,465.1
			c0.2-0.4,1-0.4,0.4-1.1c0.6,0,0.5,0.8,0.5,1.1C447.1,465.2,446.8,465.5,446.6,465.1z M447,443.9c0.1-1.3-0.8,0-1.2-0.7
			c-0.2-1.4,0.4-1,0.8-1.6c0-0.1,0-0.3,0.3-0.6c-0.1,0.3-0.2,0.4-0.3,0.6c0.1,0.4,1.4,0.1,1.3,0.9L447,443.9z M449,438.4l-0.2-0.2
			l0.9-0.5L449,438.4z"/>
	</g>
</g>
</svg>
