<?xml version="1.0" encoding="utf-8"?>
<!-- Generator: Adobe Illustrator 24.0.3, SVG Export Plug-In . SVG Version: 6.00 Build 0)  -->
<svg version="1.1" xmlns="http://www.w3.org/2000/svg" xmlns:xlink="http://www.w3.org/1999/xlink" x="0px" y="0px"
	 viewBox="0 0 749.7 189" style="enable-background:new 0 0 749.7 189;" xml:space="preserve">
<style type="text/css">
	.st0{fill:#FFFFFF;}
</style>
<g id="Guides">
</g>
<g id="Logo">
	<g>
		<g>
			<path class="st0" d="M394.8,29.1l-22.7,67.9l4.2-1.6l4.6,12.7l-6.3,1.7l-3.5-9.6l-1.2,3.7l2.4,6.6l-5,1.3l-1.7,5.1l9.1,25.6H436
				L394.8,29.1z M423.1,118.5l-10.7,1.5l-5.5-15.1l10.4-2.5L423.1,118.5z M395,107.7l8.6-2l5.3,14.8l-8.8,1.2L395,107.7z
				 M396.8,122.2l-7.6,1.1l-4.7-13l7.4-1.8L396.8,122.2z M410.2,82.9L416,99l-10.3,2.7l-5.5-15.1L410.2,82.9z M397.1,87.8l5.3,14.8
				l-8.5,2.2l-5-13.9L397.1,87.8z M378.9,94.5l7.1-2.6l4.9,13.6l-7.3,1.9L378.9,94.5z M381.8,110.8l4.6,12.8l-6.6,0.9l-4.4-12.1
				L381.8,110.8z M367.4,114.3l5.6-1.3l4.3,11.9l-5.8,0.8L367.4,114.3z M376.5,139.5l-4.1-11.5l5.8-0.7l4.3,12L376.5,139.5z
				 M385.1,139.3l-4.4-12.2l29.4-3.4l5.4,14.9L385.1,139.3z M413.6,123.3l10.8-1.3l5.9,16.2l-11.1,0.3L413.6,123.3z"/>
			<path class="st0" d="M347.4,62.8l-29,79.6c10.5,0,23.6,0,35.7,0l39.5-116.6C373.9,46.4,364.4,53.8,347.4,62.8z"/>
		</g>
		<g>
			<g>
				<path class="st0" d="M559.3,126h-17.1l-4.9-12.4H511l-4.9,12.4H489l25.6-63h18.8L559.3,126z M514.8,102.1h18.7l-9.4-23.2
					L514.8,102.1z"/>
				<path class="st0" d="M618.7,75.5l-12.4,6.9c-3.6-4.6-8.4-6.8-14.2-6.8c-5.2,0-9.6,1.8-13.1,5.5s-5.2,8.1-5.2,13.4
					c0,5.3,1.7,9.8,5.2,13.5c3.5,3.7,7.9,5.5,13.1,5.5c5.8,0,10.6-2.3,14.2-6.9l12.4,7c-6.1,8.2-15.9,13.3-26.7,13.3
					c-17.9,0.5-33.6-14.8-33.1-32.4c-0.4-17.5,15.2-32.8,33.1-32.4C602.7,62.1,612.6,67.2,618.7,75.5z"/>
				<path class="st0" d="M685.9,126h-19.2l-24.4-28.5V126h-14.4V63h14.4v13.4l11.2,12.2L668.3,63h18.4L663,100.1L685.9,126z"/>
				<polygon class="st0" points="468.6,63 468.6,87.8 441.9,87.8 441.9,63 427.6,63 427.6,96.5 438.4,126 441.9,126 441.9,100.7 
					468.6,100.7 468.6,126 483,126 483,63 				"/>
			</g>
			<g>
				<path class="st0" d="M63,63h32.6c13.2,0,20.6,5.5,20.6,15.9c0,6.9-3.2,11.6-9.8,14c8.7,2.4,12.6,8.5,12.6,15.9
					c0,8.5-5.2,17.1-21.7,17.1H63V63z M77.3,89.2h14.1c6.2,0,9.8-2.5,9.8-7.2c0-4.8-3.4-7.3-9.8-7.3H77.3V89.2z M77.3,114.3h16.5
					c7.2,0,10.3-3.3,10.3-7.7c0-4.6-3.1-7.8-10.3-7.8H77.3V114.3z"/>
				<path class="st0" d="M158.8,62.1c12.1,0,23,6.1,29.1,16.1c3,4.9,4.5,10.4,4.5,16.3c0,11.8-6.4,22.3-16.7,28.1
					c-5.1,2.9-10.8,4.3-16.8,4.3c-12.1,0-23-6.1-29.1-16.1c-3-4.9-4.5-10.4-4.5-16.3c0-11.8,6.4-22.3,16.7-28.1
					C147.1,63.5,152.8,62.1,158.8,62.1z M140.1,94.5c0,10.5,8,18.9,18.7,18.9c5.3,0,9.8-1.8,13.3-5.5c3.5-3.7,5.3-8.1,5.3-13.4
					c0-5.3-1.8-9.7-5.3-13.4c-3.5-3.7-8-5.5-13.3-5.5C148.1,75.6,140.1,84,140.1,94.5z"/>
				<path class="st0" d="M201.3,63h14.3v20.3h10.2l3.4,0.1L242.6,63h16.6l-15,22.3c9.1,2.8,13.1,8.9,13.1,19.3
					c0,15-8.1,21.3-28,21.3h-27.9V63z M230,113c9,0,12.4-2.7,12.4-9.3c0-6.6-3.4-9.3-12.4-9.3h-14.3V113H230z"/>
				<polygon class="st0" points="311.9,126 316,126 325.9,98.8 325.9,63 311,63 281.6,102.6 281.6,63 267.5,63 267.5,126 282.4,126 
					311.9,86.4 				"/>
			</g>
		</g>
	</g>
</g>
</svg>
