<?xml version="1.0" encoding="utf-8"?>
<!-- Generator: Adobe Illustrator 26.1.0, SVG Export Plug-In . SVG Version: 6.00 Build 0)  -->
<svg version="1.1" id="Layer_1" xmlns="http://www.w3.org/2000/svg" xmlns:xlink="http://www.w3.org/1999/xlink" x="0px" y="0px"
	 viewBox="0 0 283.5 283.5" style="enable-background:new 0 0 283.5 283.5;" xml:space="preserve">
<style type="text/css">
	.st0{fill:#231F20;}
</style>
<g>
	<path class="st0" d="M179.4,25.6l-48.5,145l9-3.3l9.7,27l-13.5,3.5l-7.4-20.6l-2.6,7.9l5,14l-10.7,2.8l-3.6,10.9l19.5,54.6h131.2
		L179.4,25.6z M239.9,216.4l-22.9,3.2l-11.8-32.3l22.2-5.3L239.9,216.4z M179.8,193.3l18.3-4.3l11.4,31.6l-18.9,2.6L179.8,193.3z
		 M183.6,224.1l-16.3,2.2l-10-27.8l15.7-3.7L183.6,224.1z M212.3,140.3l12.4,34.3l-22,5.7L191,148.2L212.3,140.3z M184.3,150.7
		l11.4,31.5l-18.1,4.7l-10.7-29.7L184.3,150.7z M145.3,165.2l15.1-5.6l10.5,29.1l-15.6,4.1L145.3,165.2z M151.6,200l9.8,27.2
		l-14.2,2l-9.3-25.9L151.6,200z M120.9,207.3l12.1-2.9l9.1,25.5l-12.4,1.7L120.9,207.3z M140.3,261.3l-8.8-24.5l12.5-1.5l9.2,25.6
		L140.3,261.3z M158.6,260.8l-9.4-26.1l62.7-7.3l11.5,31.8L158.6,260.8z M219.5,226.5l23.1-2.7l12.5,34.5l-23.8,0.6L219.5,226.5z"/>
	<path class="st0" d="M78.2,97.5l-62,169.8c22.5,0,50.5,0,76.3,0l84.2-249C134.7,62.3,114.5,78.2,78.2,97.5z"/>
</g>
</svg>
