<?xml version="1.0" encoding="utf-8"?>
<!-- Generator: Adobe Illustrator 23.0.2, SVG Export Plug-In . SVG Version: 6.00 Build 0)  -->
<svg version="1.1" id="Layer_1" xmlns="http://www.w3.org/2000/svg" xmlns:xlink="http://www.w3.org/1999/xlink" x="0px" y="0px"
	 viewBox="0 0 841.89 595.28" style="enable-background:new 0 0 841.89 595.28;" xml:space="preserve">
<style type="text/css">
	.st0{fill:#6F2282;}
</style>
<g>
	<g>
		<path class="st0" d="M161.15,301.13c0-15.24,0-18.07-0.1-21.26c-0.21-3.43-1.05-4.49-3.98-5.43c-0.73-0.24-2.3-0.35-3.67-0.35
			c-0.94,0-1.57-0.35-1.57-1.06c0-0.71,0.73-0.95,2.09-0.95c4.82,0,10.68,0.24,13.3,0.24c2.93,0,23.36,0.12,25.14,0
			c1.68-0.12,3.14-0.47,3.88-0.59c0.52-0.12,1.05-0.47,1.47-0.47c0.52,0,0.63,0.47,0.63,0.95c0,0.71-0.52,1.89-0.73,6.5
			c-0.1,1.06-0.31,5.43-0.52,6.62c-0.1,0.47-0.31,1.65-1.05,1.65c-0.63,0-0.73-0.47-0.73-1.3c0-0.71-0.1-2.48-0.63-3.66
			c-0.73-1.77-1.47-3.19-6.07-3.66c-1.57-0.24-12.57-0.47-14.45-0.47c-0.42,0-0.63,0.35-0.63,0.94v24.81c0,0.59,0.1,1.06,0.63,1.06
			c2.09,0,14.03,0,16.13-0.24c2.2-0.24,3.56-0.47,4.4-1.54c0.73-0.71,1.05-1.3,1.47-1.3s0.73,0.47,0.73,1.06s-0.21,2.24-0.73,7.32
			c-0.21,2.01-0.42,6.02-0.42,6.73c0,0.83-0.1,2.25-0.94,2.25c-0.63,0-0.84-0.35-0.84-0.83c-0.1-1.06-0.1-2.36-0.31-3.66
			c-0.52-2.01-1.68-3.54-5.13-3.9c-1.68-0.24-12.15-0.47-14.45-0.47c-0.42,0-0.52,0.47-0.52,1.06v8.03c0,3.43-0.1,11.93,0,14.88
			c0.21,6.85,3.04,8.39,12.46,8.39c2.41,0,6.28-0.12,8.69-1.3c2.3-1.18,3.35-3.31,3.98-7.44c0.21-1.06,0.42-1.54,1.05-1.54
			c0.73,0,0.84,1.3,0.84,2.36c0,2.25-0.73,9.1-1.26,11.11c-0.63,2.6-1.47,2.6-4.92,2.6c-6.91,0-12.46-0.12-16.97-0.35
			c-4.5-0.12-7.96-0.24-10.68-0.24c-1.05,0-3.04,0.12-5.24,0.12c-2.2,0.12-4.5,0.24-6.39,0.24c-1.15,0-1.78-0.35-1.78-1.06
			c0-0.47,0.31-1.06,1.47-1.06c1.36,0,2.41-0.12,3.25-0.35c1.89-0.47,2.41-2.36,2.72-5.32c0.42-4.25,0.42-12.17,0.42-21.38V301.13z"
			/>
		<path class="st0" d="M211.01,301.13c0-15.24,0-18.07-0.1-21.26c-0.21-3.43-1.05-4.49-3.98-5.43c-0.73-0.24-2.3-0.35-3.67-0.35
			c-0.94,0-1.57-0.35-1.57-1.06c0-0.71,0.73-0.95,2.09-0.95c4.82,0,10.68,0.24,13.3,0.24c3.77,0,11.1-0.24,15.29-0.24
			c11.52,0,15.71,4.25,17.18,5.67c1.99,2.13,4.61,6.62,4.61,12.05c0,14.18-10.05,24.34-23.15,24.34c-0.42,0-2.3,0-2.72-0.12
			c-0.52,0-1.15-0.35-1.15-1.06c0-0.83,1.05-1.3,3.04-1.3c5.13,0,12.36-6.03,12.36-16.3c0-3.31-0.31-9.92-5.45-14.88
			c-3.35-3.31-7.12-3.78-9.22-3.78c-1.36,0-3.14,0.12-3.98,0.47c-0.52,0.24-0.73,0.83-0.73,1.89v39.81c0,9.21,0,17.13,0.42,21.5
			c0.31,2.83,0.84,4.73,3.56,5.2c1.36,0.24,3.35,0.35,4.71,0.35c1.05,0,1.47,0.59,1.47,1.06c0,0.71-0.73,1.06-1.68,1.06
			c-6.18,0-12.67-0.35-15.08-0.35c-2.09,0-7.96,0.35-11.63,0.35c-1.15,0-1.78-0.35-1.78-1.06c0-0.47,0.31-1.06,1.47-1.06
			c1.36,0,2.41-0.12,3.25-0.35c1.89-0.47,2.41-2.36,2.72-5.32c0.42-4.25,0.42-12.17,0.42-21.38V301.13z"/>
		<path class="st0" d="M262.96,301.13c0-15.24,0-18.07-0.1-21.26c-0.21-3.43-1.15-4.61-3.14-5.32c-1.05-0.35-2.2-0.47-3.35-0.47
			c-0.94,0-1.47-0.24-1.47-1.18c0-0.59,0.73-0.83,2.2-0.83c3.46,0,9.74,0.24,12.36,0.24c2.3,0,8.27-0.24,11.83-0.24
			c1.15,0,1.89,0.24,1.89,0.83c0,0.94-0.52,1.18-1.47,1.18c-0.94,0-1.68,0.12-2.72,0.35c-2.51,0.47-3.25,1.89-3.46,5.43
			c-0.21,3.19-0.21,6.02-0.21,21.26v17.72c0,9.69,0,17.72,0.42,21.97c0.31,2.72,0.94,4.25,3.67,4.73c1.26,0.24,3.35,0.35,4.71,0.35
			c1.05,0,1.47,0.59,1.47,1.06c0,0.71-0.73,1.06-1.78,1.06c-6.07,0-12.36-0.35-14.87-0.35c-2.09,0-8.38,0.35-12.04,0.35
			c-1.15,0-1.78-0.35-1.78-1.06c0-0.47,0.31-1.06,1.47-1.06c1.36,0,2.41-0.12,3.25-0.35c1.89-0.47,2.41-1.89,2.72-4.84
			c0.42-4.13,0.42-12.17,0.42-21.85V301.13z"/>
		<path class="st0" d="M290.09,346.73c-1.47-0.71-1.78-1.18-1.78-3.43c0-5.43,0.42-11.7,0.52-13.35c0-1.54,0.42-2.6,1.15-2.6
			c0.84,0,0.94,0.95,0.94,1.65c0,1.3,0.31,3.43,0.84,5.2c1.99,7.44,8.9,9.92,14.66,9.92c7.96,0,12.78-5.67,12.78-12.76
			c0-4.37-0.94-8.74-9.11-14.18l-5.34-3.54c-10.89-7.21-14.45-13.94-14.45-22.8c0-12.29,10.47-20.2,23.25-20.2
			c5.97,0,10.68,0.94,13.09,1.65c0.84,0.24,1.26,0.59,1.26,1.3c0,1.3-0.31,4.13-0.31,12.05c0,2.13-0.42,3.19-1.15,3.19
			c-0.63,0-0.94-0.59-0.94-1.77c0-0.94-0.42-4.02-2.41-6.62c-1.36-1.89-4.29-4.73-10.26-4.73c-6.6,0-12.57,3.9-12.57,10.75
			c0,4.49,1.47,8.03,9.74,13.23l3.77,2.36c12.15,7.56,15.92,15.24,15.92,24.34c0,7.44-2.51,13.47-9.22,18.78
			c-4.4,3.54-10.47,4.13-15.4,4.13C299.72,349.33,294.07,348.74,290.09,346.73z"/>
		<path class="st0" d="M331.14,309.99c0-17.13,10.68-39.34,38.65-39.34c23.25,0,37.71,14.53,37.71,37.57
			c0,23.04-14.87,41.11-38.65,41.11C342.04,349.33,331.14,327.83,331.14,309.99z M393.78,311.88c0-22.21-11.83-35.91-26.71-35.91
			c-10.26,0-22.31,6.14-22.31,30.95c0,20.67,10.47,36.98,27.86,36.98C379.11,343.9,393.78,340.47,393.78,311.88z"/>
		<path class="st0" d="M417.34,301.13c0-15.24,0-18.07-0.1-21.26c-0.21-3.43-1.05-4.49-3.98-5.43c-0.73-0.24-2.3-0.35-3.67-0.35
			c-0.94,0-1.57-0.35-1.57-1.06c0-0.71,0.73-0.95,2.09-0.95c4.82,0,10.68,0.24,13.3,0.24c2.83,0,9.43-0.24,14.98-0.24
			c11.52,0,27.02,0,37.08,11.46c4.61,5.2,8.69,13.59,8.69,25.52c0,12.64-4.82,22.21-10.05,28c-4.19,4.73-13.93,11.81-30.9,11.81
			c-3.35,0-7.33-0.35-11-0.59c-3.67-0.35-7.02-0.59-9.32-0.59c-1.05,0-3.04,0.12-5.24,0.12c-2.2,0.12-4.5,0.24-6.39,0.24
			c-1.15,0-1.78-0.35-1.78-1.06c0-0.47,0.31-1.06,1.47-1.06c1.36,0,2.41-0.12,3.25-0.35c1.89-0.47,2.41-2.36,2.72-5.32
			c0.42-4.25,0.42-12.17,0.42-21.38V301.13z M429.7,312.24c0,10.63,0.1,18.31,0.21,20.32c0.11,2.48,0.31,6.02,1.05,7.09
			c1.15,1.89,4.82,4.02,12.04,4.02c8.38,0,14.56-1.65,20.11-6.85c5.97-5.55,7.85-14.53,7.85-24.93c0-12.76-4.5-21.03-8.59-25.04
			c-8.48-8.51-18.54-9.57-25.77-9.57c-1.88,0-4.92,0.24-5.66,0.71c-0.84,0.35-1.15,0.83-1.15,2.01c-0.1,3.43-0.1,11.7-0.1,19.61
			V312.24z"/>
		<path class="st0" d="M493.91,301.13c0-15.24,0-18.07-0.1-21.26c-0.21-3.43-1.05-4.49-3.98-5.43c-0.73-0.24-2.3-0.35-3.67-0.35
			c-0.94,0-1.57-0.35-1.57-1.06c0-0.71,0.73-0.95,2.09-0.95c4.82,0,10.68,0.24,13.3,0.24c2.93,0,23.36,0.12,25.14,0
			c1.68-0.12,3.14-0.47,3.88-0.59c0.52-0.12,1.05-0.47,1.47-0.47c0.52,0,0.63,0.47,0.63,0.95c0,0.71-0.52,1.89-0.73,6.5
			c-0.1,1.06-0.31,5.43-0.52,6.62c-0.1,0.47-0.31,1.65-1.05,1.65c-0.63,0-0.73-0.47-0.73-1.3c0-0.71-0.11-2.48-0.63-3.66
			c-0.73-1.77-1.47-3.19-6.07-3.66c-1.57-0.24-12.57-0.47-14.45-0.47c-0.42,0-0.63,0.35-0.63,0.94v24.81c0,0.59,0.1,1.06,0.63,1.06
			c2.09,0,14.03,0,16.13-0.24c2.2-0.24,3.56-0.47,4.4-1.54c0.73-0.71,1.05-1.3,1.47-1.3c0.42,0,0.73,0.47,0.73,1.06
			s-0.21,2.24-0.73,7.32c-0.21,2.01-0.42,6.02-0.42,6.73c0,0.83-0.1,2.25-0.94,2.25c-0.63,0-0.84-0.35-0.84-0.83
			c-0.1-1.06-0.1-2.36-0.31-3.66c-0.52-2.01-1.68-3.54-5.13-3.9c-1.68-0.24-12.15-0.47-14.45-0.47c-0.42,0-0.52,0.47-0.52,1.06v8.03
			c0,3.43-0.11,11.93,0,14.88c0.21,6.85,3.04,8.39,12.46,8.39c2.41,0,6.28-0.12,8.69-1.3c2.3-1.18,3.35-3.31,3.98-7.44
			c0.21-1.06,0.42-1.54,1.05-1.54c0.73,0,0.84,1.3,0.84,2.36c0,2.25-0.73,9.1-1.26,11.11c-0.63,2.6-1.47,2.6-4.92,2.6
			c-6.91,0-12.46-0.12-16.97-0.35c-4.5-0.12-7.96-0.24-10.68-0.24c-1.05,0-3.04,0.12-5.24,0.12c-2.2,0.12-4.5,0.24-6.39,0.24
			c-1.15,0-1.78-0.35-1.78-1.06c0-0.47,0.31-1.06,1.47-1.06c1.36,0,2.41-0.12,3.25-0.35c1.89-0.47,2.41-2.36,2.72-5.32
			c0.42-4.25,0.42-12.17,0.42-21.38V301.13z"/>
		<path class="st0" d="M572.04,301.13c0-15.24,0-18.07-0.1-21.26c-0.21-3.43-1.15-4.61-3.14-5.32c-1.05-0.35-2.2-0.47-3.35-0.47
			c-0.94,0-1.47-0.24-1.47-1.18c0-0.59,0.73-0.83,2.2-0.83c3.46,0,9.74,0.24,12.36,0.24c2.3,0,8.27-0.24,11.83-0.24
			c1.15,0,1.88,0.24,1.88,0.83c0,0.94-0.52,1.18-1.47,1.18s-1.68,0.12-2.72,0.35c-2.51,0.47-3.25,1.89-3.46,5.43
			c-0.21,3.19-0.21,6.02-0.21,21.26v17.72c0,9.69,0,17.72,0.42,21.97c0.31,2.72,0.94,4.25,3.67,4.73c1.26,0.24,3.35,0.35,4.71,0.35
			c1.05,0,1.47,0.59,1.47,1.06c0,0.71-0.73,1.06-1.78,1.06c-6.08,0-12.36-0.35-14.87-0.35c-2.09,0-8.38,0.35-12.04,0.35
			c-1.15,0-1.78-0.35-1.78-1.06c0-0.47,0.31-1.06,1.47-1.06c1.36,0,2.41-0.12,3.25-0.35c1.88-0.47,2.41-1.89,2.72-4.84
			c0.42-4.13,0.42-12.17,0.42-21.85V301.13z"/>
		<path class="st0" d="M602.84,281.88c-2.09-5.55-3.46-6.5-6.81-7.44c-1.36-0.35-2.83-0.35-3.56-0.35c-0.84,0-1.05-0.47-1.05-1.06
			c0-0.83,0.94-0.95,2.3-0.95c4.92,0,10.16,0.24,13.41,0.24c2.3,0,7.12-0.24,11.73-0.24c1.15,0,2.2,0.24,2.2,0.95
			c0,0.71-0.63,1.06-1.47,1.06c-1.47,0-2.83,0.12-3.56,0.71c-0.63,0.47-0.94,1.06-0.94,2.01c0,1.3,0.84,4.02,2.1,7.56l15.5,45.01
			H633c3.98-10.4,15.82-42.76,18.01-49.38c0.42-1.3,0.84-2.84,0.84-3.66c0-1.06-0.42-1.42-1.26-1.77c-1.05-0.35-2.51-0.47-3.67-0.47
			c-0.84,0-1.57-0.35-1.57-1.06c0-0.71,0.84-0.95,2.62-0.95c4.61,0,8.69,0.24,9.85,0.24c1.57,0,5.87-0.24,8.69-0.24
			c1.15,0,1.89,0.24,1.89,0.95c0,0.71-0.52,1.06-1.47,1.06s-2.93-0.12-4.5,1.18c-1.15,0.95-2.41,2.48-4.82,8.86
			c-3.67,9.45-6.07,14.88-11.1,27.17c-5.87,14.65-10.16,25.63-12.25,30.71c-2.3,5.79-3.14,7.32-4.4,7.32s-1.99-1.3-3.77-6.03
			L602.84,281.88z"/>
	</g>
	<g>
		<path class="st0" d="M160.92,386.95c-0.17,0-0.23,0.07-0.3,0.27l-1.79,4.75c-0.33,0.83-0.5,1.63-0.5,2.03
			c0,0.6,0.3,1.03,1.33,1.03h0.5c0.4,0,0.5,0.07,0.5,0.27c0,0.27-0.2,0.33-0.56,0.33c-1.06,0-2.49-0.1-3.52-0.1
			c-0.37,0-2.19,0.1-3.92,0.1c-0.43,0-0.63-0.07-0.63-0.33c0-0.2,0.13-0.27,0.4-0.27c0.3,0,0.76-0.03,1.03-0.07
			c1.53-0.2,2.16-1.33,2.82-2.99l8.33-20.85c0.4-0.96,0.6-1.33,0.93-1.33c0.3,0,0.5,0.3,0.83,1.06c0.8,1.83,6.11,15.37,8.23,20.42
			c1.26,2.99,2.22,3.45,2.92,3.62c0.5,0.1,1,0.13,1.39,0.13c0.27,0,0.43,0.03,0.43,0.27c0,0.27-0.3,0.33-1.53,0.33
			c-1.2,0-3.62,0-6.28-0.07c-0.6-0.03-1-0.03-1-0.27c0-0.2,0.13-0.27,0.46-0.3c0.23-0.07,0.46-0.37,0.3-0.76l-2.66-7.04
			c-0.07-0.17-0.17-0.23-0.33-0.23H160.92z M167.69,385.29c0.17,0,0.2-0.1,0.17-0.2l-2.99-8.2c-0.03-0.13-0.07-0.3-0.17-0.3
			s-0.17,0.17-0.2,0.3l-3.05,8.17c-0.03,0.13,0,0.23,0.13,0.23H167.69z"/>
		<path class="st0" d="M249.76,391.1c0.07,2.59,0.5,3.45,1.16,3.69c0.56,0.2,1.2,0.23,1.73,0.23c0.37,0,0.56,0.07,0.56,0.27
			c0,0.27-0.3,0.33-0.76,0.33c-2.16,0-3.49-0.1-4.12-0.1c-0.3,0-1.86,0.1-3.59,0.1c-0.43,0-0.73-0.03-0.73-0.33
			c0-0.2,0.2-0.27,0.53-0.27c0.43,0,1.03-0.03,1.49-0.17c0.86-0.27,1-1.23,1.03-4.12l0.3-19.66c0-0.66,0.1-1.13,0.43-1.13
			c0.37,0,0.66,0.43,1.23,1.03c0.4,0.43,5.45,5.84,10.29,10.66c2.26,2.26,6.74,7.04,7.3,7.57h0.17l-0.33-14.91
			c-0.03-2.03-0.33-2.66-1.13-2.99c-0.5-0.2-1.29-0.2-1.76-0.2c-0.4,0-0.53-0.1-0.53-0.3c0-0.27,0.37-0.3,0.86-0.3
			c1.73,0,3.32,0.1,4.02,0.1c0.37,0,1.63-0.1,3.25-0.1c0.43,0,0.76,0.03,0.76,0.3c0,0.2-0.2,0.3-0.6,0.3c-0.33,0-0.6,0-1,0.1
			c-0.93,0.27-1.2,0.96-1.23,2.82l-0.37,20.95c0,0.73-0.13,1.03-0.43,1.03c-0.37,0-0.76-0.37-1.13-0.73
			c-2.09-1.99-6.34-6.34-9.79-9.76c-3.62-3.59-7.3-7.74-7.9-8.37h-0.1L249.76,391.1z"/>
		<path class="st0" d="M306.9,380.14c0-5.05,0-5.98-0.07-7.04c-0.07-1.13-0.33-1.66-1.43-1.89c-0.27-0.07-0.83-0.1-1.29-0.1
			c-0.37,0-0.56-0.07-0.56-0.3s0.23-0.3,0.73-0.3c0.9,0,1.86,0.03,2.69,0.03c0.86,0.03,1.63,0.07,2.09,0.07c1.06,0,7.67,0,8.3-0.03
			c0.63-0.07,1.16-0.13,1.43-0.2c0.17-0.03,0.37-0.13,0.53-0.13s0.2,0.13,0.2,0.3c0,0.23-0.17,0.63-0.27,2.16
			c-0.03,0.33-0.1,1.79-0.17,2.19c-0.03,0.17-0.1,0.37-0.33,0.37s-0.3-0.17-0.3-0.46c0-0.23-0.03-0.8-0.2-1.2
			c-0.23-0.6-0.56-1-2.22-1.2c-0.56-0.07-4.05-0.13-4.71-0.13c-0.17,0-0.23,0.1-0.23,0.33v8.4c0,0.23,0.03,0.37,0.23,0.37
			c0.73,0,4.55,0,5.31-0.07c0.8-0.07,1.29-0.17,1.59-0.5c0.23-0.27,0.37-0.43,0.53-0.43c0.13,0,0.23,0.07,0.23,0.27
			s-0.13,0.73-0.27,2.42c-0.03,0.66-0.13,1.99-0.13,2.22c0,0.27,0,0.63-0.3,0.63c-0.23,0-0.3-0.13-0.3-0.3
			c-0.03-0.33-0.03-0.76-0.13-1.2c-0.17-0.66-0.63-1.16-1.86-1.29c-0.63-0.07-3.92-0.1-4.71-0.1c-0.17,0-0.2,0.13-0.2,0.33v2.62
			c0,1.13-0.03,4.18,0,5.15c0.07,2.29,0.6,2.79,3.98,2.79c0.86,0,2.26,0,3.12-0.4s1.26-1.1,1.49-2.46c0.07-0.37,0.13-0.5,0.37-0.5
			c0.27,0,0.27,0.27,0.27,0.6c0,0.76-0.27,3.02-0.43,3.69c-0.23,0.86-0.53,0.86-1.79,0.86c-2.49,0-4.32-0.07-5.74-0.1
			c-1.43-0.07-2.46-0.1-3.45-0.1c-0.37,0-1.1,0-1.89,0.03c-0.76,0-1.63,0.07-2.29,0.07c-0.43,0-0.66-0.1-0.66-0.33
			c0-0.17,0.13-0.27,0.53-0.27c0.5,0,0.9-0.07,1.2-0.13c0.66-0.13,0.83-0.86,0.96-1.83c0.17-1.39,0.17-4.02,0.17-7.07V380.14z"/>
		<path class="st0" d="M352.48,373.77c-0.4-1.23-0.76-2.03-1.23-2.36c-0.37-0.23-1.03-0.3-1.33-0.3c-0.33,0-0.53-0.03-0.53-0.3
			c0-0.23,0.27-0.3,0.73-0.3c1.73,0,3.55,0.1,3.85,0.1s1.76-0.1,3.69-0.1c0.46,0,0.7,0.1,0.7,0.3c0,0.27-0.27,0.3-0.6,0.3
			c-0.27,0-0.6,0-0.83,0.13c-0.3,0.13-0.37,0.37-0.37,0.73c0,0.43,0.33,1.56,0.73,3.05c0.56,2.19,3.65,12.25,4.25,14.11h0.1
			l6.44-17.3c0.33-0.93,0.56-1.2,0.83-1.2c0.37,0,0.53,0.5,0.96,1.56l6.91,16.7h0.1c0.6-2.22,3.25-10.99,4.42-14.88
			c0.23-0.76,0.33-1.46,0.33-1.93c0-0.53-0.3-1-1.59-1c-0.33,0-0.56-0.1-0.56-0.3c0-0.23,0.27-0.3,0.76-0.3
			c1.76,0,3.15,0.1,3.45,0.1c0.23,0,1.66-0.1,2.76-0.1c0.37,0,0.6,0.07,0.6,0.27c0,0.23-0.17,0.33-0.46,0.33
			c-0.33,0-0.8,0.03-1.16,0.17c-0.8,0.3-1.16,1.63-1.86,3.52c-1.53,4.18-5.01,14.74-6.64,19.72c-0.37,1.16-0.53,1.56-0.96,1.56
			c-0.33,0-0.53-0.4-1.03-1.63l-6.91-16.63h-0.07c-0.63,1.69-5.05,13.45-6.47,16.5c-0.63,1.36-0.8,1.76-1.2,1.76
			c-0.33,0-0.46-0.37-0.76-1.23L352.48,373.77z"/>
		<path class="st0" d="M451.68,395.38c-0.17-0.1-0.17-0.27,0-0.56l15.14-24.57c0.17-0.27,0.3-0.27,0.46-0.17l1.2,0.73
			c0.13,0.07,0.17,0.2,0.03,0.4l-15.24,24.74c-0.13,0.23-0.27,0.3-0.43,0.2L451.68,395.38z"/>
		<path class="st0" d="M491.55,381.07c0.1,0,0.2-0.07,0.2-0.23v-0.7c0-5.05,0-5.98-0.07-7.04c-0.07-1.13-0.33-1.66-1.43-1.89
			c-0.27-0.07-0.83-0.1-1.29-0.1c-0.37,0-0.56-0.07-0.56-0.3s0.23-0.3,0.7-0.3c1.79,0,3.88,0.1,4.78,0.1c0.8,0,2.89-0.1,4.18-0.1
			c0.46,0,0.7,0.07,0.7,0.3s-0.2,0.3-0.6,0.3c-0.27,0-0.56,0.03-0.96,0.1c-0.9,0.17-1.16,0.73-1.23,1.89
			c-0.07,1.06-0.07,1.99-0.07,7.04v5.84c0,3.05,0,5.68,0.17,7.11c0.1,0.93,0.3,1.66,1.29,1.79c0.46,0.07,1.2,0.13,1.69,0.13
			c0.37,0,0.53,0.1,0.53,0.27c0,0.23-0.27,0.33-0.66,0.33c-2.16,0-4.25-0.1-5.18-0.1c-0.76,0-2.86,0.1-4.15,0.1
			c-0.46,0-0.7-0.1-0.7-0.33c0-0.17,0.13-0.27,0.53-0.27c0.5,0,0.9-0.07,1.2-0.13c0.66-0.13,0.83-0.86,0.96-1.83
			c0.17-1.39,0.17-4.02,0.17-7.07v-2.92c0-0.13-0.1-0.2-0.2-0.2h-12.68c-0.1,0-0.2,0.03-0.2,0.2v2.92c0,3.05,0,5.68,0.17,7.11
			c0.1,0.93,0.3,1.66,1.29,1.79c0.46,0.07,1.2,0.13,1.69,0.13c0.37,0,0.53,0.1,0.53,0.27c0,0.23-0.27,0.33-0.66,0.33
			c-2.16,0-4.25-0.1-5.18-0.1c-0.76,0-2.86,0.1-4.18,0.1c-0.43,0-0.66-0.1-0.66-0.33c0-0.17,0.13-0.27,0.53-0.27
			c0.5,0,0.9-0.07,1.2-0.13c0.66-0.13,0.83-0.86,0.96-1.83c0.17-1.39,0.17-4.02,0.17-7.07v-5.84c0-5.05,0-5.98-0.07-7.04
			c-0.07-1.13-0.33-1.66-1.43-1.89c-0.27-0.07-0.83-0.1-1.29-0.1c-0.37,0-0.56-0.07-0.56-0.3s0.23-0.3,0.7-0.3
			c1.79,0,3.88,0.1,4.78,0.1c0.8,0,2.89-0.1,4.18-0.1c0.46,0,0.7,0.07,0.7,0.3s-0.2,0.3-0.6,0.3c-0.27,0-0.56,0.03-0.96,0.1
			c-0.9,0.17-1.16,0.73-1.23,1.89c-0.07,1.06-0.07,1.99-0.07,7.04v0.7c0,0.17,0.1,0.23,0.2,0.23H491.55z"/>
		<path class="st0" d="M530.72,383.06c0-5.68,3.75-13.02,13.71-13.02c8.27,0,13.41,4.81,13.41,12.42s-5.31,13.61-13.75,13.61
			C534.58,396.08,530.72,388.94,530.72,383.06z M553.2,383.69c0-7.44-4.28-12.05-9.73-12.05c-3.82,0-8.17,2.13-8.17,10.39
			c0,6.91,3.82,12.38,10.19,12.38C547.82,394.42,553.2,393.29,553.2,383.69z"/>
		<path class="st0" d="M593.9,370.64c0.1-0.56,0.3-0.86,0.56-0.86s0.46,0.17,0.9,1.03l9.06,18.73l9.03-18.96
			c0.27-0.53,0.43-0.8,0.73-0.8s0.5,0.33,0.6,1.03l3.02,20.52c0.3,2.09,0.63,3.05,1.63,3.35c0.96,0.3,1.63,0.33,2.06,0.33
			c0.3,0,0.53,0.03,0.53,0.23c0,0.27-0.4,0.37-0.86,0.37c-0.83,0-5.41-0.1-6.74-0.2c-0.76-0.07-0.96-0.17-0.96-0.37
			c0-0.17,0.13-0.27,0.37-0.37c0.2-0.07,0.3-0.5,0.17-1.43L612,378.65h-0.13l-7.24,15.07c-0.76,1.56-0.93,1.86-1.23,1.86
			s-0.63-0.66-1.16-1.66c-0.8-1.53-3.42-6.61-3.82-7.54c-0.3-0.7-2.29-4.88-3.45-7.37h-0.13l-1.73,13.21
			c-0.07,0.6-0.1,1.03-0.1,1.56c0,0.63,0.43,0.93,1,1.06c0.6,0.13,1.06,0.17,1.39,0.17c0.27,0,0.5,0.07,0.5,0.23
			c0,0.3-0.3,0.37-0.8,0.37c-1.39,0-2.89-0.1-3.49-0.1c-0.63,0-2.22,0.1-3.29,0.1c-0.33,0-0.6-0.07-0.6-0.37
			c0-0.17,0.2-0.23,0.53-0.23c0.27,0,0.5,0,1-0.1c0.93-0.2,1.2-1.49,1.36-2.62L593.9,370.64z"/>
		<path class="st0" d="M654.86,380.14c0-5.05,0-5.98-0.07-7.04c-0.07-1.13-0.33-1.66-1.43-1.89c-0.27-0.07-0.83-0.1-1.29-0.1
			c-0.37,0-0.56-0.07-0.56-0.3s0.23-0.3,0.73-0.3c0.9,0,1.86,0.03,2.69,0.03c0.86,0.03,1.63,0.07,2.09,0.07c1.06,0,7.67,0,8.3-0.03
			c0.63-0.07,1.16-0.13,1.43-0.2c0.17-0.03,0.37-0.13,0.53-0.13s0.2,0.13,0.2,0.3c0,0.23-0.17,0.63-0.27,2.16
			c-0.03,0.33-0.1,1.79-0.17,2.19c-0.03,0.17-0.1,0.37-0.33,0.37s-0.3-0.17-0.3-0.46c0-0.23-0.03-0.8-0.2-1.2
			c-0.23-0.6-0.56-1-2.22-1.2c-0.56-0.07-4.05-0.13-4.71-0.13c-0.17,0-0.23,0.1-0.23,0.33v8.4c0,0.23,0.03,0.37,0.23,0.37
			c0.73,0,4.55,0,5.31-0.07c0.8-0.07,1.29-0.17,1.59-0.5c0.23-0.27,0.37-0.43,0.53-0.43c0.13,0,0.23,0.07,0.23,0.27
			s-0.13,0.73-0.27,2.42c-0.03,0.66-0.13,1.99-0.13,2.22c0,0.27,0,0.63-0.3,0.63c-0.23,0-0.3-0.13-0.3-0.3
			c-0.03-0.33-0.03-0.76-0.13-1.2c-0.17-0.66-0.63-1.16-1.86-1.29c-0.63-0.07-3.92-0.1-4.71-0.1c-0.17,0-0.2,0.13-0.2,0.33v2.62
			c0,1.13-0.03,4.18,0,5.15c0.07,2.29,0.6,2.79,3.98,2.79c0.86,0,2.26,0,3.12-0.4s1.26-1.1,1.49-2.46c0.07-0.37,0.13-0.5,0.37-0.5
			c0.27,0,0.27,0.27,0.27,0.6c0,0.76-0.27,3.02-0.43,3.69c-0.23,0.86-0.53,0.86-1.79,0.86c-2.49,0-4.32-0.07-5.74-0.1
			c-1.43-0.07-2.46-0.1-3.45-0.1c-0.37,0-1.1,0-1.89,0.03c-0.76,0-1.63,0.07-2.29,0.07c-0.43,0-0.66-0.1-0.66-0.33
			c0-0.17,0.13-0.27,0.53-0.27c0.5,0,0.9-0.07,1.2-0.13c0.66-0.13,0.83-0.86,0.96-1.83c0.17-1.39,0.17-4.02,0.17-7.07V380.14z"/>
	</g>
	<rect x="153.93" y="354.82" class="st0" width="514.47" height="7.61"/>
	<path class="st0" d="M160.13,264.84v-20.57h-6.08v-8.72h26.06c3.2,0.03,5.64,0.58,7.31,1.66c1.67,1.08,2.68,2.89,3.03,5.44
		c0.12,1.95-0.29,3.48-1.24,4.58c-0.95,1.11-2.51,2.02-4.69,2.74v0.08c1.07,0.13,2.06,0.42,2.96,0.86c0.91,0.44,1.67,0.96,2.28,1.56
		c0.62,0.6,1.09,1.28,1.43,2.04c0.34,0.76,0.51,1.5,0.51,2.23c0,2.31-0.59,4.06-1.77,5.25c-1.18,1.19-2.7,1.97-4.56,2.33
		c-1.86,0.36-4.11,0.53-6.76,0.51H160.13z M170.23,242.65v4.44h7.1c0.39,0,0.8-0.21,1.24-0.62c0.43-0.41,0.66-0.96,0.69-1.65
		c-0.05-0.8-0.31-1.36-0.78-1.68c-0.47-0.32-0.86-0.49-1.17-0.49H170.23z M170.23,253.5v5.42h6.51c1.12,0.04,2.1-0.2,2.94-0.73
		s1.26-1.18,1.26-1.95c0.08-0.85-0.26-1.52-1.02-2.01c-0.76-0.49-1.82-0.73-3.17-0.73H170.23z"/>
	<path class="st0" d="M217.97,252.76c0,3.38-1.31,6.26-3.93,8.64c-2.52,2.29-5.49,3.44-8.91,3.44c-3.42,0-6.39-1.15-8.91-3.44
		c-2.62-2.38-3.93-5.25-3.93-8.64c0-3.38,1.31-6.26,3.93-8.64c2.52-2.29,5.48-3.44,8.91-3.44c3.42,0,6.39,1.15,8.91,3.44
		C216.66,246.5,217.97,249.38,217.97,252.76z M209.79,252.76c0-1.23-0.47-2.29-1.41-3.19c-0.94-0.9-2.02-1.34-3.24-1.34
		c-1.24,0-2.32,0.45-3.25,1.34s-1.4,1.96-1.4,3.19s0.46,2.29,1.4,3.19s2.02,1.34,3.25,1.34c1.24,0,2.32-0.45,3.25-1.34
		S209.79,253.99,209.79,252.76z"/>
	<path class="st0" d="M246.66,264.84h-7.85c-2.01,0-4.03-1.01-6.04-3.02l-4.23-4.23v7.25h-9.06v-24.16h17.21
		c2.23,0,4.2,0.81,5.9,2.42c1.7,1.61,2.55,3.52,2.55,5.74c0,1.63-0.48,3.14-1.45,4.53c-0.97,1.39-2.21,2.38-3.74,2.96
		c0.36,0.64,0.89,0.97,1.57,0.97h5.13V264.84z M236.09,249.14c0-0.48-0.18-0.91-0.54-1.27s-0.79-0.54-1.27-0.54h-5.74v3.62h5.74
		c0.48,0,0.91-0.18,1.27-0.54S236.09,249.62,236.09,249.14z"/>
	<path class="st0" d="M273.83,264.84h-9.06l-7.55-9.66v9.66h-9.06v-24.16h9.06l7.55,9.66v-9.66h9.06V264.84z"/>
	<path class="st0" d="M306.73,264.84h-11.03V254h-9.19v10.84h-11.03v-29.4h11.03v10.84h9.19v-10.84h11.03V264.84z"/>
	<path class="st0" d="M334.71,264.84h-9.36l-0.79-3.02h-6.88l-0.79,3.02h-9.36l6.34-24.16h14.49L334.71,264.84z M322.97,255.75
		l-1.84-7.01l-1.84,7.01H322.97z"/>
	<path class="st0" d="M356.01,264.84h-9.81c-3.42,0-6.39-1.15-8.91-3.44c-2.62-2.38-3.93-5.25-3.93-8.64c0-3.38,1.31-6.26,3.93-8.64
		c2.52-2.29,5.48-3.44,8.91-3.44h9.81v7.55h-9.79c-1.23,0-2.31,0.45-3.25,1.34c-0.94,0.9-1.42,1.96-1.42,3.19s0.47,2.29,1.4,3.19
		s2.02,1.34,3.27,1.34h9.79V264.84z"/>
	<path class="st0" d="M668.4,257.56l-288.92-0.27c-0.75,0-1.24-0.12-1.48-0.36l-3.62-3.62l8.82-12.62h-11.05l-5.56,7.91v-7.91h-9.06
		v24.16h9.06v-7.25l4.23,4.23c2.01,2.01,4.03,3.02,6.04,3.02l291.55,0.09V257.56z"/>
</g>
</svg>
