<svg width="434" height="499" xmlns="http://www.w3.org/2000/svg">
  <g fill="none" fill-rule="evenodd">
    <path d="M104.2 15.533h-5.615c-.706 0-1.255.02-1.647.058-.391.038-.883.176-1.475.415a4.498 4.498 0 0 0-1.575 1.074c-1.07 1.127-1.605 2.607-1.605 4.44 0 1.624.463 2.98 1.39 4.068.926 1.089 2.182 1.633 3.767 1.633.916 0 1.733-.134 2.449-.401.716-.268 1.308-.602 1.776-1.003.468-.4.869-.926 1.203-1.575.334-.65.582-1.256.745-1.82.162-.563.291-1.236.386-2.019.096-.783.153-1.423.172-1.92.02-.496.029-1.088.029-1.775v-1.175zM99.617.408c1.642 0 3.084.253 4.325.76 1.242.506 2.263 1.465 3.065 2.878.573 1.013.86 2.578.86 4.698V30.2H104.2v-3.523h-.286c-1.93 2.654-4.316 3.981-7.162 3.981-2.292 0-4.22-.859-5.786-2.578-1.566-1.719-2.35-3.886-2.35-6.502 0-2.75.84-4.966 2.522-6.646a9.276 9.276 0 0 1 1.947-1.461 7.19 7.19 0 0 1 2.163-.788c.755-.143 1.347-.23 1.776-.258a25.1 25.1 0 0 1 1.619-.043h5.557V8.887c0-1.661-.172-2.788-.516-3.38a3.042 3.042 0 0 0-1.389-1.246c-.602-.277-1.494-.415-2.678-.415-2.292 0-5.042.2-8.25.601V.953c3.15-.363 5.9-.545 8.25-.545zM56.533 41.867H60.2v18.562h18.333V41.867H82.2V82.2h-3.667V63.867H60.2V82.2h-3.667V41.867zm50.961 16.843c.554-1.26.831-2.635.831-4.125 0-1.49-.277-2.86-.83-4.11-.555-1.251-1.3-2.278-2.235-3.08a7.869 7.869 0 0 0-1.848-1.203 7.79 7.79 0 0 0-2.134-.63 21.99 21.99 0 0 0-1.862-.215 34.335 34.335 0 0 0-1.948-.043H93.2v18.563h4.268c1.07 0 1.939-.024 2.607-.072.668-.048 1.513-.239 2.535-.573 1.022-.334 1.905-.816 2.65-1.446.936-.803 1.68-1.824 2.234-3.066zM97.468 41.867c.936 0 1.705.019 2.306.057.602.038 1.413.138 2.435.3a10.41 10.41 0 0 1 2.922.917c.926.45 1.79 1.027 2.592 1.733 2.846 2.521 4.269 5.758 4.269 9.711 0 3.954-1.423 7.19-4.269 9.711a10.71 10.71 0 0 1-2.234 1.519l7.219 16.385h-3.896l-6.79-15.21c-1.145.21-2.663.314-4.554.314H93.2V82.2h-3.667V41.867h7.935zm25.867 33.43c1.013 2.577 2.579 3.867 4.698 3.867 1.223 0 2.24-.411 3.051-1.232.812-.821 1.437-1.92 1.876-3.294.249-.745.43-1.848.545-3.31.114-1.46.181-2.783.2-3.967.02-1.184.029-2.96.029-5.328 0-4.03-.048-6.827-.143-8.393l-10.256 21.656zm4.698-30.394c-1.222 0-2.239.41-3.05 1.232-.812.821-1.438 1.92-1.877 3.294-.248.745-.43 1.848-.544 3.309a64.466 64.466 0 0 0-.2 3.967c-.02 1.184-.03 2.96-.03 5.328 0 4.03.049 6.828.144 8.394l10.255-21.657c-1.012-2.578-2.578-3.867-4.698-3.867zm-8.135 2.664c1.566-4.144 4.278-6.216 8.135-6.216 3.858 0 6.57 2.072 8.136 6.216.344.936.601 2.225.773 3.867.172 1.643.272 3.137.301 4.483.029 1.347.043 3.385.043 6.116s-.014 4.77-.043 6.116a54.552 54.552 0 0 1-.3 4.483c-.173 1.643-.43 2.932-.774 3.867-1.566 4.145-4.278 6.217-8.136 6.217-3.857 0-6.57-2.072-8.135-6.217-.344-.935-.602-2.224-.774-3.867a54.551 54.551 0 0 1-.3-4.483 315.58 315.58 0 0 1-.043-6.116c0-2.73.014-4.77.043-6.116.028-1.346.129-2.84.3-4.483.172-1.642.43-2.931.774-3.867zm27.586 25.237c-.134-1.375-.2-3.132-.2-5.27 0-2.14.07-3.896.214-5.272a12.697 12.697 0 0 1 1.017-3.867c1.738-3.991 4.975-5.987 9.711-5.987 1.91 0 4.488.163 7.734.487v3.438c-3.284-.325-5.862-.487-7.734-.487-1.642 0-2.946.31-3.91.93-.965.621-1.752 1.562-2.363 2.822-.306.65-.54 1.461-.702 2.435-.163.974-.253 1.81-.272 2.507-.02.697-.029 1.695-.029 2.993 0 1.299.01 2.297.029 2.994.019.697.11 1.532.272 2.506.162.974.396 1.786.702 2.435.61 1.26 1.398 2.201 2.363 2.822.964.62 2.268.93 3.91.93 2.234 0 5.003-.247 8.307-.744v3.438c-3.284.496-6.053.744-8.307.744-4.736 0-7.973-1.995-9.71-5.987a12.994 12.994 0 0 1-1.032-3.867zM27.2 93.867h3.667v18.562H49.2V93.867h3.667V134.2H49.2v-18.333H30.867V134.2H27.2V93.867zm33 40.333h-3.667V93.867H60.2l9.023 17.99h.316l8.994-17.99H82.2V134.2h-3.667v-32.943h-.286l-7.305 14.61h-3.15l-7.306-14.61H60.2V134.2zm41.794-39.388c-3.227 5.5-5.605 10.38-7.133 14.638l.258.115c1.299-.993 2.836-1.49 4.612-1.49 2.044 0 3.767.516 5.17 1.547 1.404 1.031 2.43 2.425 3.08 4.182.249.688.435 1.48.559 2.378.124.897.196 1.67.215 2.32.019.65.028 1.604.028 2.865 0 3.38-.305 5.9-.916 7.562-.63 1.738-1.676 3.127-3.137 4.168-1.461 1.04-3.223 1.561-5.285 1.561-2.311 0-4.22-.51-5.73-1.532-1.508-1.022-2.597-2.42-3.265-4.197a12.643 12.643 0 0 1-.745-3.165c-.114-1.098-.172-2.564-.172-4.397 0-5.328.822-10.122 2.464-14.38 1.585-4.164 3.867-8.804 6.846-13.922l3.151 1.747zm-8.708 23.46c-.057.841-.086 1.872-.086 3.095 0 1.222.033 2.258.1 3.108.067.85.22 1.733.459 2.65.238.916.568 1.651.988 2.205.42.554 1.002 1.008 1.747 1.36.745.354 1.633.53 2.664.53 1.032 0 1.92-.176 2.664-.53.745-.352 1.328-.806 1.748-1.36.42-.554.75-1.289.988-2.206.239-.916.392-1.8.458-2.65.067-.85.1-1.885.1-3.107 0-1.223-.033-2.259-.1-3.108-.066-.85-.22-1.733-.458-2.65-.239-.917-.568-1.652-.988-2.206-.42-.554-1.003-1.007-1.748-1.36-.744-.354-1.632-.53-2.664-.53-1.03 0-1.919.176-2.664.53-.745.353-1.327.806-1.747 1.36-.42.554-.75 1.29-.988 2.206a16.306 16.306 0 0 0-.473 2.664zm25.58 15.928V93.867h3.667v36.895h18.334v3.438h-22zm39.331-6.875c1.815-5.576 3.848-13.062 6.102-22.458h3.753c-.096.363-.32 1.265-.674 2.707a324.28 324.28 0 0 0-.673 2.778c-.095.41-.305 1.26-.63 2.55-.325 1.289-.559 2.196-.702 2.721-.143.525-.367 1.375-.673 2.55a82.178 82.178 0 0 1-.76 2.764c-.2.668-.462 1.556-.787 2.664a117.31 117.31 0 0 1-.902 2.95c-.277.86-.592 1.824-.946 2.894a247.71 247.71 0 0 1-1.074 3.18 100.793 100.793 0 0 1-1.074 2.936c-.258.659-.625 1.408-1.103 2.248-.477.84-.993 1.48-1.547 1.92-1.795 1.508-4.564 2.263-8.307 2.263v-3.438c2.73 0 4.602-.391 5.615-1.174.439-.325.845-.821 1.217-1.49.372-.668.668-1.289.888-1.862.22-.573.635-1.738 1.246-3.495h-1.49a70.826 70.826 0 0 1-5.17-11.859c-1.385-4.163-2.65-8.766-3.796-13.807h3.753c1.986 9.128 4.469 16.614 7.448 22.458h.286zm22.545-32.37c1.49-1.031 3.323-1.547 5.5-1.547s4.01.516 5.5 1.547c1.49 1.031 2.559 2.426 3.208 4.183.382 1.012.63 2.062.745 3.15.114 1.09.172 2.56.172 4.412 0 5.328-.822 10.122-2.464 14.38-1.585 4.163-3.867 8.804-6.846 13.922l-3.151-1.747c3.227-5.5 5.605-10.38 7.133-14.638l-.258-.115c-1.299.993-2.836 1.49-4.612 1.49-2.044 0-3.767-.516-5.17-1.547-1.404-1.031-2.43-2.426-3.08-4.182-.249-.688-.435-1.48-.559-2.378a22.019 22.019 0 0 1-.215-2.32c-.019-.65-.028-1.605-.028-2.865 0-3.38.305-5.901.916-7.563.65-1.756 1.72-3.15 3.209-4.182zm8.164 2.435c-.745-.363-1.633-.544-2.664-.544-1.032 0-1.92.176-2.664.53-.745.353-1.328.807-1.748 1.36-.42.554-.75 1.29-.988 2.206-.239.917-.392 1.8-.458 2.65-.067.85-.1 1.886-.1 3.108 0 1.222.033 2.258.1 3.108.066.85.22 1.733.458 2.65.239.916.568 1.652.988 2.206.42.553 1.003 1.007 1.748 1.36.744.354 1.632.53 2.664.53 1.03 0 1.919-.176 2.664-.53.745-.353 1.327-.807 1.747-1.36.42-.554.75-1.29.988-2.206.24-.917.392-1.8.459-2.65.067-.85.1-1.886.1-3.108a40.59 40.59 0 0 0-.1-3.108c-.067-.85-.22-1.733-.459-2.65-.238-.916-.568-1.652-.988-2.206-.42-.553-1.002-1.002-1.747-1.346zm-152.11 48.906c.592-.592 1.366-.888 2.32-.888.956 0 1.729.296 2.321.888.592.592.888 1.366.888 2.32 0 .956-.296 1.729-.888 2.321-.592.592-1.365.888-2.32.888-.955 0-1.729-.296-2.32-.888-.593-.592-.889-1.365-.889-2.32 0-.955.296-1.729.888-2.32zM38.2 186.2v-25.896h-7.333v-3.437h11V186.2H38.2zm32.198-29.792c1.89 0 3.571.597 5.042 1.79 1.47 1.194 2.54 2.86 3.208 5 .248.801.434 1.699.559 2.692.124.993.195 1.838.214 2.535.02.697.029 1.733.029 3.108s-.01 2.411-.029 3.108c-.019.697-.09 1.543-.214 2.536-.125.993-.31 1.89-.56 2.692-.667 2.14-1.737 3.805-3.207 4.999-1.47 1.194-3.151 1.79-5.042 1.79-2.445 0-4.526-1.346-6.245-4.039h-.286v3.581H60.2v-40.333h3.667v14.58h.286c1.719-2.692 3.8-4.039 6.245-4.039zm2.664 4.698c-.878-.84-1.957-1.26-3.237-1.26s-2.363.415-3.251 1.246c-.888.83-1.542 1.867-1.963 3.108-.496 1.509-.744 3.953-.744 7.333 0 3.38.248 5.825.744 7.334.42 1.241 1.075 2.277 1.963 3.108.888.83 1.971 1.246 3.251 1.246 1.28 0 2.363-.416 3.251-1.246.888-.831 1.542-1.867 1.963-3.108.496-1.509.744-3.953.744-7.334 0-3.38-.248-5.824-.744-7.333-.42-1.241-1.08-2.273-1.977-3.094zm32.055 12.805c0-3.151-.497-5.433-1.49-6.846-.993-1.414-2.674-2.12-5.042-2.12-.763 0-1.508.105-2.234.315l-1.69-2.177 8.737-13.779H89.533v-3.437h18.334v3.15l-8.938 13.178.2.2a6.398 6.398 0 0 1 1.863-.286c1.222 0 2.3.234 3.237.702.935.468 1.685 1.074 2.248 1.819.564.744 1.027 1.652 1.39 2.721a15.56 15.56 0 0 1 .73 3.194c.124 1.06.186 2.201.186 3.423 0 4.316-.878 7.51-2.635 9.582-1.757 2.072-4.392 3.108-7.906 3.108-2.33 0-5.233-.296-8.709-.888v-3.494c3.323.63 6.226.945 8.709.945 1.126 0 2.105-.162 2.936-.487.83-.325 1.494-.76 1.99-1.304.497-.544.894-1.231 1.19-2.062.296-.83.496-1.671.601-2.52.105-.85.158-1.83.158-2.937zm32.083-24.607h-18.333v-3.437h22v25.981c0 .993-.02 1.786-.058 2.378-.038.592-.133 1.385-.286 2.378a10.898 10.898 0 0 1-.845 2.85c-.41.907-.95 1.78-1.619 2.621-1.07 1.375-2.506 2.464-4.31 3.266-1.806.802-3.815 1.203-6.03 1.203-2.369 0-4.56-.425-6.575-1.275-2.015-.85-3.776-1.934-5.285-3.251l2.12-2.722c2.96 2.54 6.206 3.81 9.74 3.81 1.603 0 3.05-.277 4.34-.83 1.288-.554 2.315-1.318 3.078-2.292a8.071 8.071 0 0 0 1.447-2.75c.315-1.031.497-1.881.544-2.55.048-.668.072-1.613.072-2.836v-22.544zm19.594 37.354c-1.375 0-2.636-.277-3.782-.83-1.145-.554-2.09-1.299-2.835-2.235a8.581 8.581 0 0 1-1.146-1.833 7.494 7.494 0 0 1-.588-2.091 24.94 24.94 0 0 1-.2-1.89 38.734 38.734 0 0 1-.043-2.092v-18.82h3.667v18.82c0 1.05.014 1.833.043 2.349.028.516.143 1.093.343 1.733.2.64.502 1.198.903 1.676 1.031 1.184 2.435 1.776 4.21 1.776 1.777 0 3.18-.592 4.212-1.776a4.809 4.809 0 0 0 .902-1.676c.2-.64.315-1.217.344-1.733a46.5 46.5 0 0 0 .043-2.349v-18.82h3.666V186.2h-3.666v-3.208h-.287c-.706 1.107-1.58 1.995-2.62 2.664-1.042.668-2.097 1.002-3.166 1.002zm35.406-15.125h-5.615c-.706 0-1.255.02-1.647.058-.391.038-.883.176-1.475.415a4.498 4.498 0 0 0-1.576 1.074c-1.069 1.127-1.604 2.607-1.604 4.44 0 1.624.463 2.98 1.39 4.068.926 1.089 2.182 1.633 3.767 1.633.916 0 1.733-.134 2.449-.401.716-.268 1.308-.602 1.776-1.003.468-.4.869-.926 1.203-1.575.334-.65.582-1.256.745-1.82.162-.563.291-1.236.386-2.019.096-.783.153-1.423.172-1.92.02-.496.029-1.088.029-1.775v-1.175zm-4.583-15.125c1.642 0 3.084.253 4.325.76 1.242.506 2.263 1.465 3.065 2.878.573 1.013.86 2.578.86 4.698V186.2H192.2v-3.523h-.286c-1.93 2.654-4.316 3.981-7.162 3.981-2.292 0-4.22-.859-5.786-2.578-1.566-1.719-2.35-3.886-2.35-6.502 0-2.75.84-4.966 2.521-6.646a9.276 9.276 0 0 1 1.948-1.461 7.19 7.19 0 0 1 2.163-.788c.755-.143 1.347-.23 1.776-.258a25.1 25.1 0 0 1 1.619-.043h5.557v-3.495c0-1.661-.172-2.788-.516-3.38a3.042 3.042 0 0 0-1.389-1.246c-.602-.277-1.494-.415-2.678-.415-2.292 0-5.042.2-8.25.601v-3.494c3.15-.363 5.9-.545 8.25-.545zm31.195-11c2.75 0 5.624.21 8.622.63v3.438c-3.132-.42-6.006-.63-8.622-.63-3.19 0-5.753.73-7.691 2.191-1.939 1.461-3.242 3.48-3.91 6.059-.535 2.081-.803 5.06-.803 8.937s.268 6.856.802 8.938c.669 2.578 1.891 4.597 3.667 6.058 1.776 1.461 4.135 2.192 7.076 2.192 2.234 0 4.65-.23 7.247-.688v-14.895h-7.333V164.2h11v21.026c-3.992.955-7.63 1.432-10.914 1.432-3.839 0-6.976-.983-9.41-2.95-2.435-1.967-4.073-4.612-4.913-7.935-.592-2.33-.888-5.576-.888-9.74 0-4.163.296-7.41.888-9.74.84-3.322 2.563-5.967 5.17-7.934 2.607-1.967 5.944-2.95 10.012-2.95zm17.388.459h22v3.437h-18.333v15.125h14.666v3.438h-14.666V186.2H236.2v-40.333zm40.333 35.75v-21.313H269.2v-3.437h11v24.75c0 3.265-.582 5.872-1.747 7.82-1.815 3.036-4.67 4.555-8.565 4.555-2.216 0-4.47-.144-6.76-.43v-3.438c2.577.287 4.83.43 6.76.43 2.425 0 4.22-.936 5.385-2.807.84-1.356 1.26-3.4 1.26-6.13zm-1.403-35.32c.592-.593 1.365-.889 2.32-.889.955 0 1.728.296 2.32.888.592.592.888 1.366.888 2.32 0 .956-.296 1.729-.888 2.321-.592.592-1.365.888-2.32.888-.955 0-1.728-.296-2.32-.888-.592-.592-.888-1.365-.888-2.32 0-.955.296-1.729.888-2.32zM16.2 223.532h-5.615c-.706 0-1.255.02-1.647.058-.391.038-.883.176-1.475.415a4.498 4.498 0 0 0-1.575 1.074c-1.07 1.127-1.605 2.607-1.605 4.44 0 1.624.463 2.98 1.39 4.068.926 1.089 2.182 1.633 3.767 1.633.916 0 1.733-.134 2.449-.401.716-.268 1.308-.602 1.776-1.003.468-.4.869-.926 1.203-1.575.334-.65.582-1.256.745-1.82.162-.563.291-1.236.386-2.019.096-.783.153-1.423.172-1.92.02-.496.029-1.088.029-1.775v-1.175zm-4.583-15.125c1.642 0 3.084.253 4.325.76 1.242.506 2.263 1.465 3.065 2.878.573 1.013.86 2.578.86 4.698V238.2H16.2v-3.523h-.286c-1.93 2.654-4.316 3.981-7.162 3.981-2.292 0-4.22-.859-5.786-2.578-1.566-1.719-2.35-3.886-2.35-6.502 0-2.75.84-4.966 2.522-6.646a9.276 9.276 0 0 1 1.947-1.461 7.19 7.19 0 0 1 2.163-.788c.755-.143 1.347-.23 1.776-.258a25.1 25.1 0 0 1 1.619-.043H16.2v-3.495c0-1.661-.172-2.788-.516-3.38a3.042 3.042 0 0 0-1.389-1.246c-.602-.277-1.494-.415-2.678-.415-2.292 0-5.042.2-8.25.601v-3.494c3.15-.363 5.9-.545 8.25-.545zm29.247 22.917c1.814-5.576 3.848-13.062 6.102-22.458h3.752c-.095.363-.32 1.265-.673 2.707a324.248 324.248 0 0 0-.673 2.778c-.096.41-.306 1.26-.63 2.55-.325 1.289-.559 2.196-.702 2.721a253.33 253.33 0 0 0-.673 2.55 82.179 82.179 0 0 1-.76 2.764c-.2.668-.463 1.556-.787 2.664a117.31 117.31 0 0 1-.903 2.95c-.276.86-.592 1.824-.945 2.894a247.7 247.7 0 0 1-1.074 3.18 100.793 100.793 0 0 1-1.074 2.936c-.258.659-.626 1.408-1.103 2.248-.478.84-.993 1.48-1.547 1.92-1.795 1.508-4.564 2.263-8.307 2.263v-3.438c2.73 0 4.602-.391 5.614-1.174.44-.325.845-.821 1.218-1.49.372-.668.668-1.289.888-1.862.22-.573.635-1.738 1.246-3.495h-1.49a70.826 70.826 0 0 1-5.17-11.859c-1.385-4.163-2.65-8.766-3.796-13.807h3.753c1.986 9.128 4.468 16.614 7.448 22.458h.286zm19.336 2.95c3.323.63 6.226.946 8.708.946 1.127 0 2.106-.177 2.937-.53.83-.353 1.494-.812 1.99-1.375.497-.563.893-1.29 1.19-2.177.295-.888.496-1.781.6-2.679a27.2 27.2 0 0 0 .158-3.122c0-1.375-.086-2.602-.257-3.681a13.27 13.27 0 0 0-.874-3.08c-.41-.973-1.022-1.728-1.834-2.262-.811-.535-1.809-.803-2.993-.803-2.52 0-4.516 1.041-5.987 3.123l-3.638-.974v-19.794h18.333v3.437H63.867v13.521h.286c.955-.898 1.91-1.58 2.865-2.048.955-.468 2.081-.702 3.38-.702 6.035 0 9.052 4.44 9.052 13.32 0 4.507-.874 7.844-2.621 10.012-1.747 2.168-4.388 3.251-7.92 3.251-2.33 0-5.233-.296-8.709-.888v-3.494zm33 3.925h-3.667v-40.333H93.2v23.088l11.745-12.088h4.612l-10.399 10.856 11.745 18.477h-4.469l-9.653-16.042-3.581 3.581V238.2zm40.333-14.667h-5.614c-.707 0-1.256.02-1.647.058-.392.038-.884.176-1.476.415a4.498 4.498 0 0 0-1.575 1.074c-1.07 1.127-1.604 2.607-1.604 4.44 0 1.624.463 2.98 1.389 4.068.926 1.089 2.182 1.633 3.767 1.633.917 0 1.733-.134 2.45-.401.715-.268 1.307-.602 1.775-1.003.468-.4.87-.926 1.203-1.575.335-.65.583-1.256.745-1.82.162-.563.291-1.236.387-2.019.095-.783.153-1.423.172-1.92.019-.496.028-1.088.028-1.775v-1.175zm-4.583-15.125c1.642 0 3.084.253 4.326.76 1.24.506 2.263 1.465 3.065 2.878.573 1.013.859 2.578.859 4.698V238.2h-3.667v-3.523h-.286c-1.929 2.654-4.316 3.981-7.162 3.981-2.291 0-4.22-.859-5.786-2.578-1.566-1.719-2.349-3.886-2.349-6.502 0-2.75.84-4.966 2.52-6.646a9.276 9.276 0 0 1 1.949-1.461 7.19 7.19 0 0 1 2.163-.788c.754-.143 1.346-.23 1.776-.258a25.1 25.1 0 0 1 1.618-.043h5.557v-3.495c0-1.661-.172-2.788-.515-3.38a3.042 3.042 0 0 0-1.39-1.246c-.601-.277-1.494-.415-2.678-.415-2.292 0-5.042.2-8.25.601v-3.494c3.151-.363 5.901-.545 8.25-.545zm29.247 22.917c1.815-5.576 3.848-13.062 6.102-22.458h3.753c-.096.363-.32 1.265-.674 2.707a324.28 324.28 0 0 0-.673 2.778c-.095.41-.305 1.26-.63 2.55-.325 1.289-.559 2.196-.702 2.721-.143.525-.367 1.375-.673 2.55a82.178 82.178 0 0 1-.76 2.764c-.2.668-.462 1.556-.787 2.664a117.31 117.31 0 0 1-.902 2.95c-.277.86-.592 1.824-.946 2.894a247.71 247.71 0 0 1-1.074 3.18 100.793 100.793 0 0 1-1.074 2.936c-.258.659-.625 1.408-1.103 2.248-.477.84-.993 1.48-1.547 1.92-1.795 1.508-4.564 2.263-8.307 2.263v-3.438c2.73 0 4.602-.391 5.615-1.174.439-.325.845-.821 1.217-1.49.372-.668.668-1.289.888-1.862.22-.573.635-1.738 1.246-3.495h-1.49a70.826 70.826 0 0 1-5.17-11.859c-1.385-4.163-2.65-8.766-3.796-13.807h3.753c1.986 9.128 4.469 16.614 7.448 22.458h.286zm22.545-32.37c1.49-1.031 3.323-1.547 5.5-1.547s4.01.516 5.5 1.547c1.49 1.031 2.559 2.426 3.208 4.182.382 1.013.63 2.063.745 3.152.114 1.088.172 2.559.172 4.411 0 5.328-.822 10.122-2.464 14.38-1.585 4.163-3.867 8.804-6.846 13.922l-3.151-1.747c3.227-5.5 5.605-10.38 7.133-14.638l-.258-.115c-1.299.993-2.836 1.49-4.612 1.49-2.044 0-3.767-.516-5.17-1.547-1.404-1.031-2.43-2.426-3.08-4.183-.249-.687-.435-1.48-.559-2.377a22.019 22.019 0 0 1-.215-2.32c-.019-.65-.028-1.605-.028-2.865 0-3.38.305-5.901.916-7.563.65-1.756 1.72-3.15 3.209-4.182zm8.164 2.435c-.745-.363-1.633-.544-2.664-.544-1.032 0-1.92.176-2.664.53-.745.353-1.328.807-1.748 1.36-.42.554-.75 1.29-.988 2.206-.239.917-.392 1.8-.458 2.65-.067.85-.1 1.886-.1 3.108 0 1.222.033 2.258.1 3.108.066.85.22 1.733.458 2.65.239.916.568 1.652.988 2.206.42.553 1.003 1.007 1.748 1.36.744.354 1.632.53 2.664.53 1.03 0 1.919-.176 2.664-.53.745-.353 1.327-.807 1.747-1.36.42-.554.75-1.29.988-2.206.24-.917.392-1.8.459-2.65.067-.85.1-1.886.1-3.108a40.59 40.59 0 0 0-.1-3.108c-.067-.85-.22-1.733-.459-2.65-.238-.916-.568-1.652-.988-2.206-.42-.553-1.002-1.002-1.747-1.346zm22.43 29.906c1.012 2.578 2.578 3.868 4.697 3.868 1.223 0 2.24-.411 3.051-1.232.812-.821 1.437-1.92 1.876-3.294.249-.745.43-1.848.545-3.31.114-1.46.181-2.783.2-3.967.02-1.184.029-2.96.029-5.328 0-4.03-.048-6.827-.143-8.393l-10.256 21.656zm4.697-30.393c-1.222 0-2.239.41-3.05 1.232-.812.821-1.438 1.92-1.877 3.294-.248.745-.43 1.848-.544 3.309a64.466 64.466 0 0 0-.2 3.967c-.02 1.184-.03 2.96-.03 5.328 0 4.03.049 6.828.144 8.394l10.255-21.657c-1.012-2.578-2.578-3.867-4.698-3.867zm-8.135 2.664c1.566-4.144 4.278-6.216 8.135-6.216 3.858 0 6.57 2.072 8.136 6.216.344.936.601 2.225.773 3.867.172 1.643.272 3.137.301 4.483.029 1.347.043 3.385.043 6.116s-.014 4.77-.043 6.116a54.551 54.551 0 0 1-.3 4.483c-.173 1.643-.43 2.932-.774 3.867-1.566 4.145-4.278 6.217-8.136 6.217-3.857 0-6.57-2.072-8.135-6.217-.344-.935-.602-2.224-.774-3.867a54.551 54.551 0 0 1-.3-4.483 315.58 315.58 0 0 1-.043-6.116c0-2.73.014-4.77.043-6.116.028-1.346.129-2.84.3-4.483.172-1.642.43-2.931.774-3.867zm38.5 4.841c1.89 0 3.571.597 5.042 1.79 1.47 1.194 2.54 2.86 3.208 5 .248.801.434 1.699.559 2.692.124.993.195 1.838.214 2.535.02.697.029 1.733.029 3.108s-.01 2.411-.029 3.108c-.019.697-.09 1.543-.214 2.536-.125.993-.31 1.89-.56 2.692-.667 2.14-1.737 3.805-3.207 4.999-1.47 1.194-3.151 1.79-5.042 1.79-2.445 0-4.526-1.346-6.245-4.039h-.286v3.581H236.2v-40.333h3.667v14.58h.286c1.719-2.692 3.8-4.039 6.245-4.039zm2.664 4.698c-.878-.84-1.957-1.26-3.237-1.26s-2.363.415-3.251 1.246c-.888.83-1.542 1.867-1.963 3.108-.496 1.509-.744 3.953-.744 7.333 0 3.38.248 5.825.744 7.334.42 1.241 1.075 2.277 1.963 3.108.888.83 1.971 1.246 3.251 1.246 1.28 0 2.363-.416 3.251-1.246.888-.831 1.542-1.867 1.963-3.108.496-1.509.744-3.953.744-7.334 0-3.38-.248-5.824-.744-7.333-.42-1.241-1.08-2.273-1.977-3.094zm16.471-14.81c3.037-.592 5.787-.888 8.25-.888 1.834 0 3.443.268 4.827.802 1.385.535 2.473 1.26 3.266 2.177a9.262 9.262 0 0 1 1.762 3.008 10.48 10.48 0 0 1 .572 3.495c0 1.452-.176 2.688-.53 3.71-.353 1.021-.902 2.172-1.647 3.452l-11.859 20.71h15.24v3.438h-19.88v-2.55l13.234-23.203c.439-.763.754-1.346.945-1.747.191-.401.377-.945.559-1.633a8.5 8.5 0 0 0 .272-2.177c0-.764-.096-1.47-.287-2.12-.19-.649-.515-1.284-.974-1.905-.458-.62-1.155-1.112-2.09-1.475-.937-.363-2.073-.544-3.41-.544-2.31 0-5.06.296-8.25.888v-3.438zM313.2 238.23c-2.043.286-3.877.43-5.5.43-1.528 0-2.917-.278-4.168-.831-1.25-.554-2.268-1.309-3.05-2.263a7.3 7.3 0 0 1-1.376-2.55c-.305-.974-.477-1.785-.515-2.435a48.666 48.666 0 0 1-.058-2.693v-15.411H291.2v-3.61h7.333v-7.333h3.667v7.334h11v3.609h-11v15.125c0 1.05.014 1.833.043 2.349.029.516.138 1.108.33 1.776.19.668.477 1.241.859 1.719.993 1.184 2.511 1.776 4.554 1.776 1.356 0 3.094-.143 5.214-.43v3.438zM19.867 290.515c-1.815.096-3.132.143-3.953.143-2.044 0-3.696-.649-4.956-1.948a6.528 6.528 0 0 1-1.461-2.334c-.325-.888-.511-1.595-.559-2.12a23.539 23.539 0 0 1-.071-2.048v-32.341h3.666v32.34c0 .593.01 1.051.029 1.376.02.324.09.716.215 1.174.124.459.31.86.558 1.203.63.84 1.585 1.26 2.865 1.26 1.299 0 2.52-.047 3.667-.142v3.437zm21.198-30.107c1.89 0 3.57.597 5.041 1.79 1.47 1.194 2.54 2.86 3.209 5 .248.801.434 1.699.558 2.692.124.993.196 1.838.215 2.535.02.697.029 1.733.029 3.108s-.01 2.411-.029 3.108c-.02.697-.09 1.543-.215 2.536-.124.993-.31 1.89-.558 2.692-.669 2.14-1.738 3.805-3.209 4.999-1.47 1.194-3.15 1.79-5.041 1.79-2.445 0-4.526-1.346-6.245-4.039h-.287v3.581h-3.666v-40.333h3.666v14.58h.287c1.719-2.692 3.8-4.039 6.245-4.039zm2.664 4.698c-.879-.84-1.958-1.26-3.237-1.26-1.28 0-2.364.415-3.252 1.246-.888.83-1.542 1.867-1.962 3.108-.496 1.509-.745 3.953-.745 7.333 0 3.38.249 5.825.745 7.334.42 1.241 1.074 2.277 1.962 3.108.888.83 1.972 1.246 3.252 1.246 1.28 0 2.363-.416 3.251-1.246.888-.831 1.542-1.867 1.962-3.108.497-1.509.745-3.953.745-7.334 0-3.38-.248-5.824-.745-7.333-.42-1.241-1.079-2.273-1.976-3.094zm22.4-14.81c.593-.592 1.366-.888 2.321-.888.955 0 1.728.296 2.32.888.592.592.888 1.366.888 2.32 0 .956-.296 1.729-.888 2.321-.592.592-1.365.888-2.32.888-.955 0-1.728-.296-2.32-.888-.592-.592-.888-1.365-.888-2.32 0-.955.296-1.729.888-2.32zm1.404 39.904v-25.896H60.2v-3.437h11V290.2h-3.667zm25.209-39.245c1.49-1.031 3.323-1.547 5.5-1.547s4.01.516 5.5 1.547c1.49 1.031 2.559 2.426 3.208 4.182.382 1.013.63 2.063.745 3.152.114 1.088.172 2.559.172 4.411 0 5.328-.822 10.122-2.464 14.38-1.585 4.163-3.867 8.804-6.846 13.922l-3.151-1.747c3.227-5.5 5.605-10.38 7.133-14.638l-.258-.115c-1.299.993-2.836 1.49-4.612 1.49-2.044 0-3.767-.516-5.17-1.547-1.404-1.031-2.43-2.426-3.08-4.183-.249-.687-.435-1.48-.559-2.377a22.019 22.019 0 0 1-.215-2.32c-.019-.65-.028-1.605-.028-2.865 0-3.38.305-5.901.916-7.563.65-1.756 1.72-3.15 3.209-4.182zm8.164 2.435c-.745-.363-1.633-.544-2.664-.544-1.032 0-1.92.176-2.664.53-.745.353-1.328.807-1.748 1.36-.42.554-.75 1.29-.988 2.206-.239.917-.392 1.8-.458 2.65-.067.85-.1 1.886-.1 3.108 0 1.222.033 2.258.1 3.108.066.85.22 1.733.458 2.65.239.916.568 1.652.988 2.206.42.553 1.003 1.007 1.748 1.36.744.354 1.632.53 2.664.53 1.03 0 1.919-.176 2.664-.53.745-.353 1.327-.807 1.747-1.36.42-.554.75-1.29.988-2.206.24-.917.392-1.8.459-2.65.067-.85.1-1.886.1-3.108a40.59 40.59 0 0 0-.1-3.108c-.067-.85-.22-1.733-.459-2.65-.238-.916-.568-1.652-.988-2.206-.42-.553-1.002-1.002-1.747-1.346zm26.554 37.268c-1.375 0-2.635-.277-3.78-.83-1.147-.554-2.092-1.299-2.837-2.235a8.581 8.581 0 0 1-1.146-1.833 7.494 7.494 0 0 1-.587-2.091 24.94 24.94 0 0 1-.2-1.89 38.734 38.734 0 0 1-.043-2.092v-18.82h3.666v18.82c0 1.05.015 1.833.043 2.349.029.516.144 1.093.344 1.733.2.64.501 1.198.902 1.676 1.032 1.184 2.435 1.776 4.211 1.776 1.776 0 3.18-.592 4.211-1.776a4.809 4.809 0 0 0 .903-1.676c.2-.64.315-1.217.343-1.733.029-.516.043-1.299.043-2.349v-18.82h3.667V290.2h-3.667v-3.208h-.286c-.707 1.107-1.58 1.995-2.621 2.664-1.041.668-2.096 1.002-3.166 1.002zm20.74-.458v-40.333h3.667v36.895H170.2v3.438h-22zm40.333-4.583v-21.313H181.2v-3.437h11v24.75c0 3.265-.582 5.872-1.747 7.82-1.815 3.036-4.67 4.555-8.566 4.555-2.215 0-4.468-.144-6.76-.43v-3.438c2.578.287 4.832.43 6.76.43 2.426 0 4.221-.936 5.386-2.807.84-1.356 1.26-3.4 1.26-6.13zm-1.403-35.32c.592-.593 1.365-.889 2.32-.889.955 0 1.728.296 2.32.888.592.592.888 1.366.888 2.32 0 .956-.296 1.729-.888 2.321-.592.592-1.365.888-2.32.888-.955 0-1.728-.296-2.32-.888-.592-.592-.888-1.365-.888-2.32 0-.955.296-1.729.888-2.32zM40.606 312.407c1.375 0 2.636.277 3.782.831 1.145.554 2.09 1.299 2.835 2.234.478.592.86 1.204 1.146 1.834.287.63.482 1.327.588 2.09.105.765.171 1.395.2 1.892.029.496.043 1.193.043 2.09V342.2h-3.667v-18.82c0-1.05-.014-1.834-.043-2.35-.028-.515-.143-1.093-.343-1.732a4.809 4.809 0 0 0-.903-1.676c-1.031-1.184-2.435-1.776-4.21-1.776-1.777 0-3.18.592-4.212 1.776a4.809 4.809 0 0 0-.902 1.676c-.2.64-.315 1.217-.344 1.733a46.501 46.501 0 0 0-.043 2.349v18.82h-3.666v-40.333h3.666v14.208h.287c.706-1.108 1.58-1.996 2.62-2.664 1.042-.668 2.097-1.003 3.166-1.003zm34.26 15.125h-5.614c-.707 0-1.256.02-1.647.058-.392.038-.883.176-1.475.415a4.498 4.498 0 0 0-1.576 1.074c-1.07 1.127-1.604 2.607-1.604 4.44 0 1.624.463 2.98 1.39 4.068.926 1.089 2.181 1.633 3.766 1.633.917 0 1.733-.134 2.45-.401.716-.268 1.308-.602 1.776-1.003.467-.4.868-.926 1.203-1.575.334-.65.582-1.256.744-1.82.163-.563.292-1.236.387-2.019.096-.783.153-1.423.172-1.92.02-.496.029-1.088.029-1.775v-1.175zm-4.583-15.125c1.643 0 3.085.253 4.326.76 1.241.506 2.263 1.465 3.065 2.878.573 1.013.86 2.578.86 4.698V342.2h-3.667v-3.523h-.287c-1.929 2.654-4.316 3.981-7.161 3.981-2.292 0-4.22-.859-5.787-2.578-1.566-1.719-2.349-3.886-2.349-6.502 0-2.75.84-4.966 2.521-6.646a9.276 9.276 0 0 1 1.948-1.461 7.19 7.19 0 0 1 2.163-.788c.754-.143 1.346-.23 1.776-.258a25.1 25.1 0 0 1 1.618-.043h5.558v-3.495c0-1.661-.172-2.788-.516-3.38a3.042 3.042 0 0 0-1.39-1.246c-.6-.277-1.494-.415-2.678-.415-2.291 0-5.041.2-8.25.601v-3.494c3.151-.363 5.901-.545 8.25-.545zm18.534 20.396c-.133-1.375-.2-3.132-.2-5.27 0-2.14.071-3.896.215-5.272a12.697 12.697 0 0 1 1.016-3.867c1.738-3.991 4.975-5.987 9.711-5.987 1.91 0 4.488.163 7.735.487v3.438c-3.285-.325-5.863-.487-7.735-.487-1.642 0-2.945.31-3.91.93-.964.621-1.752 1.562-2.363 2.822-.306.65-.54 1.461-.702 2.435-.162.974-.253 1.81-.272 2.507-.02.697-.029 1.695-.029 2.993 0 1.299.01 2.297.029 2.994.02.697.11 1.532.272 2.506.162.974.396 1.786.702 2.435.611 1.26 1.399 2.201 2.363 2.822.965.62 2.268.93 3.91.93 2.235 0 5.004-.247 8.308-.744v3.438c-3.285.496-6.054.744-8.308.744-4.736 0-7.973-1.995-9.71-5.987a12.994 12.994 0 0 1-1.032-3.867zm33.716 9.396h-3.666v-40.333h3.666v23.088l11.745-12.088h4.612l-10.398 10.856 11.744 18.477h-4.468l-9.654-16.042-3.58 3.581V342.2zm35.407-29.792c1.375 0 2.635.277 3.78.831 1.147.554 2.092 1.299 2.837 2.234.477.592.86 1.204 1.146 1.834.286.63.482 1.327.587 2.09.105.765.172 1.395.2 1.892.029.496.043 1.193.043 2.09V342.2h-3.666v-18.82c0-1.05-.015-1.834-.043-2.35-.029-.515-.144-1.093-.344-1.732a4.809 4.809 0 0 0-.902-1.676c-1.032-1.184-2.435-1.776-4.211-1.776-1.776 0-3.18.592-4.211 1.776a4.809 4.809 0 0 0-.903 1.676c-.2.64-.315 1.217-.343 1.733a46.501 46.501 0 0 0-.043 2.349v18.82H148.2v-40.333h3.667v14.208h.286c.707-1.108 1.58-1.996 2.621-2.664 1.041-.668 2.096-1.003 3.166-1.003zm34.26 15.125h-5.615c-.706 0-1.255.02-1.647.058-.391.038-.883.176-1.475.415a4.498 4.498 0 0 0-1.576 1.074c-1.069 1.127-1.604 2.607-1.604 4.44 0 1.624.463 2.98 1.39 4.068.926 1.089 2.182 1.633 3.767 1.633.916 0 1.733-.134 2.449-.401.716-.268 1.308-.602 1.776-1.003.468-.4.869-.926 1.203-1.575.334-.65.582-1.256.745-1.82.162-.563.291-1.236.386-2.019.096-.783.153-1.423.172-1.92.02-.496.029-1.088.029-1.775v-1.175zm-4.583-15.125c1.642 0 3.084.253 4.325.76 1.242.506 2.263 1.465 3.065 2.878.573 1.013.86 2.578.86 4.698V342.2H192.2v-3.523h-.286c-1.93 2.654-4.316 3.981-7.162 3.981-2.292 0-4.22-.859-5.786-2.578-1.566-1.719-2.35-3.886-2.35-6.502 0-2.75.84-4.966 2.521-6.646a9.276 9.276 0 0 1 1.948-1.461 7.19 7.19 0 0 1 2.163-.788c.755-.143 1.347-.23 1.776-.258a25.1 25.1 0 0 1 1.619-.043h5.557v-3.495c0-1.661-.172-2.788-.516-3.38a3.042 3.042 0 0 0-1.389-1.246c-.602-.277-1.494-.415-2.678-.415-2.292 0-5.042.2-8.25.601v-3.494c3.15-.363 5.9-.545 8.25-.545zm18.534 20.396c-.134-1.375-.201-3.132-.201-5.27 0-2.14.072-3.896.215-5.272a12.697 12.697 0 0 1 1.017-3.867c1.738-3.991 4.975-5.987 9.71-5.987 1.91 0 4.489.163 7.735.487v3.438c-3.285-.325-5.863-.487-7.734-.487-1.643 0-2.946.31-3.91.93-.965.621-1.753 1.562-2.364 2.822-.305.65-.54 1.461-.702 2.435-.162.974-.253 1.81-.272 2.507-.019.697-.028 1.695-.028 2.993 0 1.299.01 2.297.028 2.994.02.697.11 1.532.272 2.506.163.974.397 1.786.702 2.435.611 1.26 1.4 2.201 2.364 2.822.964.62 2.267.93 3.91.93 2.234 0 5.003-.247 8.307-.744v3.438c-3.285.496-6.054.744-8.307.744-4.736 0-7.973-1.995-9.711-5.987a12.994 12.994 0 0 1-1.031-3.867zm33.716 9.396H236.2v-40.333h3.667v23.088l11.744-12.088h4.612l-10.398 10.856L257.57 342.2H253.1l-9.654-16.042-3.58 3.581V342.2zm21.284 0c1.7-16.004 5.595-29.448 11.687-40.333h3.724c6.092 10.885 9.988 24.33 11.687 40.333h-3.867c-.286-3.457-.811-7.161-1.575-11.115h-16.214c-.095.592-.238 1.466-.43 2.622a268.269 268.269 0 0 0-.458 2.85c-.114.745-.239 1.642-.372 2.692a68.543 68.543 0 0 0-.315 2.951h-3.867zm21.054-14.552c-1.107-4.679-2.225-8.785-3.351-12.318-1.127-3.533-2.464-6.789-4.01-9.768h-.287c-1.547 2.98-2.884 6.235-4.01 9.768-1.127 3.533-2.245 7.64-3.352 12.318h15.01zm13.235-11.344v-3.437h17.187v2.578l-13.607 23.031v.286h14.18v3.438h-18.333v-2.635l13.606-22.974v-.287H295.44zM324.2 342.2h-3.667v-40.333h3.638l18.076 33.172h.286v-33.172h3.667V342.2h-3.667l-18.047-33.172h-.286V342.2zm29.906-25.896v-3.437h17.188v2.578l-13.607 23.031v.286h14.18v3.438h-18.334v-2.635l13.607-22.974v-.287h-13.034zm28.76-14.437h22v3.437h-18.333v15.125H401.2v3.438h-14.667V342.2h-3.666v-40.333zM78.534 394.515c-1.814.096-3.132.143-3.953.143-2.043 0-3.695-.649-4.956-1.948a6.528 6.528 0 0 1-1.46-2.334c-.325-.888-.511-1.595-.56-2.12a23.539 23.539 0 0 1-.07-2.048v-32.341H71.2v32.34c0 .593.01 1.051.029 1.376.019.324.09.716.214 1.174.125.459.31.86.56 1.203.63.84 1.584 1.26 2.864 1.26 1.298 0 2.52-.047 3.666-.142v3.437zm20.453-21.542c3.362-4.946 6.513-11.315 9.454-19.106h3.895c-1.737 4.526-3.537 8.641-5.4 12.346a67.294 67.294 0 0 1-6.402 10.341V394.2h-3.666v-17.646a67.294 67.294 0 0 1-6.403-10.341c-1.862-3.705-3.662-7.82-5.4-12.346h3.896c2.922 7.753 6.073 14.122 9.454 19.106h.572zm30.88 16.644v-21.313h-7.333v-3.437h11v24.75c0 3.265-.582 5.872-1.747 7.82-1.814 3.036-4.67 4.555-8.565 4.555-2.215 0-4.469-.144-6.76-.43v-3.438c2.578.287 4.831.43 6.76.43 2.425 0 4.22-.936 5.385-2.807.84-1.356 1.26-3.4 1.26-6.13zm-1.403-35.32c.592-.593 1.365-.889 2.32-.889.955 0 1.729.296 2.32.888.593.592.889 1.366.889 2.32 0 .956-.296 1.729-.888 2.321-.592.592-1.366.888-2.32.888-.956 0-1.729-.296-2.321-.888-.592-.592-.888-1.365-.888-2.32 0-.955.296-1.729.888-2.32zm29.477 10.111c1.375 0 2.635.277 3.78.831 1.147.554 2.092 1.299 2.837 2.234.477.592.86 1.204 1.146 1.834.286.63.482 1.327.587 2.09.105.765.172 1.395.2 1.892.029.496.043 1.193.043 2.09V394.2h-3.666v-18.82c0-1.05-.015-1.834-.043-2.35-.029-.515-.144-1.093-.344-1.732a4.809 4.809 0 0 0-.902-1.676c-1.032-1.184-2.435-1.776-4.211-1.776-1.776 0-3.18.592-4.211 1.776a4.809 4.809 0 0 0-.903 1.676c-.2.64-.315 1.217-.343 1.733a46.501 46.501 0 0 0-.043 2.349v18.82H148.2v-40.333h3.667v14.208h.286c.707-1.108 1.58-1.996 2.621-2.664 1.041-.668 2.096-1.003 3.166-1.003zm37.927 30.107c-1.815.096-3.132.143-3.953.143-2.044 0-3.696-.649-4.956-1.948a6.528 6.528 0 0 1-1.461-2.334c-.325-.888-.511-1.595-.559-2.12a23.539 23.539 0 0 1-.071-2.048v-32.341h3.666v32.34c0 .593.01 1.051.029 1.376.02.324.09.716.215 1.174.124.459.31.86.558 1.203.63.84 1.585 1.26 2.865 1.26 1.299 0 2.52-.047 3.667-.142v3.437zm11-.315H203.2v-40.333h3.667l9.023 17.99h.315l8.995-17.99h3.667V394.2H225.2v-32.943h-.286l-7.305 14.61h-3.151l-7.305-14.61h-.286V394.2zm35.578-40.333c6.15 0 10.627 2.263 13.435 6.789 1.088 1.718 1.823 3.666 2.205 5.843.382 2.178.573 4.689.573 7.534 0 2.846-.19 5.357-.573 7.534-.382 2.177-1.117 4.125-2.205 5.844-2.808 4.526-7.286 6.789-13.435 6.789h-9.912v-40.333h9.912zm11.974 27.356c.382-1.967.573-4.363.573-7.19 0-2.826-.187-5.223-.559-7.19-.372-1.967-1.017-3.6-1.934-4.898-2.177-3.094-5.528-4.64-10.054-4.64H236.2v33.457h6.245c4.526 0 7.877-1.546 10.054-4.64.917-1.299 1.557-2.932 1.92-4.899zM269.2 394.2h-3.667v-40.333h3.667v23.088l11.745-12.088h4.612l-10.399 10.856 11.745 18.477h-4.469l-9.653-16.042-3.581 3.581V394.2zm30.135-6.904c1.013 2.578 2.579 3.868 4.698 3.868 1.223 0 2.24-.411 3.051-1.232.812-.821 1.437-1.92 1.876-3.295.249-.744.43-1.847.545-3.308.114-1.461.181-2.784.2-3.968.02-1.184.029-2.96.029-5.328 0-4.03-.048-6.827-.143-8.393l-10.256 21.656zm4.698-30.393c-1.222 0-2.239.41-3.05 1.232-.812.821-1.438 1.92-1.877 3.294-.248.745-.43 1.848-.544 3.309a64.466 64.466 0 0 0-.2 3.967c-.02 1.184-.03 2.96-.03 5.328 0 4.03.049 6.828.144 8.394l10.255-21.657c-1.012-2.578-2.578-3.867-4.698-3.867zm-8.135 2.664c1.566-4.144 4.278-6.216 8.135-6.216 3.858 0 6.57 2.072 8.136 6.216.344.936.601 2.225.773 3.867.172 1.643.272 3.137.301 4.483.029 1.347.043 3.385.043 6.116s-.014 4.77-.043 6.116a54.552 54.552 0 0 1-.3 4.483c-.173 1.643-.43 2.932-.774 3.867-1.566 4.145-4.278 6.217-8.136 6.217-3.857 0-6.57-2.072-8.135-6.217-.344-.935-.602-2.224-.774-3.867a54.551 54.551 0 0 1-.3-4.483 315.58 315.58 0 0 1-.043-6.116c0-2.73.014-4.77.043-6.116.028-1.346.129-2.84.3-4.483.172-1.642.43-2.931.774-3.867zM324.2 394.2h-3.667v-40.333h3.638l18.076 33.172h.286v-33.172h3.667V394.2h-3.667l-18.047-33.172h-.286V394.2zm51.333-40.333v3.437h-11V394.2h-3.666v-36.896h-11v-3.437h25.666zM181.2 446.2h-3.667v-40.333h3.667v23.088l11.745-12.088h4.612l-10.399 10.856 11.745 18.477h-4.469l-9.653-16.042-3.581 3.581V446.2zm25.667-3.924c3.323.63 6.225.945 8.708.945 1.127 0 2.105-.177 2.936-.53.83-.353 1.495-.812 1.991-1.375.497-.563.893-1.29 1.189-2.177.296-.888.496-1.781.601-2.679a27.2 27.2 0 0 0 .158-3.122c0-1.375-.086-2.602-.258-3.681a13.269 13.269 0 0 0-.874-3.08c-.41-.973-1.021-1.728-1.833-2.262-.811-.535-1.81-.803-2.993-.803-2.521 0-4.517 1.041-5.987 3.123l-3.638-.974v-19.794H225.2v3.437h-14.667v13.521h.287c.955-.898 1.91-1.58 2.864-2.048.955-.468 2.082-.702 3.38-.702 6.035 0 9.053 4.44 9.053 13.32 0 4.507-.874 7.844-2.621 10.012-1.748 2.168-4.388 3.251-7.921 3.251-2.33 0-5.233-.296-8.708-.888v-3.494zm38.786-17.303c3.361-4.946 6.512-11.315 9.453-19.106h3.896c-1.738 4.526-3.538 8.641-5.4 12.346a67.294 67.294 0 0 1-6.402 10.341V446.2h-3.667v-17.646a67.294 67.294 0 0 1-6.402-10.341c-1.862-3.705-3.662-7.82-5.4-12.346h3.896c2.922 7.753 6.073 14.122 9.453 19.106h.573zm20.453-4.669v-3.437h17.188v2.578l-13.607 23.031v.286h14.18v3.438h-18.334v-2.635l13.607-22.974v-.287h-13.034zm24.636 5.73c0-4.47.267-7.802.802-9.998.764-3.094 2.205-5.639 4.325-7.634 2.12-1.996 4.841-2.994 8.164-2.994 3.304 0 6.016.993 8.136 2.98 2.12 1.986 3.57 4.535 4.354 7.648.535 2.12.802 5.452.802 9.997 0 4.47-.267 7.802-.802 9.998-.65 2.654-1.814 4.927-3.495 6.817-1.68 1.891-3.81 3.085-6.388 3.581 1.012 2.75 2.96 4.125 5.844 4.125 1.127 0 2.588-.086 4.383-.258v3.438c-1.891.172-3.419.258-4.584.258-2.444 0-4.468-.688-6.073-2.063-1.604-1.375-2.72-3.15-3.351-5.328-2.98-.248-5.424-1.346-7.333-3.294-1.91-1.948-3.237-4.373-3.982-7.276-.535-2.12-.802-5.453-.802-9.998zm3.666 0c0 4.163.239 7.237.716 9.223.497 2.006 1.347 3.72 2.55 5.142 1.203 1.423 2.75 2.316 4.64 2.679-.076-.898-.114-2.302-.114-4.211V435.2h3.667v3.667c0 1.89.038 3.275.114 4.153 1.834-.382 3.328-1.274 4.483-2.678 1.156-1.404 1.982-3.099 2.478-5.085.478-1.91.716-4.984.716-9.224 0-4.163-.238-7.238-.716-9.224-.573-2.33-1.6-4.24-3.08-5.729-1.48-1.49-3.422-2.234-5.829-2.234-2.425 0-4.382.745-5.872 2.234-1.49 1.49-2.502 3.4-3.037 5.73-.477 2.081-.716 5.156-.716 9.223zm-17.302 31.833h3.094V498.2h-3.667v-35.693h-.286l-8.909 6.417-1.805-2.635 11.573-8.422z" fill="#000"/>
    <path d="M212.395 268.2c2.14 0 3.59-.095 4.354-.286 1.586-.382 2.856-1.208 3.81-2.478.955-1.27 1.433-2.831 1.433-4.684 0-1.871-.483-3.447-1.447-4.726-.964-1.28-2.23-2.092-3.796-2.435-.859-.191-2.31-.287-4.354-.287h-5.528V268.2h5.528zm8.508 1.203c2.177.592 3.934 1.771 5.271 3.538 1.337 1.766 2.005 3.853 2.005 6.259 0 2.674-.702 4.96-2.105 6.86-1.404 1.9-3.223 3.128-5.457 3.682-1.223.305-3.256.458-6.102.458H203.2v-40.333h9.195c2.464 0 4.22.124 5.271.372 2.35.554 4.268 1.767 5.758 3.638 1.49 1.872 2.234 4.163 2.234 6.875 0 1.91-.425 3.586-1.274 5.027a8.732 8.732 0 0 1-3.48 3.338v.286zm-14.036 2.234v15.125h7.648c2.597 0 4.326-.114 5.185-.343 1.432-.382 2.592-1.222 3.48-2.521.888-1.299 1.332-2.865 1.332-4.698 0-1.852-.439-3.433-1.317-4.74-.879-1.31-2.044-2.135-3.495-2.479-.936-.229-2.664-.344-5.185-.344h-7.648zm33.802 11.66c1.012 2.577 2.578 3.867 4.698 3.867 1.222 0 2.239-.411 3.05-1.232.812-.821 1.438-1.92 1.877-3.295.248-.744.43-1.847.544-3.308.115-1.461.181-2.784.2-3.968.02-1.184.03-2.96.03-5.328 0-4.03-.049-6.827-.144-8.393l-10.255 21.656zm4.698-30.394c-1.223 0-2.24.41-3.051 1.232-.812.821-1.437 1.92-1.876 3.294-.249.745-.43 1.848-.545 3.309a64.465 64.465 0 0 0-.2 3.967c-.02 1.184-.029 2.96-.029 5.328 0 4.03.048 6.828.143 8.394l10.256-21.657c-1.013-2.578-2.579-3.867-4.698-3.867zm-8.136 2.664c1.566-4.144 4.278-6.216 8.136-6.216 3.857 0 6.57 2.072 8.135 6.216.344.936.602 2.225.774 3.867.171 1.643.272 3.137.3 4.483.029 1.347.043 3.385.043 6.116s-.014 4.77-.043 6.116a54.551 54.551 0 0 1-.3 4.483c-.172 1.643-.43 2.932-.774 3.867-1.566 4.145-4.278 6.217-8.135 6.217-3.858 0-6.57-2.072-8.136-6.217-.344-.935-.601-2.224-.773-3.867a54.551 54.551 0 0 1-.301-4.483 315.581 315.581 0 0 1-.043-6.116c0-2.73.014-4.77.043-6.116.029-1.346.129-2.84.3-4.483.173-1.642.43-2.931.774-3.867zm46.263 11.143c.554-1.26.831-2.635.831-4.125 0-1.49-.277-2.86-.83-4.11-.555-1.251-1.3-2.278-2.235-3.08a7.869 7.869 0 0 0-1.848-1.203 7.79 7.79 0 0 0-2.134-.63 21.99 21.99 0 0 0-1.862-.215 34.335 34.335 0 0 0-1.948-.043H269.2v18.563h4.268c1.07 0 1.939-.024 2.607-.072.668-.048 1.513-.239 2.535-.573 1.022-.334 1.905-.816 2.65-1.446.936-.803 1.68-1.824 2.234-3.066zm-10.026-16.843c.936 0 1.705.019 2.306.057.602.038 1.413.138 2.435.3a10.41 10.41 0 0 1 2.922.917c.926.45 1.79 1.027 2.592 1.733 2.846 2.521 4.269 5.758 4.269 9.711 0 3.954-1.423 7.19-4.269 9.711a10.71 10.71 0 0 1-2.234 1.519l7.219 16.385h-3.896l-6.79-15.21c-1.145.21-2.663.314-4.554.314H269.2V290.2h-3.667v-40.333h7.935zm31.138 10.541c1.375 0 2.636.277 3.781.831 1.146.554 2.092 1.299 2.836 2.234.478.592.86 1.204 1.146 1.834.287.63.482 1.327.588 2.09.105.765.171 1.395.2 1.892.029.496.043 1.193.043 2.09V290.2h-3.667v-18.82c0-1.05-.014-1.834-.043-2.35-.028-.515-.143-1.093-.343-1.732a4.809 4.809 0 0 0-.903-1.676c-1.031-1.184-2.435-1.776-4.21-1.776-1.777 0-3.18.592-4.212 1.776a4.809 4.809 0 0 0-.902 1.676c-.2.64-.315 1.217-.344 1.733a46.501 46.501 0 0 0-.043 2.349v18.82h-3.666v-29.333h3.666v3.208h.287c.706-1.108 1.58-1.996 2.62-2.664 1.042-.668 2.097-1.003 3.166-1.003zm29.334 0c1.375 0 2.635.277 3.78.831 1.147.554 2.092 1.299 2.837 2.234.477.592.86 1.204 1.146 1.834.286.63.482 1.327.587 2.09.105.765.172 1.395.2 1.892.029.496.043 1.193.043 2.09V290.2h-3.666v-18.82c0-1.05-.015-1.834-.043-2.35-.029-.515-.144-1.093-.344-1.732a4.809 4.809 0 0 0-.902-1.676c-1.032-1.184-2.435-1.776-4.211-1.776-1.776 0-3.18.592-4.211 1.776a4.809 4.809 0 0 0-.903 1.676c-.2.64-.315 1.217-.343 1.733a46.501 46.501 0 0 0-.043 2.349v18.82H324.2v-40.333h3.667v14.208h.286c.707-1.108 1.58-1.996 2.621-2.664 1.041-.668 2.096-1.003 3.166-1.003zm34.26 15.125h-5.615c-.706 0-1.255.02-1.647.058-.391.038-.883.176-1.475.415a4.498 4.498 0 0 0-1.576 1.074c-1.069 1.127-1.604 2.607-1.604 4.44 0 1.624.463 2.98 1.39 4.068.926 1.089 2.182 1.633 3.767 1.633.916 0 1.733-.134 2.449-.401.716-.268 1.308-.602 1.776-1.003.468-.4.869-.926 1.203-1.575.334-.65.582-1.256.745-1.82.162-.563.291-1.236.386-2.019.096-.783.153-1.423.172-1.92.02-.496.029-1.088.029-1.775v-1.175zm-4.583-15.125c1.642 0 3.084.253 4.325.76 1.242.506 2.263 1.465 3.065 2.878.573 1.013.86 2.578.86 4.698V290.2H368.2v-3.523h-.286c-1.93 2.654-4.316 3.981-7.162 3.981-2.292 0-4.22-.859-5.786-2.578-1.566-1.719-2.35-3.886-2.35-6.502 0-2.75.84-4.966 2.522-6.646a9.276 9.276 0 0 1 1.947-1.461 7.19 7.19 0 0 1 2.163-.788c.755-.143 1.347-.23 1.776-.258a25.1 25.1 0 0 1 1.619-.043h5.557v-3.495c0-1.661-.172-2.788-.516-3.38a3.042 3.042 0 0 0-1.389-1.246c-.602-.277-1.494-.415-2.678-.415-2.292 0-5.042.2-8.25.601v-3.494c3.15-.363 5.9-.545 8.25-.545zm18.534 20.396c-.134-1.375-.201-3.132-.201-5.27 0-2.14.072-3.896.215-5.272a12.697 12.697 0 0 1 1.017-3.867c1.738-3.991 4.975-5.987 9.71-5.987 1.91 0 4.489.163 7.735.487v3.438c-3.285-.325-5.863-.487-7.734-.487-1.643 0-2.946.31-3.91.93-.965.621-1.753 1.562-2.364 2.822-.305.65-.54 1.461-.702 2.435-.162.974-.253 1.81-.272 2.507-.019.697-.028 1.695-.028 2.993 0 1.299.01 2.297.028 2.994.02.697.11 1.532.272 2.506.163.974.397 1.786.702 2.435.611 1.26 1.4 2.201 2.364 2.822.964.62 2.267.93 3.91.93 2.234 0 5.003-.247 8.307-.744v3.438c-3.285.496-6.054.744-8.307.744-4.736 0-7.973-1.995-9.711-5.987a12.994 12.994 0 0 1-1.031-3.867zm33.716 9.396H412.2v-40.333h3.667v23.088l11.744-12.088h4.612l-10.398 10.856L433.57 290.2H429.1l-9.654-16.042-3.58 3.581V290.2z" fill="#04822A"/>
  </g>
</svg>
