<svg width="434" height="499" xmlns="http://www.w3.org/2000/svg">
  <g fill="none" fill-rule="evenodd">
    <path d="M100.533 18.14h-1.948c-.935 0-1.609.272-2.02.817-.41.544-.615 1.398-.615 2.563 0 .65.153 1.19.458 1.619.306.43.745.644 1.318.644.65 0 1.18-.162 1.59-.487.41-.324.697-.787.86-1.389a9.288 9.288 0 0 0 .3-1.533c.038-.42.057-.945.057-1.575v-.659zM99.617.408c1.642 0 3.084.253 4.325.76 1.242.506 2.263 1.465 3.065 2.878.573 1.013.86 2.578.86 4.698V30.2h-7.334v-1.518h-.286c-1.07 1.317-2.425 1.976-4.068 1.976-2.024 0-3.79-.869-5.3-2.606-1.508-1.738-2.262-3.896-2.262-6.474 0-2.808.84-5.118 2.52-6.933a8.913 8.913 0 0 1 1.963-1.59 7.042 7.042 0 0 1 2.148-.845 15.742 15.742 0 0 1 1.776-.286 19.48 19.48 0 0 1 1.619-.057h1.89v-2.98c0-.381-.162-.74-.487-1.074-.324-.334-.744-.501-1.26-.501-1.757 0-4.23.181-7.42.544V.953c3.152-.363 5.902-.545 8.25-.545zm-41.25 41.459H65.7V58.71h7.333V41.867h7.334V82.2h-7.334V65.585H65.7V82.2h-7.333V41.867zm36.666 6.875v11.687h1.776c1.643 0 2.836-.076 3.581-.229 1.28-.267 2.31-.907 3.094-1.92.783-1.011 1.174-2.243 1.174-3.695 0-1.451-.391-2.683-1.174-3.695-.783-1.012-1.814-1.652-3.094-1.92-.764-.152-1.957-.228-3.58-.228h-1.777zM87.7 41.867h9.052c2.826 0 4.841.143 6.044.43 2.712.649 4.923 2.067 6.632 4.253 1.71 2.187 2.564 4.865 2.564 8.035 0 2.388-.502 4.512-1.504 6.374-1.003 1.862-2.364 3.337-4.082 4.426l6.302 16.815h-7.792l-5.328-14.924c-.573.019-1.518.028-2.836.028h-1.719V82.2H87.7V41.867zm32.198 5.7c1.566-4.144 4.278-6.216 8.135-6.216 3.858 0 6.57 2.072 8.136 6.216.344.936.601 2.225.773 3.867.172 1.643.272 3.137.301 4.483.029 1.347.043 3.385.043 6.116s-.014 4.77-.043 6.116a54.552 54.552 0 0 1-.3 4.483c-.173 1.643-.43 2.932-.774 3.867-1.566 4.145-4.278 6.217-8.136 6.217-3.857 0-6.57-2.072-8.135-6.217-.344-.935-.602-2.224-.774-3.867a54.551 54.551 0 0 1-.3-4.483 315.58 315.58 0 0 1-.043-6.116c0-2.73.014-4.77.043-6.116.028-1.346.129-2.84.3-4.483.172-1.642.43-2.931.774-3.867zm8.135.774c-.82 0-1.403 1.203-1.747 3.609-.191 1.28-.287 4.64-.287 10.083v3.008l3.839-12.633c-.134-1.126-.353-2.086-.659-2.879-.305-.792-.687-1.188-1.146-1.188zm-1.804 23.317c.133 1.127.353 2.087.659 2.88.305.792.687 1.188 1.145 1.188.822 0 1.404-1.203 1.748-3.61.19-1.279.286-4.64.286-10.083v-3.007l-3.838 12.632zm21.255 1.146c-.134-1.375-.2-3.132-.2-5.27 0-2.14.07-3.896.214-5.272a12.697 12.697 0 0 1 1.017-3.867c1.738-3.991 4.975-5.987 9.711-5.987 2.158 0 4.832.172 8.02.516v6.875c-3.227-.344-5.9-.516-8.02-.516-.821 0-1.47.22-1.948.66-.477.438-.869 1.107-1.174 2.004-.325.993-.487 2.855-.487 5.586 0 2.731.162 4.593.487 5.586.305.898.697 1.566 1.174 2.005.478.44 1.127.66 1.948.66 2.234 0 5.003-.249 8.307-.745v6.875c-3.284.496-6.053.744-8.307.744-4.736 0-7.973-1.995-9.71-5.987a12.994 12.994 0 0 1-1.032-3.867zM29.034 93.867h7.333v16.843H43.7V93.867h7.333V134.2H43.7v-16.615h-7.333V134.2h-7.334V93.867zM63.866 134.2h-7.334V93.867h7.334l5.356 12.547h.316l5.328-12.547H82.2V134.2h-7.333v-25.667h-.287l-3.638 7.334h-3.15l-3.639-7.448h-.286V134.2zm34.432-25.122c.802-.669 1.757-1.003 2.865-1.003 2.12 0 3.752.773 4.898 2.32 1.814 2.426 2.721 6.083 2.721 10.972 0 3.38-.305 5.9-.916 7.562-.63 1.738-1.676 3.127-3.137 4.168-1.461 1.04-3.223 1.561-5.285 1.561-2.311 0-4.22-.51-5.73-1.532-1.508-1.022-2.597-2.42-3.265-4.197a12.633 12.633 0 0 1-.745-3.15c-.114-1.09-.172-2.55-.172-4.384 0-5.824.41-10.35 1.232-13.578 1.241-4.831 4.087-9.825 8.537-14.982l5.585 4.612c-1.756 2.044-3.198 3.944-4.325 5.7-1.127 1.758-1.977 3.696-2.55 5.816l.287.115zm2.206 17.846c.63-.974.945-2.826.945-5.557 0-2.731-.315-4.584-.945-5.558-.363-.573-.812-.859-1.347-.859-.534 0-.983.286-1.346.86-.63.973-.945 2.826-.945 5.557 0 2.73.315 4.583.945 5.557.363.573.812.86 1.346.86.535 0 .984-.287 1.347-.86zm16.528 7.276V93.867h7.334v33.458h16.5v6.875h-23.834zm40.506-9.826c1.604-6.072 2.931-12.575 3.981-19.507h7.334c-.822 5.137-1.633 9.558-2.435 13.263s-1.93 7.84-3.38 12.403a81.632 81.632 0 0 1-1.003 2.994c-.267.735-.611 1.58-1.031 2.535-.42.955-.884 1.752-1.39 2.392a7.14 7.14 0 0 1-1.675 1.561c-.745.458-1.4.807-1.963 1.046-.563.238-1.499.453-2.807.644-1.308.191-2.965.287-4.97.287v-6.875c1.394 0 2.45-.043 3.165-.13.717-.085 1.323-.305 1.82-.658.496-.353.859-.764 1.088-1.232.23-.468.535-1.208.917-2.22.057-.153.095-.267.114-.344h-2.836a90.703 90.703 0 0 1-3.71-11.716c-1.002-4.087-1.962-8.737-2.878-13.95h7.362c.955 6.97 2.291 13.473 4.01 19.507h.287zm38.328-17.703c0 5.825-.41 10.351-1.232 13.578-1.241 4.832-4.087 9.826-8.537 14.982l-5.586-4.612c1.757-2.043 3.2-3.943 4.326-5.7 1.127-1.757 1.977-3.696 2.55-5.815l-.287-.115c-.802.668-1.757 1.003-2.865 1.003-2.12 0-3.752-.774-4.898-2.32-1.814-2.426-2.721-6.083-2.721-10.972 0-3.38.305-5.901.916-7.563.65-1.756 1.72-3.15 3.209-4.182 1.49-1.031 3.323-1.547 5.5-1.547s4.01.516 5.5 1.547c1.49 1.031 2.559 2.426 3.208 4.183.382 1.012.63 2.062.745 3.15.114 1.09.172 2.55.172 4.383zm-10.972-5.528c-.63.974-.945 2.826-.945 5.557 0 2.73.315 4.583.945 5.557.363.573.812.86 1.347.86.534 0 .983-.287 1.346-.86.63-.974.945-2.826.945-5.557 0-2.73-.315-4.583-.945-5.557-.363-.573-.812-.86-1.346-.86-.535 0-.984.287-1.347.86zM38.2 186.2v-18.792h-7.047v-6.875h14.38V186.2H38.2zm-1.833-38.7c.955-.955 2.177-1.433 3.666-1.433 1.49 0 2.707.473 3.653 1.418.945.945 1.418 2.163 1.418 3.652 0 1.49-.473 2.708-1.418 3.653-.946.945-2.163 1.418-3.653 1.418-1.49 0-2.707-.473-3.652-1.418-.945-.945-1.418-2.163-1.418-3.653 0-1.49.468-2.702 1.404-3.638zm36.18 8.908c1.45 0 2.735.597 3.852 1.79 1.117 1.194 1.934 2.86 2.45 5 .4 1.718.601 4.497.601 8.335 0 3.839-.2 6.618-.602 8.336-.515 2.14-1.332 3.805-2.449 4.999-1.117 1.194-2.401 1.79-3.853 1.79-2.215 0-3.81-.773-4.784-2.32h-.229v1.862H60.2v-40.333h7.333v12.862h.23c.973-1.547 2.568-2.32 4.783-2.32zm-1.462 7.763c-.343-.592-.763-.888-1.26-.888s-.917.292-1.26.874c-.344.582-.592 1.313-.745 2.191-.191 1.032-.287 2.76-.287 5.185 0 2.426.096 4.154.287 5.185.153.879.4 1.61.745 2.192.343.582.763.873 1.26.873s.917-.29 1.26-.873c.344-.583.592-1.313.745-2.192.191-1.031.287-2.76.287-5.185s-.096-4.153-.287-5.185c-.153-.878-.4-1.604-.745-2.177zm30.365 9.74c0-2.368-.215-4.073-.645-5.113-.43-1.041-1.17-1.562-2.22-1.562-.954 0-1.89.201-2.807.602l-4.268-4.755 8.164-10.341h-10.14v-6.875h18.333v6.588l-7.22 8.45.201.201c.287-.095.621-.143 1.003-.143 4.622 0 6.932 4.335 6.932 13.005 0 4.316-.878 7.51-2.635 9.582-1.757 2.072-4.392 3.108-7.906 3.108-2.33 0-5.233-.296-8.709-.888v-6.932c3.323.63 6.226.945 8.709.945 1.241 0 2.086-.515 2.535-1.547.449-1.03.673-2.473.673-4.325zm30.25-21.17h-11v-6.874h18.333v26.755c0 .936-.014 1.685-.043 2.249-.028.563-.114 1.313-.257 2.248a10.306 10.306 0 0 1-.788 2.679c-.382.85-.87 1.656-1.461 2.42-1.031 1.318-2.354 2.368-3.968 3.151-1.613.783-3.423 1.175-5.428 1.175-2.12 0-4.154-.42-6.102-1.26-1.947-.84-3.676-1.9-5.184-3.18l3.924-5.5c2.31 2.043 4.765 3.065 7.362 3.065 1.604 0 2.788-.592 3.552-1.776.325-.497.573-1.084.745-1.762.172-.678.267-1.241.286-1.69.02-.449.029-1.055.029-1.82v-19.88zm22.945 33.917c-2.043 0-3.695-1.021-4.955-3.065-.459-.764-.807-1.642-1.046-2.635-.239-.993-.372-1.82-.401-2.478a68.774 68.774 0 0 1-.043-2.793v-18.82h7.333v18.82c0 1.547.144 2.588.43 3.122.363.65.83.974 1.404.974.573 0 1.04-.324 1.403-.974.287-.534.43-1.575.43-3.122v-18.82h7.333V186.2H159.2v-1.776h-.2a5.852 5.852 0 0 1-1.977 1.633c-.783.4-1.576.601-2.378.601zm33.888-12.518h-1.948c-.935 0-1.609.272-2.02.817-.41.544-.615 1.398-.615 2.563 0 .65.153 1.19.458 1.619.306.43.745.644 1.318.644.65 0 1.18-.162 1.59-.487.41-.324.697-.787.86-1.389a9.288 9.288 0 0 0 .3-1.533c.038-.42.057-.945.057-1.575v-.659zm-.916-17.732c1.642 0 3.084.253 4.325.76 1.242.506 2.263 1.465 3.065 2.878.573 1.013.86 2.578.86 4.698V186.2h-7.334v-1.518h-.286c-1.07 1.317-2.425 1.976-4.068 1.976-2.024 0-3.79-.869-5.3-2.606-1.508-1.738-2.262-3.896-2.262-6.474 0-2.808.84-5.118 2.52-6.933a8.913 8.913 0 0 1 1.963-1.59 7.042 7.042 0 0 1 2.148-.845 15.742 15.742 0 0 1 1.776-.286 19.48 19.48 0 0 1 1.619-.057h1.89v-2.98c0-.381-.162-.74-.487-1.074-.324-.334-.744-.501-1.26-.501-1.757 0-4.23.181-7.42.544v-6.903c3.152-.363 5.902-.545 8.25-.545zm41.25 29.19c-3.915.707-7.362 1.06-10.341 1.06-4.068 0-7.348-.978-9.84-2.936-2.493-1.957-4.178-4.607-5.056-7.95-.592-2.329-.888-5.575-.888-9.739 0-4.163.296-7.41.888-9.74.897-3.36 2.55-6.015 4.955-7.963 2.407-1.948 5.625-2.922 9.654-2.922 3.056 0 6.407.2 10.055.602v6.875c-4.087-.401-7.41-.602-9.969-.602-4.297 0-6.875 2.196-7.734 6.589-.344 1.795-.516 4.182-.516 7.161 0 2.98.172 5.367.516 7.162.4 2.062 1.255 3.676 2.563 4.84 1.309 1.166 3.099 1.748 5.372 1.748.63 0 1.632-.038 3.007-.114v-8.594h-3.666V164.2h11v21.398zm5.5-39.731h22v6.875H241.7v9.968h11v6.875h-11V186.2h-7.333v-40.333zm36.666 1.632c.955-.954 2.177-1.432 3.667-1.432 1.49 0 2.707.473 3.652 1.418.946.945 1.418 2.163 1.418 3.652 0 1.49-.472 2.708-1.418 3.653-.945.945-2.162 1.418-3.652 1.418-1.49 0-2.707-.473-3.652-1.418-.946-.945-1.418-2.163-1.418-3.653 0-1.49.468-2.702 1.403-3.638zm1.834 34.118v-14.209h-7.047v-6.875h14.38v21.084c0 3.265-.582 5.872-1.747 7.82-1.815 3.036-4.67 4.555-8.565 4.555-2.216 0-4.47-.144-6.76-.43v-6.875c2.577.286 4.83.43 6.76.43.725 0 1.322-.282 1.79-.845a4.543 4.543 0 0 0 .945-2.006c.163-.773.244-1.656.244-2.65zM12.533 226.14h-1.948c-.935 0-1.609.272-2.02.817-.41.544-.615 1.398-.615 2.563 0 .65.153 1.19.458 1.619.306.43.745.644 1.318.644.65 0 1.18-.162 1.59-.487.41-.324.697-.787.86-1.389a9.288 9.288 0 0 0 .3-1.533c.038-.42.057-.945.057-1.575v-.659zm-.916-17.732c1.642 0 3.084.253 4.325.76 1.242.506 2.263 1.465 3.065 2.878.573 1.013.86 2.578.86 4.698V238.2h-7.334v-1.518h-.286c-1.07 1.317-2.425 1.976-4.068 1.976-2.024 0-3.79-.869-5.3-2.606-1.508-1.738-2.262-3.896-2.262-6.474 0-2.808.84-5.118 2.52-6.933a8.913 8.913 0 0 1 1.963-1.59 7.042 7.042 0 0 1 2.148-.845 15.742 15.742 0 0 1 1.776-.286 19.48 19.48 0 0 1 1.619-.057h1.89v-2.98c0-.381-.162-.74-.487-1.074-.324-.334-.744-.501-1.26-.501-1.757 0-4.23.181-7.42.544v-6.903c3.152-.363 5.902-.545 8.25-.545zm28.588 19.966c1.604-6.072 2.932-12.575 3.982-19.507h7.333c-.82 5.137-1.632 9.558-2.435 13.263-.802 3.705-1.928 7.84-3.38 12.403a81.63 81.63 0 0 1-1.002 2.994c-.268.735-.612 1.58-1.032 2.535-.42.955-.883 1.752-1.389 2.392a7.14 7.14 0 0 1-1.676 1.561c-.745.458-1.399.807-1.962 1.046-.563.238-1.5.453-2.807.644-1.308.191-2.965.287-4.97.287v-6.875c1.394 0 2.449-.043 3.165-.13.716-.085 1.323-.305 1.819-.658.497-.353.86-.764 1.089-1.232.229-.468.534-1.208.916-2.22.058-.153.096-.267.115-.344h-2.836a90.703 90.703 0 0 1-3.71-11.716c-1.002-4.087-1.962-8.737-2.879-13.95h7.362c.955 6.97 2.292 13.473 4.01 19.507h.287zm19.995 2.464c3.113.63 5.825.945 8.135.945.822 0 1.51-.162 2.063-.487.554-.324.964-.802 1.232-1.432.267-.63.453-1.299.558-2.005.105-.707.158-1.547.158-2.521 0-4.259-1.127-6.388-3.38-6.388-1.223 0-2.168.372-2.836 1.117l-5.93-1.547v-20.653h18.333v6.875h-11v8.937h.287a6.888 6.888 0 0 1 3.781-1.117c5.233 0 7.849 4.278 7.849 12.833 0 4.507-.874 7.844-2.621 10.012-1.747 2.168-4.388 3.251-7.92 3.251-2.33 0-5.233-.296-8.709-.888v-6.932zm36.667 7.362h-7.334v-40.333h7.334v20.367l4.784-9.367h7.906l-6.503 12.69 7.85 16.643h-7.907l-4.784-10.112-1.346 2.807v7.305zm33-12.06h-1.948c-.936 0-1.61.272-2.02.817-.41.544-.616 1.398-.616 2.563 0 .65.153 1.19.459 1.619.305.43.744.644 1.317.644.65 0 1.18-.162 1.59-.487.41-.324.697-.787.86-1.389a9.288 9.288 0 0 0 .3-1.533c.039-.42.058-.945.058-1.575v-.659zm-.917-17.732c1.642 0 3.084.253 4.326.76 1.24.506 2.263 1.465 3.065 2.878.573 1.013.859 2.578.859 4.698V238.2h-7.333v-1.518h-.287c-1.07 1.317-2.425 1.976-4.068 1.976-2.024 0-3.79-.869-5.299-2.606-1.509-1.738-2.263-3.896-2.263-6.474 0-2.808.84-5.118 2.52-6.933a8.913 8.913 0 0 1 1.963-1.59 7.042 7.042 0 0 1 2.149-.845 15.742 15.742 0 0 1 1.776-.286 19.48 19.48 0 0 1 1.618-.057h1.89v-2.98c0-.381-.162-.74-.486-1.074-.325-.334-.745-.501-1.26-.501-1.758 0-4.23.181-7.42.544v-6.903c3.151-.363 5.901-.545 8.25-.545zm28.589 19.966c1.604-6.072 2.931-12.575 3.981-19.507h7.334c-.822 5.137-1.633 9.558-2.435 13.263s-1.93 7.84-3.38 12.403a81.632 81.632 0 0 1-1.003 2.994c-.267.735-.611 1.58-1.031 2.535-.42.955-.884 1.752-1.39 2.392a7.14 7.14 0 0 1-1.675 1.561c-.745.458-1.4.807-1.963 1.046-.563.238-1.499.453-2.807.644-1.308.191-2.965.287-4.97.287v-6.875c1.394 0 2.45-.043 3.165-.13.717-.085 1.323-.305 1.82-.658.496-.353.859-.764 1.088-1.232.23-.468.535-1.208.917-2.22.057-.153.095-.267.114-.344h-2.836a90.703 90.703 0 0 1-3.71-11.716c-1.002-4.087-1.962-8.737-2.878-13.95h7.362c.955 6.97 2.291 13.473 4.01 19.507h.287zm38.328-17.703c0 5.825-.41 10.351-1.232 13.578-1.241 4.832-4.087 9.826-8.537 14.982l-5.586-4.612c1.757-2.043 3.2-3.943 4.326-5.7 1.127-1.757 1.977-3.696 2.55-5.815l-.287-.115c-.802.668-1.757 1.003-2.865 1.003-2.12 0-3.752-.774-4.898-2.32-1.814-2.426-2.721-6.083-2.721-10.972 0-3.38.305-5.901.916-7.563.65-1.756 1.72-3.15 3.209-4.182 1.49-1.031 3.323-1.547 5.5-1.547s4.01.516 5.5 1.547c1.49 1.031 2.559 2.426 3.208 4.182.382 1.013.63 2.063.745 3.152.114 1.088.172 2.549.172 4.382zm-10.972-5.528c-.63.974-.945 2.826-.945 5.557 0 2.73.315 4.583.945 5.557.363.573.812.86 1.347.86.534 0 .983-.287 1.346-.86.63-.974.945-2.826.945-5.557 0-2.73-.315-4.583-.945-5.557-.363-.573-.812-.86-1.346-.86-.535 0-.984.287-1.347.86zm23.003-1.576c1.566-4.144 4.278-6.216 8.135-6.216 3.858 0 6.57 2.072 8.136 6.216.344.936.601 2.225.773 3.867.172 1.643.272 3.137.301 4.483.029 1.347.043 3.385.043 6.116s-.014 4.77-.043 6.116a54.551 54.551 0 0 1-.3 4.483c-.173 1.643-.43 2.932-.774 3.867-1.566 4.145-4.278 6.217-8.136 6.217-3.857 0-6.57-2.072-8.135-6.217-.344-.935-.602-2.224-.774-3.867a54.551 54.551 0 0 1-.3-4.483 315.58 315.58 0 0 1-.043-6.116c0-2.73.014-4.77.043-6.116.028-1.346.129-2.84.3-4.483.172-1.642.43-2.931.774-3.867zm8.135.774c-.82 0-1.403 1.203-1.747 3.609-.191 1.28-.287 4.64-.287 10.083v3.008l3.839-12.633c-.134-1.126-.353-2.086-.659-2.879-.305-.792-.687-1.188-1.146-1.188zm-1.804 23.317c.133 1.127.353 2.087.658 2.88.306.792.688 1.188 1.146 1.188.822 0 1.404-1.203 1.748-3.61.19-1.279.286-4.64.286-10.083v-3.007l-3.838 12.632zm34.317-19.25c1.452 0 2.736.597 3.853 1.79 1.117 1.194 1.934 2.86 2.45 5 .4 1.718.601 4.497.601 8.335 0 3.839-.2 6.618-.602 8.336-.515 2.14-1.332 3.805-2.449 4.999-1.117 1.194-2.401 1.79-3.853 1.79-2.215 0-3.81-.773-4.784-2.32h-.229v1.862H236.2v-40.333h7.333v12.862h.23c.973-1.547 2.568-2.32 4.783-2.32zm-1.46 7.763c-.344-.592-.764-.888-1.261-.888-.497 0-.917.292-1.26.874-.344.582-.592 1.313-.745 2.191-.191 1.032-.287 2.76-.287 5.185 0 2.426.096 4.154.287 5.185.153.879.4 1.61.745 2.192.343.582.763.873 1.26.873s.917-.29 1.26-.873c.344-.583.592-1.313.745-2.192.191-1.031.287-2.76.287-5.185s-.096-4.153-.287-5.185c-.153-.878-.4-1.604-.745-2.177zm18.447-17.875c3.037-.592 5.787-.888 8.25-.888 1.834 0 3.443.277 4.827.831 1.385.554 2.473 1.308 3.266 2.263a9.704 9.704 0 0 1 1.762 3.151c.381 1.146.572 2.368.572 3.667 0 1.26-.128 2.344-.386 3.251s-.664 1.876-1.218 2.908l-8.708 17.846h10.542v6.875h-18.907v-5.987l10.141-20.339c.802-1.49 1.203-3.007 1.203-4.554 0-2.025-1.031-3.037-3.094-3.037-2.31 0-5.06.296-8.25.888v-6.875zm49.5 39.933c-2.043.286-3.876.43-5.5.43-1.527 0-2.917-.278-4.168-.831-1.25-.554-2.267-1.309-3.05-2.263a7.3 7.3 0 0 1-1.375-2.55c-.306-.974-.478-1.785-.516-2.435a48.667 48.667 0 0 1-.057-2.693v-11.973h-7.334v-7.047h7.334v-7.334h7.333v7.334h7.333v7.047H307.7V227.6c0 1.413.148 2.464.444 3.151.296.688.855 1.031 1.676 1.031 1.356 0 3.094-.143 5.213-.43v6.876zM19.867 290.515c-2.426.096-4.183.143-5.271.143-2.788 0-4.994-.706-6.617-2.12a8.915 8.915 0 0 1-1.59-1.804 5.955 5.955 0 0 1-.845-2.005c-.153-.707-.249-1.27-.287-1.69a19.17 19.17 0 0 1-.057-1.662v-31.51h7.333v30.937c0 1.031.268 1.786.802 2.263.535.478 1.49.716 2.865.716 1.299 0 2.52-.047 3.667-.143v6.875zm23.346-30.107c1.451 0 2.736.597 3.853 1.79 1.117 1.194 1.933 2.86 2.45 5 .4 1.718.6 4.497.6 8.335 0 3.839-.2 6.618-.6 8.336-.517 2.14-1.333 3.805-2.45 4.999-1.117 1.194-2.402 1.79-3.853 1.79-2.215 0-3.81-.773-4.784-2.32H38.2v1.862h-7.333v-40.333H38.2v12.862h.23c.973-1.547 2.568-2.32 4.783-2.32zm-1.46 7.763c-.345-.592-.765-.888-1.261-.888-.497 0-.917.292-1.26.874-.345.582-.593 1.313-.746 2.191-.19 1.032-.286 2.76-.286 5.185 0 2.426.095 4.154.286 5.185.153.879.401 1.61.745 2.192.344.582.764.873 1.26.873.497 0 .917-.29 1.261-.873.344-.583.592-1.313.745-2.192.19-1.031.286-2.76.286-5.185s-.095-4.153-.286-5.185c-.153-.878-.401-1.604-.745-2.177zm25.78 22.029v-18.792h-7.047v-6.875h14.38V290.2h-7.333zM65.7 251.5c.955-.955 2.177-1.433 3.667-1.433 1.49 0 2.707.473 3.652 1.418.945.945 1.418 2.163 1.418 3.652 0 1.49-.473 2.708-1.418 3.653-.945.945-2.163 1.418-3.652 1.418-1.49 0-2.707-.473-3.653-1.418-.945-.945-1.418-2.163-1.418-3.653 0-1.49.468-2.702 1.404-3.638zm42.167 11.171c0 5.825-.41 10.351-1.232 13.578-1.241 4.832-4.087 9.826-8.537 14.982l-5.585-4.612c1.756-2.043 3.198-3.943 4.325-5.7 1.127-1.757 1.977-3.696 2.55-5.815l-.287-.115c-.802.668-1.757 1.003-2.865 1.003-2.12 0-3.752-.774-4.898-2.32-1.814-2.426-2.721-6.083-2.721-10.972 0-3.38.305-5.901.916-7.563.65-1.756 1.72-3.15 3.209-4.182 1.49-1.031 3.323-1.547 5.5-1.547s4.01.516 5.5 1.547c1.49 1.031 2.559 2.426 3.208 4.182.382 1.013.63 2.063.745 3.152.114 1.088.172 2.549.172 4.382zm-10.972-5.528c-.63.974-.945 2.826-.945 5.557 0 2.73.315 4.583.945 5.557.363.573.812.86 1.347.86.534 0 .983-.287 1.346-.86.63-.974.945-2.826.945-5.557 0-2.73-.315-4.583-.945-5.557-.363-.573-.812-.86-1.346-.86-.535 0-.984.287-1.347.86zm28.417 33.515c-2.043 0-3.695-1.021-4.956-3.065-.458-.764-.807-1.642-1.045-2.635-.239-.993-.373-1.82-.401-2.478a68.774 68.774 0 0 1-.043-2.793v-18.82h7.333v18.82c0 1.547.143 2.588.43 3.122.363.65.83.974 1.403.974.573 0 1.041-.324 1.404-.974.286-.534.43-1.575.43-3.122v-18.82h7.333V290.2h-7.333v-1.776h-.2a5.852 5.852 0 0 1-1.977 1.633c-.783.4-1.576.601-2.378.601zm21.055-.458v-40.333h7.333v33.458h16.5v6.875h-23.833zm36.666-38.7c.955-.955 2.177-1.433 3.667-1.433 1.49 0 2.707.473 3.652 1.418.946.945 1.418 2.163 1.418 3.652 0 1.49-.472 2.708-1.418 3.653-.945.945-2.162 1.418-3.652 1.418-1.49 0-2.707-.473-3.652-1.418-.946-.945-1.418-2.163-1.418-3.653 0-1.49.468-2.702 1.403-3.638zm1.834 34.117v-14.209h-7.047v-6.875h14.38v21.084c0 3.265-.582 5.872-1.747 7.82-1.815 3.036-4.67 4.555-8.566 4.555-2.215 0-4.468-.144-6.76-.43v-6.875c2.578.286 4.832.43 6.76.43.726 0 1.323-.282 1.79-.845a4.543 4.543 0 0 0 .946-2.006c.163-.773.244-1.656.244-2.65zM42.755 312.408c2.043 0 3.695 1.022 4.955 3.065.459.764.807 1.643 1.046 2.636.239.993.372 1.819.401 2.478.029.659.043 1.59.043 2.793v18.82h-7.333v-18.82c0-1.547-.144-2.588-.43-3.123-.363-.649-.83-.974-1.404-.974-.573 0-1.04.325-1.403.974-.287.535-.43 1.576-.43 3.123v18.82h-7.333v-40.333H38.2v12.776h.2a5.852 5.852 0 0 1 1.977-1.633c.783-.401 1.576-.602 2.378-.602zM71.2 330.14h-1.948c-.936 0-1.609.272-2.02.817-.41.544-.615 1.398-.615 2.563 0 .65.152 1.19.458 1.619.306.43.745.644 1.318.644.649 0 1.179-.162 1.59-.487.41-.324.697-.787.859-1.389a9.288 9.288 0 0 0 .3-1.533c.039-.42.058-.945.058-1.575v-.659zm-.917-17.732c1.643 0 3.085.253 4.326.76 1.241.506 2.263 1.465 3.065 2.878.573 1.013.86 2.578.86 4.698V342.2H71.2v-1.518h-.286c-1.07 1.317-2.426 1.976-4.068 1.976-2.024 0-3.791-.869-5.3-2.606-1.508-1.738-2.263-3.896-2.263-6.474 0-2.808.84-5.118 2.521-6.933a8.913 8.913 0 0 1 1.962-1.59 7.042 7.042 0 0 1 2.149-.845 15.742 15.742 0 0 1 1.776-.286 19.48 19.48 0 0 1 1.618-.057H71.2v-2.98c0-.381-.162-.74-.487-1.074-.325-.334-.745-.501-1.26-.501-1.757 0-4.23.181-7.42.544v-6.903c3.151-.363 5.901-.545 8.25-.545zm18.534 20.396c-.133-1.375-.2-3.132-.2-5.27 0-2.14.071-3.896.215-5.272a12.697 12.697 0 0 1 1.016-3.867c1.738-3.991 4.975-5.987 9.711-5.987 2.158 0 4.832.172 8.021.516v6.875c-3.227-.344-5.9-.516-8.02-.516-.822 0-1.471.22-1.949.66-.477.438-.868 1.107-1.174 2.004-.325.993-.487 2.855-.487 5.586 0 2.731.162 4.593.487 5.586.306.898.697 1.566 1.174 2.005.478.44 1.127.66 1.948.66 2.235 0 5.004-.249 8.308-.745v6.875c-3.285.496-6.054.744-8.308.744-4.736 0-7.973-1.995-9.71-5.987a12.994 12.994 0 0 1-1.032-3.867zM126.2 342.2h-7.333v-40.333h7.333v20.367l4.784-9.367h7.906l-6.502 12.69 7.848 16.643h-7.906l-4.784-10.112-1.346 2.807v7.305zm33.888-29.792c2.043 0 3.695 1.022 4.956 3.065.458.764.807 1.643 1.045 2.636.239.993.373 1.819.401 2.478.029.659.043 1.59.043 2.793v18.82H159.2v-18.82c0-1.547-.143-2.588-.43-3.123-.363-.649-.83-.974-1.403-.974-.573 0-1.041.325-1.404.974-.286.535-.43 1.576-.43 3.123v18.82H148.2v-40.333h7.333v12.776h.2a5.852 5.852 0 0 1 1.977-1.633c.783-.401 1.576-.602 2.378-.602zm28.445 17.732h-1.948c-.935 0-1.609.272-2.02.817-.41.544-.615 1.398-.615 2.563 0 .65.153 1.19.458 1.619.306.43.745.644 1.318.644.65 0 1.18-.162 1.59-.487.41-.324.697-.787.86-1.389a9.288 9.288 0 0 0 .3-1.533c.038-.42.057-.945.057-1.575v-.659zm-.916-17.732c1.642 0 3.084.253 4.325.76 1.242.506 2.263 1.465 3.065 2.878.573 1.013.86 2.578.86 4.698V342.2h-7.334v-1.518h-.286c-1.07 1.317-2.425 1.976-4.068 1.976-2.024 0-3.79-.869-5.3-2.606-1.508-1.738-2.262-3.896-2.262-6.474 0-2.808.84-5.118 2.52-6.933a8.913 8.913 0 0 1 1.963-1.59 7.042 7.042 0 0 1 2.148-.845 15.742 15.742 0 0 1 1.776-.286 19.48 19.48 0 0 1 1.619-.057h1.89v-2.98c0-.381-.162-.74-.487-1.074-.324-.334-.744-.501-1.26-.501-1.757 0-4.23.181-7.42.544v-6.903c3.152-.363 5.902-.545 8.25-.545zm18.534 20.396c-.134-1.375-.201-3.132-.201-5.27 0-2.14.072-3.896.215-5.272a12.697 12.697 0 0 1 1.017-3.867c1.738-3.991 4.975-5.987 9.71-5.987 2.159 0 4.832.172 8.022.516v6.875c-3.228-.344-5.901-.516-8.021-.516-.821 0-1.47.22-1.948.66-.478.438-.87 1.107-1.175 2.004-.324.993-.487 2.855-.487 5.586 0 2.731.163 4.593.487 5.586.306.898.697 1.566 1.175 2.005.477.44 1.127.66 1.948.66 2.234 0 5.003-.249 8.307-.745v6.875c-3.285.496-6.054.744-8.307.744-4.736 0-7.973-1.995-9.711-5.987a12.994 12.994 0 0 1-1.031-3.867zm37.382 9.396H236.2v-40.333h7.333v20.367l4.784-9.367h7.906l-6.502 12.69 7.849 16.643h-7.906l-4.784-10.112-1.347 2.807v7.305zm35.32-14.667c-1.107-7.2-2.444-13.683-4.01-19.45h-.286c-1.547 5.71-2.884 12.193-4.01 19.45h8.307zm-9.825-25.666h11.344c3.285 10.274 5.891 23.718 7.82 40.333h-7.42c-.228-2.635-.543-5.233-.944-7.792h-10.256a114.222 114.222 0 0 0-.945 7.792h-7.42c1.93-16.615 4.536-30.059 7.821-40.333zm26.412 17.875v-6.875h17.187v6.015l-9.596 16.157v.286H313.2v6.875h-18.333v-6.073l9.596-16.099v-.286h-9.023zM329.7 342.2h-7.333v-40.333h7.304l7.076 22.859h.286v-22.86h7.334V342.2h-7.334l-7.047-22.86h-.286v22.86zm24.406-22.458v-6.875h17.188v6.015l-9.597 16.157v.286h10.17v6.875h-18.334v-6.073l9.597-16.099v-.286h-9.024zm26.927-17.875h22v6.875h-14.666v9.968h11v6.875h-11V342.2h-7.334v-40.333zm-302.5 92.648c-2.425.096-4.182.143-5.27.143-2.789 0-4.994-.706-6.618-2.12a8.915 8.915 0 0 1-1.59-1.804 5.955 5.955 0 0 1-.845-2.005c-.152-.707-.248-1.27-.286-1.69a19.17 19.17 0 0 1-.057-1.662v-31.51H71.2v30.937c0 1.031.267 1.786.802 2.263.535.478 1.49.716 2.865.716 1.298 0 2.52-.047 3.666-.143v6.875zm20.31-24.693c2.827-6.493 4.736-11.811 5.73-15.955h7.762c-1.49 4.564-3.017 8.694-4.583 12.389-1.566 3.695-3.361 7.128-5.385 10.298V394.2h-7.334v-17.646c-2.024-3.17-3.82-6.603-5.385-10.298-1.566-3.695-3.094-7.825-4.583-12.39h7.763c.152.707.339 1.443.558 2.206.22.764.487 1.595.802 2.493l.802 2.277c.22.62.54 1.46.96 2.52l.874 2.206c.162.411.477 1.185.945 2.32.468 1.137.73 1.782.788 1.934h.286zm25.524-14.323c.955-.954 2.177-1.432 3.666-1.432 1.49 0 2.707.473 3.653 1.418.945.945 1.418 2.163 1.418 3.652 0 1.49-.473 2.708-1.418 3.653-.946.945-2.163 1.418-3.653 1.418-1.49 0-2.707-.473-3.652-1.418-.945-.945-1.418-2.163-1.418-3.653 0-1.49.468-2.702 1.404-3.638zm1.833 34.118v-14.209h-7.047v-6.875h14.38v21.084c0 3.265-.582 5.872-1.747 7.82-1.814 3.036-4.67 4.555-8.565 4.555-2.215 0-4.469-.144-6.76-.43v-6.875c2.578.286 4.831.43 6.76.43.726 0 1.322-.282 1.79-.845a4.543 4.543 0 0 0 .946-2.006c.162-.773.243-1.656.243-2.65zm33.888-25.209c2.043 0 3.695 1.022 4.956 3.065.458.764.807 1.643 1.045 2.636.239.993.373 1.819.401 2.478.029.659.043 1.59.043 2.793v18.82H159.2v-18.82c0-1.547-.143-2.588-.43-3.123-.363-.649-.83-.974-1.403-.974-.573 0-1.041.325-1.404.974-.286.535-.43 1.576-.43 3.123v18.82H148.2v-40.333h7.333v12.776h.2a5.852 5.852 0 0 1 1.977-1.633c.783-.401 1.576-.602 2.378-.602zm35.779 30.107c-2.426.096-4.183.143-5.271.143-2.788 0-4.994-.706-6.617-2.12a8.915 8.915 0 0 1-1.59-1.804 5.955 5.955 0 0 1-.845-2.005c-.153-.707-.249-1.27-.287-1.69a19.17 19.17 0 0 1-.057-1.662v-31.51h7.333v30.937c0 1.031.268 1.786.802 2.263.535.478 1.49.716 2.865.716 1.299 0 2.52-.047 3.667-.143v6.875zm14.666-.315H203.2v-40.333h7.333l5.357 12.547h.315l5.328-12.547h7.334V394.2h-7.334v-25.667h-.286l-3.638 7.334h-3.151l-3.638-7.448h-.287V394.2zm31.912-40.333c6.15 0 10.627 2.263 13.435 6.789 1.088 1.718 1.823 3.666 2.205 5.843.382 2.178.573 4.689.573 7.534 0 2.846-.19 5.357-.573 7.534-.382 2.177-1.117 4.125-2.205 5.844-2.808 4.526-7.286 6.789-13.435 6.789h-9.912v-40.333h9.912zm7.247 29.791c1.089-1.833 1.633-5.041 1.633-9.625 0-4.583-.544-7.791-1.633-9.625-1.432-2.444-3.647-3.666-6.646-3.666h-3.18v26.583h3.18c2.999 0 5.214-1.222 6.646-3.667zm23.175 10.542h-7.334v-40.333h7.334v20.367l4.784-9.367h7.906l-6.503 12.69 7.85 16.643h-7.907l-4.784-10.112-1.346 2.807v7.305zm23.03-34.633c1.567-4.144 4.279-6.216 8.136-6.216 3.858 0 6.57 2.072 8.136 6.216.344.936.601 2.225.773 3.867.172 1.643.272 3.137.301 4.483.029 1.347.043 3.385.043 6.116s-.014 4.77-.043 6.116a54.552 54.552 0 0 1-.3 4.483c-.173 1.643-.43 2.932-.774 3.867-1.566 4.145-4.278 6.217-8.136 6.217-3.857 0-6.57-2.072-8.135-6.217-.344-.935-.602-2.224-.774-3.867a54.551 54.551 0 0 1-.3-4.483 315.58 315.58 0 0 1-.043-6.116c0-2.73.014-4.77.043-6.116.028-1.346.129-2.84.3-4.483.172-1.642.43-2.931.774-3.867zm8.136.774c-.82 0-1.403 1.203-1.747 3.609-.191 1.28-.287 4.64-.287 10.083v3.008l3.839-12.633c-.134-1.126-.353-2.086-.659-2.879-.305-.792-.687-1.188-1.146-1.188zm-1.804 23.317c.133 1.127.353 2.087.659 2.88.305.792.687 1.188 1.145 1.188.822 0 1.404-1.203 1.748-3.61.19-1.279.286-4.64.286-10.083v-3.007l-3.838 12.632zM329.7 394.2h-7.333v-40.333h7.304l7.076 22.859h.286v-22.86h7.334V394.2h-7.334l-7.047-22.86h-.286v22.86zm45.833-40.333v6.875h-9.166V394.2h-7.334v-33.458h-9.166v-6.875h25.666zM184.867 446.2h-7.334v-40.333h7.334v20.367l4.784-9.367h7.906l-6.503 12.69 7.85 16.643h-7.907l-4.784-10.112-1.346 2.807v7.305zm22-7.362c3.113.63 5.824.945 8.135.945.821 0 1.509-.162 2.063-.487.553-.324.964-.802 1.231-1.432.268-.63.454-1.299.559-2.005.105-.707.157-1.547.157-2.521 0-4.259-1.126-6.388-3.38-6.388-1.222 0-2.167.372-2.836 1.117l-5.93-1.547v-20.653H225.2v6.875h-11v8.937h.286a6.888 6.888 0 0 1 3.782-1.117c5.232 0 7.849 4.278 7.849 12.833 0 4.507-.874 7.844-2.621 10.012-1.748 2.168-4.388 3.251-7.921 3.251-2.33 0-5.233-.296-8.708-.888v-6.932zm38.643-17.016c2.826-6.493 4.736-11.811 5.73-15.955h7.762c-1.49 4.564-3.017 8.694-4.583 12.389-1.566 3.695-3.361 7.128-5.386 10.298V446.2H241.7v-17.646c-2.024-3.17-3.82-6.603-5.385-10.298-1.566-3.695-3.094-7.825-4.584-12.39h7.763c.153.707.34 1.443.559 2.206.22.764.487 1.595.802 2.493.315.897.582 1.656.802 2.277.22.62.54 1.46.96 2.52l.873 2.206c.163.411.478 1.185.946 2.32.468 1.137.73 1.782.787 1.934h.287zm20.596 1.92v-6.875h17.188v6.015l-9.597 16.157v.286h10.17v6.875h-18.334v-6.073l9.597-16.099v-.286h-9.024zm25.438 12.289c-.535-2.12-.802-5.453-.802-9.998 0-4.545.267-7.877.802-9.997.764-3.094 2.205-5.639 4.325-7.634 2.12-1.996 4.841-2.994 8.164-2.994 3.323 0 6.045.998 8.164 2.994 2.12 1.995 3.562 4.54 4.326 7.634.535 2.12.802 5.452.802 9.997 0 4.526-.239 7.859-.716 9.998-.478 2.005-1.275 3.814-2.392 5.428-1.117 1.614-2.507 2.87-4.168 3.767.363.86.745 1.385 1.146 1.576.4.19 1.088.286 2.062.286.115 0 1.318-.048 3.61-.143v6.875a61.283 61.283 0 0 1-4.526.172c-3.209 0-5.74-1.184-7.592-3.552-.63-.822-1.279-2.101-1.947-3.839-3.037-.267-5.486-1.375-7.348-3.323s-3.165-4.364-3.91-7.247zm6.96-17.388c-.286 1.566-.429 4.03-.429 7.39 0 3.361.143 5.825.43 7.391.573 3.132 1.804 5.128 3.695 5.987V435.2h6.904c.592-1.814.888-4.87.888-9.167 0-3.36-.144-5.824-.43-7.39-.344-1.853-.979-3.376-1.905-4.57-.926-1.193-2.134-1.79-3.624-1.79-1.49 0-2.697.597-3.623 1.79-.927 1.194-1.562 2.717-1.905 4.57zm-24.95 39.224h6.646V498.2h-7.333v-31.682h-.287l-3.409 2.492-3.638-5.3 8.021-5.843z" fill="#000"/>
    <path d="M213.627 266.481c1.432 0 2.368-.057 2.807-.172 1.032-.248 1.858-.787 2.478-1.618.62-.83.931-1.857.931-3.08 0-1.203-.315-2.224-.945-3.065a4.133 4.133 0 0 0-2.464-1.604c-.61-.133-1.546-.2-2.807-.2h-1.26v9.74h1.26zm8.966 2.865c1.967.573 3.5 1.742 4.598 3.509 1.098 1.766 1.647 3.881 1.647 6.345 0 2.674-.702 4.96-2.105 6.86-1.404 1.9-3.223 3.128-5.457 3.682-1.223.305-3.257.458-6.102.458h-10.14v-40.333h8.593c2.464 0 4.22.124 5.27.372 2.35.554 4.27 1.767 5.759 3.638 1.49 1.872 2.234 4.163 2.234 6.875 0 4.03-1.432 6.799-4.297 8.307v.287zm-10.226 4.01v9.969h2.836c1.718 0 2.864-.076 3.437-.23.955-.247 1.719-.796 2.292-1.646.573-.85.86-1.886.86-3.108 0-1.223-.287-2.263-.86-3.123-.573-.86-1.337-1.403-2.292-1.633-.65-.152-1.795-.229-3.437-.229h-2.836zm24.864-17.789c1.566-4.144 4.278-6.216 8.136-6.216 3.857 0 6.57 2.072 8.135 6.216.344.936.602 2.225.774 3.867.171 1.643.272 3.137.3 4.483.029 1.347.043 3.385.043 6.116s-.014 4.77-.043 6.116a54.551 54.551 0 0 1-.3 4.483c-.172 1.643-.43 2.932-.774 3.867-1.566 4.145-4.278 6.217-8.135 6.217-3.858 0-6.57-2.072-8.136-6.217-.344-.935-.601-2.224-.773-3.867a54.552 54.552 0 0 1-.301-4.483 315.58 315.58 0 0 1-.043-6.116c0-2.73.014-4.77.043-6.116.029-1.346.129-2.84.3-4.483.173-1.642.43-2.931.774-3.867zm8.136.774c-.822 0-1.404 1.203-1.748 3.609-.19 1.28-.286 4.64-.286 10.083v3.008l3.838-12.633c-.133-1.126-.353-2.086-.659-2.879-.305-.792-.687-1.188-1.145-1.188zm-1.805 23.317c.134 1.127.353 2.087.659 2.88.305.792.687 1.188 1.146 1.188.82 0 1.403-1.203 1.747-3.61.191-1.279.287-4.64.287-10.083v-3.007l-3.839 12.632zm27.471-22.916v11.687h1.776c1.643 0 2.836-.076 3.581-.229 1.28-.267 2.31-.907 3.094-1.92.783-1.011 1.174-2.243 1.174-3.695 0-1.451-.391-2.683-1.174-3.695-.783-1.012-1.814-1.652-3.094-1.92-.764-.152-1.957-.228-3.58-.228h-1.777zm-7.333-6.875h9.052c2.826 0 4.841.143 6.044.43 2.712.649 4.923 2.067 6.632 4.253 1.71 2.187 2.564 4.865 2.564 8.035 0 2.388-.502 4.512-1.504 6.374-1.003 1.862-2.364 3.337-4.082 4.426l6.302 16.815h-7.792l-5.328-14.924c-.573.019-1.518.028-2.836.028h-1.719V290.2H263.7v-40.333zm43.055 10.541c2.043 0 3.695 1.022 4.955 3.065.459.764.807 1.643 1.046 2.636.239.993.372 1.819.401 2.478.029.659.043 1.59.043 2.793v18.82h-7.333v-18.82c0-1.547-.144-2.588-.43-3.123-.363-.649-.83-.974-1.404-.974-.573 0-1.04.325-1.403.974-.287.535-.43 1.576-.43 3.123v18.82h-7.333v-29.333h7.333v1.776h.2a5.852 5.852 0 0 1 1.977-1.633c.783-.401 1.576-.602 2.378-.602zm29.333 0c2.043 0 3.695 1.022 4.956 3.065.458.764.807 1.643 1.045 2.636.239.993.373 1.819.401 2.478.029.659.043 1.59.043 2.793v18.82H335.2v-18.82c0-1.547-.143-2.588-.43-3.123-.363-.649-.83-.974-1.403-.974-.573 0-1.041.325-1.404.974-.286.535-.43 1.576-.43 3.123v18.82H324.2v-40.333h7.333v12.776h.2a5.852 5.852 0 0 1 1.977-1.633c.783-.401 1.576-.602 2.378-.602zm28.445 17.732h-1.948c-.935 0-1.609.272-2.02.817-.41.544-.615 1.398-.615 2.563 0 .65.153 1.19.458 1.619.306.43.745.644 1.318.644.65 0 1.18-.162 1.59-.487.41-.324.697-.787.86-1.389a9.288 9.288 0 0 0 .3-1.533c.038-.42.057-.945.057-1.575v-.659zm-.916-17.732c1.642 0 3.084.253 4.325.76 1.242.506 2.263 1.465 3.065 2.878.573 1.013.86 2.578.86 4.698V290.2h-7.334v-1.518h-.286c-1.07 1.317-2.425 1.976-4.068 1.976-2.024 0-3.79-.869-5.3-2.606-1.508-1.738-2.262-3.896-2.262-6.474 0-2.808.84-5.118 2.52-6.933a8.913 8.913 0 0 1 1.963-1.59 7.042 7.042 0 0 1 2.148-.845 15.742 15.742 0 0 1 1.776-.286 19.48 19.48 0 0 1 1.619-.057h1.89v-2.98c0-.381-.162-.74-.487-1.074-.324-.334-.744-.501-1.26-.501-1.757 0-4.23.181-7.42.544v-6.903c3.152-.363 5.902-.545 8.25-.545zm18.534 20.396c-.134-1.375-.201-3.132-.201-5.27 0-2.14.072-3.896.215-5.272a12.697 12.697 0 0 1 1.017-3.867c1.738-3.991 4.975-5.987 9.71-5.987 2.159 0 4.832.172 8.022.516v6.875c-3.228-.344-5.901-.516-8.021-.516-.821 0-1.47.22-1.948.66-.478.438-.87 1.107-1.175 2.004-.324.993-.487 2.855-.487 5.586 0 2.731.163 4.593.487 5.586.306.898.697 1.566 1.175 2.005.477.44 1.127.66 1.948.66 2.234 0 5.003-.249 8.307-.745v6.875c-3.285.496-6.054.744-8.307.744-4.736 0-7.973-1.995-9.711-5.987a12.994 12.994 0 0 1-1.031-3.867zm37.382 9.396H412.2v-40.333h7.333v20.367l4.784-9.367h7.906l-6.502 12.69 7.849 16.643h-7.906l-4.784-10.112-1.347 2.807v7.305z" fill="#04822A"/>
  </g>
</svg>
