<?xml version="1.0" encoding="UTF-8" standalone="no"?>
<!-- Created with Inkscape (http://www.inkscape.org/) -->

<svg
   xmlns:dc="http://purl.org/dc/elements/1.1/"
   xmlns:cc="http://creativecommons.org/ns#"
   xmlns:rdf="http://www.w3.org/1999/02/22-rdf-syntax-ns#"
   xmlns:svg="http://www.w3.org/2000/svg"
   xmlns="http://www.w3.org/2000/svg"
   xmlns:sodipodi="http://sodipodi.sourceforge.net/DTD/sodipodi-0.dtd"
   xmlns:inkscape="http://www.inkscape.org/namespaces/inkscape"
   id="svg2"
   version="1.1"
   inkscape:version="0.92.1 r"
   xml:space="preserve"
   width="236.45876"
   height="62.5"
   viewBox="0 0 236.45876 62.5"
   sodipodi:docname="born-logo-small-2017-stencil.svg"><metadata
     id="metadata8"><rdf:RDF><cc:Work
         rdf:about=""><dc:format>image/svg+xml</dc:format><dc:type
           rdf:resource="http://purl.org/dc/dcmitype/StillImage" /><dc:title></dc:title></cc:Work></rdf:RDF></metadata><defs
     id="defs6"><clipPath
       clipPathUnits="userSpaceOnUse"
       id="clipPath20"><path
         d="m 0,50 189.167,0 0,-50 L 0,0 0,50 Z"
         id="path22"
         inkscape:connector-curvature="0" /></clipPath></defs><sodipodi:namedview
     pagecolor="#ffffff"
     bordercolor="#666666"
     borderopacity="1"
     objecttolerance="10"
     gridtolerance="10"
     guidetolerance="10"
     inkscape:pageopacity="0"
     inkscape:pageshadow="2"
     inkscape:window-width="1276"
     inkscape:window-height="761"
     id="namedview4"
     showgrid="false"
     inkscape:zoom="7.8707388"
     inkscape:cx="121.94715"
     inkscape:cy="18.043605"
     inkscape:window-x="0"
     inkscape:window-y="18"
     inkscape:window-maximized="0"
     inkscape:current-layer="g10"
     showguides="false" /><g
     id="g10"
     inkscape:groupmode="layer"
     inkscape:label="logo-small-2017"
     transform="matrix(1.25,0,0,-1.25,0,62.5)"><g
       id="g12"
       transform="translate(34.0908,47.4067)"><path
         d="m 0,0 0,-1.13 2.174,-1.392 1.044,-3.218 0.956,-0.347 0.522,0.26 1.044,-0.956 0.956,0.087 0.783,-1.653 0.783,0 2.696,-1.217 0.435,-0.609 0.435,0.087 1.565,0.783 0.522,-0.522 1.043,-2.522 2.087,-1.739 0.87,-0.087 3.566,-2.435 2.348,-0.957 0.87,0.261 1.913,-1.826 -0.348,-0.696 0.174,-0.261 -0.87,-0.783 0.435,-1.478 -0.261,-0.261 0.609,-1.479 0.087,-1.217 -0.957,-1.131 0,-1.217 -0.956,-0.87 0,-0.696 -0.783,-0.956 0.261,-0.87 0.348,-1.131 0.174,-0.521 -2.783,-3.392 -0.783,-0.609 -1.13,0.696 -1.827,0.174 -0.782,0.435 -3.74,0.869 -1.913,1.305 -0.609,-0.174 -1.218,1.217 -3.826,1.392 -0.174,0.522 -1.218,-0.174 -2.435,1.391 -1.13,-0.434 -2.783,1.826 -0.783,1.391 -0.87,0 -1.13,1.305 -0.087,0.783 -0.696,0.347 0.522,1.305 0.087,1.391 0.522,3.479 -1.044,3.739 0.87,4.61 L -2.087,-4 -1.739,-0.957 0,0 Z"
         style="fill:#ffffff;fill-opacity:1;fill-rule:evenodd;stroke:none"
         id="path14"
         inkscape:connector-curvature="0" /></g><g
       id="g16"><path
         style="color:#000000;font-style:normal;font-variant:normal;font-weight:normal;font-stretch:normal;font-size:medium;line-height:normal;font-family:sans-serif;font-variant-ligatures:normal;font-variant-position:normal;font-variant-caps:normal;font-variant-numeric:normal;font-variant-alternates:normal;font-feature-settings:normal;text-indent:0;text-align:start;text-decoration:none;text-decoration-line:none;text-decoration-style:solid;text-decoration-color:#000000;letter-spacing:normal;word-spacing:normal;text-transform:none;writing-mode:lr-tb;direction:ltr;text-orientation:mixed;dominant-baseline:auto;baseline-shift:baseline;text-anchor:start;white-space:normal;shape-padding:0;clip-rule:nonzero;display:inline;overflow:visible;visibility:visible;opacity:1;isolation:auto;mix-blend-mode:normal;color-interpolation:sRGB;color-interpolation-filters:linearRGB;solid-color:#000000;solid-opacity:1;vector-effect:none;fill:#000000;fill-opacity:1;fill-rule:nonzero;stroke:none;stroke-width:2.17499995;stroke-linecap:square;stroke-linejoin:miter;stroke-miterlimit:3.79999995;stroke-dasharray:none;stroke-dashoffset:0;stroke-opacity:1;color-rendering:auto;image-rendering:auto;shape-rendering:auto;text-rendering:auto;enable-background:accumulate"
         d="M 43.701172 1.4023438 L 39.423828 3.7578125 L 38.943359 7.953125 L 36.025391 14.548828 L 34.865234 20.683594 L 36.175781 25.378906 L 35.550781 29.542969 L 35.451172 31.154297 L 34.492188 33.554688 L 35.726562 34.169922 L 35.808594 34.898438 L 37.767578 37.160156 L 38.714844 37.160156 L 39.513672 38.574219 L 41.427734 39.830078 L 41.427734 37.228516 L 41.150391 37.046875 L 39.988281 34.986328 L 38.761719 34.986328 L 37.894531 33.984375 L 37.757812 32.753906 L 37.255859 32.501953 L 37.599609 31.638672 L 37.716797 29.773438 L 38.396484 25.242188 L 37.097656 20.587891 L 38.115234 15.197266 L 41.066406 8.53125 L 41.457031 5.1191406 L 41.525391 5.0839844 L 41.525391 5.25 L 44.416016 7.0996094 L 45.765625 11.257812 L 47.898438 12.03125 L 48.300781 11.833984 L 49.408203 12.847656 L 50.324219 12.763672 L 51.273438 14.765625 L 52.707031 14.765625 L 53.496094 15.121094 L 53.496094 12.734375 L 53.175781 12.589844 L 52.652344 12.589844 L 51.640625 10.460938 L 50.167969 10.59375 L 48.667969 9.21875 L 47.763672 9.6699219 L 47.507812 9.5742188 L 46.246094 5.6875 L 43.701172 4.0605469 L 43.701172 3.2421875 L 43.701172 1.4023438 z M 54.498047 13.1875 L 54.498047 15.574219 L 55.595703 16.070312 L 56.378906 17.166016 L 57.753906 16.890625 L 59.111328 16.210938 L 60.408203 19.341797 L 63.478516 21.902344 L 64.623047 22.013672 L 66.837891 23.527344 L 66.837891 20.894531 L 65.390625 19.90625 L 64.359375 19.802734 L 62.214844 18.015625 L 60.929688 14.910156 L 59.570312 13.548828 L 57.287109 14.691406 L 57.027344 14.328125 L 54.498047 13.1875 z M 67.837891 21.576172 L 67.837891 24.210938 L 68.947266 24.96875 L 72.34375 26.351562 L 73.193359 26.097656 L 74.544922 27.390625 L 74.189453 28.105469 L 74.234375 28.173828 L 73.337891 28.982422 L 73.890625 30.867188 L 73.507812 31.25 L 74.480469 33.605469 L 74.546875 34.511719 L 73.376953 35.888672 L 73.376953 37.328125 L 72.183594 38.417969 L 72.183594 39.378906 L 71.083984 40.722656 L 71.578125 42.367188 L 72.017578 43.796875 L 72.048828 43.888672 L 69.027344 47.574219 L 68.740234 47.794922 L 67.837891 47.238281 L 67.837891 49.794922 L 68.884766 50.439453 L 70.554688 49.140625 L 74.492188 44.339844 L 74.085938 43.132812 L 73.65625 41.734375 L 73.498047 41.207031 L 74.357422 40.15625 L 74.357422 39.378906 L 75.550781 38.291016 L 75.550781 36.6875 L 76.777344 35.242188 L 76.623047 33.099609 L 76.072266 31.761719 L 76.34375 31.492188 L 75.810547 29.681641 L 77.087891 28.533203 L 76.699219 27.949219 L 77.208984 26.925781 L 73.78125 23.652344 L 72.457031 24.046875 L 69.982422 23.041016 L 67.837891 21.576172 z M 42.427734 37.884766 L 42.427734 40.486328 L 43.679688 41.308594 L 45.130859 40.75 L 48.048828 42.419922 L 49.042969 42.277344 L 49.140625 42.566406 L 53.496094 44.150391 L 53.496094 41.837891 L 50.871094 40.880859 L 50.53125 39.869141 L 48.480469 40.162109 L 45.3125 38.349609 L 43.939453 38.876953 L 42.427734 37.884766 z M 54.498047 42.203125 L 54.498047 44.710938 L 55.994141 46.208984 L 56.878906 45.955078 L 59.019531 47.412109 L 63.742188 48.511719 L 64.785156 49.091797 L 66.837891 49.287109 L 66.837891 47.101562 L 65.447266 46.96875 L 64.533203 46.462891 L 59.90625 45.386719 L 57.263672 43.582031 L 56.628906 43.765625 L 55.384766 42.525391 L 54.498047 42.203125 z "
         transform="matrix(0.8,0,0,-0.8,0,50)"
         id="path26" /><g
         transform="translate(65.8247,18.8291)"
         id="g28"><path
           style="fill:#000000;fill-opacity:1;fill-rule:nonzero;stroke:none;stroke-width:1.25"
           d="M 82.28125 9.3476562 L 82.28125 38.962891 L 89.326172 38.962891 L 89.326172 35.669922 L 86.308594 35.669922 L 86.308594 25.158203 L 89.326172 25.158203 L 89.326172 21.865234 L 86.308594 21.865234 L 86.308594 9.3476562 L 82.28125 9.3476562 z M 99.597656 9.3476562 L 96.066406 16.826172 C 95.551406 17.923672 95.062109 18.809375 94.599609 19.484375 C 94.149609 20.158125 93.727578 20.648125 93.330078 20.953125 C 92.920078 21.270625 92.437812 21.501484 91.882812 21.646484 C 91.397268 21.776261 90.875591 21.839681 90.326172 21.853516 L 90.326172 25.158203 L 90.691406 25.158203 C 92.608906 25.158203 94.037812 25.586562 94.976562 26.445312 C 95.440313 26.869062 95.790547 27.412969 96.029297 28.074219 C 96.266797 28.734219 96.384766 29.494766 96.384766 30.353516 C 96.384766 31.213516 96.260312 31.975469 96.007812 32.636719 C 95.770312 33.296719 95.398984 33.857812 94.896484 34.320312 C 94.420234 34.744062 93.819297 35.076953 93.091797 35.314453 C 92.378047 35.553203 91.524453 35.669922 90.533203 35.669922 L 90.326172 35.669922 L 90.326172 38.962891 L 90.533203 38.962891 C 93.785703 38.962891 96.280469 38.230469 98.011719 36.761719 C 98.885469 36.021719 99.531328 35.121953 99.955078 34.064453 C 100.39133 33.006953 100.60938 31.807656 100.60938 30.472656 C 100.60938 29.427656 100.47789 28.510547 100.21289 27.716797 C 99.947891 26.936797 99.552187 26.234531 99.023438 25.613281 C 97.964687 24.369531 96.465234 23.609531 94.521484 23.332031 C 95.050234 23.199531 95.538281 23.002031 95.988281 22.738281 C 96.438281 22.487031 96.828203 22.189453 97.158203 21.845703 C 97.528203 21.461953 97.925156 20.918047 98.347656 20.216797 C 98.783906 19.529297 99.29375 18.605156 99.875 17.441406 L 103.90234 9.3476562 L 99.597656 9.3476562 z "
           transform="matrix(0.8,0,0,-0.8,-65.8247,31.1709)"
           id="path30" /></g><g
         transform="translate(85.312,18.8291)"
         id="g32"><path
           inkscape:connector-curvature="0"
           id="path34"
           style="fill:#000000;fill-opacity:1;fill-rule:nonzero;stroke:none"
           d="m 0,0 h 4.062 l 7.999,19.503 V 0 h 3.094 V 23.693 H 11.093 L 3.095,4.189 V 23.693 H 0 Z" /></g><g
         transform="translate(104.8311,18.8291)"
         id="g36"><path
           inkscape:connector-curvature="0"
           id="path38"
           style="fill:#000000;fill-opacity:1;fill-rule:nonzero;stroke:none"
           d="m 0,0 h 3.222 v 9.712 h 8.775 V 0 h 3.222 V 23.693 H 11.997 V 12.41 H 3.222 V 23.693 H 0 Z" /></g><g
         transform="translate(153.5337,42.9824)"
         id="g40"><path
           inkscape:connector-curvature="0"
           id="path42"
           style="fill:#000000;fill-opacity:1;fill-rule:nonzero;stroke:none"
           d="m 0,0 c -1.481,0 -2.819,-0.265 -4.015,-0.794 -1.185,-0.529 -2.2,-1.338 -3.047,-2.428 -0.835,-1.079 -1.465,-2.375 -1.888,-3.887 -0.413,-1.524 -0.619,-3.243 -0.619,-5.158 0,-1.915 0.206,-3.634 0.619,-5.157 0.423,-1.524 1.058,-2.83 1.904,-3.92 0.846,-1.09 1.862,-1.899 3.047,-2.428 1.185,-0.54 2.518,-0.81 3.999,-0.81 0.508,0 0.995,0.032 1.46,0.096 0.476,0.052 0.905,0.127 1.285,0.222 0.381,0.095 0.799,0.233 1.254,0.412 0.455,0.17 0.873,0.36 1.254,0.572 v 3.284 c -0.773,-0.645 -1.614,-1.137 -2.524,-1.475 -0.455,-0.17 -0.909,-0.297 -1.364,-0.381 -0.445,-0.085 -0.905,-0.127 -1.381,-0.127 -1.026,0 -1.931,0.201 -2.713,0.603 -0.773,0.402 -1.418,1.005 -1.937,1.809 -1.037,1.608 -1.555,4.036 -1.555,7.284 0,3.238 0.518,5.66 1.555,7.268 1.037,1.608 2.598,2.412 4.682,2.412 0.476,0 0.936,-0.042 1.38,-0.126 0.456,-0.085 0.91,-0.212 1.365,-0.381 0.878,-0.328 1.709,-0.821 2.492,-1.476 v 3.284 C 4.428,-0.868 3.592,-0.54 2.745,-0.317 2.333,-0.212 1.888,-0.132 1.412,-0.08 0.947,-0.026 0.476,0 0,0" /></g><g
         transform="translate(163.4834,18.8291)"
         id="g44"><path
           inkscape:connector-curvature="0"
           id="path46"
           style="fill:#000000;fill-opacity:1;fill-rule:nonzero;stroke:none"
           d="M 0,0 H 3.222 V 10.537 L 13.235,0 h 3.761 l -9.22,9.681 9.49,14.012 H 13.394 L 5.666,11.823 3.222,14.425 v 9.268 H 0 Z" /></g><g
         transform="translate(9.251,42.5376)"
         id="g48"><path
           style="fill:#000000;fill-opacity:1;fill-rule:nonzero;stroke:none;stroke-width:1.25"
           d="M 11.564453 9.328125 L 11.564453 38.943359 L 18.9375 38.943359 L 18.9375 35.650391 L 15.589844 35.650391 L 15.589844 24.798828 L 18.9375 24.798828 L 18.9375 21.546875 L 15.589844 21.546875 L 15.589844 12.621094 L 18.9375 12.621094 L 18.9375 9.328125 L 11.564453 9.328125 z M 19.939453 9.328125 L 19.939453 12.621094 L 20.251953 12.621094 C 22.208203 12.621094 23.616563 12.950078 24.476562 13.611328 C 24.899062 13.942578 25.218438 14.379375 25.429688 14.921875 C 25.642188 15.450625 25.746094 16.1125 25.746094 16.90625 C 25.746094 18.50625 25.315781 19.674766 24.457031 20.416016 C 24.020781 20.798516 23.458984 21.084531 22.771484 21.269531 C 22.096484 21.454531 21.255703 21.546875 20.251953 21.546875 L 19.939453 21.546875 L 19.939453 24.798828 L 20.332031 24.798828 C 22.540781 24.798828 24.171719 25.248438 25.230469 26.148438 C 26.275469 27.060937 26.798828 28.482813 26.798828 30.414062 C 26.798828 32.277813 26.303047 33.613672 25.310547 34.419922 C 24.305547 35.239922 22.645781 35.650391 20.332031 35.650391 L 19.939453 35.650391 L 19.939453 38.943359 L 20.332031 38.943359 C 23.797031 38.943359 26.413047 38.255859 28.185547 36.880859 C 29.944297 35.518359 30.824219 33.501328 30.824219 30.830078 C 30.824219 29.745078 30.685703 28.767031 30.408203 27.894531 C 30.130703 27.022031 29.720937 26.247969 29.179688 25.574219 C 28.080938 24.224219 26.553203 23.3975 24.595703 23.09375 C 25.481953 22.96125 26.249688 22.730391 26.898438 22.400391 C 27.545938 22.056641 28.080156 21.633359 28.503906 21.130859 C 28.913906 20.628359 29.232031 20.027422 29.457031 19.326172 C 29.682031 18.611172 29.792969 17.791484 29.792969 16.865234 C 29.792969 14.457734 28.973984 12.599766 27.333984 11.291016 C 25.680234 9.9810156 23.347031 9.328125 20.332031 9.328125 L 19.939453 9.328125 z "
           transform="matrix(0.8,0,0,-0.8,-9.251,7.4624)"
           id="path50" /></g><g
         transform="translate(130.2544,42.5376)"
         id="g52"><path
           style="fill:#000000;fill-opacity:1;fill-rule:nonzero;stroke:none;stroke-width:1.25"
           d="M 162.81836 9.328125 L 153.75391 38.943359 L 157.89844 38.943359 L 160.04102 31.226562 L 164.66797 31.226562 L 164.66797 28.013672 L 161.01367 28.013672 L 165.23828 12.859375 L 169.46289 28.013672 L 165.66992 28.013672 L 165.66992 31.226562 L 170.41602 31.226562 L 172.59766 38.943359 L 176.74219 38.943359 L 167.67773 9.328125 L 162.81836 9.328125 z "
           transform="matrix(0.8,0,0,-0.8,-130.2544,7.4624)"
           id="path54" /></g></g><path
       inkscape:connector-curvature="0"
       id="path4916"
       style="font-variant:normal;font-weight:500;font-stretch:normal;font-size:medium;font-family:Inconsolata;-inkscape-font-specification:Inconsolata;writing-mode:lr-tb;fill:#000000;fill-opacity:1;fill-rule:nonzero;stroke:none"
       d="m 66.4971,15.5492 h 0.902 l 2.5256,-5.002 2.5748,5.0184 h 0.8692 V 5.332 H 72.2863 V 13.04 L 70.0723,8.9235999 H 69.6295 L 67.5631,12.9908 V 5.332 h -1.066 z" /><path
       inkscape:connector-curvature="0"
       id="path4918"
       d="m 78.190625,12.990625 c -1.1152,0 -2.006504,-0.350267 -2.673438,-1.05 L 76.090625,11.1875 c 0.535733,0.5576 1.208121,0.835938 2.017188,0.835938 0.656,0 1.137616,-0.148551 1.443749,-0.443751 0.317067,-0.2952 0.474998,-0.814345 0.474998,-1.557812 V 9.7437504 h -1.409373 c -0.180121,-0.0064 -0.341553,-0.025672 -0.509374,-0.040624 v -0.882812 c 0.25542,0.024104 0.537441,0.037496 0.853125,0.037496 0.1312,0 0.262549,-0.00472 0.393749,-0.015624 h 0.442188 0.279685 V 8.35 c 0,-0.3717336 -0.05472,-0.6672712 -0.16406,-0.8859376 C 79.857836,7.343796 79.770266,7.2015 79.65,7.0375 79.529734,6.8844336 79.3718,6.731192 79.175,6.5781248 78.9782,6.435992 78.748338,6.310896 78.485938,6.2015624 c -0.118459,-0.044424 -0.246298,-0.075632 -0.378125,-0.1 V 5.2218752 c 0.698745,0.128212 1.345055,0.4359368 1.935939,0.9296872 V 5.3312496 h 1.115624 v 4.642188 c 0,1.0824004 -0.268952,1.8533004 -0.804688,2.3125004 -0.524801,0.470133 -1.245663,0.704687 -2.164063,0.704687 z M 77.7375,9.6703128 C 76.932729,9.5630064 76.284251,9.3478344 75.795313,9.0218752 c -0.645067,-0.4373336 -0.967188,-1.0331 -0.967188,-1.7875 0,-0.2514672 0.05473,-0.5032208 0.164062,-0.754688 C 75.112454,6.2282208 75.281334,6.0046128 75.5,5.8078128 c 0.218667,-0.1968 0.481366,-0.356296 0.7875,-0.4765632 0.317066,-0.1202664 0.672025,-0.1796872 1.065625,-0.1796872 0.131301,0 0.256502,0.0212 0.384375,0.032816 v 0.8796872 c -0.04684,-0.00216 -0.08924,-0.010936 -0.1375,-0.010936 -0.448266,0 -0.825117,0.1266584 -1.13125,0.3781248 -0.306133,0.2514672 -0.459375,0.551696 -0.459375,0.9015632 0,0.2077328 0.03753,0.398504 0.114063,0.5734368 0.08747,0.1858672 0.240708,0.3500544 0.459375,0.492188 0.218666,0.1421336 0.518895,0.2515912 0.901562,0.3281248 0.07378,0.016864 0.171216,0.023888 0.253125,0.037496 z"
       style="font-variant:normal;font-weight:500;font-stretch:normal;font-size:medium;font-family:Inconsolata;-inkscape-font-specification:Inconsolata;writing-mode:lr-tb;fill:#000000;fill-opacity:1;fill-rule:nonzero;stroke:none;stroke-width:1" /><path
       inkscape:connector-curvature="0"
       id="path4920"
       style="font-variant:normal;font-weight:500;font-stretch:normal;font-size:medium;font-family:Inconsolata;-inkscape-font-specification:Inconsolata;writing-mode:lr-tb;fill:#000000;fill-opacity:1;fill-rule:nonzero;stroke:none"
       d="m 83.3071,16.238 h 1.3448 q 0,-0.0984 -0.082,-0.2132 Q 84.5043,15.91 84.5043,15.8116 V 9.3827999 L 88.259899,12.8596 q 0.3772,-0.082 0.8692,-0.082 h 0.4264 L 86.4067,9.8091999 90.080299,5.332 88.555099,5.2664 85.4883,9.0875999 l -0.984,-0.9184 V 5.332 h -1.1972 z" /><path
       inkscape:connector-curvature="0"
       id="path4922"
       d="m 94.712496,13.004687 v -0.9125 c 0.22532,-0.0143 0.438744,-0.05915 0.632816,-0.151562 0.240536,-0.109333 0.446944,-0.256321 0.621872,-0.442187 0.174936,-0.174934 0.312544,-0.387596 0.410944,-0.639063 0.109328,-0.240533 0.164056,-0.498541 0.164056,-0.771875 0,-0.05466 -0.0064,-0.1031416 -0.0172,-0.1468752 V 9.825 H 94.71248 V 8.9078128 h 2.978128 c 0.01096,0.087466 0.0156,0.1750328 0.0156,0.2625 0.01096,0.0984 0.0172,0.1906584 0.0172,0.2781248 0,0.6122664 -0.08757,1.1423584 -0.262504,1.5906244 -0.164,0.448267 -0.389168,0.814172 -0.673432,1.098438 -0.273336,0.2952 -0.595456,0.514117 -0.967192,0.65625 -0.3588,0.137188 -0.72864,0.206164 -1.107816,0.210937 z m -0.370312,-0.02813 c -0.355416,-0.03159 -0.696872,-0.0977 -1.014056,-0.231249 -0.415472,-0.174934 -0.782936,-0.432942 -1.1,-0.771876 -0.306136,-0.328 -0.55164,-0.737688 -0.737504,-1.229687 -0.174936,-0.492 -0.262496,-1.0549294 -0.262496,-1.689063 0,-0.6232 0.08756,-1.1814376 0.262496,-1.6734376 0.174936,-0.4810664 0.420432,-0.8844992 0.737504,-1.2124992 0.317064,-0.328 0.700168,-0.5797544 1.148432,-0.754688 0.4592,-0.164 0.962712,-0.245312 1.509376,-0.245312 1.1152,0 1.989304,0.3815416 2.62344,1.1468744 l -0.656248,0.6406248 c -0.513872,-0.5576 -1.158112,-0.8374992 -1.934376,-0.8374992 -0.2952,-8e-7 -0.590736,0.043784 -0.885936,0.1312496 -0.2952,0.0984 -0.562592,0.257896 -0.803128,0.4765624 -0.240536,0.2186664 -0.443816,0.501696 -0.607816,0.8515624 -0.153064,0.3608 -0.240632,0.804888 -0.262496,1.329688 h 1.982808 V 9.825 h -1.932808 c 0.109336,0.7872 0.372032,1.361075 0.787496,1.721875 0.346928,0.310403 0.729784,0.483163 1.145312,0.534375 z"
       style="font-variant:normal;font-weight:500;font-stretch:normal;font-size:medium;font-family:Inconsolata;-inkscape-font-specification:Inconsolata;writing-mode:lr-tb;fill:#000000;fill-opacity:1;fill-rule:nonzero;stroke:none;stroke-width:1" /><path
       inkscape:connector-curvature="0"
       id="path4924"
       style="font-variant:normal;font-weight:500;font-stretch:normal;font-size:medium;font-family:Inconsolata;-inkscape-font-specification:Inconsolata;writing-mode:lr-tb;fill:#000000;fill-opacity:1;fill-rule:nonzero;stroke:none"
       d="m 107.3331,15.5656 h 7.0848 v -1.0332 h -3.0176 V 5.332 h -1.1644 v 9.2004 h -2.9028 z" /><path
       inkscape:connector-curvature="0"
       id="path4926"
       style="font-variant:normal;font-weight:500;font-stretch:normal;font-size:medium;font-family:Inconsolata;-inkscape-font-specification:Inconsolata;writing-mode:lr-tb;fill:#000000;fill-opacity:1;fill-rule:nonzero;stroke:none"
       d="m 116.6483,12.8268 h 1.23 l -0.0328,-1.4432 q 0.3444,0.7872 1.0824,1.1972 0.7544,0.4264 1.6072,0.4264 1.2136,0 2.0008,-0.82 l -0.5412,-1.1316 q -0.1804,0.246 -0.328,0.41 -0.1476,0.164 -0.328,0.2788 -0.164,0.1148 -0.3772,0.1804 -0.1968,0.0656 -0.492,0.0656 -0.5412,0 -1.0168,-0.2624 -0.4756,-0.246 -0.8364,-0.6724 -0.3444,-0.41 -0.5576,-0.9512 -0.2132,-0.5412001 -0.2132,-1.1316001 V 5.3156 h -1.1972 z" /><path
       style="font-variant:normal;font-weight:500;font-stretch:normal;font-size:medium;font-family:Inconsolata;-inkscape-font-specification:Inconsolata;writing-mode:lr-tb;fill:#000000;fill-opacity:1;fill-rule:nonzero;stroke:none;stroke-width:1.25"
       d="M 159.23828 46.261719 C 157.84428 46.261719 156.73015 46.699552 155.89648 47.574219 L 156.61328 48.515625 C 157.28295 47.818625 158.12343 47.470703 159.13477 47.470703 C 159.95477 47.470703 160.55679 47.656391 160.93945 48.025391 C 161.33579 48.394391 161.5332 49.043323 161.5332 49.972656 L 161.5332 50.320312 L 159.77148 50.320312 C 159.51523 50.329464 159.28321 50.355965 159.04688 50.378906 L 159.04688 51.488281 C 159.39028 51.45168 159.76627 51.427734 160.20117 51.427734 C 160.36517 51.427734 160.52936 51.433599 160.69336 51.447266 L 161.24609 51.447266 L 161.5957 51.447266 L 161.5957 52.0625 C 161.5957 52.527167 161.52729 52.896589 161.39062 53.169922 C 161.32229 53.320255 161.21283 53.498125 161.0625 53.703125 C 160.91217 53.894458 160.71475 54.08601 160.46875 54.277344 C 160.22275 54.45501 159.93542 54.61138 159.60742 54.748047 C 159.43298 54.813463 159.24451 54.86 159.04688 54.890625 L 159.04688 55.986328 C 159.95406 55.836457 160.79147 55.448304 161.55469 54.810547 L 161.55469 55.835938 L 162.94922 55.835938 L 162.94922 50.033203 C 162.94922 48.680203 162.61303 47.716578 161.94336 47.142578 C 161.28736 46.554911 160.38628 46.261719 159.23828 46.261719 z M 158.58594 50.427734 C 157.62217 50.565843 156.83674 50.827588 156.24414 51.222656 C 155.43781 51.769323 155.03516 52.514031 155.03516 53.457031 C 155.03516 53.771365 155.10357 54.086057 155.24023 54.400391 C 155.39057 54.714724 155.60167 54.994234 155.875 55.240234 C 156.14833 55.486234 156.47671 55.685604 156.85938 55.835938 C 157.25571 55.986271 157.69941 56.060547 158.19141 56.060547 C 158.32616 56.060547 158.45407 56.037131 158.58594 56.027344 L 158.58594 54.925781 C 158.55619 54.926448 158.53019 54.933594 158.5 54.933594 C 157.93967 54.933594 157.4686 54.775271 157.08594 54.460938 C 156.70327 54.146604 156.51172 53.771318 156.51172 53.333984 C 156.51172 53.074318 156.55863 52.835854 156.6543 52.617188 C 156.76363 52.384854 156.95518 52.17962 157.22852 52.001953 C 157.50185 51.824286 157.87714 51.687464 158.35547 51.591797 C 158.42269 51.576432 158.51332 51.569846 158.58594 51.556641 L 158.58594 50.427734 z "
       transform="matrix(0.8,0,0,-0.8,0,50)"
       id="path4928" /><path
       style="font-variant:normal;font-weight:500;font-stretch:normal;font-size:medium;font-family:Inconsolata;-inkscape-font-specification:Inconsolata;writing-mode:lr-tb;fill:#000000;fill-opacity:1;fill-rule:nonzero;stroke:none;stroke-width:1.25"
       d="M 171.88672 42.203125 L 171.88672 47.839844 C 171.65439 47.347844 171.29865 46.958875 170.82031 46.671875 C 170.40441 46.402762 169.90707 46.260664 169.33789 46.232422 L 169.33789 47.431641 C 169.34759 47.431574 169.35547 47.429688 169.36523 47.429688 C 169.55657 47.429688 169.75398 47.470734 169.95898 47.552734 C 170.17765 47.621068 170.41025 47.730526 170.65625 47.880859 C 170.86125 48.003859 171.0313 48.146547 171.16797 48.310547 C 171.30464 48.46088 171.41409 48.66025 171.49609 48.90625 C 171.59176 49.15225 171.66017 49.45326 171.70117 49.808594 C 171.74217 50.15026 171.76367 50.580276 171.76367 51.099609 C 171.76367 51.919609 171.68744 52.576359 171.53711 53.068359 C 171.45511 53.328026 171.33197 53.558672 171.16797 53.763672 C 171.00397 53.968672 170.82023 54.146542 170.61523 54.296875 C 170.41023 54.447208 170.19132 54.564484 169.95898 54.646484 C 169.73912 54.71115 169.53328 54.738717 169.33789 54.742188 L 169.33789 56.017578 C 169.76092 55.96908 170.18137 55.829722 170.5957 55.589844 C 171.11504 55.27551 171.52355 54.857224 171.82422 54.337891 L 171.82422 55.138672 C 171.82422 55.439339 171.85158 55.671937 171.90625 55.835938 L 173.38281 55.835938 C 173.31448 55.589937 173.28125 55.302609 173.28125 54.974609 L 173.25977 42.777344 C 173.25977 42.681677 173.29495 42.585901 173.36328 42.490234 C 173.43161 42.380901 173.46484 42.285125 173.46484 42.203125 L 171.88672 42.203125 z M 168.87695 46.248047 C 168.48874 46.276789 168.10372 46.351707 167.72461 46.507812 C 167.25994 46.685479 166.83579 46.972807 166.45312 47.369141 C 166.08412 47.751807 165.78507 48.250234 165.55273 48.865234 C 165.3204 49.466568 165.20312 50.197594 165.20312 51.058594 C 165.20312 51.905927 165.30672 52.644771 165.51172 53.273438 C 165.71672 53.888438 165.98841 54.400547 166.33008 54.810547 C 166.68541 55.220547 167.09002 55.527422 167.54102 55.732422 C 167.96318 55.918669 168.40967 56.008353 168.87695 56.025391 L 168.87695 54.701172 C 168.21428 54.59947 167.68741 54.269322 167.31445 53.681641 C 166.86345 52.957307 166.63867 52.007365 166.63867 50.832031 C 166.63867 49.561031 166.93186 48.659953 167.51953 48.126953 C 167.79286 47.880953 168.06651 47.703083 168.33984 47.59375 C 168.50054 47.532532 168.68198 47.491785 168.87695 47.464844 L 168.87695 46.248047 z "
       transform="matrix(0.8,0,0,-0.8,0,50)"
       id="path4930" /><path
       inkscape:connector-curvature="0"
       id="path4932"
       style="font-variant:normal;font-weight:500;font-stretch:normal;font-size:medium;font-family:Inconsolata;-inkscape-font-specification:Inconsolata;writing-mode:lr-tb;fill:#000000;fill-opacity:1;fill-rule:nonzero;stroke:none"
       d="m 141.3631,12.8268 h 3.0012 V 6.2832 h 1.7548 V 5.332 h -4.8544 v 0.9512 h 1.9188 v 5.5924 h -1.8204 z m 1.8368,3.0176 q 0.246,0.246 0.5904,0.246 0.3444,0 0.5904,-0.2624 0.2624,-0.246 0.2624,-0.5904 0,-0.3444 -0.2624,-0.5904 -0.246,-0.246 -0.5904,-0.246 -0.3444,0 -0.5904,0.246 -0.246,0.246 -0.246,0.5904 0,0.3608 0.246,0.6068 z" /><path
       inkscape:connector-curvature="0"
       id="path4934"
       style="font-variant:normal;font-weight:500;font-stretch:normal;font-size:medium;font-family:Inconsolata;-inkscape-font-specification:Inconsolata;writing-mode:lr-tb;fill:#000000;fill-opacity:1;fill-rule:nonzero;stroke:none"
       d="m 150.9079,14.8276 1.2956,0.2132 q 0,-0.1476 -0.0492,-0.2624 -0.0328,-0.1148 -0.0492,-0.1804 l -0.1968,-1.7712 h 2.46 v -0.9676 h -2.46 q -0.1476,-1.4596 -0.1476,-2.7388001 0,-0.7872 0.0328,-1.3284 0.0328,-0.5411999 0.164,-0.8527999 0.1476,-0.3116 0.41,-0.492 0.2624,-0.164 0.7052,-0.164 0.7544,0 1.6728,0.6724 l 0.3608,-0.9348 q -1.1316,-0.8364 -2.3288,-0.8364 -1.1808,0 -1.722,0.7052 -0.5412,0.7216 -0.492,2.3287999 0,0.5904 0.0328,1.5088 0.0328,0.9184001 0.1312,2.1320001 h -1.7548 v 0.9676 h 1.804 z" /><path
       inkscape:connector-curvature="0"
       id="path4936"
       style="font-variant:normal;font-weight:500;font-stretch:normal;font-size:medium;font-family:Inconsolata;-inkscape-font-specification:Inconsolata;writing-mode:lr-tb;fill:#000000;fill-opacity:1;fill-rule:nonzero;stroke:none"
       d="m 157.7631,12.8268 h 3.0012 V 6.2832 h 1.7548 V 5.332 h -4.8544 v 0.9512 h 1.9188 v 5.5924 h -1.8204 z m 1.8368,3.0176 q 0.246,0.246 0.5904,0.246 0.3444,0 0.5904,-0.2624 0.2624,-0.246 0.2624,-0.5904 0,-0.3444 -0.2624,-0.5904 -0.246,-0.246 -0.5904,-0.246 -0.3444,0 -0.5904,0.246 -0.246,0.246 -0.246,0.5904 0,0.3608 0.246,0.6068 z" /><path
       style="font-variant:normal;font-weight:500;font-stretch:normal;font-size:medium;font-family:Inconsolata;-inkscape-font-specification:Inconsolata;writing-mode:lr-tb;fill:#000000;fill-opacity:1;fill-rule:nonzero;stroke:none;stroke-width:1.25"
       d="M 210.50391 46.263672 L 210.50391 47.521484 C 210.84338 47.532518 211.16845 47.605709 211.47266 47.757812 C 211.81432 47.921812 212.11338 48.160276 212.37305 48.474609 C 212.63271 48.788943 212.83795 49.179865 212.98828 49.644531 C 213.15228 50.095531 213.23438 50.613505 213.23438 51.201172 C 213.23438 51.775172 213.1601 52.289234 213.00977 52.740234 C 212.8731 53.191234 212.67373 53.572385 212.41406 53.886719 C 212.16806 54.187385 211.87487 54.419984 211.5332 54.583984 C 211.21618 54.729287 210.872 54.801779 210.50391 54.806641 L 210.50391 56.076172 C 211.0774 56.071538 211.61887 55.967837 212.12695 55.753906 C 212.64629 55.521573 213.0978 55.193198 213.48047 54.769531 C 213.86314 54.332198 214.16415 53.812271 214.38281 53.210938 C 214.60148 52.609604 214.71094 51.92549 214.71094 51.160156 C 214.71094 50.40849 214.59561 49.732193 214.36328 49.130859 C 214.14461 48.515859 213.8436 47.997885 213.46094 47.574219 C 213.07827 47.150552 212.62676 46.828042 212.10742 46.609375 C 211.60649 46.379218 211.0719 46.265828 210.50391 46.263672 z M 210.04102 46.3125 C 209.62674 46.363 209.22021 46.459374 208.82812 46.650391 C 208.29513 46.896391 207.82211 47.238448 207.41211 47.675781 C 207.01578 48.099448 206.69522 48.619375 206.44922 49.234375 C 206.21689 49.849375 206.10156 50.504172 206.10156 51.201172 C 206.10156 51.898172 206.21689 52.549057 206.44922 53.150391 C 206.68155 53.751724 206.99624 54.269698 207.39258 54.707031 C 207.78891 55.130698 208.24629 55.466891 208.76562 55.712891 C 209.16894 55.899034 209.59858 55.989864 210.04102 56.035156 L 210.04102 54.759766 C 209.81387 54.717859 209.5923 54.65292 209.38086 54.542969 C 209.03919 54.365302 208.73818 54.113156 208.47852 53.785156 C 208.23252 53.457156 208.0351 53.068187 207.88477 52.617188 C 207.73443 52.166188 207.6582 51.665807 207.6582 51.119141 C 207.6582 50.558807 207.73443 50.06038 207.88477 49.623047 C 208.0351 49.172047 208.23252 48.788943 208.47852 48.474609 C 208.73818 48.160276 209.03333 47.921813 209.36133 47.757812 C 209.58191 47.651931 209.80904 47.594163 210.04102 47.556641 L 210.04102 46.3125 z "
       transform="matrix(0.8,0,0,-0.8,0,50)"
       id="path4938" /><path
       inkscape:connector-curvature="0"
       id="path4940"
       style="font-variant:normal;font-weight:500;font-stretch:normal;font-size:medium;font-family:Inconsolata;-inkscape-font-specification:Inconsolata;writing-mode:lr-tb;fill:#000000;fill-opacity:1;fill-rule:nonzero;stroke:none"
       d="m 173.5399,5.332 v 7.4948 h 1.2136 v -1.3284 q 0.4264,0.6888 1.0824,1.0988 0.6724,0.41 1.3612,0.41 0.492,0 0.9184,-0.1804 0.4264,-0.164 0.738,-0.5412 0.3116,-0.3772 0.4756,-0.9676 0.1804,-0.5904 0.1804,-1.4432001 V 5.332 h -1.1644 v 4.5099999 q 0,1.1808001 -0.41,1.6564001 -0.3936,0.4756 -0.9676,0.4756 -0.3772,0 -0.7708,-0.164 -0.3936,-0.164 -0.7216,-0.4756 -0.3116,-0.2952 -0.5248,-0.7216 -0.1968,-0.4264 -0.1968,-0.9676001 V 5.332 Z" /></g></svg>