<?xml version="1.0" encoding="UTF-8" standalone="no"?>
<svg
   xmlns:dc="http://purl.org/dc/elements/1.1/"
   xmlns:cc="http://creativecommons.org/ns#"
   xmlns:rdf="http://www.w3.org/1999/02/22-rdf-syntax-ns#"
   xmlns:svg="http://www.w3.org/2000/svg"
   xmlns="http://www.w3.org/2000/svg"
   xmlns:sodipodi="http://sodipodi.sourceforge.net/DTD/sodipodi-0.dtd"
   xmlns:inkscape="http://www.inkscape.org/namespaces/inkscape"
   height="737.32263"
   width="687.37067"
   inkscape:version="1.0 (4035a4fb49, 2020-05-01)"
   version="1.1"
   viewBox="0 0 644.40997 691.23999"
   sodipodi:docname="B7a.svg"
   id="svg8761">
  <defs
     id="defs33" />
  <sodipodi:namedview
     inkscape:document-rotation="0"
     inkscape:document-units="px"
     inkscape:pageopacity="0.0"
     inkscape:window-width="1920"
     fit-margin-bottom="0"
     fit-margin-right="0"
     fit-margin-top="0"
     inkscape:cy="255.0027"
     inkscape:cx="303.85845"
     inkscape:current-layer="g10138"
     borderopacity="1.0"
     showgrid="false"
     inkscape:window-x="0"
     inkscape:zoom="0.7"
     inkscape:window-maximized="1"
     inkscape:window-height="1015"
     pagecolor="#ffffff"
     fit-margin-left="0"
     inkscape:window-y="0"
     inkscape:pageshadow="2"
     bordercolor="#666666"
     id="base" />
  <g
     transform="translate(-32.083,-67.306)"
     inkscape:groupmode="layer"
     inkscape:label="Calque 1"
     id="layer1">
    <g
       id="g6144">
      <g
         transform="translate(-15.305,-2.5575)"
         id="g10138">
        <circle
           r="322.14285"
           cy="568.79077"
           cx="77.85714"
           transform="matrix(0.8145,0,0,0.8145,306.18,-71.219)"
           style="fill:none;stroke:#ff0000;stroke-width:110.5"
           id="path8784-6" />
      </g>
      <g
         transform="matrix(0.90695,0,0,0.90695,1311.9,78.193)"
         id="g10088">
        <rect
           x="-1032.1"
           y="276.04999"
           width="25.867001"
           height="42.398998"
           ry="6.1315999"
           style="fill:#000000"
           id="rect9993-6" />
        <rect
           x="-911.12"
           y="276.04999"
           width="25.867001"
           height="42.398998"
           ry="6.1315999"
           style="fill:#000000"
           id="rect9993-8-1" />
        <rect
           x="-279.89999"
           y="-1043.1"
           width="56.676998"
           height="168.16"
           ry="11.187"
           transform="rotate(-90)"
           style="fill:#000000"
           id="rect9993-5-8" />
        <path
           d="m -1028.3,240.2 c 15.026,-60.104 12.122,-60.104 28.032,-60.104 h 84.095 c 18.688,0 14.206,0 25.862,60.104"
           inkscape:connector-curvature="0"
           style="fill:none;stroke:#000000;stroke-width:15"
           sodipodi:nodetypes="cssc"
           id="path10024-9" />
      </g>
      <g
         transform="translate(649.9,8.943)"
         id="g11285">
        <path
           inkscape:connector-curvature="0"
           style="fill:#000000"
           sodipodi:nodetypes="ccsssssssssssscssc"
           d="m -302.69,426.28 c -7.1429,0 -58.929,1.7857 -58.929,1.7857 0,0 -4.2857,-5.7143 -10.714,-6.4286 -6.4286,-0.71429 -24.434,-2.5396 -26.934,-2.5396 -2.5,0 -8.7806,0.0396 -10.566,0.0396 -1.7857,0 -3.9682,-4.1991 -10.945,-4.1991 -5.7143,0 -8.171,5.7935 -8.171,10.436 0,4.6428 6.0498,9.2334 8.7284,9.2334 2.6786,0 10.142,5.2508 14.423,11.14 4.2804,5.8893 7.1592,5.8893 11.322,5.8893 3.153,0 4.5166,0.24881 4.6428,3.9286 0.13052,3.8038 -1.0102,5 -2.4387,5 -1.4286,0 -2.5613,3.9286 -2.5613,7.8571 0,3.9286 3.9286,13.929 10.714,13.929 6.7857,0 45.536,-0.17857 45.536,-0.17857 0,0 -0.89286,-23.393 13.393,-30.357 14.212,-6.9286 20.311,-4.9885 23.929,-5.8929 1.4286,-0.35713 -1.4286,-19.643 -1.4286,-19.643 z"
           id="path10753" />
        <circle
           r="27.857143"
           cy="484.86218"
           cx="-608.92859"
           transform="matrix(1.1346,0,0,1.1346,249.28,-74.213)"
           style="fill:#000000"
           id="path10755" />
        <circle
           r="27.857143"
           cy="484.86218"
           cx="-608.92859"
           transform="matrix(0.73077,0,0,0.73077,3.3685,121.6)"
           style="fill:#ffffff"
           id="path10757" />
        <circle
           r="27.857143"
           cy="484.86218"
           cx="-608.92859"
           transform="matrix(0.41026,0,0,0.41026,-191.8,277)"
           style="fill:#000000"
           id="path10759" />
        <path
           inkscape:connector-curvature="0"
           style="fill:none;stroke:#000000;stroke-width:10;stroke-linecap:round"
           sodipodi:nodetypes="cc"
           d="m -439.65,475.74 c 0,0 27.857,-40.536 29.821,-43.929"
           id="path11269" />
        <path
           inkscape:connector-curvature="0"
           style="fill:none;stroke:#000000;stroke-width:5"
           d="m -403.58,421.99 c 0,-6.6071 0.35714,-11.429 17.857,-14.821"
           id="path11271" />
        <circle
           r="27.857143"
           cy="484.86218"
           cx="-608.92859"
           transform="matrix(1.1346,0,0,1.1346,384.01,-74.213)"
           style="fill:#000000"
           id="path11273" />
        <circle
           r="27.857143"
           cy="484.86218"
           cx="-608.92859"
           transform="matrix(0.73077,0,0,0.73077,138.09,121.6)"
           style="fill:#ffffff"
           id="path11275" />
        <circle
           r="27.857143"
           cy="484.86218"
           cx="-608.92859"
           transform="matrix(0.41026,0,0,0.41026,-57.078,277)"
           style="fill:#000000"
           id="path11277" />
        <path
           inkscape:connector-curvature="0"
           style="fill:none;stroke:#000000;stroke-width:8"
           d="m -271.73,477.73 h -71.468"
           id="path11279" />
        <path
           inkscape:connector-curvature="0"
           style="fill:none;stroke:#000000;stroke-width:5"
           d="m -306.18,477.62 -16.189,-37.017"
           id="path11283" />
      </g>
      <rect
         x="-52.189999"
         y="282"
         width="52.856998"
         height="488.57001"
         ry="0"
         transform="rotate(-45)"
         style="fill:#ff0000"
         id="rect11298" />
      <circle
         r="8.5714283"
         cy="303.43362"
         cx="-405"
         transform="translate(791.43)"
         style="fill:#ffffff"
         id="path11300" />
      <circle
         r="8.5714283"
         cy="303.43362"
         cx="-405"
         transform="translate(902.5)"
         style="fill:#ffffff"
         id="path11302" />
    </g>
  </g>
  <metadata
     id="metadata30">
    <rdf:RDF>
      <cc:Work>
        <dc:format>image/svg+xml</dc:format>
        <dc:type
           rdf:resource="http://purl.org/dc/dcmitype/StillImage" />
        <cc:license
           rdf:resource="http://creativecommons.org/licenses/publicdomain/" />
        <dc:publisher>
          <cc:Agent
             rdf:about="http://openclipart.org/">
            <dc:title>Openclipart</dc:title>
          </cc:Agent>
        </dc:publisher>
        <dc:title>B7a</dc:title>
        <dc:date>2012-11-25T03:40:13</dc:date>
        <dc:description>Road, Sign, France</dc:description>
        <dc:source>https://openclipart.org/detail/173301/b7a-by-desmoric-173301</dc:source>
        <dc:creator>
          <cc:Agent>
            <dc:title>Desmoric</dc:title>
          </cc:Agent>
        </dc:creator>
        <dc:subject>
          <rdf:Bag>
            <rdf:li>France</rdf:li>
            <rdf:li>Road</rdf:li>
            <rdf:li>Sign</rdf:li>
          </rdf:Bag>
        </dc:subject>
      </cc:Work>
      <cc:License
         rdf:about="http://creativecommons.org/licenses/publicdomain/">
        <cc:permits
           rdf:resource="http://creativecommons.org/ns#Reproduction" />
        <cc:permits
           rdf:resource="http://creativecommons.org/ns#Distribution" />
        <cc:permits
           rdf:resource="http://creativecommons.org/ns#DerivativeWorks" />
      </cc:License>
    </rdf:RDF>
  </metadata>
</svg>
