<?xml version="1.0" encoding="UTF-8" standalone="no"?>
<svg
   xmlns:dc="http://purl.org/dc/elements/1.1/"
   xmlns:cc="http://creativecommons.org/ns#"
   xmlns:rdf="http://www.w3.org/1999/02/22-rdf-syntax-ns#"
   xmlns:svg="http://www.w3.org/2000/svg"
   xmlns="http://www.w3.org/2000/svg"
   xmlns:sodipodi="http://sodipodi.sourceforge.net/DTD/sodipodi-0.dtd"
   xmlns:inkscape="http://www.inkscape.org/namespaces/inkscape"
   inkscape:version="1.0 (4035a4fb49, 2020-05-01)"
   sodipodi:docname="hand-desinfection-publicdomainvectors.org.svg"
   viewBox="0 0 800 800"
   height="800"
   width="800"
   xml:space="preserve"
   id="svg2"
   version="1.1"><metadata
     id="metadata8"><rdf:RDF><cc:Work
         rdf:about=""><dc:format>image/svg+xml</dc:format><dc:type
           rdf:resource="http://purl.org/dc/dcmitype/StillImage" /><dc:title></dc:title></cc:Work></rdf:RDF></metadata><defs
     id="defs6"><clipPath
       id="clipPath18"
       clipPathUnits="userSpaceOnUse"><path
         id="path16"
         d="M 0,600 H 600 V 0 H 0 Z" /></clipPath></defs><sodipodi:namedview
     inkscape:current-layer="g14"
     inkscape:window-maximized="1"
     inkscape:window-y="0"
     inkscape:window-x="0"
     inkscape:cy="400"
     inkscape:cx="400"
     inkscape:zoom="0.89375"
     showgrid="false"
     id="namedview4"
     inkscape:window-height="1015"
     inkscape:window-width="1920"
     inkscape:pageshadow="2"
     inkscape:pageopacity="0"
     guidetolerance="10"
     gridtolerance="10"
     objecttolerance="10"
     borderopacity="1"
     bordercolor="#666666"
     pagecolor="#ffffff" /><g
     transform="matrix(1.3333333,0,0,-1.3333333,0,800)"
     inkscape:label="hand-desinfection-publicdomainvectors.org"
     inkscape:groupmode="layer"
     id="g10"><g
       id="g12"><g
         transform="translate(-1.2766165,12.270986)"
         clip-path="url(#clipPath18)"
         id="g14"><path
           id="path70"
           style="fill:#46454b;fill-opacity:1;fill-rule:evenodd;stroke:none"
           d="m 159.286,451.502 -5.287,4.883 c -2.969,2.741 -4.173,6.903 -3.128,10.806 1.046,3.903 4.169,6.905 8.111,7.793 42.591,9.613 87.185,-2.336 119.264,-31.957 2.631,-2.427 6.71,-2.347 9.241,0.184 2.532,2.531 2.612,6.611 0.185,9.24 -44.487,48.177 -112.723,66.461 -175.338,46.982 -9.093,-2.83 -18.83,-2.83 -27.922,0 -1.495,0.464 -3.125,0.073 -4.247,-1.019 -1.122,-1.091 -1.554,-2.71 -1.13,-4.216 0.426,-1.508 1.642,-2.66 3.169,-3.006 16.9,-3.815 35.637,-20.791 29.759,-39.69 l 25.619,-13.02 z" /><path
           id="path72"
           style="fill:#2d2b2d;fill-opacity:1;fill-rule:evenodd;stroke:none"
           d="m 111.963,451.502 h 47.323 v -55.446 h -47.323 z" /><path
           id="path74"
           style="fill:#f28f62;fill-opacity:1;fill-rule:evenodd;stroke:none"
           d="m 431.893,420.589 c -18.442,16.135 -43.322,22.803 -67.361,18.049 H 316.58 c -4.815,2.78 -10.855,2.251 -15.112,-1.323 -4.259,-3.573 -5.831,-9.428 -3.929,-14.653 1.903,-5.223 6.869,-8.701 12.429,-8.701 h 42.95 c 2.324,0 4.208,-1.884 4.208,-4.208 0,-2.323 -1.884,-4.208 -4.208,-4.208 h -69.476 l -24.145,34.44 c -3.126,4.457 -8.602,6.629 -13.931,5.528 -5.331,-1.102 -9.496,-5.267 -10.597,-10.597 -1.102,-5.331 1.069,-10.808 5.524,-13.932 l 20.014,-34.665 c 4.708,-8.152 13.409,-13.174 22.822,-13.174 H 397.65 l 89.454,-86.174 41.694,41.693 z" /><path
           id="path76"
           style="fill:#8ebce7;fill-opacity:1;fill-rule:evenodd;stroke:none"
           d="m 170.309,424.873 h -69.366 v -7.723 h 69.366 z" /><path
           id="path78"
           style="fill:#d5eaf9;fill-opacity:1;fill-rule:evenodd;stroke:none"
           d="m 71.948,419.363 h 127.355 c 26.356,0 47.915,-21.562 47.915,-47.915 V 165.442 c 0,-26.354 -21.562,-47.916 -47.915,-47.916 H 71.948 c -26.352,0 -47.915,21.562 -47.915,47.916 v 206.006 c 0,26.355 21.56,47.915 47.915,47.915" /><path
           id="path80"
           style="fill:#6398d7;fill-opacity:1;fill-rule:evenodd;stroke:none"
           d="M 232.718,337.088 V 165.442 c 0,-18.379 -15.038,-33.417 -33.415,-33.417 H 71.948 c -18.377,0 -33.416,15.038 -33.416,33.417 v 171.646 z" /><path
           id="path82"
           style="fill:#81b2e3;fill-opacity:1;fill-rule:evenodd;stroke:none"
           d="m 84.086,364.257 h 0.001 c 15.43,0 28.054,-12.625 28.054,-28.053 V 209.883 c 0,-15.43 -12.625,-28.054 -28.054,-28.054 h -0.001 c -15.428,0 -28.054,12.624 -28.054,28.054 v 126.321 c 0,15.429 12.624,28.053 28.054,28.053" /><path
           id="path84"
           style="fill:#e9f4fc;fill-opacity:1;fill-rule:evenodd;stroke:none"
           d="m 71.948,404.863 h 127.355 c 18.38,0 33.415,-15.035 33.415,-33.415 v -34.36 H 38.532 v 34.36 c 0,18.38 15.037,33.415 33.416,33.415" /><path
           id="path86"
           style="fill:#ffffff;fill-opacity:1;fill-rule:evenodd;stroke:none"
           d="M 112.126,337.088 H 56.047 c 0.472,15.023 12.905,27.169 28.04,27.169 15.134,0 27.567,-12.146 28.039,-27.169" /><path
           id="path88"
           style="fill:#badbf4;fill-opacity:1;fill-rule:evenodd;stroke:none"
           d="m 95.591,419.363 h 80.069 v -14.5 H 95.591 Z" /><path
           id="path90"
           style="fill:#ffffff;fill-opacity:1;fill-rule:evenodd;stroke:none"
           d="m 126.798,404.863 h 17.654 v -67.775 h -17.654 z" /><path
           id="path92"
           style="fill:#d5eaf9;fill-opacity:1;fill-rule:evenodd;stroke:none"
           d="m 126.798,404.863 h 17.654 v 14.5 h -17.654 z" /><path
           id="path94"
           style="fill:#ebe7ee;fill-opacity:1;fill-rule:evenodd;stroke:none"
           d="m 408.163,353.283 50.768,50.768 72.627,-72.63 -50.795,-50.792 -70.733,70.732 z" /><path
           id="path96"
           style="fill:#2d2b2d;fill-opacity:1;fill-rule:evenodd;stroke:none"
           d="m 416.418,332.694 70.55,70.553 100.93,-100.931 -70.587,-70.587 -98.297,98.297 z" /></g></g></g></svg>
