<?xml version="1.0" encoding="UTF-8" standalone="no"?>
<svg
   xmlns:dc="http://purl.org/dc/elements/1.1/"
   xmlns:cc="http://creativecommons.org/ns#"
   xmlns:rdf="http://www.w3.org/1999/02/22-rdf-syntax-ns#"
   xmlns:svg="http://www.w3.org/2000/svg"
   xmlns="http://www.w3.org/2000/svg"
   xmlns:sodipodi="http://sodipodi.sourceforge.net/DTD/sodipodi-0.dtd"
   xmlns:inkscape="http://www.inkscape.org/namespaces/inkscape"
   inkscape:version="1.0 (4035a4fb49, 2020-05-01)"
   sodipodi:docname="Leomarc_caution_pedestrian_crossing.svg"
   version="1.0"
   viewBox="0 0 150.26 150.26"
   id="svg14350">
  <defs
     id="defs13" />
  <sodipodi:namedview
     inkscape:current-layer="g9121"
     inkscape:window-maximized="1"
     inkscape:window-y="0"
     inkscape:window-x="0"
     inkscape:cy="71.97769"
     inkscape:cx="75.129997"
     inkscape:zoom="4.7584189"
     showgrid="false"
     id="namedview11"
     inkscape:window-height="1015"
     inkscape:window-width="1920"
     inkscape:pageshadow="2"
     inkscape:pageopacity="0"
     guidetolerance="10"
     gridtolerance="10"
     objecttolerance="10"
     borderopacity="1"
     bordercolor="#666666"
     pagecolor="#ffffff" />
  <g
     transform="translate(-274.87 -457.23)"
     id="layer1">
    <g
       transform="translate(-63.039 -34.714)"
       id="g9121">
      <g
         transform="matrix(0.74307,0,0,0.74307,296.34465,-102.02434)"
         id="g7916">
        <path
           fill="#8c8c8c"
           d="m 212.59,843.86 z m -59.6,114.66 c -22.03,-4.33 -37.77,-27.65 -34.12,-50.52 1.52,-9.53 5.33,-16.89 12.43,-24.01 9.9,-9.94 20.8,-14.07 34.55,-13.12 15.97,1.11 29.18,10.22 36.6,25.22 8.47,17.14 4.63,37.35 -9.68,51.01 -10.82,10.32 -24.87,14.35 -39.78,11.42 z m 25.65,-6.43 c 10.89,-4.98 18.45,-13.19 22.35,-24.26 2.93,-8.32 2.23,-21.93 -1.54,-29.62 -8.65,-17.69 -28.49,-27.14 -46.85,-22.31 -20.17,5.3 -33.27,25.36 -29.76,45.56 1.49,8.52 4.3,14.2 10.3,20.76 8.98,9.83 18.64,13.72 32.07,12.9 5.52,-0.33 9.52,-1.24 13.43,-3.03 z m -35.79,-14.18 c -0.82,-0.31 -2.62,-1.58 -4,-2.82 -1.37,-1.24 -4.18,-2.55 -6.25,-2.92 -4.14,-0.73 -4.22,-0.91 -2.65,-5.42 1.21,-3.48 2.54,-3.89 5.46,-1.68 1.07,0.8 2.84,1.45 3.94,1.43 1.69,-0.02 -0.22,-1.21 -7.27,-4.49 -0.15,-0.06 3.21,-7.84 7.47,-17.27 l 7.74,-17.14 h 3.76 c 3.51,0 3.94,0.34 6.27,4.93 l 2.5,4.94 -6.84,14.81 c -5.77,12.51 -7.17,14.81 -8.98,14.74 -3.05,-0.11 -2.66,1.97 0.93,4.99 4.41,3.71 2.98,7.78 -2.08,5.9 z m 37.21,-0.62 c -0.52,-0.65 -1.45,-2.18 -2.08,-3.39 -1.05,-2.03 -0.77,-2.37 3.62,-4.36 2.79,-1.27 7.12,-2.24 10.5,-2.35 4.96,-0.17 5.75,0.06 5.75,1.62 0,2.28 -5.6,5.78 -9.25,5.78 -1.51,0.01 -2.75,0.39 -2.75,0.85 0,0.46 -1.09,1.33 -2.42,1.94 -1.81,0.83 -2.66,0.81 -3.37,-0.09 z m -4.21,-8.53 c 0,-0.54 -4.05,-9.61 -9,-20.16 -4.95,-10.55 -9,-19.61 -9,-20.13 0,-1.66 15.17,-0.59 16.13,1.13 2.52,4.5 15.87,32.33 15.87,33.08 0,0.92 -7.79,5.13 -11.75,6.36 -1.27,0.39 -2.25,0.27 -2.25,-0.28 z m -23,-73.66 c 0,-11.98 0.7,-11.33 -9.76,-9.09 -4.33,0.93 -6.47,1.02 -6.92,0.29 -0.6,-0.97 6.37,-7.9 19.43,-19.35 l 5.25,-4.59 5.25,4.59 c 2.89,2.53 8.63,7.73 12.75,11.55 8.79,8.14 8.69,9.72 -0.5,7.55 -10.07,-2.38 -9.5,-2.93 -9.5,9.05 v 10.5 h -16 z"
           id="path7920" />
        <path
           d="m 151.24,957.7 c -6,-1.53 -12.6,-5.4 -18.47,-10.84 -14.29,-13.23 -17.98,-34 -9.22,-51.9 3.37,-6.88 13.67,-16.7 21.24,-20.25 5.03,-2.36 6.71,-2.61 17.61,-2.61 11.91,0 12.13,0.04 19.67,3.76 32.55,16.08 32.03,62.69 -0.87,78.89 -6.11,3.01 -7.66,3.33 -16.79,3.53 -5.53,0.12 -11.46,-0.14 -13.17,-0.58 z m 28.72,-5.83 c 26,-12.8 31.6,-45.75 11.2,-65.83 -2.99,-2.95 -8,-6.62 -11.13,-8.15 -5.21,-2.56 -6.62,-2.79 -17.18,-2.79 -10.36,0 -12.06,0.26 -17.17,2.66 -26.83,12.58 -32.09,48.46 -9.96,67.95 8.86,7.81 15.18,9.96 28.21,9.6 8.44,-0.24 10.35,-0.65 16.03,-3.44 z m -41.43,-17.25 c -1.86,-1.64 -3.64,-2.72 -3.95,-2.42 -0.3,0.31 -1.49,0.06 -2.64,-0.56 -2.42,-1.29 -2.68,-3.84 -0.68,-6.59 1.32,-1.8 1.53,-1.82 3.25,-0.27 1.02,0.92 3.08,1.97 4.59,2.35 1.52,0.38 2.75,1.28 2.75,2 0,0.73 1.41,2.43 3.14,3.78 1.76,1.38 2.83,2.94 2.44,3.57 -1.26,2.04 -5.46,1.16 -8.9,-1.86 z m 40.98,1.15 c -2.4,-2.65 -2.11,-5.17 0.59,-5.2 1.24,-0.02 3.14,-0.71 4.23,-1.53 1.2,-0.9 3.02,-1.27 4.58,-0.93 1.43,0.31 3.78,0.12 5.23,-0.43 2.82,-1.07 4.08,-0.2 3.16,2.19 -0.66,1.74 -4.72,3.73 -7.59,3.73 -1.12,0 -3.19,0.9 -4.58,2 -3.12,2.45 -3.54,2.47 -5.62,0.17 z m -8.34,-18.92 c -3.06,-6.46 -7.27,-15.46 -9.37,-20 l -3.82,-8.25 7.69,0.05 7.68,0.05 8.25,17.2 8.25,17.2 -5.68,2.75 c -3.12,1.51 -6.08,2.75 -6.57,2.75 -0.48,0 -3.38,-5.29 -6.43,-11.75 z m -32.65,7.64 c -4.52,-2.33 -5.69,-3.39 -5.2,-4.7 0.36,-0.93 3.66,-8.33 7.34,-16.44 l 6.69,-14.74 3.77,-0.01 c 3.46,0 3.93,0.35 5.92,4.45 l 2.16,4.45 -6.86,15.05 c -3.77,8.28 -7.11,15.03 -7.42,15 -0.31,-0.03 -3.19,-1.4 -6.4,-3.06 z m 14.33,-70.46 c 0,-9.59 -0.16,-10.52 -1.75,-10.07 -5.09,1.45 -13.49,2.73 -14.08,2.14 -0.63,-0.64 19.65,-20.54 22.83,-22.4 1.13,-0.66 4.47,1.92 13.5,10.43 6.59,6.23 11.69,11.62 11.32,11.99 -0.59,0.59 -6.06,-0.29 -13.55,-2.17 -2.25,-0.56 -2.27,-0.49 -2.27,10.04 v 10.61 h -16 z"
           id="path7918" />
      </g>
    </g>
  </g>
  <metadata
     id="metadata8">
    <rdf:RDF>
      <cc:Work>
        <dc:format>image/svg+xml</dc:format>
        <dc:type
           rdf:resource="http://purl.org/dc/dcmitype/StillImage" />
        <cc:license
           rdf:resource="http://creativecommons.org/licenses/publicdomain/" />
        <dc:publisher>
          <cc:Agent
             rdf:about="http://openclipart.org/">
            <dc:title>Openclipart</dc:title>
          </cc:Agent>
        </dc:publisher>
        <dc:title>caution_pedestrian crossing</dc:title>
        <dc:date>2007-10-19T23:48:43</dc:date>
        <dc:description>clip art, clipart, image, media, public domain, roadsign, roadsign, sign, sign, svg, traffic, traffic, </dc:description>
        <dc:source>http://openclipart.org/detail/7226/caution_pedestrian-crossing-by-leomarc</dc:source>
        <dc:creator>
          <cc:Agent>
            <dc:title>Leomarc</dc:title>
          </cc:Agent>
        </dc:creator>
        <dc:subject>
          <rdf:Bag>
            <rdf:li>clip art</rdf:li>
            <rdf:li>clipart</rdf:li>
            <rdf:li>image</rdf:li>
            <rdf:li>media</rdf:li>
            <rdf:li>public domain</rdf:li>
            <rdf:li>roadsign</rdf:li>
            <rdf:li>sign</rdf:li>
            <rdf:li>svg</rdf:li>
            <rdf:li>traffic</rdf:li>
          </rdf:Bag>
        </dc:subject>
      </cc:Work>
      <cc:License
         rdf:about="http://creativecommons.org/licenses/publicdomain/">
        <cc:permits
           rdf:resource="http://creativecommons.org/ns#Reproduction" />
        <cc:permits
           rdf:resource="http://creativecommons.org/ns#Distribution" />
        <cc:permits
           rdf:resource="http://creativecommons.org/ns#DerivativeWorks" />
      </cc:License>
    </rdf:RDF>
  </metadata>
</svg>
