<?xml version="1.0" encoding="UTF-8" standalone="no"?>
<!-- Created with Inkscape (http://www.inkscape.org/) -->

<svg
   xmlns:dc="http://purl.org/dc/elements/1.1/"
   xmlns:cc="http://creativecommons.org/ns#"
   xmlns:rdf="http://www.w3.org/1999/02/22-rdf-syntax-ns#"
   xmlns:svg="http://www.w3.org/2000/svg"
   xmlns="http://www.w3.org/2000/svg"
   xmlns:xlink="http://www.w3.org/1999/xlink"
   xmlns:sodipodi="http://sodipodi.sourceforge.net/DTD/sodipodi-0.dtd"
   xmlns:inkscape="http://www.inkscape.org/namespaces/inkscape"
   width="27.403353mm"
   height="67.153435mm"
   viewBox="0 0 97.098494 237.94524"
   id="svg4296"
   version="1.1"
   inkscape:version="0.91 r13725"
   sodipodi:docname="small_water_bottle.svg">
  <defs
     id="defs4298">
    <linearGradient
       inkscape:collect="always"
       xlink:href="#linearGradient3811"
       id="linearGradient4214"
       gradientUnits="userSpaceOnUse"
       gradientTransform="matrix(1.2160599,0,0,1.1992049,-39.730054,26.454131)"
       x1="204.23766"
       y1="164.31847"
       x2="209.19647"
       y2="180.8132" />
    <linearGradient
       inkscape:collect="always"
       id="linearGradient3811">
      <stop
         style="stop-color:#dce2fc;stop-opacity:1;"
         offset="0"
         id="stop3813" />
      <stop
         style="stop-color:#b5c8f4;stop-opacity:1"
         offset="1"
         id="stop3815" />
    </linearGradient>
    <linearGradient
       inkscape:collect="always"
       xlink:href="#linearGradient4194"
       id="linearGradient4200"
       x1="239.28571"
       y1="226.64792"
       x2="194.28572"
       y2="226.64792"
       gradientUnits="userSpaceOnUse" />
    <linearGradient
       inkscape:collect="always"
       id="linearGradient4194">
      <stop
         id="stop4198"
         offset="0"
         style="stop-color:#b5c8f4;stop-opacity:0;" />
      <stop
         id="stop4196"
         offset="1"
         style="stop-color:#b5c8f4;stop-opacity:1;" />
    </linearGradient>
    <linearGradient
       inkscape:collect="always"
       xlink:href="#linearGradient4194"
       id="linearGradient4190"
       x1="240.17857"
       y1="196.46935"
       x2="194.46428"
       y2="196.46935"
       gradientUnits="userSpaceOnUse" />
    <linearGradient
       inkscape:collect="always"
       xlink:href="#linearGradient4194"
       id="linearGradient4210"
       x1="194.82143"
       y1="158.25507"
       x2="240.71428"
       y2="158.25507"
       gradientUnits="userSpaceOnUse" />
    <linearGradient
       inkscape:collect="always"
       xlink:href="#linearGradient3811"
       id="linearGradient3879"
       gradientUnits="userSpaceOnUse"
       x1="204.23766"
       y1="164.31847"
       x2="209.19647"
       y2="180.8132"
       gradientTransform="matrix(1.3037631,0,0,0.99123233,-58.079999,-20.994313)" />
    <linearGradient
       inkscape:collect="always"
       xlink:href="#linearGradient4216"
       id="linearGradient4222"
       x1="181.07143"
       y1="181.82649"
       x2="214.64285"
       y2="181.82649"
       gradientUnits="userSpaceOnUse" />
    <linearGradient
       inkscape:collect="always"
       id="linearGradient4216">
      <stop
         id="stop4220"
         offset="0"
         style="stop-color:#ffffff;stop-opacity:1" />
      <stop
         id="stop4218"
         offset="1"
         style="stop-color:#e6e6e6;stop-opacity:1;" />
    </linearGradient>
    <linearGradient
       inkscape:collect="always"
       xlink:href="#linearGradient4167"
       id="linearGradient4173"
       x1="182.41576"
       y1="124.66336"
       x2="225.92072"
       y2="124.66336"
       gradientUnits="userSpaceOnUse"
       gradientTransform="matrix(0.90157303,0,0,0.67750947,21.103223,43.63861)" />
    <linearGradient
       inkscape:collect="always"
       id="linearGradient4167">
      <stop
         id="stop4171"
         offset="0"
         style="stop-color:#a5a4df;stop-opacity:1" />
      <stop
         id="stop4169"
         offset="1"
         style="stop-color:#7577c0;stop-opacity:1;" />
    </linearGradient>
  </defs>
  <sodipodi:namedview
     id="base"
     pagecolor="#ffffff"
     bordercolor="#666666"
     borderopacity="1.0"
     inkscape:pageopacity="0.0"
     inkscape:pageshadow="2"
     inkscape:zoom="0.98994949"
     inkscape:cx="-51.065152"
     inkscape:cy="53.424617"
     inkscape:document-units="px"
     inkscape:current-layer="layer1"
     showgrid="false"
     fit-margin-top="0"
     fit-margin-left="0"
     fit-margin-right="0"
     fit-margin-bottom="0"
     inkscape:window-width="1920"
     inkscape:window-height="1018"
     inkscape:window-x="-8"
     inkscape:window-y="-8"
     inkscape:window-maximized="1" />
  <metadata
     id="metadata4301">
    <rdf:RDF>
      <cc:Work
         rdf:about="">
        <dc:format>image/svg+xml</dc:format>
        <dc:type
           rdf:resource="http://purl.org/dc/dcmitype/StillImage" />
        <dc:title></dc:title>
        <cc:license
           rdf:resource="http://creativecommons.org/publicdomain/zero/1.0/" />
      </cc:Work>
      <cc:License
         rdf:about="http://creativecommons.org/publicdomain/zero/1.0/">
        <cc:permits
           rdf:resource="http://creativecommons.org/ns#Reproduction" />
        <cc:permits
           rdf:resource="http://creativecommons.org/ns#Distribution" />
        <cc:permits
           rdf:resource="http://creativecommons.org/ns#DerivativeWorks" />
      </cc:License>
    </rdf:RDF>
  </metadata>
  <g
     inkscape:label="Calque 1"
     inkscape:groupmode="layer"
     id="layer1"
     transform="translate(-302.23224,-531.96101)">
    <g
       transform="matrix(2.0675052,0,0,2.0675052,-92.986923,268.90277)"
       id="g4226">
      <path
         sodipodi:nodetypes="ssscsscsssssscsscssss"
         inkscape:connector-curvature="0"
         id="rect2985"
         d="m 208.27721,137.50423 c -3.93722,0 -16.93148,10.02279 -16.93148,13.96002 l 0,16.4974 c 0,2.78085 1.58164,5.17756 3.8977,6.34625 -2.31531,1.16895 -3.8977,3.56596 -3.8977,6.34625 l 0,20.30468 c 0,2.42362 1.20082,4.55378 3.04264,5.83543 -1.84287,1.28151 -3.04264,3.41657 -3.04264,5.841 l 0,20.30467 c 0,3.93724 3.3362,5.97397 7.10692,7.10693 10.45283,3.14064 21.90155,2.92642 32.48637,0 3.79485,-1.0492 7.10691,-3.16969 7.10691,-7.10693 l 0,-20.30467 c 0,-2.42443 -1.19979,-4.55949 -3.04265,-5.841 1.84182,-1.28165 3.04265,-3.41181 3.04265,-5.83543 l 0,-20.30468 c 0,-2.78029 -1.5824,-5.1773 -3.8977,-6.34625 2.31606,-1.16869 3.8977,-3.5654 3.8977,-6.34625 l 0,-16.4974 c 0,-3.93723 -13.39676,-13.96002 -17.33399,-13.96002 z"
         style="fill:#90aad8;fill-opacity:1;stroke:none" />
      <ellipse
         ry="5.1483645"
         rx="19.808046"
         cy="235.15721"
         cx="214.70354"
         style="opacity:0.26499999;fill:url(#linearGradient4214);fill-opacity:1;stroke:none"
         id="ellipse4212" />
      <path
         sodipodi:nodetypes="ccccccccccccc"
         inkscape:connector-curvature="0"
         id="path3772"
         d="m 230.59715,207.90789 c -0.0554,0.005 -0.11096,0.006 -0.16657,0.006 -10.75451,2.66075 -21.50865,2.75005 -32.25873,0.006 -2.52474,0.0577 -4.87058,2.67369 -4.67502,5.18583 0.003,0.0425 0.005,0.085 0.006,0.12767 0.0342,6.92154 -0.0644,13.84004 0.0499,20.68778 0.27227,2.39516 2.86028,4.48379 5.30243,4.25305 0.0535,-0.004 0.10733,-0.006 0.16102,-0.006 11.27945,4.14987 21.96202,2.55165 32.54189,-0.0389 2.47377,-0.20555 4.62224,-2.82671 4.38629,-5.30243 -0.004,-0.0517 -0.006,-0.10357 -0.006,-0.15545 -0.0388,-6.87116 0.0725,-13.71749 -0.0556,-20.51567 -0.27179,-2.40665 -2.85633,-4.477 -5.28577,-4.24749 z"
         style="fill:url(#linearGradient4200);fill-opacity:1;stroke:none" />
      <path
         style="fill:url(#linearGradient4190);fill-opacity:1;stroke:none"
         d="m 230.59715,175.57143 c -0.0554,0.005 -0.11096,0.006 -0.16657,0.006 -10.75451,2.66075 -21.50865,2.75003 -32.25873,0.006 -2.52474,0.0577 -4.87058,2.6737 -4.67502,5.18584 0.003,0.0425 0.005,0.085 0.006,0.12768 0.0342,6.92154 -0.0644,13.84003 0.05,20.68776 0.27224,2.39517 2.86025,4.48379 5.30242,4.25305 0.0535,-0.004 0.10733,-0.006 0.16102,-0.006 11.27944,4.14987 21.96203,2.55165 32.54189,-0.0389 2.47377,-0.20554 4.62225,-2.82669 4.3863,-5.30242 -0.004,-0.0517 -0.006,-0.10357 -0.006,-0.15546 -0.0388,-6.87115 0.0726,-13.71748 -0.0556,-20.51565 -0.27179,-2.40667 -2.85633,-4.477 -5.28575,-4.24749 z"
         id="path3805"
         inkscape:connector-curvature="0"
         sodipodi:nodetypes="ccccccccccccc" />
      <path
         sodipodi:nodetypes="ccccccccccc"
         inkscape:connector-curvature="0"
         id="path3807"
         d="m 193.49683,148.78724 c 0.003,0.0425 0.005,0.085 0.006,0.12768 0.0342,6.92155 -0.0644,13.84003 0.05,20.68778 0.27224,2.39517 2.86025,4.48379 5.30242,4.25304 0.0535,-0.004 0.10733,-0.006 0.16102,-0.006 11.27944,4.14987 21.96203,2.55165 32.54189,-0.0389 2.47377,-0.20553 4.62225,-2.8267 4.3863,-5.30243 -0.004,-0.0517 -0.006,-0.10356 -0.006,-0.15545 -0.0388,-6.87116 0.0726,-10.07512 -0.0556,-16.8733 -6.0021,4.84636 -41.06358,3.59754 -42.38607,-0.0741 z"
         style="fill:url(#linearGradient4210);fill-opacity:1;stroke:none" />
      <ellipse
         id="path3809"
         style="fill:url(#linearGradient3879);fill-opacity:1;stroke:none"
         cx="214.70354"
         cy="151.51436"
         rx="21.236618"
         ry="4.2555075" />
      <path
         sodipodi:nodetypes="ccccc"
         inkscape:connector-curvature="0"
         id="path3819"
         d="m 191.15752,159.16058 c 0.1024,6.41955 0.14664,18.33939 0.22847,22.91962 4.37953,3.72844 33.72724,8.84855 46.72628,-0.92864 -0.0442,-5.99891 0.0828,-16.23168 -0.0635,-22.16688 -6.27867,6.07905 -41.14738,4.3396 -46.89123,0.1759 z"
         style="fill:url(#linearGradient4222);fill-opacity:1;stroke:none" />
      <g
         transform="matrix(1.2962268,0,0,1.2962268,-57.280664,-71.782471)"
         id="g3861">
        <path
           sodipodi:type="inkscape:offset"
           inkscape:radius="1.2876968"
           inkscape:original="M 216.21875 185.34375 C 215.99712 185.34376 215.81624 185.41584 215.6875 185.5625 C 215.55876 185.70917 215.5 185.92542 215.5 186.21875 L 215.5 191.5625 C 215.5 191.79065 215.49022 191.97316 215.5 192.09375 C 215.50978 192.21434 215.54812 192.31499 215.59375 192.40625 C 215.65568 192.51707 215.72967 192.59106 215.84375 192.65625 C 215.95782 192.72144 216.0949 192.75 216.21875 192.75 C 216.43386 192.75 216.61311 192.67629 216.75 192.53125 C 216.88689 192.38621 216.9375 192.17485 216.9375 191.875 L 216.9375 190.40625 L 218.125 189.25 L 219.84375 191.90625 C 219.91219 192.02358 220.00574 192.13784 220.09375 192.28125 C 220.18174 192.42466 220.27913 192.53863 220.40625 192.625 C 220.53336 192.71137 220.70417 192.75 220.90625 192.75 C 221.12135 192.75 221.28076 192.71108 221.40625 192.59375 C 221.53172 192.47642 221.59374 192.31595 221.59375 192.15625 C 221.59374 192.01284 221.5717 191.87031 221.5 191.71875 C 221.42829 191.5672 221.29965 191.38958 221.15625 191.1875 L 219.125 188.28125 L 220.90625 186.625 C 221.12461 186.41641 221.21874 186.18061 221.21875 185.96875 C 221.21874 185.79276 221.15998 185.65348 221.03125 185.53125 C 220.9025 185.40903 220.73984 185.34376 220.53125 185.34375 C 220.37154 185.34376 220.25239 185.40031 220.15625 185.46875 C 220.0601 185.5372 219.94938 185.63785 219.8125 185.78125 L 216.9375 188.75 L 216.9375 186.21875 C 216.9375 185.92216 216.88526 185.70754 216.75 185.5625 C 216.61474 185.41747 216.43712 185.34376 216.21875 185.34375 z M 223.8125 185.34375 C 223.58109 185.34376 223.39178 185.4422 223.25 185.59375 C 223.10822 185.74531 223.03125 185.94824 223.03125 186.21875 C 223.03125 186.41757 223.06442 186.73121 223.09375 187.1875 L 223.25 189.53125 C 223.27933 189.83436 223.3378 190.07046 223.40625 190.21875 C 223.47469 190.36705 223.574 190.4375 223.75 190.4375 C 223.92274 190.4375 224.05004 190.37194 224.125 190.21875 C 224.19996 190.06557 224.25843 189.81807 224.28125 189.53125 L 224.5 187.125 C 224.52281 186.90338 224.53125 186.68387 224.53125 186.46875 C 224.53125 186.10372 224.46952 185.85018 224.375 185.65625 C 224.28048 185.46233 224.09279 185.34376 223.8125 185.34375 z M 207.3125 185.40625 C 207.13324 185.40626 206.97901 185.47153 206.84375 185.59375 C 206.70849 185.71598 206.625 185.87347 206.625 186.0625 C 206.625 186.2711 206.71175 186.41718 206.84375 186.53125 C 206.97575 186.64533 207.12672 186.71876 207.3125 186.71875 C 207.49176 186.71876 207.65088 186.64696 207.78125 186.53125 C 207.91162 186.41555 207.96875 186.26784 207.96875 186.0625 C 207.96875 185.85065 207.91488 185.67332 207.78125 185.5625 C 207.64762 185.45169 207.48524 185.40626 207.3125 185.40625 z M 195.84375 185.46875 C 195.53086 185.46876 195.2964 185.54736 195.15625 185.6875 C 195.0161 185.82766 194.9375 186.06212 194.9375 186.375 L 194.9375 191.625 C 194.9375 191.85641 194.95926 192.04246 195 192.1875 C 195.04074 192.33254 195.11637 192.4514 195.25 192.53125 C 195.38363 192.6111 195.611 192.625 195.875 192.625 L 197.75 192.625 C 198.07918 192.625 198.39388 192.60487 198.65625 192.5625 C 198.91862 192.52013 199.14685 192.44805 199.375 192.34375 C 199.60314 192.23945 199.8077 192.11024 200 191.9375 C 200.24444 191.71261 200.4373 191.47269 200.59375 191.1875 C 200.75019 190.90232 200.89378 190.57401 200.96875 190.21875 C 201.04371 189.86349 201.06249 189.46148 201.0625 189.03125 C 201.06249 187.72755 200.68386 186.76382 199.9375 186.125 C 199.65068 185.87404 199.352 185.71627 199 185.625 C 198.648 185.53375 198.21089 185.46876 197.71875 185.46875 L 195.84375 185.46875 z M 196.40625 186.625 L 197.34375 186.625 C 197.78701 186.62501 198.18711 186.68511 198.5 186.78125 C 198.81288 186.8774 199.06776 187.08551 199.28125 187.4375 C 199.49473 187.78951 199.59374 188.32399 199.59375 189.03125 C 199.59374 190.03511 199.36062 190.74558 198.875 191.15625 C 198.76744 191.25077 198.64666 191.32285 198.5 191.375 C 198.35333 191.42715 198.19938 191.45571 198.0625 191.46875 C 197.92561 191.48179 197.74118 191.5 197.5 191.5 L 196.40625 191.5 L 196.40625 186.625 z M 202.90625 187.34375 C 202.47277 187.34376 202.25 187.6503 202.25 188.25 L 202.25 191.9375 C 202.25 192.20476 202.31365 192.42561 202.4375 192.5625 C 202.56135 192.69939 202.71395 192.75 202.90625 192.75 C 203.1018 192.75 203.24789 192.69776 203.375 192.5625 C 203.50211 192.42724 203.5625 192.20802 203.5625 191.9375 L 203.5625 190.84375 C 203.5625 190.44286 203.59892 190.09117 203.625 189.8125 C 203.65107 189.53384 203.68155 189.29583 203.75 189.09375 C 203.81844 188.89168 203.9074 188.72767 204.03125 188.625 C 204.1551 188.52234 204.33569 188.5 204.53125 188.5 C 204.67465 188.5 204.84384 188.50221 205.03125 188.5625 C 205.21865 188.6228 205.32611 188.65625 205.375 188.65625 C 205.50537 188.65625 205.63755 188.60593 205.75 188.5 C 205.86244 188.39408 205.90625 188.25672 205.90625 188.09375 C 205.90625 187.86235 205.764 187.6714 205.5 187.53125 C 205.236 187.39111 204.96779 187.34376 204.6875 187.34375 C 204.4072 187.34376 204.1991 187.39111 204.03125 187.53125 C 203.8634 187.6714 203.69095 187.88248 203.53125 188.15625 C 203.52147 187.88248 203.47278 187.6714 203.375 187.53125 C 203.27722 187.39111 203.12788 187.34376 202.90625 187.34375 z M 207.28125 187.34375 C 207.08569 187.34376 206.93472 187.39763 206.8125 187.53125 C 206.69028 187.66488 206.625 187.861 206.625 188.125 L 206.625 191.9375 C 206.625 192.19824 206.69028 192.42235 206.8125 192.5625 C 206.93472 192.70265 207.08569 192.75 207.28125 192.75 C 207.4768 192.75 207.65414 192.69939 207.78125 192.5625 C 207.90836 192.42561 207.96875 192.20476 207.96875 191.9375 L 207.96875 188.09375 C 207.96875 187.85583 207.90836 187.66488 207.78125 187.53125 C 207.65414 187.39763 207.4768 187.34376 207.28125 187.34375 z M 209.9375 187.34375 C 209.7452 187.34376 209.57956 187.40577 209.46875 187.53125 C 209.35793 187.65674 209.3125 187.83953 209.3125 188.09375 L 209.3125 191.9375 C 209.3125 192.19824 209.37615 192.42235 209.5 192.5625 C 209.62385 192.70265 209.77645 192.75 209.96875 192.75 C 210.16756 192.75 210.34327 192.69776 210.46875 192.5625 C 210.59423 192.42724 210.65625 192.20802 210.65625 191.9375 L 210.65625 190.28125 C 210.65625 189.73696 210.68481 189.35507 210.75 189.15625 C 210.84126 188.90855 210.99194 188.73553 211.1875 188.59375 C 211.38305 188.45198 211.57457 188.375 211.8125 188.375 C 212.17753 188.375 212.44027 188.48572 212.5625 188.71875 C 212.68472 188.95179 212.75 189.27875 212.75 189.71875 L 212.75 191.9375 C 212.75 192.19824 212.81364 192.42235 212.9375 192.5625 C 213.06135 192.70265 213.20743 192.75 213.40625 192.75 C 213.6018 192.75 213.75277 192.69939 213.875 192.5625 C 213.99722 192.42561 214.06249 192.20476 214.0625 191.9375 L 214.0625 189.46875 C 214.06249 189.17542 214.05732 188.93904 214.03125 188.75 C 214.00517 188.56097 213.93174 188.38172 213.84375 188.21875 C 213.70686 187.93846 213.52703 187.71569 213.25 187.5625 C 212.97296 187.40932 212.63325 187.34376 212.28125 187.34375 C 211.91947 187.34376 211.62241 187.41747 211.34375 187.5625 C 211.06508 187.70754 210.79716 187.94037 210.5625 188.25 L 210.5625 188.0625 C 210.5625 187.9028 210.52579 187.76707 210.46875 187.65625 C 210.41171 187.54544 210.34452 187.46166 210.25 187.40625 C 210.15548 187.35085 210.05483 187.34376 209.9375 187.34375 z M 223.78125 191.28125 C 223.57592 191.28125 223.39178 191.35822 223.25 191.5 C 223.10822 191.64178 223.03125 191.82918 223.03125 192.03125 C 223.03125 192.26266 223.13295 192.43376 223.28125 192.5625 C 223.42955 192.69124 223.58243 192.75 223.78125 192.75 C 223.9768 192.75 224.16583 192.69287 224.3125 192.5625 C 224.45916 192.43213 224.53125 192.2594 224.53125 192.03125 C 224.53125 191.82918 224.45753 191.64178 224.3125 191.5 C 224.16746 191.35822 223.98658 191.28125 223.78125 191.28125 z "
           style="font-style:normal;font-variant:normal;font-weight:normal;font-stretch:normal;font-size:10.01245213px;line-height:125%;font-family:'Arial Rounded MT Bold';-inkscape-font-specification:Sans;text-align:center;letter-spacing:0px;word-spacing:0px;text-anchor:middle;fill:#ffffff;fill-opacity:1;stroke:none"
           id="path3859"
           d="m 216.21875,184.05664 c -0.50079,2e-5 -1.11281,0.21739 -1.49805,0.65625 -0.41455,0.47229 -0.50781,1.04056 -0.50781,1.50586 l 0,0.58398 c -0.13259,-0.11693 -0.17914,-0.27832 -0.33984,-0.36718 -0.53098,-0.29359 -1.07993,-0.37889 -1.5918,-0.37891 -0.46009,1e-5 -0.90412,0.1371 -1.3125,0.3125 -0.0318,-0.0219 -0.0344,-0.0543 -0.0684,-0.0742 -0.39722,-0.23282 -0.79375,-0.23826 -0.96289,-0.23828 -0.27352,1e-5 -0.54837,0.22464 -0.83594,0.36328 0.027,-0.12726 0.1543,-0.24656 0.1543,-0.35742 0,-0.43014 -0.13004,-1.05709 -0.65234,-1.49023 a 1.2878256,1.2878256 0 0 0 0,-0.002 c -0.39507,-0.3276 -0.89255,-0.45115 -1.29102,-0.45117 -0.49179,3e-5 -1.0047,0.22375 -1.33203,0.51953 -0.34793,0.31441 -0.64258,0.85564 -0.64258,1.42383 0,0.0659 0.0696,0.10187 0.0781,0.16797 -0.24864,-0.0562 -0.50972,-0.17382 -0.72852,-0.17383 -0.30474,1e-5 -0.69522,0.17646 -1.0625,0.34766 -0.26783,-0.10394 -0.52794,-0.34765 -0.71875,-0.34766 -0.37712,1e-5 -0.75812,0.28715 -1.11133,0.55078 -0.25455,-0.54535 -0.5587,-1.06174 -1.01367,-1.45312 -0.41834,-0.36512 -0.9307,-0.63841 -1.45898,-0.77539 -0.4589,-0.11897 -0.99803,-0.19726 -1.60352,-0.19727 l -1.875,0 c -0.52852,2e-5 -1.11997,0.11805 -1.59766,0.5957 -0.47763,0.47767 -0.5957,1.06912 -0.5957,1.59766 l 0,5.25 c 0,0.31213 0.0234,0.60403 0.10938,0.91016 0.10341,0.36815 0.39708,0.84283 0.83007,1.10156 0.62926,0.37601 0.97596,0.27539 1.28516,0.27539 l 1.875,0 c 0.38168,0 0.75234,-0.0202 1.11133,-0.0781 0.37325,-0.0603 0.72937,-0.17232 1.04883,-0.31836 0.32916,-0.15048 0.65862,-0.3583 0.95117,-0.62109 a 1.2878256,1.2878256 0 0 0 0.01,-0.01 c 0.11422,-0.10509 0.18896,-0.25274 0.29297,-0.3711 0.064,0.30789 0.0494,0.61483 0.31836,0.91211 0.37097,0.41003 1.0056,0.61133 1.42383,0.61133 0.42488,0 1.05526,-0.22026 1.40625,-0.59375 0.46321,-0.49291 0.53711,-1.0437 0.53711,-1.50586 l 0,-1.09375 c 0,-0.3229 0.0296,-0.62278 0.0566,-0.91211 0.003,-0.035 0.004,-0.0276 0.008,-0.0586 0.0826,0.0242 0.17176,0.0582 0.42383,0.0644 l 0,2 c 0,0.47567 0.084,0.98924 0.50391,1.4707 0.37303,0.42776 1.03603,0.62891 1.43945,0.62891 0.39784,0 0.95444,-0.1601 1.375,-0.56836 0.38385,0.35443 0.94295,0.56836 1.3125,0.56836 0.42438,0 1.02268,-0.14614 1.44336,-0.59961 0.24553,-0.26467 0.21459,-0.53618 0.28711,-0.8125 0.0711,0.26703 0.0433,0.53063 0.27344,0.79102 0.36125,0.40879 1.03032,0.62109 1.43359,0.62109 0.41773,0 1.06163,-0.20498 1.42969,-0.61719 0.003,-0.004 5.7e-4,-0.008 0.004,-0.0117 0.12958,0.12928 0.23136,0.28874 0.36524,0.36524 0.35925,0.20531 0.69186,0.26367 1.01367,0.26367 0.50927,0 1.09424,-0.22636 1.4668,-0.62109 0.45676,-0.48396 0.53906,-1.09627 0.53906,-1.54102 l 0,-0.0996 0.53711,0.83008 -0.0293,-0.0508 c 0.14244,0.24418 0.22895,0.34381 0.26367,0.40039 0.15045,0.24521 0.37576,0.52389 0.68555,0.73437 0.42304,0.28745 0.85842,0.34766 1.22461,0.34766 0.37043,0 0.9598,-0.1101 1.37891,-0.50195 0.0492,-0.046 0.0311,-0.11996 0.0742,-0.16993 0.0392,0.0415 0.0381,0.13515 0.0781,0.16993 0.33266,0.28878 0.89122,0.50195 1.34375,0.50195 0.44635,0 0.96905,-0.14046 1.38672,-0.51172 0.41217,-0.36639 0.65039,-0.99474 0.65039,-1.49414 0,-0.45155 -0.22544,-0.90028 -0.53125,-1.27148 0.1888,-0.3959 0.24608,-0.73399 0.27734,-1.12696 l 0,0.0156 0.2168,-2.39063 c 0.0284,-0.27558 0.0371,-0.54026 0.0371,-0.78906 0,-0.5102 -0.0937,-0.98417 -0.28516,-1.37695 -0.2981,-0.6116 -1.07728,-1.03514 -1.7207,-1.03516 -0.59656,3e-5 -1.15955,0.2922 -1.50195,0.6582 -0.10607,0.11338 -0.0837,0.28812 -0.16016,0.42578 -0.0961,-0.18624 -0.0974,-0.41476 -0.23242,-0.54296 -0.35549,-0.33746 -0.90954,-0.541 -1.38672,-0.54102 -0.46363,3e-5 -0.88847,0.19768 -1.12109,0.36328 -0.20152,0.14346 -0.36074,0.29607 -0.5293,0.47266 l -0.82227,0.84765 c -0.0537,-0.3556 -0.0543,-0.72109 -0.36718,-1.05664 -0.37034,-0.39708 -0.96455,-0.62693 -1.47266,-0.62695 z m 5.60547,3.4375 0.14062,2.12305 a 1.2878256,1.2878256 0 0 0 0.004,0.0371 c 0.0242,0.25009 0.10427,0.46418 0.16602,0.68554 l -1.3125,-1.8789 0.96093,-0.89258 a 1.2878256,1.2878256 0 0 0 0.0117,-0.0117 c 0.0173,-0.0165 0.0125,-0.0455 0.0293,-0.0625 z m -6.84766,0.11328 0.0234,0.0469 c -0.002,-0.005 -0.009,-0.009 -0.0117,-0.0137 -0.005,-0.009 -0.007,-0.0247 -0.0117,-0.0332 z m -17.2832,0.34961 c 0.15119,0.019 0.33843,0.0273 0.42773,0.0547 0.002,5.7e-4 -0.0359,-0.0621 0.0586,0.0937 0.005,0.009 0.12694,0.33869 0.12695,0.92578 -10e-6,0.79899 -0.17931,1.06348 -0.26172,1.13477 -0.0258,0.007 -0.0638,0.0175 -0.10547,0.0215 -0.0789,0.008 -0.16587,0.009 -0.24609,0.0137 l 0,-2.24414 z" />
        <text
           xml:space="preserve"
           style="font-style:normal;font-variant:normal;font-weight:normal;font-stretch:normal;font-size:10.01245213px;line-height:125%;font-family:'Arial Rounded MT Bold';-inkscape-font-specification:Sans;text-align:center;letter-spacing:0px;word-spacing:0px;text-anchor:middle;fill:#ff0000;fill-opacity:1;stroke:none"
           x="209.80453"
           y="192.64056"
           id="text3821"
           sodipodi:linespacing="125%"><tspan
             sodipodi:role="line"
             id="tspan3823"
             x="209.80453"
             y="192.64056">DrinK!</tspan></text>
      </g>
      <g
         transform="translate(0,1.4285714)"
         id="g4180">
        <path
           style="opacity:1;fill:#7577c0;fill-opacity:1;stroke:none;stroke-width:3;stroke-linecap:round;stroke-linejoin:round;stroke-miterlimit:4;stroke-dasharray:3, 9;stroke-dashoffset:0;stroke-opacity:1"
           d="m 214.4043,125.80636 a 11.743024,2.892135 0 0 0 -11.72266,2.79308 c -0.11729,0.23593 -0.18945,0.48842 -0.18945,0.75588 l 0,7.01425 c 0,0.27451 0.074,0.53385 0.19726,0.77496 a 11.743024,2.892135 0 0 0 0.0254,0.0602 c 10e-4,0.002 0.003,0.005 0.004,0.007 a 11.743024,2.892135 0 0 0 11.68555,2.6331 11.743024,2.892135 0 0 0 10.08789,-1.41782 c 1.18463,-0.26592 2.04883,-1.07879 2.04883,-2.05775 l 0,-7.01425 c 0,-0.84157 -0.64171,-1.55934 -1.57227,-1.91538 a 11.743024,2.892135 0 0 0 -10.56445,-1.63358 z"
           id="ellipse4153"
           inkscape:connector-curvature="0" />
        <ellipse
           style="opacity:1;fill:url(#linearGradient4173);fill-opacity:1;stroke:none;stroke-width:3;stroke-linecap:round;stroke-linejoin:round;stroke-miterlimit:4;stroke-dasharray:3, 9;stroke-dashoffset:0;stroke-opacity:1"
           id="path4151"
           cx="214.40488"
           cy="128.69807"
           rx="10.587193"
           ry="2.607471" />
      </g>
    </g>
  </g>
</svg>
