<?xml version="1.0" encoding="utf-8"?>
<!-- Generator: Adobe Illustrator 25.4.1, SVG Export Plug-In . SVG Version: 6.00 Build 0)  -->
<svg version="1.1" id="Layer_1" xmlns="http://www.w3.org/2000/svg" xmlns:xlink="http://www.w3.org/1999/xlink" x="0px" y="0px"
	 viewBox="0 0 841.89 595.28" style="enable-background:new 0 0 841.89 595.28;" xml:space="preserve">
<style type="text/css">
	.st0{fill:#636466;}
	.st1{fill:#E22028;}
</style>
<g>
	<path d="M715.5,93.76c13.39,0,25.9,3.7,36.6,10.13V40.84l-36.67-19.72l-37.44,20.13v63.21C688.89,97.68,701.73,93.76,715.5,93.76z"
		/>
	<path d="M715.5,236.04c-13.77,0-26.62-3.92-37.51-10.7v326.33l38.94,22.48l35.16-20.3V225.91
		C741.41,232.34,728.89,236.04,715.5,236.04z"/>
</g>
<g>
	<path class="st0" d="M713.95,226.68c-1.88-0.04-2.6-0.96-2.56-2.74l0.01-0.57c0.03-1.28,0.41-2.06,1.47-2.37
		c-1.17-0.36-1.59-1.3-1.56-2.63l0.02-1.02c0.04-1.81,0.95-2.81,2.83-2.77l2.78,0.06l-0.28,12.08L713.95,226.68z M714.13,215.82
		c-0.98-0.02-1.44,0.48-1.47,1.61l-0.03,1.07c-0.03,1.35,0.49,1.81,1.65,1.83l1.17,0.03l0.11-4.51L714.13,215.82z M714.39,221.56
		c-1.07-0.03-1.63,0.31-1.66,1.57l-0.02,0.71c-0.03,1.07,0.33,1.6,1.29,1.62l1.33,0.03l0.09-3.9L714.39,221.56z"/>
	<path class="st0" d="M706.96,223.24c-0.35,1.81-1.48,2.81-3.29,2.46c-1.83-0.36-2.5-1.7-2.15-3.51l1.19-6.14
		c0.35-1.8,1.48-2.81,3.31-2.45c1.81,0.35,2.48,1.71,2.13,3.51L706.96,223.24z M706.86,216.78c0.21-1.09-0.13-1.8-1.07-1.99
		c-0.97-0.19-1.53,0.35-1.74,1.44l-1.22,6.27c-0.21,1.07,0.11,1.8,1.07,1.99c0.95,0.18,1.53-0.37,1.74-1.44L706.86,216.78z"/>
	<path class="st0" d="M693.73,222.75c-1.78-0.67-2.18-1.85-1.55-3.53l0.35-0.92c0.47-1.24,1.2-1.86,2.28-1.8
		c-0.92-0.7-0.99-1.68-0.53-2.89l0.66-1.76c0.19-0.5,0.35-0.98,0.29-1.44l1.28,0.48c0.02,0.38-0.02,0.69-0.31,1.45l-0.67,1.78
		c-0.48,1.28-0.04,1.91,1.01,2.3l0.89,0.33l1.82-4.83l1.26,0.47l-4.26,11.31L693.73,222.75z M696.06,217.54
		c-1-0.38-1.72-0.28-2.18,0.95l-0.41,1.08c-0.38,1.02-0.21,1.69,0.72,2.04l1.23,0.46l1.58-4.18L696.06,217.54z"/>
	<path class="st0" d="M691.72,208.6l1.04,0.61l-6.12,10.43l-1.47-0.87l2.01-8.95l-4.43,7.54l-1.03-0.6l6.12-10.43l1.21,0.71
		l-2.28,10L691.72,208.6z"/>
	<path class="st0" d="M680.9,207.89l3.52-4.15l1.03,0.87l-7.81,9.22l-1.03-0.87l3.52-4.15l-2.27-1.92l-3.52,4.15l-1.03-0.87
		l7.81-9.22l1.03,0.87l-3.52,4.15L680.9,207.89z"/>
	<path class="st0" d="M676.3,199.37l2.17-1.2l0.79,0.96l-10.78,5.93l-1.25-1.5l7.83-9.5l0.86,1.04l-1.58,1.91L676.3,199.37z
		 M675.3,199.97l-1.72-2.07l-4.5,5.5L675.3,199.97z"/>
	<path class="st0" d="M663,191.8l0.94-0.54l0.64,1.11l-1,0.58c-0.94,0.54-1.3,1.24-0.81,2.1c0.48,0.84,1.27,0.9,2.22,0.36l5.54-3.18
		c0.94-0.54,1.29-1.26,0.81-2.1c-0.49-0.85-1.27-0.9-2.22-0.36l-1.36,0.78l-0.64-1.11l1.3-0.75c1.59-0.91,3.07-0.76,3.99,0.86
		c0.92,1.6,0.3,2.95-1.29,3.86l-5.42,3.11c-1.59,0.91-3.07,0.76-3.99-0.84C660.79,194.06,661.41,192.71,663,191.8z"/>
	<path class="st0" d="M664.13,184.58l1.36,0.25l3.81-1.4l0.46,1.26l-11.35,4.16l-0.46-1.26l5.48-2.01l-6.58-1.01l-0.47-1.28
		l6.22,0.98l5.09-5.23l0.48,1.3L664.13,184.58z"/>
	<path class="st0" d="M656.58,167.52c3.63-0.34,5.32,3.61,8.09,3.37l0.19-0.02l-0.37-3.95l1.22-0.11l0.49,5.28l-1.03,0.1
		c-3.89,0.36-5.02-3.64-8.41-3.32c-1.24,0.12-1.85,0.59-1.76,1.59c0.09,0.98,0.84,1.34,1.9,1.24l1.07-0.1l0.12,1.26l-0.98,0.09
		c-1.84,0.17-3.14-0.56-3.31-2.41C653.61,168.65,654.74,167.69,656.58,167.52z"/>
	<path class="st0" d="M656.52,163.25c-1.84-0.14-2.96-1.14-2.83-2.98c0.14-1.86,1.39-2.68,3.24-2.55l6.22,0.46
		c1.84,0.14,2.98,1.14,2.84,3c-0.14,1.84-1.41,2.67-3.25,2.53L656.52,163.25z M662.92,162.39c1.09,0.08,1.77-0.34,1.85-1.3
		c0.07-0.98-0.55-1.48-1.63-1.56l-6.37-0.47c-1.1-0.08-1.79,0.32-1.86,1.3c-0.07,0.96,0.55,1.48,1.65,1.56L662.92,162.39z"/>
	<path class="st0" d="M658.96,148.09c3.54,0.87,3.83,5.16,6.52,5.84l0.18,0.05l0.95-3.85l1.19,0.29l-1.27,5.15l-1.01-0.25
		c-3.79-0.94-3.54-5.09-6.85-5.91c-1.21-0.3-1.94-0.05-2.18,0.92c-0.24,0.96,0.35,1.54,1.39,1.8l1.04,0.26l-0.3,1.22l-0.96-0.24
		c-1.79-0.44-2.78-1.56-2.33-3.37C655.79,148.18,657.17,147.65,658.96,148.09z"/>
	<path class="st0" d="M660.64,141.45c0.08,0.52,0.04,1.14-0.18,1.74l-1.02-0.43c0.46-1.23-0.01-1.92-0.67-2.54l0.36-0.86l11.13,4.72
		l-0.52,1.22L660.64,141.45z"/>
	<path class="st1" d="M669.14,129.71c0.8-1.06,2.3-1.26,3.36-0.46c1.06,0.8,1.26,2.3,0.46,3.36c-0.8,1.06-2.3,1.26-3.36,0.46
		C668.55,132.26,668.34,130.76,669.14,129.71z"/>
	<g>
		<path d="M681.31,116.81l0.67,0.86l-1.01,0.79l-0.71-0.91c-0.67-0.86-1.42-1.11-2.19-0.5c-0.76,0.6-0.71,1.39-0.04,2.25l3.94,5.03
			c0.67,0.86,1.43,1.1,2.19,0.5c0.78-0.61,0.71-1.39,0.04-2.25l-0.97-1.24l1.01-0.79l0.93,1.18c1.13,1.44,1.2,2.93-0.27,4.08
			c-1.45,1.14-2.88,0.72-4.01-0.72l-3.86-4.92c-1.13-1.44-1.2-2.93,0.26-4.07C678.75,114.95,680.18,115.37,681.31,116.81z"/>
		<path d="M684.85,114.48c-0.88-1.62-0.65-3.11,0.97-3.99c1.64-0.89,3.01-0.28,3.9,1.34l2.99,5.49c0.88,1.61,0.65,3.11-0.99,4
			c-1.62,0.88-3,0.26-3.88-1.35L684.85,114.48z M689.04,119.4c0.53,0.97,1.24,1.31,2.09,0.85c0.86-0.47,0.95-1.25,0.42-2.22
			l-3.06-5.61c-0.52-0.96-1.23-1.32-2.09-0.85c-0.85,0.46-0.95,1.26-0.42,2.22L689.04,119.4z"/>
		<path d="M697.85,118.35l-1.14,0.39l-3.89-11.44l1.62-0.55l5.46,7.37l-2.81-8.27l1.13-0.38l3.89,11.45l-1.32,0.45l-6.07-8.26
			L697.85,118.35z"/>
		<path d="M706.72,115.93l-1.77-10.72l-2.2,0.36l-0.2-1.21l5.71-0.94l0.2,1.21l-2.2,0.36l1.77,10.72L706.72,115.93z"/>
		<path d="M713.7,103.09l0.49,12.07l-1.35,0.05l-0.49-12.07L713.7,103.09z"/>
		<path d="M718.46,115.21l-1.2-0.11l1.12-12.04l1.7,0.16l1.97,8.96l0.81-8.7l1.19,0.11l-1.12,12.04l-1.39-0.13l-2.17-10.02
			L718.46,115.21z"/>
		<path d="M727.81,113.75c-0.28,1.05-0.04,1.8,0.91,2.05c0.93,0.25,1.52-0.27,1.8-1.32l2.41-8.92l1.22,0.33l-2.39,8.85
			c-0.48,1.77-1.61,2.73-3.41,2.24c-1.78-0.48-2.28-1.89-1.8-3.65l2.39-8.85l1.28,0.35L727.81,113.75z"/>
		<path d="M737.49,110.19c0.77-1.68,2.1-2.38,3.78-1.61c1.69,0.78,2.03,2.24,1.26,3.92l-2.61,5.68c-0.76,1.66-2.1,2.38-3.79,1.6
			c-1.68-0.77-2.01-2.25-1.24-3.91L737.49,110.19z M736.06,116.49c-0.46,1-0.3,1.78,0.58,2.18c0.89,0.41,1.57,0.02,2.03-0.99
			l2.67-5.81c0.45-0.99,0.32-1.77-0.58-2.18c-0.88-0.4-1.58,0-2.03,0.99L736.06,116.49z"/>
		<path d="M743.87,120.62c-0.61,0.9-0.62,1.69,0.19,2.24c0.8,0.54,1.53,0.24,2.14-0.66l5.19-7.64l1.04,0.71l-5.15,7.59
			c-1.03,1.51-2.42,2.05-3.96,1.01c-1.53-1.04-1.54-2.53-0.51-4.04l5.15-7.59l1.1,0.75L743.87,120.62z"/>
		<path d="M758.02,124.05l-0.23,0.24l-0.93-0.88l0.27-0.29c0.75-0.79,0.89-1.54,0.19-2.2c-0.7-0.67-1.44-0.49-2.18,0.29
			c-1.87,1.97,0.9,4.95-1.45,7.41c-1.26,1.33-2.72,1.58-4.06,0.31c-1.34-1.27-1.14-2.73,0.12-4.06l0.48-0.5l0.91,0.87l-0.52,0.55
			c-0.75,0.79-0.86,1.56-0.16,2.23c0.7,0.67,1.47,0.51,2.22-0.28c1.86-1.95-0.9-4.92,1.45-7.39c1.28-1.35,2.71-1.6,4.02-0.35
			C759.48,121.27,759.28,122.73,758.02,124.05z"/>
		<path d="M768.07,132.4c0.99,1.6,0.48,2.93-1.11,3.92l-5.18,3.21c-1.57,0.97-2.99,0.84-3.99-0.76l-1.49-2.41l10.27-6.37
			L768.07,132.4z M758.82,138.11c0.51,0.82,1.27,0.9,2.21,0.32l5.28-3.27c0.94-0.58,1.21-1.3,0.69-2.13l-0.76-1.23l-8.19,5.07
			L758.82,138.11z"/>
		<path d="M768.37,145.07l-1.12,0.46l-1.12-2.73l-3.98,1.64l1.38,3.35l-1.13,0.47l-1.89-4.6l11.18-4.6l1.89,4.6l-1.13,0.47
			l-1.38-3.35l-3.82,1.57L768.37,145.07z"/>
		<path d="M763.26,150.99l11.75-2.84l0.32,1.31l-10.56,2.55l0.81,3.36l-1.19,0.29L763.26,150.99z"/>
		<path d="M776.93,158.3l-12,1.43l-0.16-1.34l12-1.43L776.93,158.3z"/>
		<path d="M777.3,163.98l-10.55,1.8l10.48,2.11l-0.02,1.24l-12.05-2.45l0.03-1.99l12.12-2.09L777.3,163.98z"/>
		<path d="M770.64,177.03l-1.19-0.22l0.54-2.9l-4.23-0.79l-0.66,3.57l-1.21-0.22l0.91-4.89l11.89,2.21l-0.91,4.89l-1.21-0.22
			l0.66-3.57l-4.06-0.76L770.64,177.03z"/>
		<path d="M773.61,185.85c-0.65,1.79-1.83,2.2-3.51,1.59l-0.93-0.34c-1.25-0.45-1.87-1.17-1.83-2.26c-0.68,0.93-1.67,1.01-2.89,0.57
			l-1.77-0.64c-0.5-0.18-0.98-0.34-1.45-0.27l0.46-1.28c0.38-0.03,0.69,0.01,1.46,0.29l1.79,0.65c1.28,0.46,1.91,0.01,2.29-1.04
			l0.32-0.89l-4.85-1.76l0.46-1.27l11.37,4.11L773.61,185.85z M768.37,183.59c-0.36,1.01-0.26,1.72,0.98,2.17l1.09,0.39
			c1.02,0.37,1.69,0.19,2.03-0.75l0.45-1.23l-4.21-1.52L768.37,183.59z"/>
		<path d="M762.88,190.85l8.01,1.59l-0.69,1.22l-6.1-1.28l4.24,4.58l-0.63,1.11l-5.49-6.05l-3.78-2.13l0.65-1.16L762.88,190.85z"/>
	</g>
	<g>
		<g>
			<path d="M722.93,136.74l-9.65,28.83l1.78-0.66l1.94,5.38l-2.69,0.7l-1.47-4.09l-0.52,1.56l1,2.79l-2.12,0.55l-0.72,2.16
				l3.87,10.85h26.09L722.93,136.74z M734.96,174.67l-4.55,0.63l-2.34-6.42l4.41-1.05L734.96,174.67z M723.01,170.09l3.63-0.86
				l2.27,6.29l-3.75,0.52L723.01,170.09z M723.78,176.22l-3.23,0.45l-1.99-5.52l3.13-0.74L723.78,176.22z M729.47,159.55l2.48,6.82
				l-4.37,1.14l-2.33-6.39L729.47,159.55z M723.9,161.62l2.26,6.27l-3.61,0.94l-2.14-5.91L723.9,161.62z M716.16,164.49l3-1.11
				l2.08,5.79l-3.1,0.81L716.16,164.49z M717.41,171.42l1.95,5.41l-2.82,0.39l-1.85-5.16L717.41,171.42z M711.29,172.87l2.4-0.57
				l1.81,5.06l-2.47,0.34L711.29,172.87z M715.17,183.6l-1.76-4.87l2.48-0.29l1.82,5.1L715.17,183.6z M718.8,183.51l-1.86-5.19
				l12.46-1.45l2.28,6.32L718.8,183.51z M730.92,176.7l4.58-0.53l2.49,6.87l-4.73,0.12L730.92,176.7z"/>
		</g>
		<g>
			<path d="M702.82,151.03l-12.32,33.78c4.48,0,10.03,0,15.17,0l16.75-49.51C714.04,144.04,710.04,147.19,702.82,151.03z"/>
		</g>
	</g>
	<path class="st1" d="M748.87,141.28l-2.22-1.28c-0.79-0.46-1.81-0.19-2.27,0.61c-0.46,0.79-0.19,1.81,0.61,2.27l2.22,1.28
		c1.28,0.74,2.07,2.11,2.07,3.59v34.27c0,1.48-0.79,2.85-2.07,3.59l-29.68,17.13c-1.28,0.74-2.86,0.74-4.14,0l-29.68-17.13
		c-1.28-0.74-2.07-2.11-2.07-3.59v-34.27c0-1.47,0.79-2.85,2.07-3.59l29.68-17.13c1.28-0.74,2.86-0.74,4.14,0l16.99,9.81l-3.26,0.87
		l0.86,3.21l7.12-1.91c0,0,0,0,0.01,0l1.6-0.43l-2.34-8.73l-3.21,0.86l0.87,3.26l-16.99-9.81c-2.3-1.33-5.16-1.33-7.46,0
		l-29.68,17.13c-2.3,1.33-3.73,3.81-3.73,6.46v34.27c0,2.66,1.43,5.13,3.73,6.46l29.68,17.13c1.15,0.66,2.44,1,3.73,1
		c1.29,0,2.58-0.33,3.73-1l29.68-17.13c2.3-1.33,3.73-3.81,3.73-6.46v-34.27C752.6,145.09,751.17,142.61,748.87,141.28z"/>
</g>
</svg>
