<?xml version="1.0" encoding="UTF-8" standalone="no"?>
<!-- Created with Inkscape (http://www.inkscape.org/) -->

<svg
   xmlns:dc="http://purl.org/dc/elements/1.1/"
   xmlns:cc="http://creativecommons.org/ns#"
   xmlns:rdf="http://www.w3.org/1999/02/22-rdf-syntax-ns#"
   xmlns:svg="http://www.w3.org/2000/svg"
   xmlns="http://www.w3.org/2000/svg"
   xmlns:sodipodi="http://sodipodi.sourceforge.net/DTD/sodipodi-0.dtd"
   xmlns:inkscape="http://www.inkscape.org/namespaces/inkscape"
   id="svg2"
   version="1.1"
   inkscape:version="0.91 r13725"
   xml:space="preserve"
   width="350"
   height="400"
   viewBox="0 0 350 400"
   sodipodi:docname="logo-2017.svg"><metadata
     id="metadata8"><rdf:RDF><cc:Work
         rdf:about=""><dc:format>image/svg+xml</dc:format><dc:type
           rdf:resource="http://purl.org/dc/dcmitype/StillImage" /><dc:title></dc:title></cc:Work></rdf:RDF></metadata><defs
     id="defs6"><clipPath
       clipPathUnits="userSpaceOnUse"
       id="clipPath20"><path
         d="M 0,320 280,320 280,0 0,0 0,320 Z"
         id="path22"
         inkscape:connector-curvature="0" /></clipPath></defs><sodipodi:namedview
     pagecolor="#ffffff"
     bordercolor="#666666"
     borderopacity="1"
     objecttolerance="10"
     gridtolerance="10"
     guidetolerance="10"
     inkscape:pageopacity="0"
     inkscape:pageshadow="2"
     inkscape:window-width="1298"
     inkscape:window-height="697"
     id="namedview4"
     showgrid="false"
     inkscape:zoom="0.59"
     inkscape:cx="12.288136"
     inkscape:cy="200"
     inkscape:window-x="0"
     inkscape:window-y="23"
     inkscape:window-maximized="0"
     inkscape:current-layer="g10" /><g
     id="g10"
     inkscape:groupmode="layer"
     inkscape:label="logo-2017"
     transform="matrix(1.25,0,0,-1.25,0,400)"><g
       id="g12"
       transform="translate(58.6128,299.4341)"><path
         d="m 0,0 0,-8.688 16.707,-10.695 8.02,-24.731 7.351,-2.672 4.012,2.004 8.02,-7.351 7.351,0.668 6.016,-12.699 6.015,0 20.719,-9.356 3.344,-4.68 3.34,0.668 12.031,6.016 4.012,-4.012 8.02,-19.379 16.039,-13.371 6.683,-0.668 27.406,-18.711 18.043,-7.355 6.684,2.008 14.707,-14.036 -2.676,-5.347 1.336,-2.008 -6.683,-6.012 3.343,-11.363 -2.004,-2.004 4.676,-11.363 0.668,-9.359 -7.351,-8.688 0,-9.356 -7.352,-6.683 0,-5.348 -6.016,-7.351 2.008,-6.684 2.672,-8.691 1.336,-4.008 -21.387,-26.067 -6.014,-4.679 -8.689,5.347 -14.035,1.336 -6.016,3.344 -28.742,6.684 -14.703,10.023 -4.68,-1.336 -9.355,9.356 -29.41,10.695 -1.336,4.012 -9.356,-1.34 -18.715,10.695 -8.687,-3.344 -21.391,14.039 -6.015,10.692 -6.684,0 -8.687,10.027 -0.668,6.016 -5.348,2.672 4.012,10.027 0.668,10.691 4.011,26.735 -8.023,28.742 6.683,35.422 18.047,40.77 2.676,23.394 L 0,0 Z"
         style="fill:#ffffff;fill-opacity:1;fill-rule:evenodd;stroke:none"
         id="path14"
         inkscape:connector-curvature="0" /></g><g
       id="g16"><g
         id="g18"
         clip-path="url(#clipPath20)"><g
           id="g24"
           transform="translate(58.6128,299.4341)"><path
             d="m 0,0 0,-8.688 16.707,-10.695 8.02,-24.731 7.351,-2.672 4.012,2.004 8.02,-7.351 7.351,0.668 6.016,-12.699 6.015,0 20.719,-9.356 3.344,-4.68 3.34,0.668 12.031,6.016 4.012,-4.012 8.02,-19.379 16.039,-13.371 6.683,-0.668 27.406,-18.711 18.043,-7.355 6.684,2.008 14.707,-14.036 -2.676,-5.347 1.336,-2.008 -6.683,-6.012 3.343,-11.363 -2.004,-2.004 4.676,-11.363 0.668,-9.359 -7.351,-8.688 0,-9.356 -7.352,-6.683 0,-5.348 -6.016,-7.351 2.008,-6.684 2.672,-8.691 1.336,-4.008 -21.387,-26.067 -6.014,-4.679 -8.689,5.347 -14.035,1.336 -6.016,3.344 -28.742,6.684 -14.703,10.023 -4.68,-1.336 -9.355,9.356 -29.41,10.695 -1.336,4.012 -9.356,-1.34 -18.715,10.695 -8.687,-3.344 -21.391,14.039 -6.015,10.692 -6.684,0 -8.687,10.027 -0.668,6.016 -5.348,2.672 4.012,10.027 0.668,10.691 4.011,26.735 -8.023,28.742 6.683,35.422 18.047,40.77 2.676,23.394 L 0,0 Z"
             style="fill:none;stroke:#000000;stroke-width:13.37300014;stroke-linecap:square;stroke-linejoin:miter;stroke-miterlimit:3.79999995;stroke-dasharray:none;stroke-opacity:1"
             id="path26"
             inkscape:connector-curvature="0" /></g><g
           id="g28"
           transform="translate(35.9341,156.457)"><path
             d="m 0,0 c 6.941,-0.199 14.046,0.941 20.836,-0.961 6.191,-2.711 6.601,-11.477 5.152,-17.473 -0.512,-3.359 -8.508,-3.257 -2.703,-4.527 5.176,-2.211 4.289,-8.922 4.422,-13.805 0.105,-8.3 -3.434,-10.797 -10.403,-11.425 -5.613,-0.168 -11.226,-0.153 -16.836,-0.235 L 0,0 Z m 11.828,-8.156 0.105,-10.77 c 5.738,-1.437 5.363,12.102 -0.105,10.77 z m 0.179,-18.309 0.129,-13.551 c 4.883,-0.714 3.692,5.161 3.77,8.469 0.262,3.231 -0.336,5.551 -3.899,5.082 z"
             style="fill:none;stroke:#000000;stroke-width:2.14100003;stroke-linecap:butt;stroke-linejoin:miter;stroke-miterlimit:4;stroke-dasharray:none;stroke-opacity:1"
             id="path30"
             inkscape:connector-curvature="0" /></g><g
           id="g32"
           transform="translate(85.9409,127.9219)"><path
             d="m 0,0 c -0.382,-4.043 -0.457,-8.184 -1.543,-12.11 -1.445,-4.492 -5.617,-7.48 -9.937,-7.878 -5.016,-0.539 -10.816,0.593 -13.961,5.14 -1.965,2.676 -2.312,6.188 -2.086,9.496 0.348,7.262 0.91,14.516 1.539,21.758 0.293,3.453 0.817,7.145 3.172,9.766 3.695,4.34 9.789,4.816 14.793,3.527 C -4.027,28.742 -0.41,25.64 0.645,21.297 1.454,17.621 0.848,13.793 0.727,10.059 0.493,6.707 0.243,3.352 0,0 Z m -10.57,16.707 c 0.02,1.824 0.856,5.563 -1.836,5.363 -2.074,-0.711 -1.512,-3.656 -1.863,-5.461 -0.578,-8.421 -1.289,-16.836 -1.774,-25.261 -0.543,-1.828 0.872,-4.258 2.715,-2.879 1.121,1.73 0.86,4.043 1.149,6.043 0.539,7.398 1.074,14.797 1.609,22.195 z"
             style="fill:none;stroke:#000000;stroke-width:2.14100003;stroke-linecap:butt;stroke-linejoin:miter;stroke-miterlimit:4;stroke-dasharray:none;stroke-opacity:1"
             id="path34"
             inkscape:connector-curvature="0" /></g><g
           id="g36"
           transform="translate(82.562,156.8789)"><path
             d="m 0,0 c 6.254,-0.016 12.528,0.406 18.754,-0.324 3.801,-0.336 6.692,-3.938 7.207,-7.848 0.536,-3.68 0.696,-7.558 -0.273,-11.168 -0.734,-2.586 -3.469,-3.371 -5.703,-3.6 2.379,-0.521 4.875,-1.716 5.871,-4.271 0.914,-2.461 0.57,-5.207 0.723,-7.801 0.043,-4.379 0.086,-8.754 0.125,-13.133 -3.637,-0.039 -7.274,-0.078 -10.911,-0.117 -0.089,6.074 -0.05,12.157 -0.234,18.231 0.234,2.133 -1.176,3.957 -3.254,3.566 -0.621,-0.14 -0.133,-1.461 -0.277,-2.113 0.066,-6.574 0.129,-13.149 0.191,-19.723 C 8.305,-48.344 4.387,-48.387 0.469,-48.43 0.313,-32.285 0.157,-16.145 0,0 Z m 11.833,-8.16 c 0.035,-3.59 0.066,-7.18 0.105,-10.77 1.98,-0.347 3.852,0.993 3.512,3.297 -0.051,2.008 0.199,4.082 -0.336,6.028 -0.488,1.398 -2.11,1.429 -3.281,1.445 z"
             style="fill:none;stroke:#000000;stroke-width:2.14100003;stroke-linecap:butt;stroke-linejoin:miter;stroke-miterlimit:4;stroke-dasharray:none;stroke-opacity:1"
             id="path38"
             inkscape:connector-curvature="0" /></g><g
           id="g40"
           transform="translate(131.3872,157.4141)"><path
             d="m 0,0 c 0.156,-16.141 0.312,-32.285 0.468,-48.426 -3.433,-0.039 -6.863,-0.074 -10.296,-0.113 -2.11,7.316 -4.219,14.633 -6.329,21.949 0.075,-7.34 0.145,-14.676 0.215,-22.015 -3.273,-0.036 -6.55,-0.071 -9.824,-0.106 -0.156,16.141 -0.312,32.285 -0.469,48.43 3.274,0.035 6.551,0.07 9.825,0.105 2.265,-7.246 4.531,-14.492 6.796,-21.734 -0.07,7.265 -0.14,14.535 -0.211,21.805 C -6.547,-0.07 -3.274,-0.035 0,0 Z"
             style="fill:none;stroke:#000000;stroke-width:2.14100003;stroke-linecap:butt;stroke-linejoin:miter;stroke-miterlimit:4;stroke-dasharray:none;stroke-opacity:1"
             id="path42"
             inkscape:connector-curvature="0" /></g><g
           id="g44"
           transform="translate(162.2461,157.3359)"><path
             d="m 0,0 c 0.156,-16.145 0.312,-32.285 0.469,-48.43 -3.918,-0.043 -7.832,-0.086 -11.75,-0.129 l -0.196,20.34 c -1.171,-0.011 -2.347,-0.023 -3.519,-0.035 0.066,-6.781 0.133,-13.562 0.199,-20.34 -3.918,-0.043 -7.836,-0.086 -11.75,-0.129 -0.156,16.145 -0.312,32.286 -0.469,48.43 3.918,0.043 7.831,0.082 11.75,0.125 0.055,-5.773 0.114,-11.543 0.168,-17.316 l 3.516,0.035 c -0.055,5.773 -0.113,11.547 -0.168,17.32 C -7.832,-0.086 -3.918,-0.043 0,0 Z"
             style="fill:none;stroke:#000000;stroke-width:2.14100003;stroke-linecap:butt;stroke-linejoin:miter;stroke-miterlimit:4;stroke-dasharray:none;stroke-opacity:1"
             id="path46"
             inkscape:connector-curvature="0" /></g><g
           id="g48"
           transform="translate(181.0977,157.8516)"><path
             d="m 0,0 c 2.398,-16.121 4.797,-32.238 7.195,-48.355 -4.011,-0.047 -8.019,-0.086 -12.031,-0.133 -0.223,2.902 -0.445,5.8 -0.668,8.698 -1.405,-0.015 -2.812,-0.03 -4.215,-0.046 -0.207,-2.902 -0.41,-5.809 -0.613,-8.711 -4.059,-0.043 -8.113,-0.09 -12.168,-0.133 1.832,16.164 3.668,32.328 5.504,48.496 C -11.332,-0.125 -5.668,-0.062 0,0 Z m -5.922,-31.207 c -0.797,6.746 -1.414,13.52 -1.984,20.294 -0.785,-6.767 -1.59,-13.536 -2.035,-20.337 l 4.019,0.043 z"
             style="fill:none;stroke:#000000;stroke-width:2.14100003;stroke-linecap:butt;stroke-linejoin:miter;stroke-miterlimit:4;stroke-dasharray:none;stroke-opacity:1"
             id="path50"
             inkscape:connector-curvature="0" /></g><g
           id="g52"
           transform="translate(211.1445,136.7617)"><path
             d="m 0,0 c -3.918,-0.043 -7.836,-0.086 -11.75,-0.129 -0.09,3.981 0.051,7.977 -0.27,11.945 0.192,2.594 -3.906,2.633 -3.898,0.129 -0.355,-3.992 -0.078,-8.007 -0.105,-12.011 0.093,-5.727 0.035,-11.457 0.242,-17.176 -0.379,-2.094 1.644,-4.02 3.379,-2.606 1.136,1.684 0.644,4.004 0.785,5.965 l -0.059,5.824 c 3.918,0.043 7.836,0.086 11.75,0.129 -0.019,-4.449 0.281,-9.07 -1.157,-13.32 -2.163,-4.785 -7.28,-7.223 -12.065,-7.223 -4.536,-0.144 -9.739,1.028 -12.414,5.344 -1.997,3.692 -1.93,8.141 -2.106,12.274 -0.027,6.703 -0.246,13.405 -0.066,20.109 -0.09,4.176 1.855,8.398 5.304,10.48 4.325,2.676 9.735,2.821 14.438,1.297 3.578,-1.254 6.801,-4.371 7.32,-8.527 C 0.086,8.391 -0.074,4.172 0,0 Z"
             style="fill:none;stroke:#000000;stroke-width:2.14100003;stroke-linecap:butt;stroke-linejoin:miter;stroke-miterlimit:4;stroke-dasharray:none;stroke-opacity:1"
             id="path54"
             inkscape:connector-curvature="0" /></g><g
           id="g56"
           transform="translate(235.9922,158.0391)"><path
             d="m 0,0 c -2.172,-7.316 -4.344,-14.629 -6.512,-21.941 2.539,-8.829 5.081,-17.657 7.625,-26.481 -4.051,-0.047 -8.093,-0.09 -12.144,-0.133 -1.645,6.903 -3.297,13.805 -4.946,20.707 0.071,-6.918 0.137,-13.84 0.204,-20.757 -3.918,-0.043 -7.832,-0.086 -11.75,-0.129 -0.158,16.144 -0.313,32.285 -0.469,48.429 3.918,0.043 7.832,0.086 11.75,0.129 0.061,-6.273 0.121,-12.543 0.183,-18.816 1.676,6.289 3.356,12.582 5.036,18.871 C -7.348,-0.082 -3.672,-0.039 0,0 Z"
             style="fill:none;stroke:#000000;stroke-width:2.14100003;stroke-linecap:butt;stroke-linejoin:miter;stroke-miterlimit:4;stroke-dasharray:none;stroke-opacity:1"
             id="path58"
             inkscape:connector-curvature="0" /></g></g></g><text
       transform="matrix(1,0,0,-1,35.9341,161)"
       style="font-variant:normal;font-weight:500;font-stretch:normal;font-size:24px;font-family:Inconsolata;-inkscape-font-specification:Inconsolata;writing-mode:lr-tb;fill:#000000;fill-opacity:1;fill-rule:nonzero;stroke:none"
       id="text60"><tspan
         x="0 12 24 36 48 60 72 84 96 108 120 132 144 156"
         y="0"
         sodipodi:role="line"
         id="tspan62">Make Tradition</tspan><tspan
         x="38.256001 50.256001 62.256001 74.255997 86.255997 98.255997 110.256 122.256 134.256 146.256 158.256 170.256 182.256 194.256"
         y="72.503998"
         sodipodi:role="line"
         id="tspan64">22/8-29/8 2017</tspan></text>
</g></svg>