<?xml version="1.0" encoding="utf-8"?>
<!-- Generator: Adobe Illustrator 27.6.1, SVG Export Plug-In . SVG Version: 6.00 Build 0)  -->
<svg version="1.1" id="Layer_1" xmlns="http://www.w3.org/2000/svg" xmlns:xlink="http://www.w3.org/1999/xlink" x="0px" y="0px"
	 viewBox="0 0 841.9 595.3" style="enable-background:new 0 0 841.9 595.3;" xml:space="preserve">
<style type="text/css">
	.st0{fill:#FFFFFF;}
	.st1{fill:#613A18;}
</style>
<g>
	<g>
		<polygon class="st0" points="292.9,293.1 280.9,346.9 268.9,293.1 260.7,293.1 258.9,370.1 267.7,370.1 268.8,325.3 278.2,364.3 
			283.8,364.3 293.1,325.3 294.1,370.1 302.9,370.1 301.1,293.1 		"/>
		<path class="st0" d="M314.7,293.1l-9.9,77h8.8l1.4-14h10.3l1.4,14h8.8l-9.9-77H314.7z M315.8,348.4l4.4-44.3l4.4,44.3H315.8z"/>
		<polygon class="st0" points="364.4,293.1 355.6,293.1 347.2,328.3 347.2,293.1 338.4,293.1 338.4,370.1 347.2,370.1 347.2,336 
			356,370.1 364.8,370.1 354.9,330.5 		"/>
		<polygon class="st0" points="368.1,370.1 390.1,370.1 390.1,362.4 376.9,362.4 376.9,339.3 388.6,339.3 388.6,331.6 376.9,331.6 
			376.9,300.8 390.1,300.8 390.1,293.1 368.1,293.1 		"/>
		<polygon class="st0" points="424.2,293.1 421.6,293.1 421.2,244.5 477.7,264.8 476.8,262.1 427.2,243.4 525.7,228.6 604.2,260 
			603.1,257.1 533,227.5 552.4,224.5 553.8,220 525.9,224.5 418,178.9 419.1,185.8 518.5,225.7 421.6,241.3 421.2,241.2 
			421.1,231.3 418.5,228.7 418.4,240.1 351.8,215.1 353.2,220 415.3,242.3 320.5,257.7 285.2,247.7 286.5,250.2 316.6,258.3 
			283.9,263.6 284.6,265 321,259.5 350.3,267.4 350,266 324.8,258.9 418.4,244.8 418,293.1 415.4,293.1 415.4,370.1 435.2,370.1 
			435.2,362.4 424.2,362.4 		"/>
		<polygon class="st0" points="438.5,370.1 460.5,370.1 460.5,362.4 447.3,362.4 447.3,339.3 459,339.3 459,331.6 447.3,331.6 
			447.3,300.8 460.5,300.8 460.5,293.1 438.5,293.1 		"/>
		<path class="st0" d="M491,321.6c0-2.4-0.1-5.3-0.3-8.7c-0.2-3.4-0.8-6.7-1.8-9.7c-1-3.1-2.4-5.7-4.2-7.9c-1.9-2.2-4.4-3.2-7.6-3.2
			c-2.3,0-4.3,0.8-6,2.3c-1.7,1.5-3,3.5-4.1,5.9c-1.1,2.4-1.9,5.1-2.5,8.1c-0.6,3-1,6-1.3,8.9c-0.3,2.9-0.4,5.7-0.4,8.2
			c0,2.5-0.1,4.6-0.1,6.1c0,1.5,0,3.5-0.1,6c0,2.5,0,5.3,0.2,8.2c0.2,2.9,0.5,5.9,0.9,8.9c0.4,3,1.1,5.7,2.1,8.1
			c1,2.4,2.2,4.4,3.8,5.9c1.6,1.5,3.6,2.3,6,2.3c1.9,0,3.6-0.7,5-2c1.4-1.3,2.5-3.1,3.1-5.3v6.4h7l0.1-38.9h-14.3v7.6h6.6
			c0,4.9-0.1,9.1-0.4,12.5c-0.3,3.4-0.7,6.2-1.3,8.2c-0.6,2.1-1.3,3.6-2.1,4.5c-0.8,0.9-1.9,1.4-3.1,1.4c-1,0-1.9-0.7-2.5-2.2
			c-0.7-1.5-1.2-3.3-1.5-5.6c-0.4-2.2-0.6-4.7-0.7-7.4c-0.1-2.7-0.2-5.3-0.2-7.8c0-2.5,0-4.7,0.1-6.7c0.1-2,0.1-3.4,0.1-4.2
			c0-0.8,0-2.1-0.1-4c0-1.8,0-3.9,0.1-6.2c0.1-2.3,0.2-4.6,0.4-7.1c0.2-2.5,0.5-4.7,0.9-6.7c0.4-2,1-3.7,1.7-5
			c0.7-1.3,1.6-1.9,2.6-1.9c1,0,1.9,0.5,2.5,1.4c0.6,0.9,1.1,2.1,1.5,3.5c0.4,1.4,0.7,3,0.8,4.6c0.1,1.7,0.3,3.2,0.3,4.8v6.5H491z"
			/>
		<path class="st0" d="M503,293.1l-9.9,77h8.8l1.4-14h10.3l1.4,14h8.8l-9.9-77H503z M504.1,348.4l4.4-44.3l4.4,44.3H504.1z"/>
		<path class="st0" d="M548.9,301.1c-1-2.6-2.5-4.7-4.3-6.5c-1.8-1.8-4.2-2.6-7-2.6c-2.3,0-4.3,0.8-6,2.3c-1.7,1.5-3,3.5-4.1,5.9
			c-1.1,2.4-1.9,5.1-2.5,8.1c-0.6,3-1,6-1.3,8.9c-0.3,2.9-0.4,5.7-0.4,8.2c0,2.5-0.1,4.6-0.1,6.1c0,1.5,0,3.5,0.1,6
			c0,2.6,0.2,5.3,0.4,8.2c0.3,2.9,0.7,5.9,1.3,8.9c0.6,3,1.4,5.7,2.5,8.1c1.1,2.4,2.4,4.4,4.1,5.9c1.6,1.5,3.6,2.3,6,2.3
			c2.9,0,5.2-0.8,7-2.3c1.8-1.5,3.2-3.5,4.3-5.9c1.1-2.4,1.8-5.1,2.1-8.1c0.4-3,0.5-6,0.5-8.9v-3.3h-8.8v3.3c0,1.9-0.1,3.8-0.2,5.8
			c-0.1,1.9-0.3,3.7-0.7,5.3c-0.4,1.6-0.9,2.9-1.6,3.9c-0.7,1-1.6,1.5-2.7,1.5c-1.1,0-2-0.7-2.6-2c-0.7-1.3-1.2-3-1.6-5
			c-0.4-2-0.7-4.2-0.9-6.7c-0.2-2.4-0.3-4.8-0.4-7c-0.1-2.3-0.1-4.3-0.1-6.2c0-1.8,0.1-3.2,0.1-4c0-0.8,0-2.1-0.1-4
			c0-1.8,0-3.9,0.1-6.2c0.1-2.3,0.2-4.6,0.4-7.1c0.2-2.5,0.5-4.7,0.9-6.7c0.4-2,1-3.7,1.7-5c0.7-1.3,1.6-1.9,2.6-1.9
			c1.2,0,2.1,0.5,2.8,1.5c0.7,1,1.2,2.3,1.5,4c0.4,1.6,0.6,3.4,0.7,5.4c0.1,2,0.2,4,0.2,5.9v3h8.8v-3c0-2.4-0.2-5.1-0.5-8.1
			C550.6,306.4,549.9,303.7,548.9,301.1z"/>
		<polygon class="st0" points="567.9,336.7 561,293.1 552.2,293.1 563.5,350.3 563.5,370.1 572.3,370.1 572.3,350.3 583.6,293.1 
			574.8,293.1 		"/>
	</g>
	<g>
		<path class="st0" d="M353.3,384.4h2.7c0.6,0,1.2,0.1,1.8,0.3c0.5,0.2,1,0.6,1.3,1s0.6,0.9,0.8,1.5s0.2,1.2,0.2,2
			c-0.1,0.9-0.3,1.7-0.7,2.3c-0.4,0.6-0.9,1.1-1.3,1.4c0.5,0.3,1,0.7,1.4,1.3s0.6,1.1,0.8,1.7c0.2,0.6,0.3,1.2,0.4,1.8
			s0.1,1.2,0.1,1.7c0,0.7-0.1,1.4-0.3,2.2c-0.2,0.7-0.5,1.4-0.9,1.9c-0.4,0.6-0.9,1-1.5,1.4c-0.6,0.4-1.3,0.5-2.1,0.5h-2.7V384.4z
			 M356,386.5h-0.3v5.6h0.3c0.2,0,0.5-0.1,0.7-0.2c0.2-0.2,0.4-0.4,0.6-0.6c0.2-0.3,0.3-0.6,0.4-0.9s0.2-0.7,0.2-1.1
			c0-1-0.1-1.6-0.3-2.1C357.2,386.7,356.7,386.5,356,386.5z M355.7,403.3h0.3c0.8,0,1.4-0.4,1.8-1.1c0.4-0.7,0.6-1.7,0.6-2.8
			c0-0.7-0.1-1.4-0.2-2.1c-0.1-0.7-0.3-1.2-0.5-1.7c-0.2-0.5-0.5-0.9-0.8-1.2c-0.3-0.3-0.6-0.4-1-0.4h-0.3V403.3z"/>
		<path class="st0" d="M365.3,405.7c-0.6,0-1.2-0.2-1.6-0.6c-0.4-0.4-0.8-1-1.1-1.6c-0.3-0.7-0.5-1.4-0.7-2.2s-0.3-1.6-0.3-2.4
			c-0.1-0.8-0.1-1.5-0.1-2.2c0-0.7,0-1.2,0-1.7c0-0.4,0-1,0-1.7c0-0.7,0-1.4,0.1-2.2c0.1-0.8,0.2-1.6,0.3-2.4
			c0.2-0.8,0.4-1.6,0.7-2.2c0.3-0.7,0.7-1.2,1.1-1.6c0.5-0.4,1-0.6,1.6-0.6c0.7,0,1.2,0.2,1.7,0.6c0.4,0.4,0.8,1,1.1,1.6
			c0.3,0.7,0.5,1.4,0.7,2.2c0.2,0.8,0.3,1.6,0.3,2.4c0.1,0.8,0.1,1.6,0.1,2.2c0,0.7,0,1.3,0,1.7c0,0.4,0,1,0,1.7
			c0,0.7-0.1,1.5-0.1,2.2c-0.1,0.8-0.2,1.6-0.3,2.4s-0.4,1.6-0.7,2.2c-0.3,0.7-0.7,1.2-1.1,1.6C366.5,405.4,365.9,405.7,365.3,405.7
			z M365.3,386.5c-0.3,0-0.5,0.2-0.7,0.5c-0.2,0.4-0.3,0.8-0.5,1.3c-0.1,0.6-0.2,1.2-0.2,1.8c-0.1,0.7-0.1,1.3-0.1,1.9
			c0,0.6,0,1.2,0,1.7c0,0.5,0,0.9,0,1.1c0,0.2,0,0.6,0,1.1c0,0.5,0,1.1,0,1.7c0,0.6,0.1,1.3,0.1,1.9c0,0.7,0.1,1.3,0.2,1.8
			s0.3,1,0.4,1.4c0.2,0.4,0.4,0.5,0.7,0.5c0.3,0,0.5-0.2,0.7-0.5c0.2-0.4,0.3-0.8,0.5-1.4s0.2-1.2,0.3-1.8c0-0.7,0.1-1.3,0.1-1.9
			c0-0.6,0-1.2,0-1.7c0-0.5,0-0.9,0-1.1c0-0.2,0-0.6,0-1.1c0-0.5,0-1.1,0-1.7c0-0.6-0.1-1.3-0.1-1.9c-0.1-0.7-0.1-1.3-0.3-1.8
			c-0.1-0.5-0.3-1-0.5-1.3C365.8,386.6,365.6,386.5,365.3,386.5z"/>
		<path class="st0" d="M370.1,384.4h2.4v6.1c0.3,0.1,0.6,0.3,0.9,0.5l1.5-6.5h2.4l-2.2,8.2c0.5,0.7,0.9,1.5,1.2,2.4
			c0.3,0.9,0.5,1.8,0.6,2.7s0.1,1.8,0,2.7c-0.1,0.9-0.3,1.7-0.6,2.4c-0.3,0.7-0.7,1.3-1.3,1.8c-0.6,0.5-1.4,0.8-2.3,0.8h-2.7V384.4z
			 M372.5,403.3h0.5c0.4,0,0.7-0.2,1-0.5c0.3-0.3,0.5-0.7,0.6-1.1c0.2-0.6,0.3-1.4,0.3-2.2c0-0.9,0-1.8-0.2-2.7s-0.4-1.7-0.8-2.5
			c-0.4-0.8-0.9-1.3-1.5-1.7V403.3z"/>
		<path class="st0" d="M380.6,384.4v12.4l3.5-12.4h2.2v21h-2.4v-13l-3.4,13h-2.2v-21H380.6z"/>
		<path class="st0" d="M392.6,405.4v-8.5h-2.7v8.5h-2.4v-21h2.4v10.4h2.7v-10.4h2.4v21H392.6z"/>
		<path class="st0" d="M401.4,401.5h-2.8l-0.4,3.8h-2.4l2.7-21h3l2.7,21h-2.4L401.4,401.5z M401.2,399.4l-1.2-12.1l-1.2,12.1H401.2z
			"/>
		<path class="st0" d="M404,394.9c0-0.4,0-1,0-1.7c0-0.7,0-1.4,0.1-2.2c0.1-0.8,0.2-1.6,0.3-2.4c0.2-0.8,0.4-1.6,0.7-2.2
			s0.7-1.2,1.1-1.6c0.4-0.4,1-0.6,1.6-0.6c0.8,0,1.4,0.2,1.9,0.7c0.5,0.5,0.9,1.1,1.2,1.8s0.5,1.5,0.6,2.3c0.1,0.8,0.1,1.6,0.1,2.2
			v0.8h-2.4V391c0-0.5,0-1.1,0-1.6c0-0.5-0.1-1-0.2-1.5c-0.1-0.4-0.2-0.8-0.4-1.1c-0.2-0.3-0.4-0.4-0.8-0.4c-0.3,0-0.5,0.2-0.7,0.5
			c-0.2,0.4-0.3,0.8-0.5,1.3c-0.1,0.6-0.2,1.2-0.2,1.8c0,0.7-0.1,1.3-0.1,1.9c0,0.6,0,1.2,0,1.7c0,0.5,0,0.9,0,1.1
			c0,0.2,0,0.6,0,1.1c0,0.5,0,1.1,0,1.7c0,0.6,0.1,1.3,0.1,1.9s0.1,1.3,0.2,1.8c0.1,0.5,0.3,1,0.4,1.4c0.2,0.4,0.4,0.5,0.7,0.5
			s0.5-0.1,0.7-0.4c0.2-0.3,0.3-0.6,0.4-1.1c0.1-0.4,0.2-0.9,0.2-1.5c0-0.5,0-1.1,0-1.6v-0.9h2.4v0.9c0,0.8,0,1.6-0.1,2.4
			c-0.1,0.8-0.3,1.6-0.6,2.2c-0.3,0.7-0.7,1.2-1.2,1.6c-0.5,0.4-1.1,0.6-1.9,0.6c-0.6,0-1.2-0.2-1.6-0.6c-0.5-0.4-0.8-1-1.1-1.6
			s-0.5-1.4-0.7-2.2c-0.2-0.8-0.3-1.6-0.3-2.4s-0.1-1.5-0.1-2.2C404,395.8,404,395.3,404,394.9z"/>
		<path class="st0" d="M412.7,384.4h2.4v9.3l2.4-9.3h2.4l-2.7,10.8l2.6,10.2h-2.4l-2.3-9.6v9.6h-2.4V384.4z"/>
		<path class="st0" d="M464.2,390.1c-0.2,1.3-0.6,2.7-1.2,4.2s-1.3,3.3-2.1,5.2l-1.8,3.8h5.2v2.1h-7.5v-2.4l2-4.4
			c0.8-1.7,1.5-3.3,1.9-4.6c0.4-1.3,0.8-2.6,1-3.9c0.1-0.4,0.1-0.8,0.1-1.2c0-0.5-0.1-0.9-0.2-1.3c-0.1-0.4-0.3-0.7-0.5-1
			c-0.2-0.3-0.5-0.4-0.8-0.4c-0.3,0-0.6,0.1-0.8,0.3c-0.2,0.2-0.3,0.5-0.4,0.8c-0.1,0.3-0.2,0.7-0.2,1c0,0.4,0,0.6,0,0.9h-2.2
			c0-0.6,0.1-1.3,0.3-1.9c0.1-0.6,0.4-1.2,0.7-1.6c0.3-0.5,0.7-0.9,1.1-1.2c0.5-0.3,1-0.5,1.6-0.5c0.8,0,1.5,0.2,2,0.6
			s1,0.8,1.3,1.4c0.3,0.6,0.5,1.2,0.6,1.9C464.3,388.7,464.3,389.4,464.2,390.1z"/>
		<path class="st0" d="M469,384.1c0.7,0,1.2,0.2,1.6,0.6c0.4,0.4,0.8,0.9,1.1,1.6c0.3,0.6,0.5,1.4,0.6,2.2s0.2,1.6,0.3,2.4
			c0.1,0.8,0.1,1.5,0.1,2.2s0,1.3,0,1.7c0,0.4,0,1,0,1.7c0,0.7,0,1.5-0.1,2.3s-0.2,1.6-0.3,2.4c-0.1,0.8-0.4,1.5-0.6,2.2
			c-0.3,0.7-0.6,1.2-1.1,1.6c-0.4,0.4-1,0.6-1.7,0.6c-0.6,0-1.2-0.2-1.6-0.6c-0.4-0.4-0.8-0.9-1.1-1.6c-0.3-0.6-0.5-1.4-0.6-2.2
			c-0.1-0.8-0.2-1.6-0.3-2.4c-0.1-0.8-0.1-1.5-0.1-2.2s0-1.3,0-1.7c0-0.4,0-1,0-1.7s0-1.5,0.1-2.3c0.1-0.8,0.2-1.6,0.3-2.4
			c0.1-0.8,0.3-1.5,0.6-2.2c0.3-0.7,0.6-1.2,1.1-1.6C467.8,384.3,468.3,384.1,469,384.1z M467.6,394.9c0,0.2,0,0.6,0,1.1
			c0,0.5,0,1.1,0,1.7c0,0.6,0,1.3,0.1,2c0,0.7,0.1,1.3,0.2,1.9c0.1,0.6,0.2,1.1,0.4,1.4c0.2,0.4,0.4,0.6,0.6,0.6s0.5-0.2,0.6-0.6
			c0.2-0.4,0.3-0.8,0.4-1.4c0.1-0.6,0.2-1.2,0.2-1.9c0-0.7,0.1-1.4,0.1-2c0-0.6,0-1.2,0-1.7c0-0.5,0-0.9,0-1.1s0-0.6,0-1.1
			c0-0.5,0-1.1,0-1.7c0-0.6,0-1.3-0.1-2c-0.1-0.7-0.1-1.3-0.2-1.9c-0.1-0.6-0.2-1.1-0.4-1.4c-0.2-0.4-0.4-0.6-0.6-0.6
			s-0.5,0.2-0.6,0.6c-0.2,0.4-0.3,0.8-0.4,1.4c-0.1,0.6-0.2,1.2-0.2,1.9c-0.1,0.7-0.1,1.4-0.1,2c0,0.6,0,1.2,0,1.7
			C467.6,394.3,467.6,394.7,467.6,394.9z"/>
		<path class="st0" d="M480.6,390.1c-0.2,1.3-0.6,2.7-1.2,4.2s-1.3,3.3-2.1,5.2l-1.8,3.8h5.2v2.1h-7.5v-2.4l2-4.4
			c0.8-1.7,1.5-3.3,1.9-4.6c0.4-1.3,0.8-2.6,1-3.9c0.1-0.4,0.1-0.8,0.1-1.2c0-0.5-0.1-0.9-0.2-1.3c-0.1-0.4-0.3-0.7-0.5-1
			c-0.2-0.3-0.5-0.4-0.8-0.4c-0.3,0-0.6,0.1-0.8,0.3c-0.2,0.2-0.3,0.5-0.4,0.8c-0.1,0.3-0.2,0.7-0.2,1c0,0.4,0,0.6,0,0.9h-2.2
			c0-0.6,0.1-1.3,0.3-1.9c0.1-0.6,0.4-1.2,0.7-1.6c0.3-0.5,0.7-0.9,1.1-1.2c0.5-0.3,1-0.5,1.6-0.5c0.8,0,1.5,0.2,2,0.6
			s1,0.8,1.3,1.4c0.3,0.6,0.5,1.2,0.6,1.9C480.7,388.7,480.7,389.4,480.6,390.1z"/>
		<path class="st0" d="M485.5,384.1c0.8,0,1.4,0.2,1.9,0.6c0.5,0.4,0.9,0.9,1.1,1.5c0.3,0.6,0.4,1.3,0.5,2c0.1,0.7,0.1,1.4,0.1,2
			c0,0.8-0.1,1.5-0.3,2.2c-0.2,0.7-0.7,1.3-1.4,1.8c0.7,0.5,1.2,1.3,1.5,2.4c0.2,1.1,0.3,2.3,0.3,3.7c0,0.6,0,1.2-0.1,1.9
			c-0.1,0.6-0.3,1.2-0.6,1.7c-0.3,0.5-0.7,0.9-1.2,1.3s-1.2,0.5-2,0.5c-0.9,0-1.6-0.2-2.1-0.6c-0.5-0.4-0.9-1-1.2-1.8
			s-0.5-1.7-0.5-2.7c-0.1-1-0.1-2.1-0.1-3.3h2.4c-0.1,2.1,0,3.7,0.2,4.8c0.2,1.1,0.6,1.6,1.3,1.6c0.4,0,0.7-0.1,0.9-0.4
			c0.2-0.3,0.4-0.6,0.5-0.9c0.1-0.3,0.1-0.7,0.1-1.1c0-0.4,0-0.7,0-0.9c0-0.8,0-1.6-0.1-2.2s-0.2-1.1-0.3-1.6
			c-0.2-0.4-0.4-0.8-0.6-1c-0.3-0.2-0.6-0.4-1-0.5c-0.3-0.1-0.6-0.1-1-0.1v-2.1h1.5c0.4,0,0.6-0.1,0.8-0.3c0.2-0.2,0.3-0.4,0.4-0.7
			c0.1-0.3,0.1-0.6,0.1-0.9c0-0.3,0-0.6,0-0.8c0-0.2,0-0.5,0-1c0-0.4-0.1-0.9-0.1-1.3c-0.1-0.4-0.2-0.8-0.4-1.2
			c-0.2-0.3-0.5-0.5-0.8-0.5c-0.3,0-0.6,0.1-0.8,0.3c-0.2,0.2-0.3,0.5-0.4,0.8c-0.1,0.3-0.2,0.7-0.2,1c0,0.4,0,0.6,0,0.9h-2.2
			c0-0.6,0.1-1.3,0.3-1.9c0.1-0.6,0.4-1.2,0.7-1.6c0.3-0.5,0.7-0.9,1.1-1.2C484.4,384.2,484.9,384.1,485.5,384.1z"/>
		<path class="st0" d="M441.6,384.7l-4.2,12.6l0.8-0.3l0.8,2.3l-1.2,0.3l-0.6-1.8l-0.2,0.7l0.4,1.2l-0.9,0.2l-0.3,0.9l1.7,4.7h11.4
			L441.6,384.7z M446.9,401.2l-2,0.3l-1-2.8l1.9-0.5L446.9,401.2z M441.7,399.2l1.6-0.4l1,2.7l-1.6,0.2L441.7,399.2z M442,401.9
			l-1.4,0.2l-0.9-2.4l1.4-0.3L442,401.9z M444.5,394.6l1.1,3l-1.9,0.5l-1-2.8L444.5,394.6z M442.1,395.5l1,2.7l-1.6,0.4l-0.9-2.6
			L442.1,395.5z M438.7,396.8l1.3-0.5l0.9,2.5l-1.4,0.4L438.7,396.8z M439.2,399.8l0.9,2.4l-1.2,0.2l-0.8-2.2L439.2,399.8z
			 M436.6,400.4l1-0.2l0.8,2.2l-1.1,0.1L436.6,400.4z M438.2,405.1l-0.8-2.1l1.1-0.1l0.8,2.2L438.2,405.1z M439.8,405.1l-0.8-2.3
			l5.4-0.6l1,2.8L439.8,405.1z M445.1,402.1l2-0.2l1.1,3l-2.1,0.1L445.1,402.1z"/>
		<path class="st0" d="M432.9,390.9l-5.4,14.7c2,0,4.4,0,6.6,0l7.3-21.6C437.8,387.9,436,389.2,432.9,390.9z"/>
	</g>
	<path class="st0" d="M422,305.3"/>
	<path class="st1" d="M339.8,395.2c-0.2,2.1-0.4,4.3-0.6,5.8c0,0.3-0.1,0.6-0.1,0.8c0-0.2-0.1-0.5-0.1-0.8c-0.2-1.5-0.4-3.7-0.6-5.9
		c-0.2-2.1-0.4-4.3-0.6-5.8c-0.3-2.3-0.5-2.9-1.1-2.9c-0.6,0-0.8,0.6-1.1,2.9c-0.2,1.6-0.4,3.8-0.6,5.9c0,0,0,0.1,0,0.1l0,0
		c-0.2,3.2-0.4,6.4-0.6,8.7c0,0.4-0.1,0.8-0.1,1.2c0-0.3-0.1-0.7-0.1-1.2c-0.2-2.3-0.4-5.6-0.6-8.9c-0.2-3.2-0.4-6.5-0.6-8.8
		c-0.3-3.8-0.5-4.1-1.1-4.1c-0.6,0-0.8,0.3-1.1,4.1c-0.2,2.3-0.4,5.6-0.6,8.8c0,0,0,0,0,0.1l0,0c-0.2,2.6-0.4,5.4-0.6,7.3
		c0,0.4-0.1,0.7-0.1,1c0-0.3-0.1-0.6-0.1-1c-0.2-1.9-0.4-4.7-0.6-7.4c-0.2-2.6-0.4-5.4-0.6-7.3c-0.3-3-0.5-3.5-1.1-3.5
		s-0.8,0.5-1.1,3.5c-0.2,1.9-0.4,4.6-0.6,7.3l0,0c0,0,0,0,0,0.1c-0.2,4.3-0.4,8.7-0.6,11.7c0,0.6-0.1,1.1-0.1,1.6
		c0-0.5-0.1-1-0.1-1.6c-0.2-3-0.4-7.4-0.6-11.6l0-0.1c-0.2-4.3-0.4-8.7-0.6-11.8c-0.4-5.3-0.6-5.3-1.1-5.3s-0.8,0-1.1,5.3
		c-0.2,3-0.4,7.4-0.6,11.7l0,0.1c-0.2,2.7-0.4,5.4-0.6,7.3c0,0.4-0.1,0.7-0.1,1c0-0.3-0.1-0.6-0.1-1c-0.2-1.9-0.4-4.6-0.6-7.3
		c-0.2-2.7-0.4-5.4-0.6-7.4c-0.3-3-0.5-3.5-1.1-3.5s-0.8,0.5-1.1,3.5c-0.2,1.9-0.4,4.6-0.6,7.3l0,0c0,0,0,0,0,0.1
		c-0.2,2.1-0.4,4.3-0.6,5.9c0,0.3-0.1,0.6-0.1,0.8c0-0.2-0.1-0.5-0.1-0.8c-0.2-1.5-0.4-3.7-0.6-5.9c-0.2-2.1-0.4-4.3-0.6-5.9
		c-0.3-2.3-0.5-2.9-1.1-2.9c-0.6,0-0.8,0.6-1.1,2.9c-0.2,1.5-0.4,3.7-0.6,5.8l0,0c0,0,0,0,0,0c-0.2,1.6-0.4,3.2-0.6,4.4
		c0,0.2-0.1,0.4-0.1,0.6c0-0.2-0.1-0.4-0.1-0.6c-0.2-1.1-0.4-2.8-0.6-4.4c-0.2-1.6-0.4-3.2-0.6-4.4c-0.3-1.5-0.5-2.2-1.1-2.2
		c-0.6,0-0.8,0.7-1.1,2.2c-0.2,1.2-0.4,2.8-0.6,4.4c0,0,0,0,0,0l0,0c-0.2,1.6-0.4,3.2-0.6,4.3c0,0.2-0.1,0.4-0.1,0.6
		c0-0.2-0.1-0.4-0.1-0.6c-0.2-1.1-0.4-2.8-0.6-4.4c-0.2-1.6-0.4-3.2-0.6-4.4c-0.3-1.5-0.5-2.2-1.1-2.2c-0.6,0-0.8,0.7-1.1,2.2
		c-0.2,1.2-0.4,2.8-0.6,4.4c0,0,0,0,0,0.1l0,0c-0.2,2.1-0.4,4.3-0.6,5.8c0,0.3-0.1,0.6-0.1,0.8c0-0.2-0.1-0.5-0.1-0.8
		c-0.2-1.5-0.4-3.7-0.6-5.9c-0.2-2.1-0.4-4.3-0.6-5.8c-0.3-2.3-0.5-2.9-1.1-2.9c-0.6,0-0.8,0.6-1.1,2.9c-0.2,1.6-0.4,3.8-0.6,5.9
		c0,0,0,0,0,0.1l0,0c-0.2,2.6-0.4,5.4-0.6,7.3c0,0.4-0.1,0.7-0.1,1c0-0.3-0.1-0.6-0.1-1c-0.2-1.9-0.4-4.7-0.6-7.4
		c-0.2-2.6-0.4-5.4-0.6-7.3c-0.3-3-0.5-3.5-1.1-3.5s-0.8,0.5-1.1,3.5c-0.2,1.9-0.4,4.7-0.6,7.4c0,0,0,0,0,0l0,0
		c-0.2,2.1-0.4,4.3-0.6,5.8c0,0.3-0.1,0.6-0.1,0.8c0-0.2-0.1-0.5-0.1-0.8c-0.2-1.5-0.4-3.7-0.6-5.9c-0.2-2.1-0.4-4.3-0.6-5.9
		c-0.3-2.3-0.5-2.9-1.1-2.9c-0.6,0-0.8,0.6-1.1,2.9c-0.2,1.5-0.4,3.7-0.6,5.8l0,0c0,0,0,0,0,0.1c-0.2,3.2-0.4,6.5-0.6,8.8
		c0,0.4-0.1,0.8-0.1,1.2c0-0.3-0.1-0.7-0.1-1.2c-0.2-2.3-0.4-5.6-0.6-8.8c-0.2-3.2-0.4-6.5-0.6-8.8c-0.3-3.8-0.5-4.1-1.1-4.1
		c-0.6,0-0.8,0.3-1.1,4.1c-0.2,2.3-0.4,5.6-0.6,8.8l0.1,0c0,0,0,0.1,0,0.1c-0.2,5.3-0.4,10.8-0.6,14.7c0,0.7-0.1,1.4-0.1,1.9
		c0-0.6-0.1-1.2-0.1-1.9c-0.2-3.8-0.4-9.3-0.6-14.6l0-0.1c-0.2-5.3-0.4-10.8-0.6-14.7c-0.3-6.6-0.5-6.6-1.1-6.6
		c-0.6,0-0.8,0-1.1,6.6c-0.2,3.8-0.4,9.3-0.6,14.6l0,0.1c0,0,0,0,0,0c-0.2,4.3-0.4,8.7-0.6,11.7c0,0.6-0.1,1.1-0.1,1.6
		c0-0.5-0.1-1-0.1-1.6c-0.2-3-0.4-7.4-0.6-11.6l0-0.1c-0.2-4.3-0.4-8.7-0.6-11.8c-0.4-5.3-0.6-5.3-1.1-5.3s-0.8,0-1.1,5.3
		c-0.2,3-0.4,7.4-0.6,11.7l0,0.1c-0.2,3.2-0.4,6.5-0.6,8.8c0,0.4-0.1,0.8-0.1,1.2c0-0.3-0.1-0.7-0.1-1.2c-0.2-2.3-0.4-5.6-0.6-8.8
		c-0.2-3.2-0.4-6.5-0.6-8.8c-0.3-3.8-0.5-4.1-1.1-4.1c-0.6,0-0.8,0.3-1.1,4.1c-0.2,2.3-0.4,5.6-0.6,8.8l0,0c0,0,0,0,0,0.1
		c-0.2,2.1-0.4,4.3-0.6,5.9c0,0.3-0.1,0.6-0.1,0.8c0-0.2-0.1-0.5-0.1-0.8c-0.2-1.5-0.4-3.7-0.6-5.9c-0.2-2.1-0.4-4.3-0.6-5.8
		c-0.3-2.3-0.5-2.9-1.1-2.9c-0.6,0-0.8,0.6-1.1,2.9c-0.2,1.6-0.4,3.8-0.6,5.9c0,0,0,0,0,0.1l0,0c-0.2,2.1-0.4,4.3-0.6,5.8
		c0,0.3-0.1,0.6-0.1,0.8c0-0.2-0.1-0.5-0.1-0.8c-0.2-1.5-0.4-3.7-0.6-5.9c-0.2-2.1-0.4-4.3-0.6-5.8c-0.3-2.3-0.5-2.9-1.1-2.9
		c-0.6,0-0.8,0.6-1.1,2.9c-0.2,1.6-0.4,3.8-0.6,5.9c0,0,0,0,0,0.1l0,0c-0.2,2.6-0.4,5.4-0.6,7.3c0,0.4-0.1,0.7-0.1,1
		c0-0.3-0.1-0.6-0.1-1c-0.2-1.9-0.4-4.7-0.6-7.4c-0.2-2.6-0.4-5.4-0.6-7.3c-0.3-3-0.5-3.5-1.1-3.5s-0.8,0.5-1.1,3.5
		c-0.2,1.9-0.4,4.7-0.6,7.4c0,0,0,0.1,0,0.1l0,0c-0.2,3.2-0.4,6.4-0.6,8.7c0,0.4-0.1,0.8-0.1,1.2c0-0.3-0.1-0.7-0.1-1.2
		c-0.2-2.3-0.4-5.6-0.6-8.9c-0.2-3.2-0.4-6.5-0.6-8.8c-0.3-3.8-0.5-4.1-1.1-4.1c-0.6,0-0.8,0.3-1.1,4.1c-0.2,2.3-0.4,5.6-0.6,8.8
		l0,0c0,0,0,0.1,0,0.1c-0.2,4.3-0.4,8.7-0.6,11.7c0,0.6-0.1,1.1-0.1,1.6c0-0.5-0.1-1-0.1-1.6c-0.2-3-0.4-7.4-0.6-11.6l0-0.1
		c-0.2-4.3-0.4-8.7-0.6-11.8c-0.4-5.3-0.6-5.3-1.1-5.3s-0.8,0-1.1,5.3c-0.2,3-0.4,7.4-0.6,11.7l0,0.1c-0.2,3.2-0.4,6.5-0.6,8.8
		c0,0.4-0.1,0.8-0.1,1.2c0-0.3-0.1-0.7-0.1-1.2c-0.2-2.3-0.4-5.6-0.6-8.8c-0.2-3.2-0.4-6.5-0.6-8.8c-0.3-3.8-0.5-4.1-1.1-4.1
		c-0.6,0-0.8,0.3-1.1,4.1c-0.2,2.3-0.4,5.6-0.6,8.8l0,0c0,0,0,0,0,0.1c-0.2,2.1-0.4,4.3-0.6,5.9c0,0.3-0.1,0.6-0.1,0.8
		c0-0.2-0.1-0.5-0.1-0.8c-0.2-1.5-0.4-3.7-0.6-5.9c-0.2-2.1-0.4-4.3-0.6-5.9c-0.3-2.3-0.5-2.9-1.1-2.9c-0.6,0-0.8,0.6-1.1,2.9
		c-0.2,1.5-0.4,3.7-0.6,5.8l0,0c0,0,0,0,0,0c-0.2,1.6-0.4,3.2-0.6,4.4c0,0.2-0.1,0.4-0.1,0.6c0-0.2-0.1-0.4-0.1-0.6
		c-0.2-1.1-0.4-2.8-0.6-4.4c-0.2-1.6-0.4-3.2-0.6-4.4c-0.3-1.5-0.5-2.2-1.1-2.2c-0.6,0-0.8,0.7-1.1,2.2c-0.2,1.2-0.4,2.8-0.6,4.4
		c0,0,0,0.1,0,0.1l0,0c-0.2,2.6-0.4,5.4-0.6,7.3c0,0.4-0.1,0.7-0.1,1c0-0.3-0.1-0.6-0.1-1c-0.2-1.9-0.4-4.7-0.6-7.4
		c-0.2-2.6-0.4-5.4-0.6-7.3c-0.3-3-0.5-3.5-1.1-3.5s-0.8,0.5-1.1,3.5c-0.2,1.9-0.4,4.7-0.6,7.4c0,0,0,0.1,0,0.1l0,0
		c-0.2,3.2-0.4,6.4-0.6,8.7c0,0.4-0.1,0.8-0.1,1.2c0-0.3-0.1-0.7-0.1-1.2c-0.2-2.3-0.4-5.6-0.6-8.9c-0.2-3.2-0.4-6.5-0.6-8.8
		c-0.3-3.8-0.5-4.1-1.1-4.1c-0.6,0-0.8,0.3-1.1,4.1c-0.2,2.3-0.4,5.6-0.6,8.8c0,0,0,0,0,0.1l0,0c-0.2,2.6-0.4,5.4-0.6,7.3
		c0,0.4-0.1,0.7-0.1,1c0-0.3-0.1-0.6-0.1-1c-0.2-1.9-0.4-4.7-0.6-7.4c-0.2-2.6-0.4-5.4-0.6-7.3c-0.3-3-0.5-3.5-1.1-3.5
		s-0.8,0.5-1.1,3.5c-0.2,1.9-0.4,4.7-0.6,7.4c0,0,0,0,0,0l0,0c-0.2,1.6-0.4,3.2-0.6,4.3c0,0.2-0.1,0.4-0.1,0.6
		c0-0.2-0.1-0.4-0.1-0.6c-0.2-1.1-0.4-2.8-0.6-4.4c-0.2-1.6-0.4-3.3-0.6-4.4c-0.3-1.5-0.5-2.2-1.1-2.2c-0.6,0-0.8,0.7-1.1,2.2
		c-0.2,1.2-0.4,2.8-0.6,4.4l0,0c0,0,0,0,0,0.1c-0.2,2.1-0.4,4.3-0.6,5.9c0,0.3-0.1,0.6-0.1,0.8c0-0.2-0.1-0.5-0.1-0.8
		c-0.2-1.5-0.4-3.7-0.6-5.9c-0.2-2.1-0.4-4.3-0.6-5.9c-0.3-2.3-0.5-2.9-1.1-2.9c-0.6,0-0.8,0.6-1.1,2.9c-0.2,1.5-0.4,3.7-0.6,5.8
		l0,0c0,0,0,0,0,0c-0.2,1.6-0.4,3.2-0.6,4.4c0,0.2-0.1,0.4-0.1,0.6c0-0.2-0.1-0.4-0.1-0.6c-0.2-1.1-0.4-2.8-0.6-4.4
		c-0.2-1.6-0.4-3.3-0.6-4.4c-0.3-1.5-0.5-2.2-1.1-2.2c-0.6,0-0.8,0.7-1.1,2.2c-0.2,1.2-0.4,2.8-0.6,4.4l0,0c0,0,0,0,0,0
		c-0.2,1.1-0.4,2.1-0.6,2.9c0,0.2-0.1,0.3-0.1,0.4c0-0.1-0.1-0.3-0.1-0.4c-0.2-0.7-0.4-1.8-0.6-2.9c-0.2-1.1-0.4-2.2-0.6-3
		c-0.3-1-0.5-1.6-1.1-1.6c-0.6,0-0.8,0.6-1.1,1.6c-0.2,0.8-0.4,1.9-0.6,2.9c-0.2,0.5-0.4,1-0.6,1.4c-0.1,0.1-0.1,0.2-0.2,0.3
		c0-0.1-0.1-0.1-0.2-0.3c-0.2-0.4-0.4-0.9-0.6-1.4c-0.2-0.5-0.4-1.1-0.6-1.5c-0.2-0.4-0.5-0.9-1.1-0.9c-0.5,0-0.9,0.5-1.1,0.9
		c-0.2,0.4-0.4,1-0.6,1.5l0,0c0,0,0,0,0,0c-0.2,0.5-0.4,1.1-0.6,1.4c-0.1,0.1-0.1,0.2-0.2,0.3c0-0.1-0.1-0.1-0.2-0.3
		c-0.2-0.4-0.4-0.9-0.6-1.4c-0.2-0.5-0.4-1.1-0.6-1.5c-0.2-0.4-0.5-0.9-1.1-0.9c-0.5,0-0.9,0.5-1.1,0.9c-0.2,0.4-0.4,1-0.6,1.5
		c-0.1,0.3,0,0.5,0.3,0.6c0.3,0.1,0.5,0,0.6-0.3c0.2-0.5,0.4-1.1,0.6-1.4c0.1-0.1,0.1-0.2,0.2-0.3c0,0.1,0.1,0.1,0.2,0.3
		c0.2,0.4,0.4,0.9,0.6,1.4c0.2,0.5,0.4,1.1,0.6,1.5c0.2,0.4,0.5,0.9,1.1,0.9s0.9-0.5,1.1-0.9c0.2-0.4,0.4-1,0.6-1.5c0,0,0,0,0,0l0,0
		c0.2-0.5,0.4-1,0.6-1.4c0.1-0.1,0.1-0.2,0.2-0.3c0,0.1,0.1,0.1,0.2,0.3c0.2,0.4,0.4,0.9,0.6,1.4c0.2,0.5,0.4,1.1,0.6,1.5
		c0.2,0.4,0.5,0.9,1.1,0.9c0.5,0,0.9-0.5,1.1-0.9c0.2-0.4,0.4-1,0.6-1.5c0,0,0-0.1,0-0.1l0,0c0.2-1.1,0.4-2.1,0.6-2.9
		c0-0.2,0.1-0.3,0.1-0.4c0,0.1,0.1,0.3,0.1,0.4c0.2,0.8,0.4,1.8,0.6,2.9c0.2,1.1,0.4,2.2,0.6,3c0.3,1,0.5,1.6,1.1,1.6
		c0.6,0,0.8-0.6,1.1-1.6c0.2-0.8,0.4-1.9,0.6-3c0,0,0,0,0-0.1l0,0c0.2-1.6,0.4-3.2,0.6-4.3c0-0.2,0.1-0.4,0.1-0.6
		c0,0.2,0.1,0.4,0.1,0.6c0.2,1.1,0.4,2.8,0.6,4.4c0.2,1.6,0.4,3.2,0.6,4.4c0.3,1.5,0.5,2.2,1.1,2.2c0.6,0,0.8-0.7,1.1-2.2
		c0.2-1.2,0.4-2.8,0.6-4.4c0-0.1,0-0.1,0-0.2c0.2-2.1,0.4-4.2,0.6-5.7c0-0.3,0.1-0.6,0.1-0.8c0,0.2,0.1,0.5,0.1,0.8
		c0.2,1.5,0.4,3.7,0.6,5.9c0.2,2.1,0.4,4.3,0.6,5.8c0.3,2.3,0.5,2.9,1.1,2.9c0.6,0,0.8-0.6,1.1-2.9c0.2-1.6,0.4-3.8,0.6-5.9
		c0,0,0,0,0,0l0,0c0.2-1.6,0.4-3.2,0.6-4.3c0-0.2,0.1-0.4,0.1-0.6c0,0.2,0.1,0.4,0.1,0.6c0.2,1.1,0.4,2.8,0.6,4.4
		c0.2,1.6,0.4,3.2,0.6,4.4c0.3,1.5,0.5,2.2,1.1,2.2c0.6,0,0.8-0.7,1.1-2.2c0.2-1.2,0.4-2.8,0.6-4.4l0,0c0,0,0,0,0,0
		c0.2-2.7,0.4-5.4,0.6-7.3c0-0.4,0.1-0.7,0.1-1c0,0.3,0.1,0.6,0.1,1c0.2,1.9,0.4,4.6,0.6,7.3c0.2,2.7,0.4,5.4,0.6,7.4
		c0.3,3,0.5,3.5,1.1,3.5s0.8-0.5,1.1-3.5c0.2-1.9,0.4-4.6,0.6-7.4l0,0c0,0,0,0,0,0c0.2-3.2,0.4-6.5,0.6-8.8c0-0.4,0.1-0.8,0.1-1.2
		c0,0.3,0.1,0.7,0.1,1.2c0.2,2.3,0.4,5.6,0.6,8.8c0.2,3.2,0.4,6.5,0.6,8.8c0.3,3.8,0.5,4.1,1.1,4.1c0.6,0,0.8-0.3,1.1-4.1
		c0.2-2.3,0.4-5.6,0.6-8.8l0,0c0.2-2.7,0.4-5.4,0.6-7.3c0-0.4,0.1-0.7,0.1-1c0,0.3,0.1,0.6,0.1,1c0.2,1.9,0.4,4.6,0.6,7.3
		c0.2,2.7,0.4,5.4,0.6,7.4c0.3,3,0.5,3.5,1.1,3.5s0.8-0.5,1.1-3.5c0.2-1.9,0.4-4.6,0.6-7.4c0.2-1.6,0.4-3.2,0.6-4.4
		c0-0.2,0.1-0.4,0.1-0.6c0,0.2,0.1,0.4,0.1,0.6c0.2,1.1,0.4,2.8,0.6,4.4c0.2,1.6,0.4,3.2,0.6,4.4c0.3,1.5,0.5,2.2,1.1,2.2
		c0.6,0,0.8-0.7,1.1-2.2c0.2-1.2,0.4-2.8,0.6-4.4c0,0,0,0,0-0.1l0,0c0.2-2.1,0.4-4.3,0.6-5.8c0-0.3,0.1-0.6,0.1-0.8
		c0,0.2,0.1,0.5,0.1,0.8c0.2,1.5,0.4,3.7,0.6,5.9c0.2,2.1,0.4,4.3,0.6,5.8c0.3,2.3,0.5,2.9,1.1,2.9c0.6,0,0.8-0.6,1.1-2.9
		c0.2-1.6,0.4-3.8,0.6-5.9c0,0,0-0.1,0-0.1l0,0c0.2-3.2,0.4-6.4,0.6-8.7c0-0.4,0.1-0.8,0.1-1.2c0,0.3,0.1,0.7,0.1,1.2
		c0.2,2.3,0.4,5.6,0.6,8.9c0.2,3.2,0.4,6.5,0.6,8.8c0.3,3.8,0.5,4.1,1.1,4.1c0.6,0,0.8-0.3,1.1-4.1c0.2-2.3,0.4-5.6,0.6-8.8
		c0,0,0,0,0,0c0,0,0,0,0,0l0-0.1c0.2-4.2,0.4-8.6,0.6-11.6c0-0.6,0.1-1.1,0.1-1.6c0,0.5,0.1,1,0.1,1.6c0.2,3.1,0.4,7.5,0.6,11.7
		l0,0.1c0.2,4.2,0.4,8.6,0.6,11.7c0.4,5.3,0.6,5.3,1.1,5.3s0.8,0,1.1-5.3c0.2-3.1,0.4-7.5,0.6-11.8c0,0,0,0,0-0.1l0,0
		c0.2-3.2,0.4-6.4,0.6-8.7c0-0.4,0.1-0.8,0.1-1.2c0,0.3,0.1,0.7,0.1,1.2c0.2,2.3,0.4,5.6,0.6,8.8c0.2,3.2,0.4,6.5,0.6,8.8
		c0.3,3.8,0.5,4.1,1.1,4.1c0.6,0,0.8-0.3,1.1-4.1c0.2-2.3,0.4-5.6,0.6-8.8l0,0c0.2-2.7,0.4-5.4,0.6-7.3c0-0.4,0.1-0.7,0.1-1
		c0,0.3,0.1,0.6,0.1,1c0.2,1.9,0.4,4.6,0.6,7.3c0.2,2.7,0.4,5.4,0.6,7.4c0.3,3,0.5,3.5,1.1,3.5c0.6,0,0.8-0.5,1.1-3.5
		c0.2-1.9,0.4-4.6,0.6-7.4c0,0,0,0,0,0c0.2-2.1,0.4-4.3,0.6-5.9c0-0.3,0.1-0.6,0.1-0.8c0,0.2,0.1,0.5,0.1,0.8
		c0.2,1.5,0.4,3.7,0.6,5.9c0.2,2.1,0.4,4.3,0.6,5.9c0.3,2.3,0.5,2.9,1.1,2.9c0.6,0,0.8-0.6,1.1-2.9c0.2-1.5,0.4-3.7,0.6-5.9
		c0,0,0,0,0,0c0.2-2.1,0.4-4.3,0.6-5.9c0-0.3,0.1-0.6,0.1-0.8c0,0.2,0.1,0.5,0.1,0.8c0.2,1.5,0.4,3.7,0.6,5.9
		c0.2,2.1,0.4,4.3,0.6,5.9c0.3,2.3,0.5,2.9,1.1,2.9c0.6,0,0.8-0.6,1.1-2.9c0.2-1.6,0.4-3.8,0.6-5.9c0,0,0-0.1,0-0.1l0,0
		c0.2-3.2,0.4-6.4,0.6-8.7c0-0.4,0.1-0.8,0.1-1.2c0,0.3,0.1,0.7,0.1,1.2c0.2,2.3,0.4,5.6,0.6,8.9c0.2,3.2,0.4,6.5,0.6,8.8
		c0.3,3.8,0.5,4.1,1.1,4.1c0.6,0,0.8-0.3,1.1-4.1c0.2-2.3,0.4-5.6,0.6-8.8c0,0,0,0,0,0c0,0,0,0,0,0l0-0.1c0.2-4.2,0.4-8.6,0.6-11.6
		c0-0.6,0.1-1.1,0.1-1.6c0,0.5,0.1,1,0.1,1.6c0.2,3.1,0.4,7.5,0.6,11.7l0,0.1c0.2,4.2,0.4,8.6,0.6,11.7c0.4,5.3,0.6,5.3,1.1,5.3
		s0.8,0,1.1-5.3c0.2-3.1,0.4-7.5,0.6-11.8c0,0,0,0,0,0c0,0,0,0,0,0l0-0.1c0.2-5.3,0.4-10.8,0.6-14.6c0-0.7,0.1-1.4,0.1-1.9
		c0,0.6,0.1,1.2,0.1,1.9c0.2,3.9,0.4,9.4,0.6,14.7l0,0.1c0.2,5.3,0.4,10.8,0.6,14.6c0.3,6.6,0.5,6.6,1.1,6.6c0.6,0,0.8,0,1.1-6.6
		c0.2-3.9,0.4-9.4,0.6-14.7c0-0.1,0-0.1,0-0.2c0.2-3.1,0.4-6.4,0.6-8.6c0-0.4,0.1-0.8,0.1-1.2c0,0.3,0.1,0.7,0.1,1.2
		c0.2,2.3,0.4,5.6,0.6,8.9c0.2,3.2,0.4,6.5,0.6,8.8c0.3,3.8,0.5,4.1,1.1,4.1c0.6,0,0.8-0.3,1.1-4.1c0.2-2.3,0.4-5.6,0.6-8.8
		c0,0,0,0,0,0l0,0c0.2-2.1,0.4-4.3,0.6-5.8c0-0.3,0.1-0.6,0.1-0.8c0,0.2,0.1,0.5,0.1,0.8c0.2,1.5,0.4,3.7,0.6,5.9
		c0.2,2.1,0.4,4.3,0.6,5.8c0.3,2.3,0.5,2.9,1.1,2.9c0.6,0,0.8-0.6,1.1-2.9c0.2-1.5,0.4-3.7,0.6-5.9l0,0c0,0,0,0,0,0
		c0.2-2.7,0.4-5.4,0.6-7.3c0-0.4,0.1-0.7,0.1-1c0,0.3,0.1,0.6,0.1,1c0.2,1.9,0.4,4.6,0.6,7.3c0.2,2.7,0.4,5.4,0.6,7.4
		c0.3,3,0.5,3.5,1.1,3.5s0.8-0.5,1.1-3.5c0.2-1.9,0.4-4.6,0.6-7.4c0,0,0,0,0,0c0.2-2.1,0.4-4.3,0.6-5.9c0-0.3,0.1-0.6,0.1-0.8
		c0,0.2,0.1,0.5,0.1,0.8c0.2,1.5,0.4,3.7,0.6,5.9c0.2,2.1,0.4,4.3,0.6,5.9c0.3,2.3,0.5,2.9,1.1,2.9c0.6,0,0.8-0.6,1.1-2.9
		c0.2-1.5,0.4-3.7,0.6-5.9c0.2-1.6,0.4-3.2,0.6-4.4c0-0.2,0.1-0.4,0.1-0.6c0,0.2,0.1,0.4,0.1,0.6c0.2,1.1,0.4,2.8,0.6,4.4
		c0.2,1.6,0.4,3.3,0.6,4.4c0.3,1.5,0.5,2.2,1.1,2.2c0.6,0,0.8-0.7,1.1-2.2c0.2-1.2,0.4-2.8,0.6-4.4c0.2-1.6,0.4-3.2,0.6-4.4
		c0-0.2,0.1-0.4,0.1-0.6c0,0.2,0.1,0.4,0.1,0.6c0.2,1.1,0.4,2.8,0.6,4.4c0.2,1.6,0.4,3.3,0.6,4.4c0.3,1.5,0.5,2.2,1.1,2.2
		c0.6,0,0.8-0.7,1.1-2.2c0.2-1.2,0.4-2.8,0.6-4.4c0,0,0,0,0-0.1l0,0c0.2-2.1,0.4-4.3,0.6-5.8c0-0.3,0.1-0.6,0.1-0.8
		c0,0.2,0.1,0.5,0.1,0.8c0.2,1.5,0.4,3.7,0.6,5.9c0.2,2.1,0.4,4.3,0.6,5.8c0.3,2.3,0.5,2.9,1.1,2.9c0.6,0,0.8-0.6,1.1-2.9
		c0.2-1.6,0.4-3.8,0.6-5.9c0,0,0,0,0-0.1l0,0c0.2-2.6,0.4-5.4,0.6-7.3c0-0.4,0.1-0.7,0.1-1c0,0.3,0.1,0.6,0.1,1
		c0.2,1.9,0.4,4.7,0.6,7.4c0.2,2.6,0.4,5.4,0.6,7.3c0.3,3,0.5,3.5,1.1,3.5s0.8-0.5,1.1-3.5c0.2-1.9,0.4-4.7,0.6-7.4c0,0,0,0,0,0
		c0,0,0,0,0,0l0-0.1c0.2-4.2,0.4-8.6,0.6-11.6c0-0.6,0.1-1.1,0.1-1.6c0,0.5,0.1,1,0.1,1.6c0.2,3.1,0.4,7.5,0.6,11.7l0,0.1
		c0.2,4.2,0.4,8.6,0.6,11.7c0.4,5.3,0.6,5.3,1.1,5.3s0.8,0,1.1-5.3c0.2-3.1,0.4-7.5,0.6-11.8c0,0,0,0,0-0.1l0,0
		c0.2-2.6,0.4-5.4,0.6-7.3c0-0.4,0.1-0.7,0.1-1c0,0.3,0.1,0.6,0.1,1c0.2,1.9,0.4,4.6,0.6,7.3c0.2,2.7,0.4,5.4,0.6,7.4
		c0.3,3,0.5,3.5,1.1,3.5s0.8-0.5,1.1-3.5c0.2-1.9,0.4-4.6,0.6-7.4l0,0c0,0,0,0,0,0c0.2-3.2,0.4-6.5,0.6-8.8c0-0.4,0.1-0.8,0.1-1.2
		c0,0.3,0.1,0.7,0.1,1.2c0.2,2.3,0.4,5.6,0.6,8.8c0.2,3.2,0.4,6.5,0.6,8.8c0.3,3.8,0.5,4.1,1.1,4.1c0.6,0,0.8-0.3,1.1-4.1
		c0.2-2.3,0.4-5.6,0.6-8.8l0,0c0.2-2.1,0.4-4.3,0.6-5.9c0-0.3,0.1-0.6,0.1-0.8c0,0.2,0.1,0.5,0.1,0.8c0.2,1.5,0.4,3.7,0.6,5.9
		c0.2,2.1,0.4,4.3,0.6,5.9c0.3,2.3,0.5,2.9,1.1,2.9c0.6,0,0.8-0.6,1.1-2.9c0.2-1.5,0.4-3.7,0.6-5.9
		C340.8,394.6,339.9,394.5,339.8,395.2z"/>
	<path class="st1" d="M657.8,395c-0.2,0.5-0.4,1-0.6,1.4c-0.1,0.1-0.1,0.2-0.2,0.3c0-0.1-0.1-0.1-0.2-0.3c-0.2-0.3-0.4-0.9-0.6-1.4
		c-0.2-0.5-0.4-1.1-0.6-1.5c-0.2-0.4-0.5-0.9-1.1-0.9c-0.5,0-0.9,0.5-1.1,0.9c-0.2,0.4-0.4,1-0.6,1.5l0,0c0,0,0,0,0,0
		c-0.2,0.5-0.4,1.1-0.6,1.4c-0.1,0.1-0.1,0.2-0.2,0.3c0-0.1-0.1-0.1-0.2-0.3c-0.2-0.3-0.4-0.9-0.6-1.4c-0.2-0.5-0.4-1.1-0.6-1.5
		c-0.2-0.4-0.5-0.9-1.1-0.9c-0.5,0-0.9,0.5-1.1,0.9c-0.2,0.4-0.4,1-0.6,1.5l0,0c0,0,0,0.1,0,0.1c-0.2,1.1-0.4,2.2-0.6,2.9
		c0,0.2-0.1,0.3-0.1,0.4c0-0.1-0.1-0.3-0.1-0.4c-0.2-0.7-0.4-1.8-0.6-2.9c-0.2-1.1-0.4-2.2-0.6-3c-0.3-1-0.5-1.6-1.1-1.6
		c-0.6,0-0.8,0.6-1.1,1.6c-0.2,0.8-0.4,2-0.6,3c-0.2,1.6-0.4,3.2-0.6,4.4c0,0.2-0.1,0.4-0.1,0.6c0-0.2-0.1-0.4-0.1-0.6
		c-0.2-1.1-0.4-2.7-0.6-4.4c-0.2-1.6-0.4-3.3-0.6-4.4c-0.3-1.5-0.5-2.2-1.1-2.2s-0.8,0.7-1.1,2.2c-0.2,1.1-0.4,2.8-0.6,4.4l0,0
		c0,0,0,0,0,0c-0.2,1.1-0.4,2.2-0.6,2.9c0,0.2-0.1,0.3-0.1,0.4c0-0.1-0.1-0.3-0.1-0.4c-0.2-0.8-0.4-1.9-0.6-2.9
		c-0.2-1.1-0.4-2.2-0.6-3c-0.3-1-0.5-1.6-1.1-1.6c-0.6,0-0.8,0.6-1.1,1.6c-0.2,0.8-0.4,1.9-0.6,3c0,0,0,0,0,0c0,0,0,0,0,0
		c-0.2,1.6-0.4,3.2-0.6,4.4c0,0.2-0.1,0.4-0.1,0.6c0-0.2-0.1-0.4-0.1-0.6c-0.2-1.2-0.4-2.8-0.6-4.4c-0.2-1.6-0.4-3.3-0.6-4.4
		c-0.3-1.5-0.5-2.2-1.1-2.2c-0.6,0-0.8,0.7-1.1,2.2c-0.2,1.2-0.4,2.8-0.6,4.4c0,0,0,0,0,0l0,0c-0.2,1.6-0.4,3.2-0.6,4.4
		c0,0.2-0.1,0.4-0.1,0.6c0-0.2-0.1-0.4-0.1-0.6c-0.2-1.2-0.4-2.8-0.6-4.4c-0.2-1.6-0.4-3.3-0.6-4.4c-0.3-1.5-0.5-2.2-1.1-2.2
		c-0.6,0-0.8,0.7-1.1,2.2c-0.2,1.2-0.4,2.8-0.6,4.4c0,0,0,0,0,0l0,0c-0.2,1.6-0.4,3.2-0.6,4.4c0,0.2-0.1,0.4-0.1,0.6
		c0-0.2-0.1-0.4-0.1-0.6c-0.2-1.2-0.4-2.8-0.6-4.4c-0.2-1.6-0.4-3.3-0.6-4.4c-0.3-1.5-0.5-2.2-1.1-2.2s-0.8,0.7-1.1,2.2
		c-0.2,1.2-0.4,2.8-0.6,4.4l0,0c0,0,0,0,0,0c-0.2,2.1-0.4,4.3-0.6,5.9c0,0.3-0.1,0.6-0.1,0.8c0-0.2-0.1-0.5-0.1-0.8
		c-0.2-1.5-0.4-3.7-0.6-5.9c-0.2-2.1-0.4-4.3-0.6-5.9c-0.3-2.3-0.5-2.9-1.1-2.9c-0.6,0-0.8,0.6-1.1,2.9c-0.2,1.5-0.4,3.8-0.6,5.9
		c0,0,0,0,0,0c0,0,0,0,0,0c-0.2,2.6-0.4,5.4-0.6,7.3c0,0.4-0.1,0.7-0.1,1c0-0.3-0.1-0.6-0.1-1c-0.2-1.9-0.4-4.7-0.6-7.3
		c-0.2-2.7-0.4-5.4-0.6-7.4c-0.3-3-0.5-3.5-1.1-3.5c-0.6,0-0.8,0.5-1.1,3.5c-0.2,1.9-0.4,4.7-0.6,7.4c0,0,0,0,0,0
		c-0.2,2.1-0.4,4.3-0.6,5.8c0,0.3-0.1,0.6-0.1,0.8c0-0.2-0.1-0.5-0.1-0.8c-0.2-1.5-0.4-3.7-0.6-5.9c-0.2-2.1-0.4-4.3-0.6-5.9
		c-0.3-2.3-0.5-2.9-1.1-2.9c-0.6,0-0.8,0.6-1.1,2.9c-0.2,1.5-0.4,3.8-0.6,5.9c0,0,0,0,0,0c0,0,0,0,0,0c-0.2,2.6-0.4,5.4-0.6,7.3
		c0,0.4-0.1,0.7-0.1,1c0-0.3-0.1-0.6-0.1-1c-0.2-1.9-0.4-4.7-0.6-7.3l0-0.1c-0.2-2.6-0.4-5.3-0.6-7.2c-0.3-3-0.5-3.5-1.1-3.5
		c-0.6,0-0.8,0.5-1.1,3.5c-0.2,1.9-0.4,4.7-0.6,7.4c0,0.1,0,0.1,0,0.2c-0.2,5.2-0.4,10.6-0.6,14.5c0,0.7-0.1,1.4-0.1,1.9
		c0-0.6-0.1-1.2-0.1-1.9c-0.2-3.8-0.4-9.4-0.6-14.7c-0.2-5.3-0.4-10.8-0.6-14.7c-0.3-6.6-0.5-6.6-1.1-6.6c-0.6,0-0.8,0-1.1,6.6
		c-0.2,3.8-0.4,9.4-0.6,14.7c0,0,0,0,0,0l0,0.2c-0.2,4.7-0.4,9.6-0.6,13c0,0.7-0.1,1.2-0.1,1.8c0-0.5-0.1-1.1-0.1-1.8
		c-0.2-3.5-0.4-8.4-0.6-13.2l0-0.2c-0.2-4.7-0.4-9.6-0.6-13c-0.4-5.9-0.5-5.9-1.1-5.9c-0.6,0-0.8,0-1.1,5.9
		c-0.2,3.5-0.4,8.4-0.6,13.2l0,0.1c-0.2,2.6-0.4,5.3-0.6,7.2c0,0.4-0.1,0.7-0.1,1c0-0.3-0.1-0.6-0.1-1c-0.2-1.9-0.4-4.7-0.6-7.3
		l0-0.1c-0.2-2.6-0.4-5.3-0.6-7.2c-0.3-3-0.5-3.5-1.1-3.5c-0.6,0-0.8,0.5-1.1,3.5c-0.2,1.9-0.4,4.7-0.6,7.4c0,0,0,0,0,0.1l0,0
		c-0.2,1.6-0.4,3.2-0.6,4.3c0,0.2-0.1,0.4-0.1,0.6c0-0.2-0.1-0.4-0.1-0.6c-0.2-1.1-0.4-2.8-0.6-4.5c-0.2-1.6-0.4-3.2-0.6-4.4
		c-0.3-1.5-0.5-2.2-1.1-2.2s-0.8,0.7-1.1,2.2c-0.2,1.2-0.4,2.8-0.6,4.4l0,0c0,0,0,0,0,0l0,0.1c-0.2,2.1-0.4,4.3-0.6,5.8
		c0,0.3-0.1,0.6-0.1,0.8c0-0.2-0.1-0.5-0.1-0.8c-0.2-1.5-0.4-3.7-0.6-5.9c-0.2-2.1-0.4-4.4-0.6-5.9c-0.3-2.3-0.5-2.9-1.1-2.9
		c-0.6,0-0.8,0.6-1.1,2.9c-0.2,1.5-0.4,3.7-0.6,5.8l0,0.1c0,0,0,0,0,0c0,0,0,0,0,0c-0.2,2.7-0.4,5.4-0.6,7.3c0,0.4-0.1,0.7-0.1,1
		c0-0.3-0.1-0.6-0.1-1c-0.2-1.9-0.4-4.6-0.6-7.2l0-0.1c-0.2-2.7-0.4-5.4-0.6-7.4c-0.3-3-0.5-3.5-1.1-3.5c-0.6,0-0.8,0.5-1.1,3.5
		c-0.2,1.9-0.4,4.6-0.6,7.2l0,0.1c0,0,0,0,0,0c0,0,0,0,0,0c-0.2,3.2-0.4,6.5-0.6,8.8c0,0.5-0.1,0.8-0.1,1.2c0-0.3-0.1-0.7-0.1-1.2
		c-0.2-2.3-0.4-5.5-0.6-8.7l0-0.2c-0.2-3.2-0.4-6.5-0.6-8.8c-0.3-3.8-0.5-4.1-1.1-4.1s-0.8,0.3-1.1,4.1c-0.2,2.3-0.4,5.5-0.6,8.7
		l0,0.2c0,0,0,0,0,0l0,0c-0.2,4.3-0.4,8.7-0.6,11.7c0,0.6-0.1,1.1-0.1,1.6c0-0.5-0.1-1-0.1-1.6c-0.2-3-0.4-7.3-0.6-11.5l0-0.2
		c-0.2-4.3-0.4-8.7-0.6-11.8c-0.4-5.3-0.6-5.3-1.1-5.3c-0.5,0-0.8,0-1.1,5.3c-0.2,3-0.4,7.4-0.6,11.6l0,0.2c0,0,0,0,0,0
		c-0.2,3.2-0.4,6.5-0.6,8.8c0,0.5-0.1,0.8-0.1,1.2c0-0.3-0.1-0.7-0.1-1.2c-0.2-2.3-0.4-5.6-0.6-8.8c-0.2-3.2-0.4-6.5-0.6-8.8
		c-0.3-3.8-0.5-4.1-1.1-4.1c-0.6,0-0.8,0.3-1.1,4.1c-0.2,2.3-0.4,5.6-0.6,8.8c-0.2,1.6-0.4,3.2-0.6,4.4c0,0.2-0.1,0.4-0.1,0.6
		c0-0.2-0.1-0.4-0.1-0.6c-0.2-1.2-0.4-2.8-0.6-4.4c-0.2-1.6-0.4-3.3-0.6-4.4c-0.3-1.5-0.5-2.2-1.1-2.2c-0.6,0-0.8,0.7-1.1,2.2
		c-0.2,1.2-0.4,2.8-0.6,4.4c0,0,0,0,0,0c0,0,0,0,0,0c-0.2,2.1-0.4,4.3-0.6,5.9c0,0.3-0.1,0.6-0.1,0.8c0-0.2-0.1-0.5-0.1-0.8
		c-0.2-1.6-0.4-3.7-0.6-5.9c-0.2-2.1-0.4-4.4-0.6-5.9c-0.3-2.3-0.5-2.9-1.1-2.9c-0.6,0-0.8,0.6-1.1,2.9c-0.2,1.6-0.4,3.8-0.6,5.9
		c0,0,0,0,0,0c0,0,0,0,0,0c-0.2,2.7-0.4,5.4-0.6,7.3c0,0.4-0.1,0.7-0.1,1c0-0.3-0.1-0.6-0.1-1c-0.2-1.9-0.4-4.7-0.6-7.3
		c-0.2-2.7-0.4-5.4-0.6-7.4c-0.3-3-0.5-3.5-1.1-3.5c-0.6,0-0.8,0.5-1.1,3.5c-0.2,1.9-0.4,4.7-0.6,7.4c0,0,0,0,0,0c0,0,0,0,0,0
		c-0.2,3.2-0.4,6.5-0.6,8.8c0,0.4-0.1,0.8-0.1,1.2c0-0.3-0.1-0.7-0.1-1.2c-0.2-2.3-0.4-5.6-0.6-8.8c-0.2-3.2-0.4-6.5-0.6-8.8
		c-0.3-3.8-0.5-4.1-1.1-4.1c-0.6,0-0.8,0.3-1.1,4.1c-0.2,2.3-0.4,5.6-0.6,8.8c0,0,0,0,0,0c-0.2,2.6-0.4,5.4-0.6,7.3
		c0,0.4-0.1,0.7-0.1,1c0-0.3-0.1-0.6-0.1-1c-0.2-1.9-0.4-4.7-0.6-7.3c-0.2-2.7-0.4-5.4-0.6-7.4c-0.3-3-0.5-3.5-1.1-3.5
		c-0.6,0-0.8,0.5-1.1,3.5c-0.2,1.9-0.4,4.7-0.6,7.4c0,0,0,0,0,0c-0.2,2.1-0.4,4.3-0.6,5.8c0,0.3-0.1,0.6-0.1,0.8
		c0-0.2-0.1-0.5-0.1-0.8c-0.2-1.5-0.4-3.7-0.6-5.9c-0.2-2.1-0.4-4.3-0.6-5.9c-0.3-2.3-0.5-2.9-1.1-2.9c-0.6,0-0.8,0.6-1.1,2.9
		c-0.2,1.5-0.4,3.8-0.6,5.9c0,0,0,0,0,0c0,0,0,0,0,0c-0.2,2.6-0.4,5.4-0.6,7.3c0,0.4-0.1,0.7-0.1,1c0-0.3-0.1-0.6-0.1-1
		c-0.2-1.9-0.4-4.7-0.6-7.3c-0.2-2.7-0.4-5.4-0.6-7.4c-0.3-3-0.5-3.5-1.1-3.5c-0.6,0-0.8,0.5-1.1,3.5c-0.2,1.9-0.4,4.7-0.6,7.4
		c0,0.1,0,0.1,0,0.2c-0.2,3.7-0.4,7.4-0.6,10.1c0,0.5-0.1,1-0.1,1.4c0-0.4-0.1-0.8-0.1-1.4c-0.2-2.7-0.4-6.5-0.6-10.3
		c-0.2-3.7-0.4-7.6-0.6-10.3c-0.3-4.5-0.5-4.7-1.1-4.7c-0.6,0-0.8,0.2-1.1,4.7c-0.2,2.7-0.4,6.6-0.6,10.3c0,0,0,0,0,0l0,0.2
		c-0.2,3.1-0.4,6.4-0.6,8.7c0,0.5-0.1,0.8-0.1,1.2c0-0.3-0.1-0.7-0.1-1.2c-0.2-2.3-0.4-5.6-0.6-8.8l0-0.2c-0.2-3.1-0.4-6.4-0.6-8.7
		c-0.3-3.8-0.5-4.1-1.1-4.1s-0.8,0.3-1.1,4.1c-0.2,2.3-0.4,5.6-0.6,8.8c0,0,0,0,0,0l0,0.1c-0.2,2.6-0.4,5.3-0.6,7.2
		c0,0.4-0.1,0.7-0.1,1c0-0.3-0.1-0.6-0.1-1c-0.2-1.9-0.4-4.7-0.6-7.3l0-0.1c-0.2-2.6-0.4-5.3-0.6-7.2c-0.3-3-0.5-3.5-1.1-3.5
		c-0.6,0-0.8,0.5-1.1,3.5c-0.2,1.9-0.4,4.7-0.6,7.4c0,0,0,0,0,0l0,0.1c-0.2,2.1-0.4,4.3-0.6,5.8c0,0.3-0.1,0.6-0.1,0.8
		c0-0.2-0.1-0.5-0.1-0.8c-0.2-1.5-0.4-3.7-0.6-5.9l0-0.1c-0.2-2.1-0.4-4.3-0.6-5.8c-0.3-2.3-0.5-2.9-1.1-2.9c-0.6,0-0.8,0.6-1.1,2.9
		c-0.2,1.5-0.4,3.8-0.6,5.9c0,0.3,0.2,0.5,0.5,0.5c0.3,0,0.5-0.2,0.5-0.5c0.2-2.1,0.4-4.3,0.6-5.9c0-0.3,0.1-0.6,0.1-0.8
		c0,0.2,0.1,0.5,0.1,0.8c0.2,1.5,0.4,3.7,0.6,5.8l0,0.1c0.2,2.1,0.4,4.4,0.6,5.9c0.3,2.3,0.5,2.9,1.1,2.9c0.6,0,0.8-0.6,1.1-2.9
		c0.2-1.5,0.4-3.7,0.6-5.8l0-0.1c0,0,0,0,0,0c0,0,0,0,0,0c0.2-2.7,0.4-5.4,0.6-7.3c0-0.4,0.1-0.7,0.1-1c0,0.3,0.1,0.6,0.1,1
		c0.2,1.9,0.4,4.6,0.6,7.2l0,0.1c0.2,2.7,0.4,5.4,0.6,7.4c0.3,3,0.5,3.5,1.1,3.5c0.6,0,0.8-0.5,1.1-3.5c0.2-1.9,0.4-4.6,0.6-7.2
		l0-0.1c0,0,0,0,0,0c0,0,0,0,0,0c0.2-3.2,0.4-6.5,0.6-8.8c0-0.4,0.1-0.8,0.1-1.2c0,0.3,0.1,0.7,0.1,1.2c0.2,2.3,0.4,5.5,0.6,8.7
		l0,0.2c0.2,3.2,0.4,6.5,0.6,8.8c0.3,3.8,0.5,4.1,1.1,4.1c0.6,0,0.8-0.3,1.1-4.1c0.2-2.3,0.4-5.5,0.6-8.7l0-0.2c0,0,0,0,0,0
		c0,0,0,0,0,0c0.2-3.7,0.4-7.6,0.6-10.3c0-0.5,0.1-1,0.1-1.4c0,0.4,0.1,0.8,0.1,1.4c0.2,2.7,0.4,6.6,0.6,10.3
		c0.2,3.7,0.4,7.6,0.6,10.3c0.3,4.5,0.5,4.7,1.1,4.7c0.6,0,0.8-0.2,1.1-4.7c0.2-2.7,0.4-6.6,0.6-10.3c0-0.1,0-0.1,0-0.2
		c0.2-2.6,0.4-5.3,0.6-7.1c0-0.4,0.1-0.7,0.1-1c0,0.3,0.1,0.6,0.1,1c0.2,1.9,0.4,4.7,0.6,7.3c0.2,2.7,0.4,5.4,0.6,7.4
		c0.3,3,0.5,3.5,1.1,3.5c0.6,0,0.8-0.5,1.1-3.5c0.2-2,0.4-4.7,0.6-7.4c0,0,0,0,0,0c0.2-2.1,0.4-4.3,0.6-5.8c0-0.3,0.1-0.6,0.1-0.8
		c0,0.2,0.1,0.5,0.1,0.8c0.2,1.6,0.4,3.7,0.6,5.9c0.2,2.1,0.4,4.4,0.6,5.9c0.3,2.3,0.5,2.9,1.1,2.9c0.6,0,0.8-0.6,1.1-2.9
		c0.2-1.6,0.4-3.8,0.6-5.9c0,0,0,0,0,0c0,0,0,0,0,0c0.2-2.7,0.4-5.4,0.6-7.3c0-0.4,0.1-0.7,0.1-1c0,0.3,0.1,0.6,0.1,1
		c0.2,1.9,0.4,4.7,0.6,7.3c0.2,2.7,0.4,5.4,0.6,7.4c0.3,3,0.5,3.5,1.1,3.5c0.6,0,0.8-0.5,1.1-3.5c0.2-2,0.4-4.7,0.6-7.4c0,0,0,0,0,0
		c0,0,0,0,0,0c0.2-3.2,0.4-6.5,0.6-8.8c0-0.4,0.1-0.8,0.1-1.2c0,0.3,0.1,0.7,0.1,1.2c0.2,2.3,0.4,5.6,0.6,8.8
		c0.2,3.2,0.4,6.5,0.6,8.8c0.3,3.8,0.5,4.1,1.1,4.1c0.6,0,0.8-0.3,1.1-4.1c0.2-2.3,0.4-5.6,0.6-8.8c0,0,0,0,0,0
		c0.2-2.7,0.4-5.4,0.6-7.3c0-0.4,0.1-0.7,0.1-1c0,0.3,0.1,0.6,0.1,1c0.2,1.9,0.4,4.7,0.6,7.3c0.2,2.7,0.4,5.4,0.6,7.4
		c0.3,3,0.5,3.5,1.1,3.5c0.6,0,0.8-0.5,1.1-3.5c0.2-1.9,0.4-4.7,0.6-7.4c0,0,0,0,0,0c0.2-2.1,0.4-4.3,0.6-5.8c0-0.3,0.1-0.6,0.1-0.8
		c0,0.2,0.1,0.5,0.1,0.8c0.2,1.5,0.4,3.7,0.6,5.9c0.2,2.1,0.4,4.3,0.6,5.9c0.3,2.3,0.5,2.9,1.1,2.9c0.6,0,0.8-0.6,1.1-2.9
		c0.2-1.5,0.4-3.8,0.6-5.9c0,0,0,0,0,0c0.2-1.6,0.4-3.2,0.6-4.4c0-0.2,0.1-0.4,0.1-0.6c0,0.2,0.1,0.4,0.1,0.6
		c0.2,1.1,0.4,2.8,0.6,4.4c0.2,1.6,0.4,3.3,0.6,4.4c0.3,1.5,0.5,2.2,1.1,2.2c0.6,0,0.8-0.7,1.1-2.2c0.2-1.2,0.4-2.8,0.6-4.4l0,0
		c0,0,0,0,0,0c0.2-3.2,0.4-6.5,0.6-8.8c0-0.4,0.1-0.8,0.1-1.2c0,0.3,0.1,0.7,0.1,1.2c0.2,2.3,0.4,5.6,0.6,8.8
		c0.2,3.2,0.4,6.5,0.6,8.8c0.3,3.8,0.5,4.1,1.1,4.1c0.6,0,0.8-0.3,1.1-4.1c0.2-2.3,0.4-5.6,0.6-8.8c0,0,0,0,0,0c0,0,0,0,0,0l0-0.2
		c0.2-4.2,0.4-8.5,0.6-11.5c0-0.6,0.1-1.1,0.1-1.6c0,0.5,0.1,1,0.1,1.6c0.2,3.1,0.4,7.5,0.6,11.7l0,0.2c0.2,4.2,0.4,8.5,0.6,11.6
		c0.4,5.3,0.6,5.3,1.1,5.3c0.6,0,0.8,0,1.1-5.3c0.2-3.1,0.4-7.5,0.6-11.8c0,0,0,0,0,0l0-0.2c0.2-3.1,0.4-6.4,0.6-8.7
		c0-0.4,0.1-0.8,0.1-1.2c0,0.3,0.1,0.7,0.1,1.2c0.2,2.3,0.4,5.6,0.6,8.8l0,0.2c0.2,3.1,0.4,6.4,0.6,8.7c0.3,3.8,0.5,4.1,1.1,4.1
		c0.6,0,0.8-0.3,1.1-4.1c0.2-2.3,0.4-5.6,0.6-8.8c0,0,0,0,0,0l0-0.1c0.2-2.6,0.4-5.3,0.6-7.2c0-0.4,0.1-0.7,0.1-1
		c0,0.3,0.1,0.6,0.1,1c0.2,1.9,0.4,4.7,0.6,7.3l0,0.1c0.2,2.6,0.4,5.3,0.6,7.2c0.3,3,0.5,3.5,1.1,3.5c0.6,0,0.8-0.5,1.1-3.5
		c0.2-1.9,0.4-4.7,0.6-7.4c0,0,0,0,0,0l0-0.1c0.2-2.1,0.4-4.3,0.6-5.8c0-0.3,0.1-0.6,0.1-0.8c0,0.2,0.1,0.5,0.1,0.8
		c0.2,1.5,0.4,3.7,0.6,5.9c0.2,2.1,0.4,4.4,0.6,5.9c0.3,2.3,0.5,2.9,1.1,2.9c0.6,0,0.8-0.6,1.1-2.9c0.2-1.5,0.4-3.7,0.6-5.8l0-0.1
		c0.2-1.6,0.4-3.2,0.6-4.4c0-0.2,0.1-0.4,0.1-0.6c0,0.2,0.1,0.4,0.1,0.6c0.2,1.1,0.4,2.7,0.6,4.4c0.2,1.6,0.4,3.3,0.6,4.4
		c0.3,1.5,0.5,2.2,1.1,2.2s0.8-0.7,1.1-2.2c0.2-1.1,0.4-2.8,0.6-4.4l0,0c0,0,0,0,0,0c0.2-2.7,0.4-5.4,0.6-7.3c0-0.4,0.1-0.7,0.1-1
		c0,0.3,0.1,0.6,0.1,1c0.2,1.9,0.4,4.6,0.6,7.2l0,0.1c0.2,2.7,0.4,5.4,0.6,7.4c0.3,3,0.5,3.5,1.1,3.5c0.6,0,0.8-0.5,1.1-3.5
		c0.2-1.9,0.4-4.6,0.6-7.2l0-0.1c0,0,0,0,0,0c0,0,0,0,0,0c0.2-4.8,0.4-9.8,0.6-13.2c0-0.7,0.1-1.2,0.1-1.8c0,0.5,0.1,1.1,0.1,1.8
		c0.2,3.4,0.4,8.3,0.6,13l0,0.2c0.2,4.8,0.4,9.8,0.6,13.2c0.4,5.9,0.5,5.9,1.1,5.9c0.6,0,0.8,0,1.1-5.9c0.2-3.4,0.4-8.3,0.6-13
		l0-0.2c0,0,0,0,0,0c0,0,0,0,0,0c0.2-5.3,0.4-10.9,0.6-14.7c0-0.7,0.1-1.4,0.1-1.9c0,0.6,0.1,1.2,0.1,1.9c0.2,3.9,0.4,9.4,0.6,14.7
		c0.2,5.3,0.4,10.9,0.6,14.7c0.3,6.6,0.5,6.6,1.1,6.6c0.6,0,0.8,0,1.1-6.6c0.2-3.9,0.4-9.4,0.6-14.7c0-0.1,0-0.1,0-0.2
		c0.2-2.6,0.4-5.3,0.6-7.1c0-0.4,0.1-0.7,0.1-1c0,0.3,0.1,0.6,0.1,1c0.2,1.9,0.4,4.6,0.6,7.2l0,0.1c0.2,2.7,0.4,5.4,0.6,7.4
		c0.3,3,0.5,3.5,1.1,3.5c0.6,0,0.8-0.5,1.1-3.5c0.2-2,0.4-4.7,0.6-7.4c0,0,0,0,0,0c0.2-2.1,0.4-4.3,0.6-5.8c0-0.3,0.1-0.6,0.1-0.8
		c0,0.2,0.1,0.5,0.1,0.8c0.2,1.6,0.4,3.7,0.6,5.9c0.2,2.1,0.4,4.4,0.6,5.9c0.3,2.3,0.5,2.9,1.1,2.9c0.6,0,0.8-0.6,1.1-2.9
		c0.2-1.6,0.4-3.8,0.6-5.9c0,0,0,0,0,0c0,0,0,0,0,0c0.2-2.7,0.4-5.4,0.6-7.3c0-0.4,0.1-0.7,0.1-1c0,0.3,0.1,0.6,0.1,1
		c0.2,1.9,0.4,4.7,0.6,7.3c0.2,2.7,0.4,5.4,0.6,7.4c0.3,3,0.5,3.5,1.1,3.5c0.6,0,0.8-0.5,1.1-3.5c0.2-2,0.4-4.7,0.6-7.4c0,0,0,0,0,0
		c0.2-2.1,0.4-4.3,0.6-5.8c0-0.3,0.1-0.6,0.1-0.8c0,0.2,0.1,0.5,0.1,0.8c0.2,1.6,0.4,3.7,0.6,5.9c0.2,2.1,0.4,4.4,0.6,5.9
		c0.3,2.3,0.5,2.9,1.1,2.9c0.6,0,0.8-0.6,1.1-2.9c0.2-1.6,0.4-3.8,0.6-5.9l0,0c0.2-1.6,0.4-3.2,0.6-4.4c0-0.2,0.1-0.4,0.1-0.6
		c0,0.2,0.1,0.4,0.1,0.6c0.2,1.1,0.4,2.8,0.6,4.4c0.2,1.6,0.4,3.3,0.6,4.4c0.3,1.5,0.5,2.2,1.1,2.2c0.6,0,0.8-0.7,1.1-2.2
		c0.2-1.2,0.4-2.8,0.6-4.4c0.2-1.6,0.4-3.2,0.6-4.4c0-0.2,0.1-0.4,0.1-0.6c0,0.2,0.1,0.4,0.1,0.6c0.2,1.1,0.4,2.8,0.6,4.4
		c0.2,1.6,0.4,3.3,0.6,4.4c0.3,1.5,0.5,2.2,1.1,2.2c0.6,0,0.8-0.7,1.1-2.2c0.2-1.2,0.4-2.8,0.6-4.4c0.2-1.6,0.4-3.2,0.6-4.4
		c0-0.2,0.1-0.4,0.1-0.6c0,0.2,0.1,0.4,0.1,0.6c0.2,1.1,0.4,2.8,0.6,4.4c0.2,1.6,0.4,3.2,0.6,4.4c0.3,1.5,0.5,2.2,1.1,2.2
		c0.6,0,0.8-0.7,1.1-2.2c0.2-1.2,0.4-2.8,0.6-4.4c0.2-1,0.4-2.1,0.6-2.9c0-0.2,0.1-0.3,0.1-0.4c0,0.1,0.1,0.3,0.1,0.4
		c0.2,0.8,0.4,1.8,0.6,2.9c0.2,1.1,0.4,2.2,0.6,3c0.3,1,0.5,1.6,1.1,1.6c0.6,0,0.8-0.6,1.1-1.6c0.2-0.8,0.4-1.9,0.6-3
		c0,0,0-0.1,0-0.1l0,0c0.2-1.6,0.4-3.2,0.6-4.3c0-0.2,0.1-0.4,0.1-0.6c0,0.2,0.1,0.4,0.1,0.6c0.2,1.1,0.4,2.8,0.6,4.5
		c0.2,1.6,0.4,3.2,0.6,4.4c0.3,1.5,0.5,2.2,1.1,2.2s0.8-0.7,1.1-2.2c0.2-1.2,0.4-2.8,0.6-4.4c0.2-1,0.4-2.1,0.6-2.9
		c0-0.2,0.1-0.3,0.1-0.4c0,0.1,0.1,0.3,0.1,0.4c0.2,0.8,0.4,1.8,0.6,3c0.2,1.1,0.4,2.2,0.6,2.9c0.3,1,0.5,1.6,1.1,1.6
		c0.6,0,0.8-0.6,1.1-1.6c0.2-0.8,0.4-1.9,0.6-2.9c0.2-0.5,0.4-1,0.6-1.4c0.1-0.1,0.1-0.2,0.2-0.3c0,0.1,0.1,0.1,0.2,0.3
		c0.2,0.4,0.4,0.9,0.6,1.4c0.2,0.5,0.4,1.1,0.6,1.5c0.2,0.4,0.5,0.9,1.1,0.9c0.5,0,0.9-0.5,1.1-0.9c0.2-0.4,0.4-1,0.6-1.5
		c0,0,0,0,0,0l0,0c0.2-0.5,0.4-1,0.6-1.4c0.1-0.1,0.1-0.2,0.2-0.3c0,0.1,0.1,0.1,0.2,0.3c0.2,0.4,0.4,0.9,0.6,1.4
		c0.2,0.5,0.4,1.1,0.6,1.5c0.2,0.4,0.5,0.9,1.1,0.9c0.5,0,0.9-0.5,1.1-0.9c0.2-0.4,0.4-1,0.6-1.5C658.9,394.7,658,394.4,657.8,395z"
		/>
</g>
</svg>
