<?xml version="1.0" encoding="UTF-8" standalone="no"?>
<!-- Created with Inkscape (http://www.inkscape.org/) -->

<svg
   xmlns:dc="http://purl.org/dc/elements/1.1/"
   xmlns:cc="http://creativecommons.org/ns#"
   xmlns:rdf="http://www.w3.org/1999/02/22-rdf-syntax-ns#"
   xmlns:svg="http://www.w3.org/2000/svg"
   xmlns="http://www.w3.org/2000/svg"
   xmlns:sodipodi="http://sodipodi.sourceforge.net/DTD/sodipodi-0.dtd"
   xmlns:inkscape="http://www.inkscape.org/namespaces/inkscape"
   id="svg2"
   version="1.1"
   inkscape:version="0.92.1 r"
   xml:space="preserve"
   width="236.45876"
   height="62.5"
   viewBox="0 0 236.45876 62.5"
   sodipodi:docname="born-logo-small-stencil.svg"><metadata
     id="metadata8"><rdf:RDF><cc:Work
         rdf:about=""><dc:format>image/svg+xml</dc:format><dc:type
           rdf:resource="http://purl.org/dc/dcmitype/StillImage" /><dc:title></dc:title></cc:Work></rdf:RDF></metadata><defs
     id="defs6"><clipPath
       clipPathUnits="userSpaceOnUse"
       id="clipPath20"><path
         d="m 0,50 189.167,0 0,-50 L 0,0 0,50 Z"
         id="path22"
         inkscape:connector-curvature="0" /></clipPath></defs><sodipodi:namedview
     pagecolor="#ffffff"
     bordercolor="#666666"
     borderopacity="1"
     objecttolerance="10"
     gridtolerance="10"
     guidetolerance="10"
     inkscape:pageopacity="0"
     inkscape:pageshadow="2"
     inkscape:window-width="1276"
     inkscape:window-height="761"
     id="namedview4"
     showgrid="false"
     inkscape:zoom="2.7827264"
     inkscape:cx="112.42572"
     inkscape:cy="53.56112"
     inkscape:window-x="0"
     inkscape:window-y="18"
     inkscape:window-maximized="0"
     inkscape:current-layer="g10"
     showguides="false" /><g
     id="g10"
     inkscape:groupmode="layer"
     inkscape:label="logo-small-2017"
     transform="matrix(1.25,0,0,-1.25,0,62.5)"><g
       id="g12"
       transform="translate(34.0908,47.4067)"><path
         d="m 0,0 0,-1.13 2.174,-1.392 1.044,-3.218 0.956,-0.347 0.522,0.26 1.044,-0.956 0.956,0.087 0.783,-1.653 0.783,0 2.696,-1.217 0.435,-0.609 0.435,0.087 1.565,0.783 0.522,-0.522 1.043,-2.522 2.087,-1.739 0.87,-0.087 3.566,-2.435 2.348,-0.957 0.87,0.261 1.913,-1.826 -0.348,-0.696 0.174,-0.261 -0.87,-0.783 0.435,-1.478 -0.261,-0.261 0.609,-1.479 0.087,-1.217 -0.957,-1.131 0,-1.217 -0.956,-0.87 0,-0.696 -0.783,-0.956 0.261,-0.87 0.348,-1.131 0.174,-0.521 -2.783,-3.392 -0.783,-0.609 -1.13,0.696 -1.827,0.174 -0.782,0.435 -3.74,0.869 -1.913,1.305 -0.609,-0.174 -1.218,1.217 -3.826,1.392 -0.174,0.522 -1.218,-0.174 -2.435,1.391 -1.13,-0.434 -2.783,1.826 -0.783,1.391 -0.87,0 -1.13,1.305 -0.087,0.783 -0.696,0.347 0.522,1.305 0.087,1.391 0.522,3.479 -1.044,3.739 0.87,4.61 L -2.087,-4 -1.739,-0.957 0,0 Z"
         style="fill:#ffffff;fill-opacity:1;fill-rule:evenodd;stroke:none"
         id="path14"
         inkscape:connector-curvature="0" /></g><g
       id="g16"><path
         style="color:#000000;font-style:normal;font-variant:normal;font-weight:normal;font-stretch:normal;font-size:medium;line-height:normal;font-family:sans-serif;font-variant-ligatures:normal;font-variant-position:normal;font-variant-caps:normal;font-variant-numeric:normal;font-variant-alternates:normal;font-feature-settings:normal;text-indent:0;text-align:start;text-decoration:none;text-decoration-line:none;text-decoration-style:solid;text-decoration-color:#000000;letter-spacing:normal;word-spacing:normal;text-transform:none;writing-mode:lr-tb;direction:ltr;text-orientation:mixed;dominant-baseline:auto;baseline-shift:baseline;text-anchor:start;white-space:normal;shape-padding:0;clip-rule:nonzero;display:inline;overflow:visible;visibility:visible;opacity:1;isolation:auto;mix-blend-mode:normal;color-interpolation:sRGB;color-interpolation-filters:linearRGB;solid-color:#000000;solid-opacity:1;vector-effect:none;fill:#000000;fill-opacity:1;fill-rule:nonzero;stroke:none;stroke-width:2.17499995;stroke-linecap:square;stroke-linejoin:miter;stroke-miterlimit:3.79999995;stroke-dasharray:none;stroke-dashoffset:0;stroke-opacity:1;color-rendering:auto;image-rendering:auto;shape-rendering:auto;text-rendering:auto;enable-background:accumulate"
         d="M 43.701172 1.4023438 L 39.423828 3.7578125 L 38.943359 7.953125 L 36.025391 14.548828 L 34.865234 20.683594 L 36.175781 25.378906 L 35.550781 29.542969 L 35.451172 31.154297 L 34.492188 33.554688 L 35.726562 34.169922 L 35.808594 34.898438 L 37.767578 37.160156 L 38.714844 37.160156 L 39.513672 38.574219 L 41.427734 39.830078 L 41.427734 37.228516 L 41.150391 37.046875 L 39.988281 34.986328 L 38.761719 34.986328 L 37.894531 33.984375 L 37.757812 32.753906 L 37.255859 32.501953 L 37.599609 31.638672 L 37.716797 29.773438 L 38.396484 25.242188 L 37.097656 20.587891 L 38.115234 15.197266 L 41.066406 8.53125 L 41.457031 5.1191406 L 41.525391 5.0839844 L 41.525391 5.25 L 44.416016 7.0996094 L 45.765625 11.257812 L 47.898438 12.03125 L 48.300781 11.833984 L 49.408203 12.847656 L 50.324219 12.763672 L 51.273438 14.765625 L 52.707031 14.765625 L 53.496094 15.121094 L 53.496094 12.734375 L 53.175781 12.589844 L 52.652344 12.589844 L 51.640625 10.460938 L 50.167969 10.59375 L 48.667969 9.21875 L 47.763672 9.6699219 L 47.507812 9.5742188 L 46.246094 5.6875 L 43.701172 4.0605469 L 43.701172 3.2421875 L 43.701172 1.4023438 z M 54.498047 13.1875 L 54.498047 15.574219 L 55.595703 16.070312 L 56.378906 17.166016 L 57.753906 16.890625 L 59.111328 16.210938 L 60.408203 19.341797 L 63.478516 21.902344 L 64.623047 22.013672 L 66.837891 23.527344 L 66.837891 20.894531 L 65.390625 19.90625 L 64.359375 19.802734 L 62.214844 18.015625 L 60.929688 14.910156 L 59.570312 13.548828 L 57.287109 14.691406 L 57.027344 14.328125 L 54.498047 13.1875 z M 67.837891 21.576172 L 67.837891 24.210938 L 68.947266 24.96875 L 72.34375 26.351562 L 73.193359 26.097656 L 74.544922 27.390625 L 74.189453 28.105469 L 74.234375 28.173828 L 73.337891 28.982422 L 73.890625 30.867188 L 73.507812 31.25 L 74.480469 33.605469 L 74.546875 34.511719 L 73.376953 35.888672 L 73.376953 37.328125 L 72.183594 38.417969 L 72.183594 39.378906 L 71.083984 40.722656 L 71.578125 42.367188 L 72.017578 43.796875 L 72.048828 43.888672 L 69.027344 47.574219 L 68.740234 47.794922 L 67.837891 47.238281 L 67.837891 49.794922 L 68.884766 50.439453 L 70.554688 49.140625 L 74.492188 44.339844 L 74.085938 43.132812 L 73.65625 41.734375 L 73.498047 41.207031 L 74.357422 40.15625 L 74.357422 39.378906 L 75.550781 38.291016 L 75.550781 36.6875 L 76.777344 35.242188 L 76.623047 33.099609 L 76.072266 31.761719 L 76.34375 31.492188 L 75.810547 29.681641 L 77.087891 28.533203 L 76.699219 27.949219 L 77.208984 26.925781 L 73.78125 23.652344 L 72.457031 24.046875 L 69.982422 23.041016 L 67.837891 21.576172 z M 42.427734 37.884766 L 42.427734 40.486328 L 43.679688 41.308594 L 45.130859 40.75 L 48.048828 42.419922 L 49.042969 42.277344 L 49.140625 42.566406 L 53.496094 44.150391 L 53.496094 41.837891 L 50.871094 40.880859 L 50.53125 39.869141 L 48.480469 40.162109 L 45.3125 38.349609 L 43.939453 38.876953 L 42.427734 37.884766 z M 54.498047 42.203125 L 54.498047 44.710938 L 55.994141 46.208984 L 56.878906 45.955078 L 59.019531 47.412109 L 63.742188 48.511719 L 64.785156 49.091797 L 66.837891 49.287109 L 66.837891 47.101562 L 65.447266 46.96875 L 64.533203 46.462891 L 59.90625 45.386719 L 57.263672 43.582031 L 56.628906 43.765625 L 55.384766 42.525391 L 54.498047 42.203125 z "
         transform="matrix(0.8,0,0,-0.8,0,50)"
         id="path26" /><g
         transform="translate(65.8247,18.8291)"
         id="g28"><path
           style="fill:#000000;fill-opacity:1;fill-rule:nonzero;stroke:none;stroke-width:1.25"
           d="M 82.28125 9.3476562 L 82.28125 38.962891 L 89.326172 38.962891 L 89.326172 35.669922 L 86.308594 35.669922 L 86.308594 25.158203 L 89.326172 25.158203 L 89.326172 21.865234 L 86.308594 21.865234 L 86.308594 9.3476562 L 82.28125 9.3476562 z M 99.597656 9.3476562 L 96.066406 16.826172 C 95.551406 17.923672 95.062109 18.809375 94.599609 19.484375 C 94.149609 20.158125 93.727578 20.648125 93.330078 20.953125 C 92.920078 21.270625 92.437812 21.501484 91.882812 21.646484 C 91.397268 21.776261 90.875591 21.839681 90.326172 21.853516 L 90.326172 25.158203 L 90.691406 25.158203 C 92.608906 25.158203 94.037812 25.586562 94.976562 26.445312 C 95.440313 26.869062 95.790547 27.412969 96.029297 28.074219 C 96.266797 28.734219 96.384766 29.494766 96.384766 30.353516 C 96.384766 31.213516 96.260312 31.975469 96.007812 32.636719 C 95.770312 33.296719 95.398984 33.857812 94.896484 34.320312 C 94.420234 34.744062 93.819297 35.076953 93.091797 35.314453 C 92.378047 35.553203 91.524453 35.669922 90.533203 35.669922 L 90.326172 35.669922 L 90.326172 38.962891 L 90.533203 38.962891 C 93.785703 38.962891 96.280469 38.230469 98.011719 36.761719 C 98.885469 36.021719 99.531328 35.121953 99.955078 34.064453 C 100.39133 33.006953 100.60938 31.807656 100.60938 30.472656 C 100.60938 29.427656 100.47789 28.510547 100.21289 27.716797 C 99.947891 26.936797 99.552187 26.234531 99.023438 25.613281 C 97.964687 24.369531 96.465234 23.609531 94.521484 23.332031 C 95.050234 23.199531 95.538281 23.002031 95.988281 22.738281 C 96.438281 22.487031 96.828203 22.189453 97.158203 21.845703 C 97.528203 21.461953 97.925156 20.918047 98.347656 20.216797 C 98.783906 19.529297 99.29375 18.605156 99.875 17.441406 L 103.90234 9.3476562 L 99.597656 9.3476562 z "
           transform="matrix(0.8,0,0,-0.8,-65.8247,31.1709)"
           id="path30" /></g><g
         transform="translate(85.312,18.8291)"
         id="g32"><path
           inkscape:connector-curvature="0"
           id="path34"
           style="fill:#000000;fill-opacity:1;fill-rule:nonzero;stroke:none"
           d="m 0,0 h 4.062 l 7.999,19.503 V 0 h 3.094 V 23.693 H 11.093 L 3.095,4.189 V 23.693 H 0 Z" /></g><g
         transform="translate(104.8311,18.8291)"
         id="g36"><path
           inkscape:connector-curvature="0"
           id="path38"
           style="fill:#000000;fill-opacity:1;fill-rule:nonzero;stroke:none"
           d="m 0,0 h 3.222 v 9.712 h 8.775 V 0 h 3.222 V 23.693 H 11.997 V 12.41 H 3.222 V 23.693 H 0 Z" /></g><g
         transform="translate(153.5337,42.9824)"
         id="g40"><path
           inkscape:connector-curvature="0"
           id="path42"
           style="fill:#000000;fill-opacity:1;fill-rule:nonzero;stroke:none"
           d="m 0,0 c -1.481,0 -2.819,-0.265 -4.015,-0.794 -1.185,-0.529 -2.2,-1.338 -3.047,-2.428 -0.835,-1.079 -1.465,-2.375 -1.888,-3.887 -0.413,-1.524 -0.619,-3.243 -0.619,-5.158 0,-1.915 0.206,-3.634 0.619,-5.157 0.423,-1.524 1.058,-2.83 1.904,-3.92 0.846,-1.09 1.862,-1.899 3.047,-2.428 1.185,-0.54 2.518,-0.81 3.999,-0.81 0.508,0 0.995,0.032 1.46,0.096 0.476,0.052 0.905,0.127 1.285,0.222 0.381,0.095 0.799,0.233 1.254,0.412 0.455,0.17 0.873,0.36 1.254,0.572 v 3.284 c -0.773,-0.645 -1.614,-1.137 -2.524,-1.475 -0.455,-0.17 -0.909,-0.297 -1.364,-0.381 -0.445,-0.085 -0.905,-0.127 -1.381,-0.127 -1.026,0 -1.931,0.201 -2.713,0.603 -0.773,0.402 -1.418,1.005 -1.937,1.809 -1.037,1.608 -1.555,4.036 -1.555,7.284 0,3.238 0.518,5.66 1.555,7.268 1.037,1.608 2.598,2.412 4.682,2.412 0.476,0 0.936,-0.042 1.38,-0.126 0.456,-0.085 0.91,-0.212 1.365,-0.381 0.878,-0.328 1.709,-0.821 2.492,-1.476 v 3.284 C 4.428,-0.868 3.592,-0.54 2.745,-0.317 2.333,-0.212 1.888,-0.132 1.412,-0.08 0.947,-0.026 0.476,0 0,0" /></g><g
         transform="translate(163.4834,18.8291)"
         id="g44"><path
           inkscape:connector-curvature="0"
           id="path46"
           style="fill:#000000;fill-opacity:1;fill-rule:nonzero;stroke:none"
           d="M 0,0 H 3.222 V 10.537 L 13.235,0 h 3.761 l -9.22,9.681 9.49,14.012 H 13.394 L 5.666,11.823 3.222,14.425 v 9.268 H 0 Z" /></g><g
         transform="translate(9.251,42.5376)"
         id="g48"><path
           style="fill:#000000;fill-opacity:1;fill-rule:nonzero;stroke:none;stroke-width:1.25"
           d="M 11.564453 9.328125 L 11.564453 38.943359 L 18.9375 38.943359 L 18.9375 35.650391 L 15.589844 35.650391 L 15.589844 24.798828 L 18.9375 24.798828 L 18.9375 21.546875 L 15.589844 21.546875 L 15.589844 12.621094 L 18.9375 12.621094 L 18.9375 9.328125 L 11.564453 9.328125 z M 19.939453 9.328125 L 19.939453 12.621094 L 20.251953 12.621094 C 22.208203 12.621094 23.616563 12.950078 24.476562 13.611328 C 24.899062 13.942578 25.218438 14.379375 25.429688 14.921875 C 25.642188 15.450625 25.746094 16.1125 25.746094 16.90625 C 25.746094 18.50625 25.315781 19.674766 24.457031 20.416016 C 24.020781 20.798516 23.458984 21.084531 22.771484 21.269531 C 22.096484 21.454531 21.255703 21.546875 20.251953 21.546875 L 19.939453 21.546875 L 19.939453 24.798828 L 20.332031 24.798828 C 22.540781 24.798828 24.171719 25.248438 25.230469 26.148438 C 26.275469 27.060937 26.798828 28.482813 26.798828 30.414062 C 26.798828 32.277813 26.303047 33.613672 25.310547 34.419922 C 24.305547 35.239922 22.645781 35.650391 20.332031 35.650391 L 19.939453 35.650391 L 19.939453 38.943359 L 20.332031 38.943359 C 23.797031 38.943359 26.413047 38.255859 28.185547 36.880859 C 29.944297 35.518359 30.824219 33.501328 30.824219 30.830078 C 30.824219 29.745078 30.685703 28.767031 30.408203 27.894531 C 30.130703 27.022031 29.720937 26.247969 29.179688 25.574219 C 28.080938 24.224219 26.553203 23.3975 24.595703 23.09375 C 25.481953 22.96125 26.249688 22.730391 26.898438 22.400391 C 27.545938 22.056641 28.080156 21.633359 28.503906 21.130859 C 28.913906 20.628359 29.232031 20.027422 29.457031 19.326172 C 29.682031 18.611172 29.792969 17.791484 29.792969 16.865234 C 29.792969 14.457734 28.973984 12.599766 27.333984 11.291016 C 25.680234 9.9810156 23.347031 9.328125 20.332031 9.328125 L 19.939453 9.328125 z "
           transform="matrix(0.8,0,0,-0.8,-9.251,7.4624)"
           id="path50" /></g><g
         transform="translate(130.2544,42.5376)"
         id="g52"><path
           style="fill:#000000;fill-opacity:1;fill-rule:nonzero;stroke:none;stroke-width:1.25"
           d="M 162.81836 9.328125 L 153.75391 38.943359 L 157.89844 38.943359 L 160.04102 31.226562 L 164.66797 31.226562 L 164.66797 28.013672 L 161.01367 28.013672 L 165.23828 12.859375 L 169.46289 28.013672 L 165.66992 28.013672 L 165.66992 31.226562 L 170.41602 31.226562 L 172.59766 38.943359 L 176.74219 38.943359 L 167.67773 9.328125 L 162.81836 9.328125 z "
           transform="matrix(0.8,0,0,-0.8,-130.2544,7.4624)"
           id="path54" /></g></g></g></svg>