<?xml version="1.0" encoding="UTF-8" standalone="no"?>
<!-- Created with Inkscape (http://www.inkscape.org/) -->

<svg
   xmlns:dc="http://purl.org/dc/elements/1.1/"
   xmlns:cc="http://creativecommons.org/ns#"
   xmlns:rdf="http://www.w3.org/1999/02/22-rdf-syntax-ns#"
   xmlns:svg="http://www.w3.org/2000/svg"
   xmlns="http://www.w3.org/2000/svg"
   xmlns:sodipodi="http://sodipodi.sourceforge.net/DTD/sodipodi-0.dtd"
   xmlns:inkscape="http://www.inkscape.org/namespaces/inkscape"
   id="svg2"
   version="1.1"
   inkscape:version="0.92.1 r"
   xml:space="preserve"
   width="600mm"
   height="400mm"
   viewBox="0 0 2267.7166 1511.811"
   sodipodi:docname="born-logo-small-stencil-lasercut.svg"><metadata
     id="metadata8"><rdf:RDF><cc:Work
         rdf:about=""><dc:format>image/svg+xml</dc:format><dc:type
           rdf:resource="http://purl.org/dc/dcmitype/StillImage" /><dc:title></dc:title></cc:Work></rdf:RDF></metadata><defs
     id="defs6"><clipPath
       clipPathUnits="userSpaceOnUse"
       id="clipPath20"><path
         d="M 0,50 H 189.167 V 0 H 0 Z"
         id="path22"
         inkscape:connector-curvature="0" /></clipPath></defs><sodipodi:namedview
     pagecolor="#ffffff"
     bordercolor="#666666"
     borderopacity="1"
     objecttolerance="10"
     gridtolerance="10"
     guidetolerance="10"
     inkscape:pageopacity="0"
     inkscape:pageshadow="2"
     inkscape:window-width="1276"
     inkscape:window-height="761"
     id="namedview4"
     showgrid="false"
     inkscape:zoom="0.24596059"
     inkscape:cx="1246.3331"
     inkscape:cy="1216.2123"
     inkscape:window-x="0"
     inkscape:window-y="18"
     inkscape:window-maximized="0"
     inkscape:current-layer="g951"
     showguides="false"
     units="mm" /><g
     id="g10"
     inkscape:groupmode="layer"
     inkscape:label="logo-small-2017"
     transform="matrix(1.25,0,0,-1.25,0,1511.811)"><g
       id="g913"
       transform="matrix(8.6629098,0,0,8.6629098,-70.66219,11.146559)"><g
         id="g951"
         transform="matrix(0.79331769,0,0,0.80545764,3.9559171,96.071163)"
         style="stroke:#000000;stroke-opacity:1;stroke-width:0.0087327;stroke-miterlimit:4;stroke-dasharray:none"><g
           id="g970"><path
             style="color:#000000;font-style:normal;font-variant:normal;font-weight:normal;font-stretch:normal;font-size:medium;line-height:normal;font-family:sans-serif;font-variant-ligatures:normal;font-variant-position:normal;font-variant-caps:normal;font-variant-numeric:normal;font-variant-alternates:normal;font-feature-settings:normal;text-indent:0;text-align:start;text-decoration:none;text-decoration-line:none;text-decoration-style:solid;text-decoration-color:#000000;letter-spacing:normal;word-spacing:normal;text-transform:none;writing-mode:lr-tb;direction:ltr;text-orientation:mixed;dominant-baseline:auto;baseline-shift:baseline;text-anchor:start;white-space:normal;shape-padding:0;clip-rule:nonzero;display:inline;overflow:visible;visibility:visible;opacity:1;isolation:auto;mix-blend-mode:normal;color-interpolation:sRGB;color-interpolation-filters:linearRGB;solid-color:#000000;solid-opacity:1;vector-effect:none;fill:none;fill-opacity:1;fill-rule:nonzero;stroke:#000000;stroke-width:0.0087327;stroke-linecap:square;stroke-linejoin:miter;stroke-miterlimit:4;stroke-dasharray:none;stroke-dashoffset:0;stroke-opacity:1;color-rendering:auto;image-rendering:auto;shape-rendering:auto;text-rendering:auto;enable-background:accumulate"
             d="m 34.960938,48.878125 -3.421876,-1.884375 -0.384375,-3.35625 -2.334374,-5.276562 -0.928126,-4.907813 1.048438,-3.75625 -0.5,-3.33125 -0.07969,-1.289063 -0.767187,-1.920312 0.987499,-0.492188 0.06562,-0.582812 1.567187,-1.809375 h 0.757813 l 0.639062,-1.13125 1.53125,-1.004687 v 2.081249 L 32.92031,20.3625 31.990622,22.010938 h -0.981249 l -0.693751,0.801562 -0.109375,0.984375 -0.401562,0.201563 0.275,0.690624 0.09375,1.492188 0.54375,3.625 -1.039063,3.723437 0.814063,4.3125 2.360937,5.332813 0.3125,2.729688 0.05469,0.02812 V 45.8 l 2.3125,-1.479688 1.079688,-3.326562 1.70625,-0.61875 0.321874,0.157813 0.885938,-0.810938 0.732813,0.06718 0.759375,-1.601562 h 1.146874 l 0.631251,-0.284375 v 1.909375 l -0.256251,0.115625 h -0.418749 l -0.809375,1.703124 -1.178125,-0.106249 -1.2,1.1 -0.723438,-0.360938 -0.204688,0.07656 L 36.996875,45.45 34.960938,46.751562 V 47.40625 Z M 43.598438,39.45 v -1.909375 l 0.878124,-0.396875 0.626563,-0.876563 1.1,0.220313 1.085937,0.54375 1.0375,-2.504688 2.456251,-2.048437 0.915625,-0.08906 1.771875,-1.210937 v 2.10625 L 52.3125,34.075 l -0.825,0.08281 -1.715625,1.429687 -1.028125,2.484375 -1.0875,1.089063 -1.826563,-0.914063 -0.207812,0.290625 z M 54.270313,32.739062 V 30.63125 l 0.8875,-0.60625 2.717187,-1.10625 0.679687,0.203125 1.081251,-1.034375 -0.284376,-0.571875 0.03594,-0.05469 -0.717187,-0.646875 0.442187,-1.507813 -0.30625,-0.30625 0.778126,-1.884375 0.05313,-0.725 -0.935938,-1.101562 v -1.151563 l -0.954687,-0.871875 v -0.76875 l -0.879688,-1.075 0.395313,-1.315625 0.351562,-1.14375 0.025,-0.07344 -2.417187,-2.948437 -0.229688,-0.176563 -0.721875,0.445313 v -2.045313 l 0.8375,-0.5156246 1.335938,1.0390626 3.15,3.840625 -0.325,0.965625 -0.34375,1.11875 -0.126563,0.421875 0.6875,0.840625 v 0.621875 l 0.954687,0.870312 V 20.65 l 0.981251,1.15625 -0.123438,1.714063 -0.440625,1.070312 0.217188,0.215625 -0.426563,1.448437 1.021875,0.918751 -0.310937,0.467187 0.407812,0.81875 -2.742187,2.61875 -1.059376,-0.315625 -1.979687,0.804687 z M 33.942187,19.692187 V 17.610938 L 34.94375,16.953125 36.104687,17.4 l 2.334375,-1.335938 0.795313,0.114063 0.07813,-0.23125 3.484375,-1.267188 v 1.85 l -2.1,0.765626 -0.271875,0.809374 -1.640625,-0.234374 -2.534375,1.45 -1.098437,-0.421875 z M 43.598438,16.2375 v -2.00625 l 1.196875,-1.198437 0.707812,0.203125 1.7125,-1.165625 3.778125,-0.879688 0.834375,-0.464063 1.642188,-0.156249 v 1.748437 l -1.1125,0.10625 -0.731251,0.404687 -3.701562,0.860938 -2.114062,1.44375 -0.507813,-0.146875 -0.995312,0.992187 z"
             id="path26"
             inkscape:connector-curvature="0" /><g
             style="fill:none;stroke:#000000;stroke-width:0.0087327;stroke-miterlimit:4;stroke-dasharray:none;stroke-opacity:1"
             transform="translate(65.8247,18.8291)"
             id="g28"><path
               style="fill:none;fill-opacity:1;fill-rule:nonzero;stroke:#000000;stroke-width:0.01091588;stroke-miterlimit:4;stroke-dasharray:none;stroke-opacity:1"
               d="M 82.28125,9.3476562 V 38.962891 h 7.044922 V 35.669922 H 86.308594 V 25.158203 h 3.017578 V 21.865234 H 86.308594 V 9.3476562 Z m 17.316406,0 -3.53125,7.4785158 c -0.515,1.0975 -1.004297,1.983203 -1.466797,2.658203 -0.45,0.67375 -0.872031,1.16375 -1.269531,1.46875 -0.41,0.3175 -0.892266,0.548359 -1.447266,0.693359 -0.485544,0.129777 -1.007221,0.193197 -1.55664,0.207032 v 3.304687 h 0.365234 c 1.9175,0 3.346406,0.428359 4.285156,1.287109 0.463751,0.42375 0.813985,0.967657 1.052735,1.628907 0.2375,0.66 0.355469,1.420547 0.355469,2.279297 0,0.86 -0.124454,1.621953 -0.376954,2.283203 -0.2375,0.66 -0.608828,1.221093 -1.111328,1.683593 -0.47625,0.42375 -1.077187,0.756641 -1.804687,0.994141 -0.71375,0.23875 -1.567344,0.355469 -2.558594,0.355469 h -0.207031 v 3.292969 h 0.207031 c 3.2525,0 5.747266,-0.732422 7.478516,-2.201172 0.87375,-0.74 1.519609,-1.639766 1.943359,-2.697266 0.436252,-1.0575 0.654302,-2.256797 0.654302,-3.591797 0,-1.045 -0.13149,-1.962109 -0.39649,-2.755859 -0.264999,-0.78 -0.660703,-1.482266 -1.189452,-2.103516 -1.058751,-1.24375 -2.558204,-2.00375 -4.501954,-2.28125 0.52875,-0.1325 1.016797,-0.33 1.466797,-0.59375 0.45,-0.25125 0.839922,-0.548828 1.169922,-0.892578 0.37,-0.38375 0.766953,-0.927656 1.189453,-1.628906 0.43625,-0.6875 0.946094,-1.611641 1.527344,-2.775391 l 4.02734,-8.0937498 z"
               transform="matrix(0.8,0,0,-0.8,-65.8247,31.1709)"
               id="path30"
               inkscape:connector-curvature="0" /></g><g
             style="fill:none;stroke:#000000;stroke-width:0.0087327;stroke-miterlimit:4;stroke-dasharray:none;stroke-opacity:1"
             transform="translate(85.312,18.8291)"
             id="g32"><path
               inkscape:connector-curvature="0"
               id="path34"
               style="fill:none;fill-opacity:1;fill-rule:nonzero;stroke:#000000;stroke-width:0.0087327;stroke-miterlimit:4;stroke-dasharray:none;stroke-opacity:1"
               d="m 0,0 h 4.062 l 7.999,19.503 V 0 h 3.094 V 23.693 H 11.093 L 3.095,4.189 V 23.693 H 0 Z" /></g><g
             style="fill:none;stroke:#000000;stroke-width:0.0087327;stroke-miterlimit:4;stroke-dasharray:none;stroke-opacity:1"
             transform="translate(104.8311,18.8291)"
             id="g36"><path
               inkscape:connector-curvature="0"
               id="path38"
               style="fill:none;fill-opacity:1;fill-rule:nonzero;stroke:#000000;stroke-width:0.0087327;stroke-miterlimit:4;stroke-dasharray:none;stroke-opacity:1"
               d="m 0,0 h 3.222 v 9.712 h 8.775 V 0 h 3.222 V 23.693 H 11.997 V 12.41 H 3.222 V 23.693 H 0 Z" /></g><g
             style="fill:none;stroke:#000000;stroke-width:0.0087327;stroke-miterlimit:4;stroke-dasharray:none;stroke-opacity:1"
             transform="translate(153.5337,42.9824)"
             id="g40"><path
               inkscape:connector-curvature="0"
               id="path42"
               style="fill:none;fill-opacity:1;fill-rule:nonzero;stroke:#000000;stroke-width:0.0087327;stroke-miterlimit:4;stroke-dasharray:none;stroke-opacity:1"
               d="m 0,0 c -1.481,0 -2.819,-0.265 -4.015,-0.794 -1.185,-0.529 -2.2,-1.338 -3.047,-2.428 -0.835,-1.079 -1.465,-2.375 -1.888,-3.887 -0.413,-1.524 -0.619,-3.243 -0.619,-5.158 0,-1.915 0.206,-3.634 0.619,-5.157 0.423,-1.524 1.058,-2.83 1.904,-3.92 0.846,-1.09 1.862,-1.899 3.047,-2.428 1.185,-0.54 2.518,-0.81 3.999,-0.81 0.508,0 0.995,0.032 1.46,0.096 0.476,0.052 0.905,0.127 1.285,0.222 0.381,0.095 0.799,0.233 1.254,0.412 0.455,0.17 0.873,0.36 1.254,0.572 v 3.284 c -0.773,-0.645 -1.614,-1.137 -2.524,-1.475 -0.455,-0.17 -0.909,-0.297 -1.364,-0.381 -0.445,-0.085 -0.905,-0.127 -1.381,-0.127 -1.026,0 -1.931,0.201 -2.713,0.603 -0.773,0.402 -1.418,1.005 -1.937,1.809 -1.037,1.608 -1.555,4.036 -1.555,7.284 0,3.238 0.518,5.66 1.555,7.268 1.037,1.608 2.598,2.412 4.682,2.412 0.476,0 0.936,-0.042 1.38,-0.126 0.456,-0.085 0.91,-0.212 1.365,-0.381 0.878,-0.328 1.709,-0.821 2.492,-1.476 v 3.284 C 4.428,-0.868 3.592,-0.54 2.745,-0.317 2.333,-0.212 1.888,-0.132 1.412,-0.08 0.947,-0.026 0.476,0 0,0" /></g><g
             style="fill:none;stroke:#000000;stroke-width:0.0087327;stroke-miterlimit:4;stroke-dasharray:none;stroke-opacity:1"
             transform="translate(163.4834,18.8291)"
             id="g44"><path
               inkscape:connector-curvature="0"
               id="path46"
               style="fill:none;fill-opacity:1;fill-rule:nonzero;stroke:#000000;stroke-width:0.0087327;stroke-miterlimit:4;stroke-dasharray:none;stroke-opacity:1"
               d="M 0,0 H 3.222 V 10.537 L 13.235,0 h 3.761 l -9.22,9.681 9.49,14.012 H 13.394 L 5.666,11.823 3.222,14.425 v 9.268 H 0 Z" /></g><g
             style="fill:none;stroke:#000000;stroke-width:0.0087327;stroke-miterlimit:4;stroke-dasharray:none;stroke-opacity:1"
             transform="translate(9.251,42.5376)"
             id="g48"><path
               style="fill:none;fill-opacity:1;fill-rule:nonzero;stroke:#000000;stroke-width:0.01091588;stroke-miterlimit:4;stroke-dasharray:none;stroke-opacity:1"
               d="M 11.564453,9.328125 V 38.943359 H 18.9375 V 35.650391 H 15.589844 V 24.798828 H 18.9375 V 21.546875 H 15.589844 V 12.621094 H 18.9375 V 9.328125 Z m 8.375,0 v 3.292969 h 0.3125 c 1.95625,0 3.36461,0.328984 4.224609,0.990234 0.4225,0.33125 0.741876,0.768047 0.953126,1.310547 0.2125,0.52875 0.316406,1.190625 0.316406,1.984375 0,1.6 -0.430313,2.768516 -1.289063,3.509766 -0.43625,0.3825 -0.998047,0.668515 -1.685547,0.853515 -0.675,0.185 -1.515781,0.277344 -2.519531,0.277344 h -0.3125 v 3.251953 h 0.392578 c 2.20875,0 3.839688,0.44961 4.898438,1.34961 1.045,0.912499 1.568359,2.334375 1.568359,4.265624 0,1.863751 -0.495781,3.19961 -1.488281,4.00586 -1.005,0.82 -2.664766,1.230469 -4.978516,1.230469 h -0.392578 v 3.292968 h 0.392578 c 3.465,0 6.081016,-0.6875 7.853516,-2.0625 1.75875,-1.3625 2.638672,-3.379531 2.638672,-6.050781 0,-1.085 -0.138516,-2.063047 -0.416016,-2.935547 -0.2775,-0.8725 -0.687266,-1.646562 -1.228515,-2.320312 -1.09875,-1.35 -2.626485,-2.176719 -4.583985,-2.480469 0.88625,-0.1325 1.653985,-0.363359 2.302735,-0.693359 0.6475,-0.34375 1.181718,-0.767032 1.605468,-1.269532 0.41,-0.5025 0.728125,-1.103437 0.953125,-1.804687 0.225,-0.715 0.335938,-1.534688 0.335938,-2.460938 0,-2.4075 -0.818985,-4.265468 -2.458985,-5.574218 -1.65375,-1.3100004 -3.986953,-1.962891 -7.001953,-1.962891 z"
               transform="matrix(0.8,0,0,-0.8,-9.251,7.4624)"
               id="path50"
               inkscape:connector-curvature="0" /></g><g
             style="fill:none;stroke:#000000;stroke-width:0.0087327;stroke-miterlimit:4;stroke-dasharray:none;stroke-opacity:1"
             transform="translate(130.2544,42.5376)"
             id="g52"><path
               style="fill:none;fill-opacity:1;fill-rule:nonzero;stroke:#000000;stroke-width:0.01091588;stroke-miterlimit:4;stroke-dasharray:none;stroke-opacity:1"
               d="m 162.81836,9.328125 -9.06445,29.615234 h 4.14453 l 2.14258,-7.716797 h 4.62695 v -3.21289 h -3.6543 l 4.22461,-15.154297 4.22461,15.154297 h -3.79297 v 3.21289 h 4.7461 l 2.18164,7.716797 h 4.14453 L 167.67773,9.328125 Z"
               transform="matrix(0.8,0,0,-0.8,-130.2544,7.4624)"
               id="path54"
               inkscape:connector-curvature="0" /></g></g></g></g></g></svg>