<?xml version="1.0" encoding="UTF-8" standalone="no"?>
<svg
   xmlns:osb="http://www.openswatchbook.org/uri/2009/osb"
   xmlns:dc="http://purl.org/dc/elements/1.1/"
   xmlns:cc="http://creativecommons.org/ns#"
   xmlns:rdf="http://www.w3.org/1999/02/22-rdf-syntax-ns#"
   xmlns:svg="http://www.w3.org/2000/svg"
   xmlns="http://www.w3.org/2000/svg"
   xmlns:sodipodi="http://sodipodi.sourceforge.net/DTD/sodipodi-0.dtd"
   xmlns:inkscape="http://www.inkscape.org/namespaces/inkscape"
   viewBox="0 0 190 49.999998"
   height="53.333332"
   width="202.66667"
   version="1.1"
   id="svg3336"
   inkscape:version="0.92.1 r"
   sodipodi:docname="bornhack-logo-small.svg"
   inkscape:export-filename="/home/valberg/c/bornhack-website/src/static_src/img/bornhack-2016/logo/bornhack-2016-logo-small.png"
   inkscape:export-xdpi="180"
   inkscape:export-ydpi="180">
  <sodipodi:namedview
     pagecolor="#ffffff"
     bordercolor="#666666"
     borderopacity="1"
     objecttolerance="10"
     gridtolerance="10"
     guidetolerance="10"
     inkscape:pageopacity="0"
     inkscape:pageshadow="2"
     inkscape:window-width="1276"
     inkscape:window-height="761"
     id="namedview4341"
     showgrid="false"
     inkscape:zoom="2.3051681"
     inkscape:cx="66.444305"
     inkscape:cy="32.518874"
     inkscape:window-x="0"
     inkscape:window-y="18"
     inkscape:window-maximized="0"
     inkscape:current-layer="svg3336" />
  <metadata
     id="metadata3342">
    <rdf:RDF>
      <cc:Work
         rdf:about="">
        <dc:format>image/svg+xml</dc:format>
        <dc:type
           rdf:resource="http://purl.org/dc/dcmitype/StillImage" />
        <dc:title />
      </cc:Work>
    </rdf:RDF>
  </metadata>
  <defs
     id="defs3340">
    <linearGradient
       osb:paint="solid"
       id="linearGradient5690">
      <stop
         id="stop5692"
         offset="0"
         style="stop-color:#ffffff;stop-opacity:1;" />
    </linearGradient>
  </defs>
  <text
     id="text5110"
     y="-167.22212"
     x="-108.60311"
     style="font-style:normal;font-weight:normal;font-size:40px;line-height:0%;font-family:sans-serif;letter-spacing:0px;word-spacing:0px;fill:#000000;fill-opacity:1;stroke:none;stroke-width:1px;stroke-linecap:butt;stroke-linejoin:miter;stroke-opacity:1"
     xml:space="preserve"><tspan
       y="-167.22212"
       x="-108.60311"
       id="tspan5112" /></text>
  <path
     style="color:#000000;font-style:normal;font-variant:normal;font-weight:normal;font-stretch:normal;font-size:medium;line-height:normal;font-family:sans-serif;font-variant-ligatures:normal;font-variant-position:normal;font-variant-caps:normal;font-variant-numeric:normal;font-variant-alternates:normal;font-feature-settings:normal;text-indent:0;text-align:start;text-decoration:none;text-decoration-line:none;text-decoration-style:solid;text-decoration-color:#000000;letter-spacing:normal;word-spacing:normal;text-transform:none;writing-mode:lr-tb;direction:ltr;text-orientation:mixed;dominant-baseline:auto;baseline-shift:baseline;text-anchor:start;white-space:normal;shape-padding:0;clip-rule:nonzero;display:inline;overflow:visible;visibility:visible;opacity:1;isolation:auto;mix-blend-mode:normal;color-interpolation:sRGB;color-interpolation-filters:linearRGB;solid-color:#000000;solid-opacity:1;vector-effect:none;fill:#000000;fill-opacity:1;fill-rule:evenodd;stroke:none;stroke-width:1.85601532;stroke-linecap:square;stroke-linejoin:miter;stroke-miterlimit:3.79999995;stroke-dasharray:none;stroke-dashoffset:0;stroke-opacity:1;color-rendering:auto;image-rendering:auto;shape-rendering:auto;text-rendering:auto;enable-background:accumulate"
     d="M 37.291016 1.1953125 L 35.916016 1.9511719 L 33.642578 3.2050781 L 33.230469 6.7871094 L 30.742188 12.414062 L 29.751953 17.650391 L 30.275391 19.521484 L 32.199219 19.511719 L 31.65625 17.566406 L 32.525391 12.96875 L 35.042969 7.2792969 L 35.375 4.3691406 L 35.435547 4.3359375 L 35.435547 4.4785156 L 37.902344 6.0585938 L 39.052734 9.6054688 L 40.875 10.269531 L 41.216797 10.097656 L 42.160156 10.962891 L 42.945312 10.892578 L 43.753906 12.599609 L 44.976562 12.599609 L 47.441406 13.712891 L 48.107422 14.648438 L 49.283203 14.412109 L 50.443359 13.833984 L 51.550781 16.503906 L 54.169922 18.689453 L 55.146484 18.787109 L 57.744141 20.560547 L 57.746094 18.316406 L 55.800781 16.988281 L 54.919922 16.898438 L 53.089844 15.373047 L 51.994141 12.722656 L 50.833984 11.5625 L 48.882812 12.537109 L 48.662109 12.226562 L 45.375 10.744141 L 44.929688 10.744141 L 44.066406 8.9277344 L 42.810547 9.0390625 L 41.529297 7.8671875 L 40.757812 8.2519531 L 40.539062 8.1699219 L 39.462891 4.8535156 L 37.291016 3.4648438 L 37.291016 1.1953125 z M 58.746094 18.998047 L 58.742188 21.242188 L 58.835938 21.306641 L 61.732422 22.488281 L 62.458984 22.271484 L 63.613281 23.373047 L 63.308594 23.982422 L 63.345703 24.041016 L 62.582031 24.730469 L 63.054688 26.339844 L 62.728516 26.666016 L 63.173828 27.748047 L 65.173828 27.736328 L 64.914062 27.103516 L 65.146484 26.873047 L 64.691406 25.330078 L 65.78125 24.347656 L 65.449219 23.849609 L 65.884766 22.976562 L 62.958984 20.181641 L 61.826172 20.521484 L 59.71875 19.662109 L 58.746094 18.998047 z M 32.476562 20.509766 L 30.552734 20.519531 L 30.871094 21.65625 L 30.337891 25.210938 L 30.251953 26.585938 L 29.433594 28.630859 L 30.488281 29.158203 L 30.556641 29.779297 L 32.228516 31.708984 L 33.037109 31.708984 L 33.716797 32.916016 L 37.273438 35.25 L 38.511719 34.773438 L 39.728516 35.46875 L 39.732422 33.333984 L 38.667969 32.724609 L 37.496094 33.177734 L 35.115234 31.613281 L 34.123047 29.851562 L 33.076172 29.851562 L 32.337891 29 L 32.220703 27.949219 L 31.791016 27.736328 L 32.085938 26.998047 L 32.185547 25.40625 L 32.763672 21.539062 L 32.476562 20.509766 z M 65.419922 28.734375 L 63.560547 28.746094 L 63.611328 29.449219 L 62.615234 30.626953 L 62.615234 31.853516 L 61.595703 32.78125 L 61.595703 33.603516 L 60.658203 34.75 L 61.080078 36.152344 L 61.455078 37.373047 L 61.480469 37.451172 L 58.902344 40.59375 L 58.658203 40.785156 L 57.816406 40.267578 L 55.847656 40.080078 L 55.068359 39.646484 L 52.990234 39.164062 L 52.988281 41.070312 L 54.394531 41.396484 L 55.285156 41.888672 L 57.210938 42.072266 L 58.78125 43.039062 L 60.207031 41.931641 L 63.564453 37.837891 L 63.220703 36.806641 L 62.853516 35.613281 L 62.71875 35.160156 L 63.451172 34.267578 L 63.451172 33.603516 L 64.470703 32.675781 L 64.470703 31.306641 L 65.517578 30.070312 L 65.419922 28.734375 z M 40.730469 33.904297 L 40.728516 36.041016 L 41.003906 36.197266 L 41.849609 36.076172 L 41.933594 36.322266 L 46.242188 37.892578 L 47.78125 39.429688 L 48.537109 39.214844 L 50.363281 40.458984 L 51.988281 40.837891 L 51.990234 38.931641 L 51.121094 38.728516 L 48.865234 37.189453 L 48.322266 37.345703 L 47.263672 36.287109 L 43.410156 34.884766 L 43.121094 34.021484 L 41.371094 34.271484 L 40.730469 33.904297 z "
     transform="scale(0.93749998)"
     id="path3346-1-8-4-4" />
  <g
     id="flowRoot3420"
     style="font-style:normal;font-variant:normal;font-weight:normal;font-stretch:normal;font-size:32.5px;line-height:125%;font-family:Sans;-inkscape-font-specification:Hack;letter-spacing:0px;word-spacing:0px;fill:#000000;fill-opacity:1;stroke:none;stroke-width:1px;stroke-linecap:butt;stroke-linejoin:miter;stroke-opacity:1"
     transform="matrix(1,0,0,-1,495.87595,176.21222)">
    <path
       style="font-style:normal;font-variant:normal;font-weight:normal;font-stretch:normal;font-size:32.5px;font-family:Hack;-inkscape-font-specification:Hack;stroke-width:1.06666672px"
       d="M 70.212891 7.9765625 L 70.212891 33.248047 L 76.275391 33.248047 L 76.277344 30.439453 L 73.650391 30.439453 L 73.650391 21.466797 L 76.287109 21.466797 L 76.291016 18.658203 L 73.650391 18.658203 L 73.650391 7.9765625 L 70.212891 7.9765625 z M 84.990234 7.9765625 L 81.978516 14.357422 C 81.538409 15.294055 81.119575 16.05143 80.724609 16.626953 C 80.340929 17.202477 79.981117 17.619358 79.642578 17.878906 C 79.292747 18.14974 78.880206 18.346572 78.40625 18.470703 C 78.056033 18.564663 77.680025 18.611927 77.291016 18.634766 L 77.287109 21.466797 L 77.390625 21.466797 C 79.026913 21.466797 80.245666 21.834848 81.046875 22.568359 C 81.44184 22.929469 81.74023 23.39084 81.943359 23.955078 C 82.146481 24.519309 82.248047 25.168833 82.248047 25.902344 C 82.248047 26.635848 82.142141 27.285371 81.927734 27.849609 C 81.724613 28.413848 81.407337 28.892144 80.978516 29.287109 C 80.572265 29.648219 80.060111 29.931644 79.439453 30.134766 C 78.835632 30.336042 78.113832 30.435664 77.277344 30.4375 L 77.275391 33.248047 C 80.0416 33.245028 82.161997 32.618723 83.636719 31.369141 C 84.381515 30.737198 84.933813 29.971136 85.294922 29.068359 C 85.667317 28.165582 85.853516 27.143668 85.853516 26.003906 C 85.853516 25.112415 85.741317 24.327475 85.515625 23.650391 C 85.289925 22.984592 84.951385 22.387804 84.5 21.857422 C 83.597223 20.796657 82.317062 20.147134 80.658203 19.910156 C 81.109595 19.79731 81.526476 19.628036 81.910156 19.402344 C 82.293836 19.18793 82.626084 18.934022 82.908203 18.640625 C 83.224178 18.313365 83.562719 17.85004 83.923828 17.251953 C 84.296223 16.665144 84.731989 15.875865 85.228516 14.882812 L 88.664062 7.9765625 L 84.990234 7.9765625 z "
       transform="matrix(0.93749998,0,0,-0.93749998,-495.87595,176.21222)"
       id="path3581" />
    <path
       id="path3583"
       style="font-style:normal;font-variant:normal;font-weight:normal;font-stretch:normal;font-size:32.5px;font-family:Hack;-inkscape-font-specification:Hack"
       d="m -410.56372,145.04156 h 4.0625 l 7.99805,19.50318 v -19.50318 h 3.09448 v 23.69263 h -4.0625 l -7.99805,-19.50317 v 19.50317 h -3.09448 z"
       inkscape:connector-curvature="0" />
    <path
       id="path3585"
       style="font-style:normal;font-variant:normal;font-weight:normal;font-stretch:normal;font-size:32.5px;font-family:Hack;-inkscape-font-specification:Hack"
       d="m -391.04468,145.04156 h 3.22144 v 9.71192 h 8.77563 v -9.71192 h 3.22144 v 23.69263 h -3.22144 v -11.28296 h -8.77563 v 11.28296 h -3.22144 z"
       inkscape:connector-curvature="0" />
    <path
       id="path3587"
       style="font-style:normal;font-variant:normal;font-weight:normal;font-stretch:normal;font-size:32.5px;font-family:Hack;-inkscape-font-specification:Hack"
       d="m -342.34229,169.1944 q -2.22167,0 -4.01489,-0.79346 -1.77734,-0.79346 -3.04687,-2.42798 -1.25366,-1.61865 -1.88843,-3.88794 -0.6189,-2.28515 -0.6189,-5.15747 0,-2.87231 0.6189,-5.15747 0.63477,-2.28516 1.9043,-3.91968 1.26953,-1.63452 3.04687,-2.42798 1.77735,-0.80932 3.99902,-0.80932 0.76172,0 1.45997,0.0952 0.71411,0.0793 1.2854,0.22217 0.57129,0.14282 1.25366,0.4126 0.68237,0.2539 1.25366,0.57129 v 3.28491 q -1.15845,-0.96802 -2.52319,-1.47583 -0.68238,-0.25391 -1.36475,-0.38086 -0.6665,-0.12695 -1.38061,-0.12695 -1.53931,0 -2.71363,0.60302 -1.15844,0.60303 -1.93603,1.80909 -1.55518,2.41211 -1.55518,7.28393 0,4.85596 1.55518,7.26807 1.55517,2.41211 4.68139,2.41211 0.71412,0 1.38062,-0.12696 0.68237,-0.12695 1.36475,-0.38085 1.31713,-0.49195 2.49145,-1.47584 v 3.28492 q -1.23779,0.65063 -2.50732,0.98388 -0.6189,0.1587 -1.33301,0.23804 -0.69824,0.0794 -1.41236,0.0794 z"
       inkscape:connector-curvature="0" />
    <path
       id="path3589"
       style="font-style:normal;font-variant:normal;font-weight:normal;font-stretch:normal;font-size:32.5px;font-family:Hack;-inkscape-font-specification:Hack"
       d="m -332.39233,145.04156 h 3.22143 v 10.53711 l 10.01343,-10.53711 h 3.76099 l -9.21998,9.68018 9.48975,14.01245 h -3.87207 l -7.72827,-11.87012 -2.44385,2.60254 v 9.26758 h -3.22143 z"
       inkscape:connector-curvature="0" />
  </g>
  <path
     inkscape:connector-curvature="0"
     id="path3592"
     d="M 9.2504881,7.4615477 V 31.155395 h 6.0827639 l 0.0019,-2.634888 h -2.86377 v -8.68103 h 2.872925 l 0.0037,-2.601928 h -2.876588 v -7.141114 h 2.883911 l 0.0037,-2.6348873 z m 7.0458979,0 -0.0037,2.6385503 c 1.514981,0.01084 2.615302,0.271283 3.288574,0.789184 0.33854,0.264486 0.592446,0.61361 0.761719,1.047363 0.169267,0.42318 0.254516,0.952758 0.254516,1.587524 0,1.280107 -0.345054,2.216392 -1.032714,2.808838 -0.34912,0.306807 -0.797523,0.53487 -1.347656,0.682984 -0.519048,0.142478 -1.167957,0.212481 -1.931763,0.217895 l -0.0037,2.607422 c 1.757798,0.0024 3.058449,0.361487 3.901977,1.078491 0.83578,0.72998 1.254273,1.866662 1.254273,3.411255 0,1.4917 -0.396726,2.56083 -1.190187,3.206177 -0.802895,0.654992 -2.127919,0.982349 -3.975219,0.983276 l -0.0019,2.634888 c 2.768995,-7.49e-4 4.862005,-0.552101 6.278686,-1.651612 1.40706,-1.089679 2.109375,-2.70243 2.109375,-4.839477 0,-0.867513 -0.111086,-1.651003 -0.333251,-2.349243 -0.222167,-0.69824 -0.549517,-1.317136 -0.983277,-1.856689 -0.878093,-1.0791 -2.100018,-1.739706 -3.665772,-1.983033 0.708821,-0.105793 1.321817,-0.290323 1.84021,-0.55481 0.518394,-0.275066 0.94686,-0.614215 1.285401,-1.016234 0.327967,-0.402014 0.581872,-0.883989 0.761719,-1.444703 0.179853,-0.571286 0.270995,-1.225992 0.270995,-1.966552 0,-1.92546 -0.65653,-3.413089 -1.968383,-4.4604494 C 20.549878,7.9898588 18.693025,7.46616 16.296386,7.4615477 Z"
     style="font-style:normal;font-variant:normal;font-weight:normal;font-stretch:normal;font-size:medium;line-height:125%;font-family:Hack;-inkscape-font-specification:Hack;letter-spacing:0px;word-spacing:0px;fill:#000000;fill-opacity:1;stroke:none;stroke-width:1px;stroke-linecap:butt;stroke-linejoin:miter;stroke-opacity:1" />
  <g
     id="text3538"
     style="font-style:normal;font-variant:normal;font-weight:normal;font-stretch:normal;font-size:32.5px;line-height:125%;font-family:Hack;-inkscape-font-specification:Hack;letter-spacing:0px;word-spacing:0px;fill:#000000;fill-opacity:1;stroke:none;stroke-width:1px;stroke-linecap:butt;stroke-linejoin:miter;stroke-opacity:1"
     transform="translate(495.87595,-197.59527)">
    <path
       style="stroke-width:1.06666672px"
       d="M 138.9375 7.9589844 L 131.20312 33.232422 L 134.74023 33.232422 L 136.56836 26.646484 L 140.37891 26.646484 L 140.38281 23.904297 L 137.39844 23.904297 L 141.00391 10.972656 L 144.60938 23.904297 L 141.38281 23.904297 L 141.37891 26.646484 L 145.42188 26.646484 L 147.2832 33.232422 L 150.82031 33.232422 L 143.08594 7.9589844 L 138.9375 7.9589844 z "
       transform="matrix(0.93749998,0,0,0.93749998,-495.87595,197.59527)"
       id="path3622" />
  </g>
  <g
     id="text3542"
     style="font-style:normal;font-weight:normal;font-size:40px;line-height:125%;font-family:Sans;letter-spacing:0px;word-spacing:0px;fill:#000000;fill-opacity:1;stroke:none;stroke-width:1px;stroke-linecap:butt;stroke-linejoin:miter;stroke-opacity:1"
     transform="translate(495.87595,-197.59527)" />
</svg>
