<?xml version="1.0" encoding="UTF-8" standalone="no"?>
<svg
   xmlns:dc="http://purl.org/dc/elements/1.1/"
   xmlns:cc="http://creativecommons.org/ns#"
   xmlns:rdf="http://www.w3.org/1999/02/22-rdf-syntax-ns#"
   xmlns:svg="http://www.w3.org/2000/svg"
   xmlns="http://www.w3.org/2000/svg"
   xmlns:xlink="http://www.w3.org/1999/xlink"
   id="svg256"
   version="1.1"
   viewBox="0 0 171 40"
   height="40px"
   width="171px">
  <metadata
     id="metadata260">
    <rdf:RDF>
      <cc:Work
         rdf:about="">
        <dc:format>image/svg+xml</dc:format>
        <dc:type
           rdf:resource="http://purl.org/dc/dcmitype/StillImage" />
        <dc:title>logo-small</dc:title>
      </cc:Work>
    </rdf:RDF>
  </metadata>
  <!-- Generator: Sketch 43.1 (39012) - http://www.bohemiancoding.com/sketch -->
  <title
     id="title222">logo-small</title>
  <desc
     id="desc224">Created with Sketch.</desc>
  <defs
     id="defs227">
    <polygon
       points="0 41 171 41 171 0 0 0"
       id="path-1" />
    <mask
       fill="white"
       id="mask-2">
      <use
         height="100%"
         width="100%"
         y="0"
         x="0"
         id="use229"
         xlink:href="#path-1" />
    </mask>
  </defs>
  <g
     style="fill:none;fill-opacity:0;fill-rule:evenodd;stroke:none;stroke-width:1;stroke-linecap:square"
     transform="matrix(1,0,0,-1,18.957865,38.988163)"
     id="g24">
    <polygon
       style="fill:none;fill-opacity:0;stroke:#000000;stroke-width:2.17499995"
       points="17.703858,26.759249 19.257961,27.537804 19.776326,27.018767 20.812063,24.511082 22.884531,22.781952 23.748473,22.695446 27.289641,20.274267 29.621292,19.322699 30.485234,19.582218 32.384913,17.766582 32.039336,17.074533 32.212124,16.815014 31.348183,16.036458 31.780154,14.566847 31.520971,14.307329 32.12573,12.837718 32.212124,11.626631 31.261788,10.503045 31.261788,9.2919582 30.312445,8.4268963 30.312445,7.7348467 29.534897,6.784273 29.79408,5.919211 30.139657,4.7956249 30.312445,4.2765877 27.548824,0.90384056 26.771276,0.29829721 25.649145,0.99034675 23.834867,1.1633591 23.058312,1.5958901 19.344355,2.460952 17.444676,3.7575506 16.839916,3.5845382 15.630398,4.7956249 11.831039,6.1787296 11.658251,6.6977668 10.448732,6.5247544 8.0306878,7.9088535 6.9085563,7.4763225 4.1449352,9.2919582 3.3673874,10.675063 2.5034455,10.675063 1.3813141,11.972656 1.2949199,12.751212 0.60376631,13.096242 1.1221315,14.393835 1.2085257,15.77694 1.7268908,19.236193 0.69016051,22.953971 1.5541024,27.537804 3.8857526,32.812694 4.2313294,35.838422 5.9582202,36.78999 5.9582202,35.666404 8.117082,34.282304 9.1538123,31.08257 10.103155,30.737539 10.621521,30.996064 11.658251,30.04549 12.607594,30.131996 13.385142,28.488378 14.162689,28.488378 16.839916,27.278286 17.271887,26.672742 "
       id="path26" />
  </g>
  <g
     style="fill:#0eff00;fill-opacity:1;fill-rule:evenodd;stroke:none;stroke-width:1"
     transform="matrix(1,0,0,-1,56.429012,30.613171)"
     id="g28" />
  <g
     style="fill:#00000b;fill-opacity:1"
     id="g1396">
    <path
       transform="matrix(1,0,0,-1,56.429012,30.613171)"
       d="m 0,0 h 6.5560283 c 2.5838815,0 4.5649897,0.58366821 5.9403457,1.751999 0.694133,0.5886398 1.208526,1.3045531 1.545165,2.1457513 0.34657,0.8411981 0.519358,1.7937605 0.519358,2.8556986 0,0.8312549 -0.104269,1.5620831 -0.314792,2.1934789 -0.210524,0.6204582 -0.525317,1.1782742 -0.945371,1.6724532 -0.841102,0.989352 -2.032747,1.593901 -3.5769186,1.814641 0.4200546,0.105399 0.8083316,0.263496 1.1658246,0.473298 0.357494,0.19986 0.667321,0.436509 0.929483,0.709948 0.293939,0.305257 0.609724,0.736794 0.945371,1.29461 0.34657,0.546878 0.751729,1.282678 1.213491,2.208393 l 3.198571,6.438249 H 13.75753 L 10.952202,17.609479 C 10.543071,16.736462 10.1538,16.031487 9.7863767,15.494552 9.4288835,14.958611 9.0932371,14.56983 8.7774514,14.327215 8.4517353,14.074657 8.0684232,13.890707 7.6275149,13.775365 7.1965369,13.660024 6.7347749,13.601359 6.2402426,13.601359 H 3.1995642 V 23.55852 H 0 Z m 6.6821439,10.982309 c 1.5233183,0 2.6573663,-0.342047 3.4031371,-1.025148 0.368416,-0.3370759 0.646467,-0.7686125 0.836137,-1.2946099 0.188677,-0.5250031 0.283015,-1.1305465 0.283015,-1.8136471 0,-0.6840949 -0.0993,-1.2896383 -0.299897,-1.8156357 C 10.715859,4.5082652 10.42192,4.0608194 10.022719,3.6929195 9.6443724,3.3558437 9.1667218,3.0923478 8.5887744,2.9034262 8.0217505,2.7135103 7.3435064,2.6200439 6.5560283,2.6200439 H 3.1995642 v 8.3622651 z"
       id="path30"
       style="fill:#00000b;fill-opacity:1;fill-rule:nonzero;stroke:none;stroke-width:1" />
    <g
       id="g32"
       transform="matrix(1,0,0,-1,75.780617,30.613171)"
       style="fill:#00000b;fill-opacity:1;fill-rule:evenodd;stroke:none;stroke-width:1">
      <polygon
         id="path34"
         points="11.977016,19.392302 11.977016,0 15.049471,0 15.049471,23.55852 11.015756,23.55852 3.0734486,4.1652234 3.0734486,23.55852 0,23.55852 0,0 4.0337151,0 "
         style="fill:#00000b;fill-opacity:1;fill-rule:nonzero" />
    </g>
    <g
       id="g36"
       transform="matrix(1,0,0,-1,95.163799,30.613171)"
       style="fill:#00000b;fill-opacity:1;fill-rule:evenodd;stroke:none;stroke-width:1">
      <polygon
         id="path38"
         points="0,0 3.1995642,0 3.1995642,9.6568751 11.913461,9.6568751 11.913461,0 15.113025,0 15.113025,23.55852 11.913461,23.55852 11.913461,12.339561 3.1995642,12.339561 3.1995642,23.55852 0,23.55852 "
         style="fill:#00000b;fill-opacity:1;fill-rule:nonzero" />
    </g>
    <g
       id="g40"
       transform="matrix(1,0,0,-1,133.5969,31.455065)"
       style="fill:#00000b;fill-opacity:1;fill-rule:evenodd;stroke:none;stroke-width:1">
      <path
         d="m 9.930367,24.858101 c -1.4706874,0 -2.7993705,-0.263496 -3.9870424,-0.789493 C 4.7665761,23.54261 3.7586439,22.738202 2.9175418,21.654389 2.0883562,20.581513 1.4627431,19.292869 1.0426885,17.789451 0.63256438,16.274102 0.42799882,14.564859 0.42799882,12.660728 c 0,-1.90413 0.20456556,-3.6133735 0.61468968,-5.127729 C 1.4627431,6.0176491 2.0933214,4.7190619 2.9334304,3.6352487 3.7735395,2.5514355 4.7824647,1.7470273 5.9592132,1.2210299 7.1359617,0.68409494 8.4596796,0.41562745 9.930367,0.41562745 c 0.504463,0 0.988072,0.0318184 1.449834,0.0954551 0.472685,0.0517049 0.898698,0.12627915 1.276052,0.22073994 0.378347,0.0944608 0.793436,0.2316775 1.245268,0.40966151 0.451831,0.1690351 0.866921,0.3579567 1.245268,0.5687534 V 4.9755975 C 14.379171,4.3342585 13.544028,3.8450511 12.640364,3.5089696 12.188532,3.3399345 11.737694,3.2136553 11.285862,3.1301321 10.843961,3.0456145 10.387164,3.0038529 9.9144784,3.0038529 c -1.0188557,0 -1.9175539,0.1998592 -2.6941086,0.5995774 -0.7676173,0.3997183 -1.408126,0.9992957 -1.9235121,1.7987322 -1.029779,1.5988731 -1.544172,4.0130919 -1.544172,7.2426565 0,3.219621 0.514393,5.627874 1.544172,7.226747 1.0297791,1.598873 2.5799094,2.39831 4.6493979,2.39831 0.4726854,0 0.9294824,-0.04176 1.3703904,-0.125285 0.452825,-0.08452 0.903664,-0.210797 1.355495,-0.378838 0.871887,-0.326138 1.6971,-0.81634 2.474648,-1.467622 v 3.26536 c -0.819256,0.431537 -1.649434,0.757675 -2.490536,0.979409 -0.409131,0.104404 -0.851033,0.18395 -1.323718,0.235655 -0.461762,0.05369 -0.929483,0.07955 -1.402168,0.07955"
         id="path42"
         style="fill:#00000b;fill-opacity:1;fill-rule:nonzero" />
    </g>
    <g
       id="g44"
       transform="matrix(1,0,0,-1,153.40769,30.613171)"
       style="fill:#00000b;fill-opacity:1;fill-rule:evenodd;stroke:none;stroke-width:1">
      <polygon
         id="path46"
         points="0,0 3.1999279,0 3.1999279,10.477192 13.144335,0 16.87957,0 7.7227311,9.6260511 17.14772,23.55852 13.302245,23.55852 5.6271855,11.755893 3.1999279,14.343124 3.1999279,23.55852 0,23.55852 "
         style="fill:#00000b;fill-opacity:1;fill-rule:nonzero" />
    </g>
    <g
       id="g48"
       transform="matrix(1,0,0,-1,0.249252,30.903016)"
       style="fill:#00000b;fill-opacity:1;fill-rule:evenodd;stroke:none;stroke-width:1">
      <path
         d="m 0,23.863777 h 6.9651594 c 2.3952045,0 4.2492036,-0.520031 5.5629916,-1.562083 1.302864,-1.041057 1.953303,-2.518623 1.953303,-4.433691 0,-0.736794 -0.08838,-1.388076 -0.267127,-1.95683 -0.178746,-0.557815 -0.430978,-1.036085 -0.756694,-1.435804 -0.336639,-0.399718 -0.761659,-0.736794 -1.276052,-1.010233 -0.515386,-0.262501 -1.124117,-0.446451 -1.82818,-0.55185 1.555095,-0.24162 2.767593,-0.898869 3.640472,-1.972739 0.429985,-0.53594 0.756694,-1.1514268 0.977148,-1.845465 0.220454,-0.6940381 0.330681,-1.4725939 0.330681,-2.3356671 0,-2.1248705 -0.699097,-3.7287152 -2.0963,-4.8125284 C 11.797276,0.85313003 9.7178571,0.30625181 6.9651594,0.30625181 H 0 Z M 6.9025981,14.14426 c 0.7974085,0 1.4647291,0.07358 2.0009689,0.22074 0.5461702,0.147159 0.9930367,0.373865 1.339606,0.678129 0.682217,0.589634 1.023821,1.520321 1.023821,2.793056 0,0.631395 -0.08342,1.157393 -0.252231,1.577992 -0.167823,0.431537 -0.420055,0.778556 -0.755701,1.042052 -0.6832091,0.525997 -1.8023615,0.788499 -3.3564639,0.788499 H 3.1985712 V 14.14426 Z M 6.9651594,2.9253013 c 1.8381109,0 3.1568636,0.3261383 3.9552656,0.9784149 0.788471,0.641339 1.182706,1.7042714 1.182706,3.1868086 0,1.5362306 -0.415089,2.6667771 -1.245268,3.3926332 -0.841102,0.715914 -2.1380077,1.07387 -3.8927036,1.07387 H 3.1985712 V 2.9253013 Z"
         id="path50"
         style="fill:#00000b;fill-opacity:1;fill-rule:nonzero" />
    </g>
    <g
       id="g52"
       transform="matrix(1,0,0,-1,112.46577,30.903016)"
       style="fill:#00000b;fill-opacity:1;fill-rule:evenodd;stroke:none;stroke-width:1">
      <path
         d="M 7.9442936,23.863777 H 11.80522 L 19.006722,0.30625181 H 15.71282 L 13.979971,6.4442141 H 5.737766 L 4.0357011,0.30625181 H 0.74279145 Z M 13.223277,8.9996269 9.8668126,21.054812 6.5103486,8.9996269 Z"
         id="path54"
         style="fill:#00000b;fill-opacity:1;fill-rule:nonzero" />
    </g>
  </g>
</svg>
